<svg width="97" height="96" viewBox="0 0 97 96" fill="none" xmlns="http://www.w3.org/2000/svg">
<g id="Group 2202">
<g id="Group 2201">
<path id="Path" d="M91.4601 40.4881C91.4128 40.476 91.3633 40.476 91.316 40.4881C91.2458 40.5007 91.1863 40.5007 91.1845 40.4881C91.1827 40.4755 91.1629 40.4755 91.1395 40.4881C91.1161 40.5007 91.0872 40.4881 91.0782 40.4881C91.0692 40.4881 91.008 40.4647 91.0332 40.4989C91.0584 40.5331 91.044 40.5187 91.0332 40.5097C91.0203 40.4996 91.0109 40.4858 91.0062 40.4701C91.0062 40.4431 90.99 40.4431 90.9413 40.4701C90.9144 40.4791 90.8853 40.4791 90.8585 40.4701C90.8208 40.4649 90.7826 40.4649 90.745 40.4701C90.7063 40.4723 90.6675 40.4692 90.6297 40.4611C90.5954 40.4557 90.5602 40.4627 90.5306 40.4809C90.4928 40.5061 90.4766 40.5079 90.4748 40.4809C90.473 40.4539 90.4622 40.4665 90.4424 40.4809C90.4225 40.4953 90.4063 40.5043 90.3937 40.4899C90.3004 40.4672 90.2019 40.4807 90.1181 40.5277C90.1181 40.5457 90.1073 40.5421 90.1019 40.5277C90.0965 40.5133 90.0785 40.4917 90.019 40.5061C89.9844 40.5168 89.9474 40.5168 89.9128 40.5061C89.8923 40.4931 89.8652 40.4987 89.8515 40.5187C89.8299 40.5403 89.8173 40.5421 89.8029 40.5187C89.7885 40.4953 89.756 40.5043 89.7164 40.5187C89.6831 40.5334 89.6452 40.5334 89.6119 40.5187C89.5903 40.5061 89.5741 40.5043 89.5759 40.5187C89.5777 40.5331 89.5615 40.5187 89.5399 40.5187C89.5183 40.5187 89.4985 40.5043 89.4912 40.5349C89.484 40.5655 89.4732 40.5674 89.448 40.5529C89.4013 40.5393 89.3523 40.535 89.3039 40.5403C89.2609 40.5474 89.2168 40.5431 89.176 40.5277C89.1522 40.5105 89.1242 40.4999 89.095 40.4971C89.0391 40.4971 89.0373 40.4971 89.0751 40.5223C89.113 40.5475 89.113 40.5565 89.0589 40.5385C89.0049 40.5205 89.0067 40.5061 89.0139 40.4917C89.0211 40.4773 89.0139 40.4737 88.9797 40.4917C88.935 40.5044 88.8871 40.4972 88.8482 40.4719C88.7131 40.4088 88.6951 40.38 88.6572 40.1729C88.6446 40.1116 88.6284 40.0612 88.6194 40.063C88.6104 40.0648 88.6032 40.0378 88.6014 40.0035C88.598 39.9632 88.5883 39.9237 88.5726 39.8864C88.5544 39.8356 88.5506 39.7808 88.5618 39.7279C88.5762 39.6379 88.5744 39.6253 88.5383 39.618C88.5023 39.6108 88.5059 39.6036 88.5221 39.5838C88.5317 39.5665 88.5317 39.5454 88.5221 39.528C88.5113 39.5118 88.5221 39.4974 88.5221 39.4956C88.5221 39.4938 88.5383 39.4577 88.5221 39.4163C88.5059 39.3749 88.5113 39.3334 88.5221 39.3244C88.525 39.2377 88.5045 39.1519 88.4627 39.0758C88.4556 39.0682 88.4556 39.0564 88.4627 39.0488C88.4676 38.9879 88.4603 38.9267 88.4411 38.8687C88.4237 38.8153 88.417 38.759 88.4212 38.703C88.4393 38.703 88.4213 38.6525 88.3528 38.4976C88.3294 38.4472 88.3186 38.4021 88.3294 38.3931C88.3381 38.3841 88.3381 38.3698 88.3294 38.3607C88.3248 38.357 88.3222 38.3513 88.3222 38.3454C88.3222 38.3395 88.3248 38.3339 88.3294 38.3301C88.3363 38.2883 88.332 38.2454 88.3168 38.2058C88.3006 38.1482 88.297 38.0977 88.3168 38.0941C88.3366 38.0905 88.3168 37.986 88.2916 37.977C88.2844 37.976 88.2771 37.9779 88.2713 37.9823C88.2656 37.9867 88.2618 37.9933 88.2609 38.0005C88.2609 38.0239 88.2609 38.0239 88.2483 38.0005C88.245 37.9818 88.2536 37.9631 88.2699 37.9536C88.2934 37.9392 88.2934 37.923 88.2699 37.8852C88.2535 37.8656 88.2451 37.8405 88.2465 37.8149C88.259 37.7604 88.259 37.7037 88.2465 37.6492V37.6096V37.5951L88.2267 37.5069C88.2015 37.388 88.1619 37.2709 88.1276 37.1466C88.0592 36.9088 87.9907 36.6657 87.9187 36.4261C87.8827 36.3018 87.8484 36.1775 87.8124 36.0514L87.7566 35.8713L87.6899 35.6911C86.9111 33.3686 85.7884 31.176 84.3592 29.1865C82.738 26.924 80.5026 24.6418 77.561 22.5684C74.6194 20.4951 70.9663 18.6469 66.6413 17.2545C63.567 16.272 60.4121 15.5625 57.2131 15.1343C55.6352 14.9254 54.0608 14.774 52.4991 14.6912C52.11 14.6714 51.7191 14.6606 51.33 14.6444L50.7482 14.6227H50.1663C49.7808 14.6227 49.3935 14.6101 49.0099 14.6227L47.857 14.6516C41.7325 14.8155 35.916 15.9773 30.829 17.9804C28.3809 18.954 26.032 20.1605 23.8146 21.5831C23.5498 21.7632 23.285 21.9271 23.0238 22.1001C22.8923 22.1865 22.759 22.2676 22.6329 22.3577L22.2583 22.6279L20.7848 23.7285L19.4103 24.8939L19.0717 25.1804C18.9636 25.2794 18.8591 25.3839 18.7529 25.4848C18.5421 25.6883 18.3331 25.8919 18.1242 26.0918C15.104 28.9325 12.7036 32.3669 11.0738 36.1793L10.591 37.4402C10.5018 37.6624 10.4242 37.8891 10.3586 38.1193L10.1371 38.8399C9.96955 39.3262 9.86687 39.8612 9.72817 40.4304C9.58947 40.9997 9.5012 41.6229 9.38231 42.2966C9.31567 42.6317 9.29585 42.9883 9.25982 43.3576C9.24361 43.5378 9.2256 43.7305 9.20759 43.9214C9.18957 44.1124 9.16255 44.3105 9.16615 44.5123C9.16615 44.9158 9.14994 45.3337 9.14274 45.7732C9.13566 45.9967 9.14107 46.2204 9.15895 46.4433C9.17216 46.6703 9.18477 46.9026 9.19678 47.1404C9.34787 49.3976 9.82414 51.6212 10.6108 53.7423L10.8918 54.5133L11.2395 55.3149C11.3692 55.5887 11.5133 55.8697 11.6556 56.1615C11.7979 56.4533 11.9798 56.7307 12.16 57.0333L12.4392 57.4855L12.5815 57.7178L12.7382 57.9466L13.057 58.415C13.1669 58.5717 13.2876 58.7248 13.4047 58.8833C13.6335 59.2058 13.9019 59.512 14.1649 59.838C14.3 59.9983 14.4441 60.1533 14.5864 60.3136L14.8007 60.5568L15.0313 60.7909C15.672 61.4627 16.3569 62.0909 17.0812 62.6715C17.8714 63.3118 18.7057 63.8956 19.5779 64.4188C21.5498 65.6142 23.6912 66.5045 25.9294 67.0596C27.1706 67.3646 28.4365 67.5581 29.7122 67.6378C29.8761 67.6378 30.04 67.6612 30.2057 67.6648L30.7047 67.6738C30.8704 67.6738 31.038 67.6828 31.2073 67.6738L31.6198 67.663H31.8684L32.1278 67.645C32.3079 67.6306 32.47 67.6252 32.6519 67.6036L33.1923 67.5279L34.2966 67.3748C35.0459 67.2631 35.8421 67.1226 36.6131 66.9965L37.7335 66.8056L38.2973 66.7101C38.3352 66.6975 38.2973 66.7263 38.2973 66.7407L38.2667 66.7912C38.2469 66.8254 38.2163 66.8668 38.1911 66.9047L38.0325 67.1352C37.611 67.7549 37.1853 68.3787 36.7554 69.0068C36.3213 69.6499 35.8673 70.302 35.4674 70.9378C35.2639 71.2585 35.0477 71.5827 34.8514 71.9034C34.7577 72.0655 34.6568 72.2258 34.5686 72.3861L34.3308 72.8166C33.5958 74.146 32.9636 75.6087 32.216 77.1813L32.0737 77.4749L31.9656 77.6928L31.926 77.7721C31.899 77.8243 31.8702 77.8766 31.8395 77.9306C31.7801 78.0351 31.7153 78.1396 31.6432 78.2423L31.6162 78.2819L31.6036 78.3017V78.3107H31.6144L31.7026 78.2801C31.7621 78.2621 31.8215 78.2404 31.8828 78.2188C32.0053 78.172 32.117 78.127 32.243 78.0657L32.4232 77.9829L32.9456 77.7055C33.1437 77.6046 33.3383 77.4911 33.5328 77.3812C33.7273 77.2713 33.9237 77.1578 34.1164 77.039C34.8946 76.5706 35.6656 76.059 36.4384 75.5078C37.2111 74.9566 37.9911 74.3766 38.7801 73.7767L39.3727 73.3228L39.6699 73.094L39.7456 73.0364L39.8375 72.9697L40.0176 72.8365C40.2626 72.6563 40.5256 72.5014 40.785 72.3411C41.0444 72.1808 41.3254 72.0475 41.592 71.9304C42.0688 71.7129 42.5599 71.5281 43.0619 71.3774C43.5492 71.2309 44.0441 71.1107 44.5444 71.0171C45.5096 70.8449 46.4861 70.7432 47.4661 70.7127C49.3809 70.6388 51.2363 70.7523 53.0395 70.8586C54.8426 70.9649 56.6025 71.0819 58.2417 70.9505C59.9784 70.8193 61.7051 70.5787 63.4115 70.2299C66.8241 69.5344 70.1324 68.4004 73.254 66.856C76.3558 65.3336 79.1955 63.327 81.6663 60.9116C82.7618 59.8355 83.7589 58.6636 84.6457 57.4098L84.8024 57.1937L84.9483 56.9739C85.0438 56.8262 85.1392 56.6821 85.2329 56.5398C85.3266 56.3975 85.413 56.2552 85.5121 56.1165L85.7589 55.6914C85.9192 55.4103 86.0885 55.151 86.2272 54.8753L86.6289 54.0954C87.2159 52.9168 87.6981 51.689 88.07 50.4261C88.0844 50.3756 88.1168 50.2765 88.1619 50.1324C88.2069 49.9883 88.2483 49.7974 88.3078 49.5668C88.3672 49.3362 88.4357 49.0696 88.5131 48.7688C88.5906 48.468 88.641 48.1221 88.7131 47.7547C88.7851 47.3872 88.8392 46.9837 88.8932 46.5604C88.922 46.3496 88.9581 46.1299 88.9833 45.9083C89.0085 45.6867 89.0301 45.4598 89.0481 45.2274C89.0841 44.7645 89.1076 44.2817 89.1148 43.7863V43.2982C89.1148 43.2351 89.1148 42.9379 89.1148 42.6263C89.1173 42.437 89.1046 42.2479 89.0769 42.0607C89.0661 42.0607 89.0643 42.0282 89.0769 42.0012C89.0848 41.976 89.0848 41.949 89.0769 41.9238C89.0707 41.9025 89.0754 41.8796 89.0895 41.8625C89.1049 41.8429 89.1049 41.8154 89.0895 41.7959C89.0648 41.7014 89.0648 41.6021 89.0895 41.5076C89.0914 41.4668 89.0859 41.4259 89.0733 41.387C89.0553 41.3311 89.0589 41.3041 89.0877 41.2717C89.1096 41.2393 89.1203 41.2008 89.1184 41.1618C89.1184 41.0609 89.3183 40.8285 89.4012 40.8466C89.4359 40.8454 89.4686 40.8297 89.4912 40.8033C89.5219 40.7763 89.5579 40.7565 89.5705 40.7637C89.5831 40.7709 89.5957 40.7637 89.5939 40.7511C89.5921 40.7385 89.6282 40.7277 89.693 40.7295C89.8352 40.735 89.9773 40.7186 90.1145 40.6808C90.1363 40.6686 90.1629 40.6686 90.1848 40.6808C90.2611 40.6897 90.3384 40.6861 90.4135 40.67C90.4944 40.6558 90.5764 40.6497 90.6585 40.652C90.6901 40.6584 90.7229 40.6546 90.7522 40.6412C90.7831 40.6268 90.8179 40.623 90.8513 40.6304C90.9652 40.6393 91.0796 40.6393 91.1935 40.6304C91.3036 40.6193 91.4144 40.6157 91.525 40.6196C91.5505 40.6259 91.5775 40.6192 91.597 40.6016C91.6951 40.5547 91.8042 40.536 91.9122 40.5475L92.0365 40.5601C92.2527 40.5782 92.3265 40.6736 92.3734 41.0303C92.3762 41.0795 92.3897 41.1274 92.413 41.1708C92.4256 41.1708 92.4274 41.232 92.413 41.2969C92.4046 41.3758 92.4095 41.4556 92.4274 41.5329C92.441 41.5821 92.4459 41.6333 92.4418 41.6842C92.4292 41.7184 92.4634 42.3921 92.4887 42.6407C92.5011 42.7104 92.5011 42.7817 92.4887 42.8514C92.4779 42.8514 92.4887 42.8785 92.4887 42.8929C92.4887 42.9073 92.5139 42.9487 92.4887 43.1883V43.2621V43.2982V43.3306C92.4929 44.3042 92.4417 45.2773 92.3356 46.2452C92.1049 48.3037 91.6519 50.3312 90.9846 52.2922C90.9089 52.548 90.8044 52.793 90.7089 53.0452C90.6135 53.2974 90.518 53.546 90.4207 53.7963C90.2136 54.2917 89.9848 54.7799 89.7669 55.2716C89.5201 55.7508 89.2787 56.2336 89.0211 56.7127L88.6248 57.3936C88.4861 57.6242 88.3582 57.862 88.2069 58.0817C87.079 59.8466 85.7682 61.4877 84.2962 62.9777C82.9524 64.3414 81.494 65.5871 79.937 66.7011C78.6261 67.6464 77.2535 68.5027 75.8281 69.2644L75.3652 69.5148L74.9131 69.7418L74.0628 70.1651C73.5224 70.4155 73.0199 70.6442 72.5803 70.8352C71.0195 71.5068 69.4194 72.0831 67.7888 72.5608C67.0935 72.777 66.4216 72.9409 65.7497 73.1175C65.411 73.2003 65.0706 73.2724 64.7247 73.3516L64.2005 73.4687L63.6601 73.5732C61.9312 73.9158 60.1831 74.1528 58.4254 74.2829C57.1975 74.3588 55.966 74.3588 54.7381 74.2829C53.4069 74.2235 51.9568 74.1028 50.3609 74.0451C48.8395 73.9597 47.3136 74.0049 45.7999 74.1802C44.4129 74.3604 43.2276 74.7459 42.3575 75.261C42.2513 75.3295 42.1396 75.3889 42.0423 75.4592L41.7487 75.6681L41.0516 76.2085C40.6048 76.549 40.2013 76.8588 39.8375 77.1272C39.4736 77.3956 39.1638 77.628 38.9062 77.8135C38.6486 77.9991 38.4522 78.1432 38.3189 78.2368C37.0106 79.1797 35.6396 80.0325 34.2155 80.7893L34.0498 80.8776L33.9669 80.9208L33.8264 80.9875L33.2356 81.2757L32.6393 81.5603C32.4358 81.6558 32.2088 81.7404 31.9927 81.8359L31.328 82.1133L30.9911 82.2538L30.6615 82.3745C30.2219 82.5348 29.7608 82.7078 29.3195 82.8627L26.5851 83.7759L25.1296 84.2641L24.3766 84.5145L23.7714 84.6946L23.6201 84.7415L23.5444 84.7667C23.5336 84.7667 23.5318 84.7667 23.5444 84.7577L23.5624 84.7325L23.5966 84.682L23.8722 84.2785L24.4487 83.4319L25.6556 81.6612L26.2662 80.7605L26.5742 80.3084L26.7274 80.0832L26.8661 79.8671L27.4227 79.0024L27.7019 78.5683C27.7505 78.4944 27.792 78.4242 27.8298 78.3539L27.9469 78.145C28.2513 77.5884 28.5881 77.0246 28.8637 76.4589L29.1357 75.9077C29.2042 75.7654 29.2708 75.6213 29.3393 75.4772C29.6167 74.8828 29.8959 74.2823 30.1769 73.6759C30.4705 73.0544 30.7714 72.4149 31.1082 71.7827C31.1929 71.6224 31.2703 71.462 31.3604 71.3035L31.4577 71.1234L31.4829 71.0819C31.4991 71.0531 31.5171 71.0261 31.5369 70.9973C31.5567 70.9685 31.5369 70.9973 31.5261 70.9973H31.5009H31.4505H31.4018H31.3658H31.1983C31.1046 70.9973 31.0181 70.9973 30.9137 70.9973C30.1553 70.9973 29.3969 70.9595 28.6458 70.8838C27.16 70.7368 25.6903 70.4577 24.2541 70.0498C21.5411 69.2761 18.9706 68.0699 16.6417 66.4777C14.62 65.1149 12.807 63.4656 11.2593 61.5817C10.6153 60.794 10.0255 59.9635 9.494 59.0959C9.04845 58.3755 8.64313 57.631 8.2799 56.8658C8.18623 56.6731 8.09976 56.4731 8.0151 56.2732C7.93044 56.0732 7.83497 55.8715 7.75931 55.6661C7.6104 55.2554 7.45729 54.8351 7.29997 54.4052C7.22432 54.1908 7.13605 53.9801 7.0712 53.7567C7.00635 53.5334 6.94511 53.31 6.88026 53.083C6.81541 52.8561 6.75057 52.6291 6.68572 52.3985C6.62087 52.1679 6.54701 51.9374 6.50558 51.6978L6.21557 50.2477C6.16371 50.0007 6.12463 49.7512 6.09848 49.5002C6.06606 49.248 6.03363 48.994 5.99941 48.7382C5.96518 48.4824 5.93096 48.2248 5.90754 47.9636C5.88412 47.7024 5.87872 47.4412 5.86431 47.1764C5.84089 46.6487 5.78865 46.1137 5.81567 45.5715C5.81567 45.3013 5.81567 45.0311 5.83008 44.7555C5.83008 44.6185 5.83008 44.4798 5.83909 44.3429V44.1358L5.8571 43.9304C5.90754 43.3792 5.95978 42.8226 6.01022 42.2606C6.09488 41.7022 6.19035 41.1402 6.28402 40.5746C6.32185 40.2881 6.40111 40.0107 6.46415 39.7279L6.6641 38.8795C7.26422 36.5545 8.14177 34.3102 9.27784 32.1948C10.4607 29.9902 11.8925 27.9286 13.5452 26.0504L14.8205 24.6472C14.925 24.5265 15.0385 24.4166 15.1538 24.3067L15.496 23.9771L16.1842 23.3124C16.4147 23.0944 16.6381 22.8656 16.8777 22.6531L17.609 22.0316L18.3422 21.4102L18.7024 21.1003C18.8285 21.0013 18.9582 20.9076 19.0879 20.8103C23.1736 17.6797 27.7801 15.2953 32.6952 13.7671C35.0749 13.0067 37.508 12.425 39.9744 12.027C42.344 11.635 44.7362 11.3943 47.1365 11.3065C51.5076 11.1381 55.8842 11.44 60.1908 12.2071C60.6825 12.3008 61.1725 12.3747 61.6498 12.4828L63.0621 12.7836C63.9844 13.0105 64.8814 13.2195 65.7371 13.4717C66.5927 13.7239 67.4159 13.9779 68.2067 14.2246L69.3559 14.6299L69.9125 14.8263L70.4529 15.037C72.7136 15.9065 74.8998 16.9583 76.99 18.1822L77.7105 18.6091C77.9807 18.764 78.2617 18.9694 78.577 19.1657L79.0633 19.4881C79.2327 19.598 79.4074 19.7115 79.5803 19.8484L80.6935 20.659C82.5274 22.0577 84.2089 23.6457 85.7102 25.3965C87.5373 27.5504 89.0293 29.9673 90.1361 32.5658C90.2118 32.746 90.2856 32.9063 90.3595 33.0774L90.5522 33.6016C90.6723 33.9535 90.7996 34.3053 90.9341 34.6572C91.0584 35.0174 91.1485 35.3777 91.2566 35.738L91.4133 36.2784L91.4907 36.5504C91.5055 36.5952 91.5175 36.641 91.5268 36.6873L91.5466 36.7809L91.5628 36.8494C91.5861 36.9679 91.6174 37.0846 91.6564 37.1989C91.6711 37.2199 91.6826 37.243 91.6907 37.2673C91.7088 37.3288 91.7395 37.3858 91.7807 37.4348C91.815 37.4763 91.815 37.4835 91.7807 37.4907C91.7465 37.4979 91.7501 37.5051 91.7807 37.5267C91.8371 37.6082 91.8608 37.7078 91.8474 37.8059C91.8374 37.8346 91.8407 37.8663 91.8564 37.8924C91.8935 37.9297 91.9073 37.9842 91.8924 38.0347C91.8924 38.0725 91.8924 38.0833 91.914 38.0779C91.9357 38.0725 91.9483 38.2166 91.914 38.258C91.9048 38.2787 91.9048 38.3023 91.914 38.3229C91.9275 38.3679 91.9342 38.4146 91.9339 38.4616C91.9313 38.5051 91.94 38.5485 91.9591 38.5877C91.9807 38.6147 91.9825 38.6345 91.9591 38.6507C91.9442 38.6702 91.9377 38.6949 91.9411 38.7192C91.9411 38.7786 92.0059 39.0002 92.0185 39.0326C92.0366 39.1217 92.0323 39.214 92.0059 39.301C91.9915 39.3154 91.9969 39.337 92.0221 39.3731C92.0473 39.4091 92.0527 39.4307 92.0221 39.4577C91.9915 39.4848 92.0095 39.6108 92.0636 39.818C92.078 39.8648 92.0762 39.8937 92.0636 39.8937C92.0509 39.8937 92.0401 39.9189 92.0437 39.9531C92.0636 40.1332 91.9681 40.3602 91.8852 40.3368C91.8587 40.334 91.8328 40.3466 91.8186 40.3692C91.8024 40.3926 91.7789 40.4052 91.7645 40.398C91.7501 40.3908 91.7447 40.398 91.7483 40.4286C91.7519 40.4593 91.7483 40.4629 91.7177 40.4449C91.6533 40.4313 91.5863 40.4494 91.5376 40.4935C91.5361 40.5149 91.5175 40.531 91.4961 40.5295C91.4747 40.528 91.4586 40.5095 91.4601 40.4881Z" fill="black"/>
<circle id="Oval" cx="46.7978" cy="47.6971" r="10.4549" fill="url(#paint0_linear_2808_30842)"/>
<path id="Path_2" d="M35.716 39.9209C35.8433 39.8917 35.9607 39.8295 36.0565 39.7407C36.2114 39.6308 36.3519 39.5606 36.3681 39.5876C36.3843 39.6146 36.4348 39.5876 36.478 39.5354C36.5212 39.4831 36.5897 39.4525 36.6275 39.4705C36.7284 39.5174 36.8184 39.4435 36.723 39.3949C36.6743 39.3696 36.6725 39.3588 36.723 39.366C36.7649 39.3725 36.8031 39.3936 36.831 39.4255C36.8707 39.4867 36.9013 39.4723 36.9878 39.3516C37.0331 39.294 37.0966 39.2534 37.1679 39.2363C37.2667 39.2119 37.3619 39.1744 37.4507 39.1247C37.5419 39.0776 37.6388 39.0425 37.7389 39.0202C37.8272 38.9929 37.9027 38.9347 37.9515 38.8563C38.0163 38.7536 38.0506 38.7302 38.0794 38.7716C38.1082 38.813 38.1262 38.7968 38.1496 38.7212C38.173 38.6455 38.2055 38.6203 38.2541 38.6419C38.355 38.6905 38.89 38.3267 38.8702 38.224C38.8594 38.1754 38.8792 38.1772 38.917 38.224C38.9548 38.2708 39.0143 38.2834 39.1386 38.179C39.2102 38.1135 39.3 38.0714 39.3961 38.0583C39.4664 38.0583 39.5078 38.0367 39.5312 37.9592C39.5547 37.8817 39.5853 37.8583 39.6393 37.8853C39.6934 37.9124 39.7654 37.8655 39.8447 37.7845C39.9083 37.7117 39.9985 37.6676 40.0951 37.662C40.1599 37.662 40.2013 37.662 40.1887 37.6368C40.1761 37.6115 40.2158 37.6043 40.2842 37.6115C40.3527 37.6187 40.3995 37.6115 40.3797 37.5179C40.3599 37.4242 40.3797 37.4116 40.4625 37.4206C40.5912 37.4043 40.7145 37.3587 40.8228 37.2873C40.9189 37.22 41.0317 37.1807 41.1488 37.1738C41.2248 37.1904 41.3039 37.1861 41.3776 37.1612C41.5235 37.118 41.5235 37.1126 41.3938 37.0729C41.2641 37.0333 41.2641 37.0279 41.4154 37.0135C41.5037 37.0135 41.5776 37.0351 41.5776 37.0783C41.5776 37.1216 41.61 37.118 41.6658 37.0495C41.7575 36.9663 41.8824 36.9298 42.0045 36.9505C42.408 36.9631 42.4836 37.0153 42.8277 37.5053C42.9304 37.653 43.0312 37.7647 43.0511 37.7502C43.0709 37.7358 43.1231 37.7971 43.1663 37.8817C43.2225 37.9819 43.2942 38.0725 43.3789 38.1501C43.4834 38.2617 43.5578 38.3981 43.5951 38.5464C43.6689 38.795 43.6905 38.8256 43.7752 38.8058C43.8599 38.786 43.8761 38.8058 43.8617 38.8761C43.8508 38.9321 43.8715 38.9895 43.9157 39.0256C43.9571 39.0562 43.9679 39.0958 43.9373 39.1157C43.9067 39.1355 43.9373 39.2291 44.0202 39.3264C44.103 39.4237 44.1427 39.5282 44.1283 39.5606C44.1138 39.593 44.4597 40.092 44.5642 40.1406C44.5906 40.1549 44.6009 40.1876 44.5876 40.2145C44.6412 40.3766 44.7222 40.5283 44.8272 40.663C44.9278 40.788 45.0036 40.9311 45.0505 41.0845C45.0109 41.1115 45.0992 41.2196 45.4396 41.5619C45.5513 41.6754 45.6198 41.7816 45.6035 41.8159C45.5891 41.8482 45.6026 41.8862 45.6342 41.9023C45.6657 41.9184 45.6792 41.9564 45.6648 41.9888C45.6486 42.0212 45.7206 42.1689 45.8215 42.3022C45.9224 42.4355 45.9872 42.5706 45.962 42.5886C45.9008 42.6283 46.0629 42.875 46.1421 42.8732C46.18 42.8732 46.2034 42.8336 46.1926 42.7886C46.1818 42.7435 46.1926 42.7165 46.225 42.7688C46.2538 42.8118 46.2538 42.868 46.225 42.9111C46.1818 42.9723 46.1998 43.0137 46.3043 43.0912C46.3763 43.1452 46.4394 43.2191 46.4394 43.2569C46.463 43.4121 46.5202 43.5602 46.6069 43.691L46.6609 43.7919C46.6753 43.8153 46.6609 43.8081 46.715 43.882C46.769 43.9558 46.787 43.9991 46.8267 44.0621L46.8843 44.1558L46.8951 44.172V44.19L46.9113 44.2332C46.9365 44.2945 46.9726 44.3756 47.0248 44.4872L47.1455 44.7376C47.2015 44.7044 47.2545 44.6664 47.304 44.6241L47.6174 44.372C47.6293 44.3609 47.642 44.3506 47.6553 44.3413L47.9255 44.0531L48.5577 43.383L50.0853 41.751L54.5183 36.9955L58.2759 32.9659C58.8686 32.3354 59.3729 31.7734 59.3964 31.7194C59.4678 31.6176 59.5461 31.5207 59.6305 31.4294L59.8575 31.1718L60.0647 30.943C60.1889 30.8115 60.7852 30.1828 61.3778 29.5506C61.7586 29.169 62.1159 28.7648 62.4478 28.3401C62.4388 28.3095 62.4911 28.2536 62.5631 28.2158C62.6306 28.1832 62.6879 28.1327 62.7288 28.0699C62.7609 28.0183 62.8145 27.9839 62.8747 27.9762C62.9458 27.9681 63.0034 27.9149 63.017 27.8447C63.0405 27.7438 63.253 27.5475 63.6205 27.2881C63.7078 27.2137 63.7815 27.1247 63.8385 27.0251C63.9231 26.8846 63.988 26.845 64.1087 26.8324C64.218 26.8167 64.3189 26.7647 64.3951 26.6847C64.5878 26.4721 65.4488 26.4577 65.5533 26.6648C65.6197 26.7288 65.708 26.7649 65.8001 26.7657C65.9118 26.7657 66.0127 26.8125 66.0253 26.8522C66.0379 26.8918 66.0649 26.9008 66.0901 26.8738C66.1153 26.8468 66.1964 26.9008 66.3045 27.0341C66.5585 27.3439 67.007 27.7546 67.1439 27.7943C67.2099 27.8101 67.2614 27.8616 67.2772 27.9276C67.3919 28.0968 67.5337 28.2459 67.6969 28.3689C67.8693 28.5065 68.0268 28.6616 68.1671 28.8318C68.2097 28.9034 68.2723 28.961 68.3472 28.9976C68.4283 29.0366 68.4956 29.0994 68.5399 29.1777C68.728 29.4175 68.9352 29.6416 69.1596 29.8478C69.3768 30.0471 69.5791 30.262 69.7648 30.4909C69.7975 30.5531 69.8589 30.595 69.9288 30.6026C70.0531 30.6026 70.4584 30.9376 70.5935 31.143C70.6421 31.2168 70.7304 31.3393 70.7862 31.4132C71.1465 31.8725 71.0798 32.1697 70.5052 32.8542C70.4203 32.9402 70.3583 33.0461 70.3251 33.1622C70.3251 33.2001 70.2404 33.2955 70.1053 33.3874C69.9447 33.5023 69.8067 33.6458 69.6982 33.8107C69.6342 33.92 69.5513 34.017 69.4532 34.0971C69.3595 34.1242 68.2211 35.3581 67.8428 35.8426C67.6753 36.057 67.5114 36.2263 67.4825 36.2191C67.4537 36.2119 67.4195 36.2497 67.4141 36.302C67.4141 36.3956 67.3637 36.4425 66.9079 36.8298C66.8701 36.8658 66.8233 36.9054 66.7728 36.9505C66.7224 36.9955 66.7206 36.9973 66.6936 37.0243L66.454 37.2729L65.4128 38.3663C64.7085 39.1103 64.0402 39.829 63.7286 40.1802C63.0657 40.9278 62.9846 41.0125 61.8156 42.2158C61.2229 42.8228 60.6537 43.419 60.5546 43.5379C59.7692 44.4386 56.7808 47.7026 55.8045 48.7258L54.8498 49.7327L54.295 50.3182C53.9455 50.6964 53.5853 51.0849 53.2142 51.4836L48.3668 56.7147L46.0251 59.2528C45.9998 59.3032 45.9836 59.2384 45.9638 59.2185L45.908 59.1303L45.7945 58.9501L45.5711 58.6043L45.1244 57.9342L44.3084 56.6733L42.0027 53.1246L39.0395 48.6213C38.8758 48.364 38.6953 48.1179 38.4991 47.8846C38.4434 47.85 38.3935 47.8069 38.3514 47.7567C38.2551 47.629 38.1322 47.5239 37.9911 47.4486C37.8686 47.3838 37.8614 47.364 37.9353 47.3153C38.0091 47.2667 37.9983 47.2523 37.9173 47.2271C37.7731 47.182 37.53 46.8254 37.512 46.6326C37.5103 46.5564 37.4754 46.4847 37.4165 46.4363C37.2939 46.3833 37.2107 46.2668 37.2003 46.1337C37.2003 46.0364 37.1715 46.0166 37.1139 46.0544C37.0562 46.0922 36.9085 45.7608 36.9553 45.6311C36.9661 45.6005 36.9337 45.532 36.8833 45.4798C36.8096 45.3886 36.7517 45.2857 36.7122 45.1753C36.6774 45.0685 36.6107 44.9749 36.5212 44.9069C36.4456 44.8673 36.4203 44.8241 36.4456 44.77C36.4649 44.709 36.4549 44.6426 36.4185 44.5899C36.2627 44.3681 36.0931 44.1563 35.9106 43.9558C35.8187 43.8766 35.6314 43.3938 35.6656 43.3218C35.6998 43.2497 35.653 43.2263 35.5557 43.1723C35.4584 43.1182 35.4188 43.075 35.4494 42.9921C35.48 42.9093 35.3233 42.6319 34.9847 42.2248C34.9036 42.1311 34.8784 42.0608 34.918 42.0446C34.9577 42.0284 34.9451 41.9582 34.9018 41.8825C34.6712 41.4934 34.6604 40.8521 34.882 40.8017C34.9459 40.7753 34.992 40.7184 35.0045 40.6504C35.0207 40.5765 35.0621 40.5171 35.1 40.5171C35.1378 40.5171 35.1414 40.4757 35.1108 40.427C35.0802 40.3784 35.0765 40.3424 35.1612 40.3514C35.2783 40.364 35.5611 40.1262 35.5593 40.0163C35.5546 39.9771 35.5733 39.9388 35.607 39.9182C35.6407 39.8977 35.6833 39.8987 35.716 39.9209Z" fill="black"/>
</g>
</g>
<defs>
<linearGradient id="paint0_linear_2808_30842" x1="107.984" y1="65.1602" x2="62.7613" y2="-6.94004" gradientUnits="userSpaceOnUse">
<stop stop-color="#FFD4B6"/>
<stop offset="0.5" stop-color="#FFB8B6"/>
<stop offset="1" stop-color="#822E5F"/>
</linearGradient>
</defs>
</svg>
