<svg width="20" height="20" viewBox="0 0 20 20" fill="none" xmlns="http://www.w3.org/2000/svg">
<g id="Icon" clip-path="url(#clip0_754_602)">
<path id="Subtract" fill-rule="evenodd" clip-rule="evenodd" d="M10 19.1667C15.0627 19.1667 19.1667 15.0626 19.1667 9.99999C19.1667 4.93738 15.0627 0.833328 10 0.833328C4.93743 0.833328 0.833374 4.93738 0.833374 9.99999C0.833374 15.0626 4.93743 19.1667 10 19.1667ZM8.20715 6.79289C7.81662 6.40236 7.18346 6.40236 6.79293 6.79289C6.40241 7.18341 6.40241 7.81658 6.79293 8.2071L8.58583 10L6.79293 11.7929C6.40241 12.1834 6.40241 12.8166 6.79293 13.2071C7.18346 13.5976 7.81662 13.5976 8.20715 13.2071L10 11.4142L11.7929 13.2071C12.1835 13.5976 12.8166 13.5976 13.2071 13.2071C13.5977 12.8166 13.5977 12.1834 13.2071 11.7929L11.4143 10L13.2071 8.2071C13.5977 7.81658 13.5977 7.18341 13.2071 6.79289C12.8166 6.40236 12.1835 6.40236 11.7929 6.79289L10 8.58578L8.20715 6.79289Z" fill="white" fill-opacity="0.5"/>
</g>
<defs>
<clipPath id="clip0_754_602">
<rect width="20" height="20" fill="white"/>
</clipPath>
</defs>
</svg>
