<svg width="20" height="20" viewBox="0 0 20 20" fill="none" xmlns="http://www.w3.org/2000/svg">
<g id="Icon" clip-path="url(#clip0_754_666)">
<path id="Subtract" fill-rule="evenodd" clip-rule="evenodd" d="M10 19.1667C15.0627 19.1667 19.1667 15.0626 19.1667 9.99999C19.1667 4.93738 15.0627 0.833328 10 0.833328C4.93743 0.833328 0.833374 4.93738 0.833374 9.99999C0.833374 15.0626 4.93743 19.1667 10 19.1667ZM11 4.99999C11 4.44771 10.5523 3.99999 10 3.99999C9.44776 3.99999 9.00004 4.44771 9.00004 4.99999V10C9.00004 10.3788 9.21404 10.725 9.55283 10.8944L12.8862 12.5611C13.3801 12.8081 13.9808 12.6079 14.2278 12.1139C14.4748 11.6199 14.2746 11.0192 13.7806 10.7722L11 9.38196V4.99999Z" fill="white" fill-opacity="0.3"/>
</g>
<defs>
<clipPath id="clip0_754_666">
<rect width="20" height="20" fill="white"/>
</clipPath>
</defs>
</svg>
