<svg width="103" height="32" viewBox="0 0 103 32" fill="none" xmlns="http://www.w3.org/2000/svg">
<path fill-rule="evenodd" clip-rule="evenodd" d="M15.7669 12.5396C15.7669 13.7469 15.4878 14.876 14.9293 15.9272C14.3709 16.9783 13.6072 17.8076 12.6382 18.4154C11.6774 19.0229 10.6099 19.3269 9.43554 19.3269C7.70281 19.3269 6.18771 18.6618 4.89022 17.3313V22.4803H7.41539V24.7468H0V22.4803H2.34041V8.27766H0.172448V5.9988H4.89022V8.06827C5.53076 7.31272 6.23699 6.75015 7.0089 6.38078C7.78083 6.01121 8.60613 5.82642 9.48482 5.82642C10.7084 5.82642 11.7965 6.13019 12.7491 6.73796C13.7017 7.33731 14.4407 8.15047 14.9663 9.1768C15.5001 10.2033 15.7669 11.3242 15.7669 12.5396ZM9.39858 16.9987C10.1048 16.9987 10.7413 16.7935 11.3079 16.3829C11.8745 15.9724 12.318 15.4138 12.6382 14.7076C12.9585 14.0015 13.1186 13.2541 13.1186 12.4658C13.1186 11.6692 12.942 10.9383 12.5889 10.2731C12.2358 9.59977 11.7513 9.06601 11.1354 8.67183C10.5195 8.26946 9.82561 8.06827 9.05369 8.06827C8.24892 8.06827 7.52627 8.28186 6.88573 8.70883C6.24519 9.1276 5.74838 9.68596 5.39527 10.3841C5.04215 11.0821 4.86558 11.8498 4.86558 12.6876C4.86558 14.0343 5.28851 15.0894 6.13434 15.8532C6.98838 16.6169 8.07647 16.9987 9.39858 16.9987ZM30.8445 13.1185H19.9924C20.1484 14.3587 20.629 15.34 21.4338 16.0625C22.2385 16.7771 23.2238 17.1343 24.39 17.1343C25.2441 17.1343 26.0365 16.9577 26.7674 16.6045C27.4982 16.2515 28.1101 15.7096 28.6027 14.9786L30.8445 15.9888C30.1384 17.0891 29.2104 17.9226 28.0607 18.4892C26.9194 19.0478 25.6753 19.3269 24.3284 19.3269C22.9325 19.3269 21.6923 19.0353 20.6084 18.4522C19.5245 17.8692 18.6785 17.0563 18.071 16.0134C17.4714 14.9704 17.1716 13.7961 17.1716 12.4904C17.1716 11.1929 17.4674 10.0227 18.0586 8.97981C18.6581 7.93688 19.4751 7.12394 20.5098 6.54077C21.5445 5.94962 22.6861 5.65403 23.9342 5.65403C25.2975 5.65403 26.484 5.95781 27.4942 6.56557C28.5125 7.16493 29.313 8.02728 29.8962 9.1522C30.4792 10.2691 30.7953 11.5912 30.8445 13.1185ZM23.9836 7.77269C23.0226 7.77269 22.1809 8.09707 21.4584 8.74583C20.7356 9.38618 20.2716 10.2361 20.0664 11.2957H28.1717C27.9335 10.2361 27.4284 9.38618 26.6566 8.74583C25.8847 8.09707 24.9935 7.77269 23.9836 7.77269ZM36.9794 13.7469V16.6785H39.8002V18.945H31.8551V16.6785H34.4543V8.27766H31.8551V5.9988H36.4744V8.93061C36.9918 7.77269 37.6323 6.96795 38.3961 6.51617C39.168 6.05641 40.2683 5.82642 41.6973 5.82642H42.2762V8.40085H41.7219C40.3423 8.40085 39.3158 8.58143 38.6425 8.94281C37.9689 9.30419 37.5215 9.85036 37.2997 10.5811C37.0861 11.3121 36.9794 12.3672 36.9794 13.7469ZM51.6382 2.981L49.3718 3.32578C49.298 2.48824 48.9776 2.06947 48.411 2.06947C48.0087 2.06947 47.7377 2.21305 47.5981 2.50064C47.4667 2.78802 47.4009 3.30118 47.4009 4.04034V5.9988H49.6182V8.27766H47.4009V16.6785H49.8399V18.945H42.9542V16.6785H44.8511V8.27766H42.9542V5.9988H44.8511V3.99094C44.8511 2.80841 45.1384 1.84767 45.7134 1.10852C46.2964 0.369572 47.1545 0 48.2878 0C49.224 0 49.9753 0.25038 50.5419 0.751349C51.1169 1.24412 51.4822 1.98727 51.6382 2.981ZM64.3386 13.1185H53.4865C53.6425 14.3587 54.1229 15.34 54.9276 16.0625C55.7324 16.7771 56.7179 17.1343 57.884 17.1343C58.738 17.1343 59.5305 16.9577 60.2613 16.6045C60.9922 16.2515 61.604 15.7096 62.0968 14.9786L64.3386 15.9888C63.6323 17.0891 62.7043 17.9226 61.5548 18.4892C60.4133 19.0478 59.1692 19.3269 57.8224 19.3269C56.4263 19.3269 55.1864 19.0353 54.1023 18.4522C53.0184 17.8692 52.1726 17.0563 51.5648 16.0134C50.9655 14.9704 50.6657 13.7961 50.6657 12.4904C50.6657 11.1929 50.9613 10.0227 51.5527 8.97981C52.152 7.93688 52.9692 7.12394 54.0039 6.54077C55.0386 5.94962 56.1799 5.65403 57.4283 5.65403C58.7914 5.65403 59.9781 5.95781 60.988 6.56557C62.0064 7.16493 62.8071 8.02728 63.3901 9.1522C63.9732 10.2691 64.2892 11.5912 64.3386 13.1185ZM57.4775 7.77269C56.5167 7.77269 55.675 8.09707 54.9522 8.74583C54.2297 9.38618 53.7657 10.2361 53.5603 11.2957H61.6656C61.4274 10.2361 60.9224 9.38618 60.1505 8.74583C59.3785 8.09707 58.4876 7.77269 57.4775 7.77269ZM75.7455 6.93494V5.9988H78.0119V10.9015H75.7455C75.6469 9.95694 75.2691 9.23839 74.6122 8.74583C73.9552 8.24486 73.1956 7.99427 72.3335 7.99427C71.5944 7.99427 70.9292 8.19146 70.3378 8.58564C69.7549 8.97981 69.3031 9.51358 68.9829 10.1869C68.6628 10.8603 68.5026 11.5952 68.5026 12.3918C68.5026 13.7469 68.8639 14.8554 69.5865 15.7178C70.3092 16.5717 71.2618 16.9987 72.4443 16.9987C74.2756 16.9987 75.5689 16.1487 76.3244 14.4491L78.4431 15.459C77.2524 18.0376 75.2157 19.3269 72.3335 19.3269C71.0442 19.3269 69.8985 19.0229 68.8967 18.4154C67.8948 17.8076 67.1189 16.9741 66.5687 15.9148C66.0267 14.8554 65.7555 13.6811 65.7555 12.3918C65.7555 11.1273 66.0307 9.97754 66.5809 8.94281C67.1392 7.90808 67.903 7.10333 68.8721 6.52857C69.8411 5.94541 70.921 5.65403 72.1117 5.65403C73.5242 5.65403 74.7354 6.081 75.7455 6.93494ZM85.9944 5.9988V8.27766H83.6294V15.0648C83.6294 15.7712 83.7034 16.2309 83.8512 16.4445C84.0072 16.6497 84.2699 16.7525 84.6395 16.7525C85.0911 16.7525 85.5429 16.6743 85.9944 16.5183V18.8218C85.2061 19.0517 84.5697 19.1667 84.0852 19.1667C83.0176 19.1667 82.2499 18.8998 81.7817 18.366C81.3138 17.824 81.0796 16.9003 81.0796 15.5946V8.27766H79.3921V5.9988H81.0796V4.04034L83.6294 1.71229V5.9988H85.9944ZM100.838 12.4904C100.838 13.7469 100.538 14.8964 99.9389 15.9394C99.3394 16.9823 98.5224 17.8076 97.4877 18.4154C96.453 19.0229 95.3075 19.3269 94.0509 19.3269C92.7534 19.3269 91.5833 19.0229 90.5404 18.4154C89.4974 17.8076 88.6845 16.9823 88.1013 15.9394C87.5266 14.8964 87.2392 13.7469 87.2392 12.4904C87.2392 11.1765 87.5266 10.0021 88.1013 8.96741C88.6845 7.93268 89.4932 7.12394 90.528 6.54077C91.5627 5.94962 92.737 5.65403 94.0509 5.65403C95.3239 5.65403 96.4776 5.96601 97.5123 6.59017C98.547 7.20592 99.36 8.03547 99.9511 9.0784C100.543 10.1213 100.838 11.2587 100.838 12.4904ZM94.0509 16.8509C94.8065 16.8509 95.5004 16.6539 96.1326 16.2597C96.765 15.8656 97.2577 15.3358 97.6109 14.6706C97.9639 14.0055 98.1405 13.2787 98.1405 12.4904C98.1405 11.7184 97.9639 10.9999 97.6109 10.3347C97.2577 9.66956 96.765 9.1358 96.1326 8.73343C95.5004 8.32286 94.7983 8.11747 94.0263 8.11747C93.2708 8.11747 92.5768 8.31865 91.9445 8.72102C91.3123 9.1152 90.8153 9.64896 90.4542 10.3225C90.0928 10.9959 89.9122 11.7184 89.9122 12.4904C89.9122 13.2623 90.0928 13.9849 90.4542 14.6584C90.8153 15.3318 91.3163 15.8656 91.9569 16.2597C92.5974 16.6539 93.2954 16.8509 94.0509 16.8509ZM66.1569 29.7087V28.8588H65.4177V22.7477H63.6024V23.5884H64.4616V28.8588H63.6024V29.7087H66.1569ZM71.6791 28.5817C71.9038 28.1907 72.0163 27.7595 72.0163 27.2884C72.0163 26.8263 71.9053 26.4 71.6837 26.0088C71.4619 25.6177 71.1571 25.3066 70.769 25.0758C70.3809 24.8418 69.9483 24.7247 69.4711 24.7247C68.9783 24.7247 68.5379 24.8355 68.15 25.0573C67.7619 25.2759 67.4586 25.5793 67.2399 25.9674C67.0245 26.3552 66.9166 26.7956 66.9166 27.2884C66.9166 27.7595 67.0245 28.1907 67.2399 28.5817C67.4586 28.9727 67.7634 29.2824 68.1546 29.5103C68.5457 29.7382 68.9844 29.8521 69.4711 29.8521C69.9422 29.8521 70.3719 29.7382 70.7598 29.5103C71.1478 29.2824 71.4541 28.9727 71.6791 28.5817ZM70.2516 28.7018C70.0145 28.8496 69.7545 28.9235 69.4711 28.9235C69.1877 28.9235 68.926 28.8496 68.6859 28.7018C68.4456 28.554 68.2576 28.3538 68.1223 28.1014C67.9867 27.8489 67.919 27.5779 67.919 27.2884C67.919 26.9989 67.9867 26.7279 68.1223 26.4755C68.2576 26.2228 68.4441 26.0226 68.6813 25.8748C68.9182 25.7239 69.1784 25.6484 69.4618 25.6484C69.7513 25.6484 70.0145 25.7256 70.2516 25.8795C70.4888 26.0304 70.6736 26.2306 70.806 26.4801C70.9384 26.7294 71.0047 26.9989 71.0047 27.2884C71.0047 27.584 70.9384 27.8564 70.806 28.106C70.6736 28.3553 70.4888 28.554 70.2516 28.7018ZM76.9471 24.854V25.5561C76.6823 25.2976 76.4098 25.105 76.1296 24.9787C75.8525 24.8525 75.5538 24.7894 75.2334 24.7894C74.7869 24.7894 74.3805 24.9063 74.0141 25.1403C73.6474 25.3745 73.3579 25.6886 73.1456 26.0828C72.9362 26.4769 72.8315 26.9035 72.8315 27.3622C72.8315 27.8119 72.9316 28.226 73.1317 28.6048C73.335 28.9805 73.6153 29.2824 73.9724 29.5103C74.3328 29.7382 74.7377 29.8521 75.1873 29.8521C75.5075 29.8521 75.8277 29.7813 76.1481 29.6396C76.4714 29.4979 76.7378 29.3039 76.9471 29.0575V29.5103C76.9471 30.0028 76.8118 30.3987 76.5408 30.6974C76.2696 30.996 75.8939 31.1454 75.4135 31.1454C75.1487 31.1454 74.904 31.1038 74.6792 31.0208C74.4574 30.9407 74.2356 30.819 74.0141 30.6558L73.3996 31.3441C73.9478 31.7814 74.6098 32 75.3858 32C76.205 32 76.8271 31.769 77.252 31.3071C77.68 30.8482 77.8942 30.1954 77.8942 29.3486V25.7086H78.7717V24.854H76.9471ZM76.1851 28.7711C75.9416 28.9221 75.6692 28.9975 75.3673 28.9975C75.0688 28.9975 74.8024 28.9235 74.5682 28.7758C74.3374 28.628 74.1587 28.4278 74.0324 28.1751C73.9062 27.9227 73.8431 27.6456 73.8431 27.3437C73.8431 27.0481 73.9092 26.7725 74.0416 26.5169C74.174 26.2612 74.3588 26.0582 74.596 25.9072C74.8331 25.7563 75.0963 25.6808 75.3858 25.6808C75.6816 25.6808 75.9494 25.7594 76.1897 25.9165C76.4298 26.0735 76.6177 26.2797 76.7531 26.5354C76.8887 26.791 76.9564 27.0574 76.9564 27.3344C76.9564 27.6302 76.8887 27.9058 76.7531 28.1615C76.6177 28.4169 76.4283 28.6202 76.1851 28.7711ZM80.8203 23.6252C80.9343 23.5113 80.9913 23.3759 80.9913 23.2189C80.9913 23.0555 80.9358 22.9187 80.825 22.8077C80.714 22.6969 80.5771 22.6414 80.4138 22.6414C80.2567 22.6414 80.1228 22.6983 80.012 22.8123C79.901 22.9262 79.8457 23.0618 79.8457 23.2189C79.8457 23.3759 79.901 23.5113 80.012 23.6252C80.1228 23.7392 80.2567 23.7961 80.4138 23.7961C80.5708 23.7961 80.7064 23.7392 80.8203 23.6252ZM81.6749 29.7087V28.8588H80.9358V24.854H79.222V25.7086H79.9797V28.8588H79.222V29.7087H81.6749ZM85.2847 24.854V25.0619C84.9675 24.8803 84.5765 24.7894 84.1114 24.7894C83.8342 24.7894 83.5648 24.8433 83.3031 24.9511C83.0414 25.0588 82.8257 25.2204 82.6563 25.4361C82.49 25.6484 82.4069 25.9058 82.4069 26.2074C82.4069 26.5802 82.5209 26.8865 82.7488 27.1267C82.9766 27.3668 83.3353 27.5363 83.8251 27.6349L84.3194 27.741C84.7474 27.8243 85.0322 27.9058 85.1739 27.9859C85.3154 28.0629 85.3862 28.1798 85.3862 28.337C85.3862 28.5525 85.2969 28.7156 85.1184 28.8266C84.9397 28.9343 84.695 28.9883 84.3839 28.9883C84.1007 28.9883 83.8512 28.9175 83.6357 28.7758C83.4232 28.6341 83.2939 28.4463 83.2476 28.2121V28.0459H82.3977V29.7087H83.2476V29.4455C83.3954 29.5441 83.5787 29.6272 83.7974 29.6949C84.0189 29.7596 84.2439 29.792 84.4718 29.792C85.0444 29.792 85.5033 29.6564 85.8483 29.3854C86.1962 29.1144 86.3701 28.7558 86.3701 28.3093C86.3701 27.5455 85.8914 27.0759 84.9336 26.9003L84.2916 26.7757C83.8665 26.7078 83.5926 26.6294 83.4694 26.54C83.3492 26.4507 83.2892 26.3275 83.2892 26.1704C83.2892 25.9949 83.3693 25.8517 83.5293 25.7409C83.6895 25.6301 83.8957 25.5746 84.1484 25.5746C84.6288 25.5746 85.0076 25.7733 85.2847 26.1704V26.4662H86.1162V24.854H85.2847ZM89.6152 25.7086V24.854H88.7282V23.2466L87.7721 24.1195V24.854H87.1393V25.7086H87.7721V28.4524C87.7721 28.942 87.8598 29.2885 88.0353 29.4918C88.2109 29.6919 88.4989 29.792 88.8991 29.792C89.0808 29.792 89.3196 29.7489 89.6152 29.6627V28.7989C89.4457 28.8573 89.2765 28.8866 89.107 28.8866C88.9685 28.8866 88.8699 28.8481 88.8115 28.7711C88.756 28.691 88.7282 28.5187 88.7282 28.2538V25.7086H89.6152ZM91.8391 23.6252C91.9531 23.5113 92.0101 23.3759 92.0101 23.2189C92.0101 23.0555 91.9548 22.9187 91.8438 22.8077C91.733 22.6969 91.5959 22.6414 91.4328 22.6414C91.2757 22.6414 91.1416 22.6983 91.0308 22.8123C90.92 22.9262 90.8645 23.0618 90.8645 23.2189C90.8645 23.3759 90.92 23.5113 91.0308 23.6252C91.1416 23.7392 91.2757 23.7961 91.4328 23.7961C91.5898 23.7961 91.7252 23.7392 91.8391 23.6252ZM92.6937 29.7087V28.8588H91.9548V24.854H90.241V25.7086H90.9985V28.8588H90.241V29.7087H92.6937ZM97.1074 24.854V25.2051C96.7286 24.8849 96.2743 24.7247 95.7447 24.7247C95.2982 24.7247 94.8931 24.834 94.5298 25.0527C94.1663 25.2681 93.88 25.57 93.6706 25.9581C93.4644 26.346 93.3612 26.7771 93.3612 27.2514C93.3612 27.7349 93.4627 28.1751 93.666 28.5725C93.8722 28.9698 94.1634 29.2824 94.5391 29.5103C94.9147 29.7382 95.3442 29.8521 95.8278 29.8521C96.9087 29.8521 97.6725 29.3686 98.119 28.4016L97.3244 28.0227C97.0412 28.6603 96.5562 28.979 95.8694 28.979C95.426 28.979 95.0686 28.8189 94.7976 28.4987C94.5267 28.1751 94.3913 27.7595 94.3913 27.2514C94.3913 26.9527 94.4512 26.6771 94.5714 26.4246C94.6915 26.1721 94.8609 25.972 95.0796 25.824C95.3011 25.6762 95.5507 25.6024 95.8278 25.6024C96.1511 25.6024 96.4359 25.6962 96.6823 25.8841C96.9287 26.0689 97.0704 26.3384 97.1074 26.6924H97.9574V24.854H97.1074ZM101.747 24.854V25.0619C101.43 24.8803 101.039 24.7894 100.574 24.7894C100.297 24.7894 100.027 24.8433 99.7655 24.9511C99.5038 25.0588 99.2883 25.2204 99.1189 25.4361C98.9526 25.6484 98.8695 25.9058 98.8695 26.2074C98.8695 26.5802 98.9835 26.8865 99.2113 27.1267C99.4392 27.3668 99.7979 27.5363 100.287 27.6349L100.782 27.741C101.21 27.8243 101.495 27.9058 101.636 27.9859C101.778 28.0629 101.849 28.1798 101.849 28.337C101.849 28.5525 101.759 28.7156 101.581 28.8266C101.402 28.9343 101.158 28.9883 100.846 28.9883C100.563 28.9883 100.314 28.9175 100.098 28.7758C99.8857 28.6341 99.7563 28.4463 99.7102 28.2121V28.0459H98.8603V29.7087H99.7102V29.4455C99.858 29.5441 100.041 29.6272 100.26 29.6949C100.482 29.7596 100.706 29.792 100.934 29.792C101.507 29.792 101.966 29.6564 102.311 29.3854C102.659 29.1144 102.833 28.7558 102.833 28.3093C102.833 27.5455 102.354 27.0759 101.396 26.9003L100.754 26.7757C100.329 26.7078 100.055 26.6294 99.9318 26.54C99.8118 26.4507 99.7518 26.3275 99.7518 26.1704C99.7518 25.9949 99.8317 25.8517 99.9919 25.7409C100.152 25.6301 100.358 25.5746 100.611 25.5746C101.091 25.5746 101.47 25.7733 101.747 26.1704V26.4662H102.579V24.854H101.747Z" fill="#122300"/>
</svg>
