<svg width="56" height="56" viewBox="0 0 56 56" fill="none" xmlns="http://www.w3.org/2000/svg">
<path d="M48.9726 21.1252C48.9221 20.1538 48.7965 19.1877 48.597 18.2357C48.2525 16.6364 47.8868 15.4173 46.93 13.3835C46.2478 12.0031 45.4207 10.6992 44.4628 9.49379C43.8169 8.68399 43.1162 7.91944 42.3657 7.20553C41.5445 6.43184 40.6622 5.72569 39.7273 5.09396C37.8495 3.81411 35.7674 2.86329 33.5705 2.28225C33.3137 2.20668 33.0548 2.15222 32.8003 2.09666C32.5458 2.04109 32.2957 1.98552 32.0457 1.94551C32.0324 1.94392 32.0194 1.94094 32.0068 1.93662L31.9657 1.92551C31.8312 1.88661 31.8156 1.88439 31.7968 1.89439C31.7779 1.90439 31.7745 1.89439 31.7723 1.89439C31.7336 1.87968 31.6926 1.87178 31.6512 1.87105C31.5078 1.85216 31.1166 1.79993 31.0955 1.78993C31.0665 1.7822 31.0364 1.77993 31.0066 1.78326C30.9603 1.78411 30.9142 1.77774 30.8699 1.76436C30.8332 1.75103 30.8032 1.74658 30.7965 1.75325C30.7688 1.76003 30.7398 1.76003 30.7121 1.75325C30.5031 1.73769 30.4398 1.76548 30.4042 1.88884C30.3976 1.90662 30.3876 1.93773 30.3809 1.95885C30.3618 2.02047 30.3595 2.08608 30.3742 2.14889C30.3813 2.16285 30.3813 2.17938 30.3742 2.19334C30.3581 2.25684 30.347 2.3215 30.3409 2.38672C30.334 2.45383 30.3222 2.52033 30.3053 2.58565C30.2966 2.60399 30.2942 2.62472 30.2987 2.64455C30.3042 2.66267 30.3042 2.68201 30.2987 2.70012C30.291 2.72691 30.2865 2.75452 30.2853 2.78236H30.2686H30.1875C30.1878 2.77792 30.1878 2.77346 30.1875 2.76902C30.1808 2.74996 30.1808 2.72919 30.1875 2.71012C30.1965 2.68875 30.2029 2.66636 30.2064 2.64344C30.2096 2.62117 30.216 2.59946 30.2253 2.57898C30.2313 2.56323 30.2313 2.54583 30.2253 2.53008C30.2164 2.49897 30.2175 2.49119 30.2342 2.4923C30.2437 2.49151 30.2527 2.4876 30.2598 2.48118C30.2675 2.4734 30.2598 2.47229 30.2542 2.48118C30.2486 2.49007 30.2309 2.46563 30.2542 2.45451C30.2646 2.44585 30.2682 2.43148 30.2631 2.41895C30.2631 2.4045 30.2631 2.39228 30.2698 2.39228C30.2764 2.39228 30.2842 2.35894 30.2853 2.3167C30.2844 2.28801 30.2901 2.25949 30.302 2.23335C30.3097 2.22964 30.3145 2.22187 30.3145 2.21335C30.3145 2.20483 30.3097 2.19706 30.302 2.19334C30.2836 2.15858 30.2836 2.11698 30.302 2.08221C30.3153 2.06776 30.3142 2.06443 30.2953 2.06221C30.2764 2.05998 30.2753 2.05554 30.2809 2.04887C30.2864 2.0422 30.2809 2.02664 30.2698 2.01442C30.2591 2.00315 30.2549 1.98724 30.2586 1.97219C30.282 1.92662 30.162 1.84327 30.0564 1.83216C30.0364 1.83216 30.0219 1.82215 30.0241 1.81326C30.0264 1.80437 30.0097 1.79993 29.9808 1.80104C29.8586 1.80882 29.7863 1.80104 29.7719 1.78215C29.7574 1.76325 29.7508 1.76436 29.723 1.77659C29.6952 1.78881 29.6852 1.78659 29.6796 1.77659C29.6321 1.75084 29.5792 1.73675 29.5252 1.73547C29.5051 1.73547 29.3707 1.74325 29.3351 1.74214C29.3207 1.74228 29.3069 1.73621 29.2973 1.72547C29.2907 1.71435 29.2795 1.71324 29.2618 1.72547C29.2364 1.733 29.2094 1.733 29.184 1.72547C29.1571 1.72082 29.1297 1.72082 29.1028 1.72547C29.0896 1.72852 29.0758 1.72654 29.0639 1.71991C29.0451 1.69435 28.9606 1.67657 28.9606 1.69657C28.9606 1.71658 28.9539 1.71324 28.9339 1.70324C28.9073 1.68703 28.8739 1.68703 28.8472 1.70324C28.83 1.70837 28.8114 1.70594 28.7961 1.69657C28.7417 1.6759 28.6816 1.6759 28.6272 1.69657C28.6116 1.7088 28.6072 1.70769 28.6072 1.6899C28.6072 1.67212 28.6072 1.66879 28.575 1.68324C28.5407 1.70159 28.5027 1.71186 28.4638 1.71324C28.4488 1.71422 28.4341 1.71799 28.4205 1.72436C28.4127 1.72436 28.3171 1.73214 28.2082 1.7388H28.1671L27.5836 1.76325C27.3814 1.76325 27.1802 1.78881 26.9791 1.8066L26.3789 1.86216L25.7855 1.9444C24.287 2.15994 22.8166 2.53818 21.4001 3.07242C20.2372 3.50628 19.1115 4.03368 18.0338 4.64943C17.3367 5.05423 16.6609 5.49454 16.0089 5.9686C14.1106 7.34424 12.4374 9.00623 11.049 10.8952C10.5667 11.5515 10.1215 12.2342 9.71537 12.9401C9.27866 13.7111 8.89078 14.5088 8.55402 15.3284C8.19275 16.2042 7.89742 17.1058 7.67049 18.0256C7.54047 18.4957 7.45934 18.9825 7.36487 19.4704C7.33042 19.7204 7.29597 19.9705 7.26152 20.2228L7.21151 20.6028L7.18706 20.9874C7.1715 21.2445 7.15594 21.5038 7.14038 21.7653C7.14038 22.0254 7.14594 22.2865 7.14927 22.5432C7.14927 22.6744 7.14927 22.8055 7.15594 22.9367L7.18928 23.3312C7.21373 23.5946 7.22707 23.8602 7.26263 24.1236C7.40631 25.1871 7.64357 26.2358 7.97167 27.2576C8.3182 28.2794 8.73981 29.2742 9.23305 30.2338C9.733 31.1836 10.2878 32.1034 10.8945 32.9888C11.5024 33.8634 12.1337 34.7147 12.8038 35.5171C13.474 36.3195 14.1252 37.073 14.7753 37.851L18.5539 42.2964C19.3341 43.2121 20.0798 44.0886 20.7911 44.9258C21.5012 45.7649 22.188 46.5506 22.8004 47.2985C24.0362 48.7933 24.9853 50.1792 25.5865 51.4617C25.6606 51.6187 25.7347 51.7876 25.8088 51.9684C25.8888 52.1462 25.9577 52.3396 26.0311 52.5408C26.0711 52.6408 26.1044 52.7453 26.1355 52.8519C26.1811 52.9986 26.2267 53.1487 26.2745 53.2965L26.5145 53.741L26.6123 53.9177L26.6368 53.9622L26.6434 53.9733C30.3287 53.8477 27.6659 53.9355 28.4894 53.9066V53.9011L28.5005 53.8788L28.5416 53.7921C29.0411 52.742 29.6521 51.7486 30.3642 50.8293C31.1355 49.8157 32.0979 48.88 33.2115 47.8764C34.3017 46.8762 35.4542 45.8682 36.5956 44.838C38.8849 42.7887 41.1054 40.6082 42.7446 38.4978C43.1592 37.9754 43.5304 37.4542 43.8793 36.9608C44.2283 36.4673 44.5328 35.9828 44.7984 35.5338C45.3396 34.6392 45.7631 33.8668 46.0565 33.2811C46.2187 32.971 46.7088 32.0042 47.2578 30.6416C47.9102 29.0225 48.3936 27.3402 48.7004 25.6217C48.96 24.1379 49.0514 22.6295 48.9726 21.1252Z" fill="url(#paint0_linear_2808_27335)"/>
<ellipse cx="28.4727" cy="21.5764" rx="6.04907" ry="6.04907" fill="black"/>
<path d="M33.9639 21.5875C33.9904 21.5977 34.0192 21.6008 34.0472 21.5964C34.0895 21.5964 34.1239 21.5964 34.1239 21.6053C34.1239 21.6142 34.135 21.6131 34.1506 21.6053C34.1626 21.6003 34.1763 21.6025 34.1862 21.6109C34.1973 21.6309 34.2239 21.6287 34.2128 21.6109C34.2017 21.5931 34.2128 21.5986 34.2128 21.6053C34.2197 21.6113 34.224 21.6196 34.2251 21.6287C34.2251 21.6431 34.2317 21.6442 34.2628 21.6287C34.2788 21.6237 34.2958 21.6237 34.3117 21.6287C34.3329 21.6361 34.3549 21.641 34.3773 21.6431C34.3997 21.6445 34.4217 21.649 34.4429 21.6564C34.4623 21.6635 34.4835 21.6635 34.5029 21.6564C34.5285 21.6453 34.5373 21.6453 34.5362 21.6564C34.5351 21.6675 34.5362 21.6664 34.5562 21.6564C34.5762 21.6464 34.5796 21.6453 34.5851 21.6564C34.5907 21.6675 34.7407 21.6787 34.7507 21.6564C34.7607 21.6342 34.7585 21.6487 34.7585 21.6642C34.7585 21.6798 34.7685 21.6887 34.8041 21.6842C34.8255 21.6809 34.8474 21.6848 34.8663 21.6953C34.8774 21.7053 34.8885 21.7053 34.903 21.6953C34.9174 21.6853 34.9263 21.6831 34.933 21.6953C34.9397 21.7076 34.9585 21.7087 34.983 21.7031C35.0038 21.6971 35.0263 21.7008 35.0441 21.7131C35.0541 21.7231 35.063 21.7264 35.0641 21.7198C35.0652 21.7131 35.073 21.7198 35.0841 21.7287C35.0952 21.7376 35.1064 21.7431 35.1141 21.7231C35.1219 21.7031 35.1286 21.702 35.1408 21.7142C35.1659 21.7286 35.1941 21.7366 35.223 21.7376C35.2492 21.7374 35.2748 21.7451 35.2964 21.7598C35.3077 21.7732 35.3222 21.7835 35.3386 21.7898C35.3709 21.802 35.372 21.8009 35.3542 21.7742C35.3364 21.7476 35.3364 21.7465 35.3653 21.7642C35.3942 21.782 35.392 21.792 35.3864 21.802C35.3809 21.812 35.3864 21.8142 35.4053 21.8087C35.4242 21.8031 35.4498 21.8087 35.4798 21.8376C35.5498 21.8998 35.5565 21.922 35.5531 22.0787C35.5486 22.1074 35.5509 22.1367 35.5598 22.1643C35.5653 22.1643 35.5665 22.1854 35.5598 22.2099C35.5553 22.2397 35.5553 22.2701 35.5598 22.2999C35.5598 22.3383 35.5514 22.3762 35.5353 22.411C35.5098 22.4733 35.5087 22.4822 35.5264 22.4944C35.5442 22.5066 35.542 22.5111 35.5264 22.5222C35.5162 22.5329 35.5109 22.5474 35.512 22.5622C35.512 22.5744 35.512 22.5844 35.502 22.5833C35.492 22.5822 35.4853 22.6066 35.4831 22.6389C35.4834 22.6616 35.4772 22.684 35.4653 22.7033C35.4464 22.7644 35.44 22.8286 35.4464 22.8923C35.4483 22.8993 35.4451 22.9067 35.4386 22.91C35.4235 22.9515 35.4123 22.9943 35.4053 23.0378C35.3983 23.0793 35.3848 23.1195 35.3653 23.1568C35.3542 23.1568 35.3486 23.189 35.3397 23.3146C35.3407 23.3415 35.3338 23.3682 35.3197 23.3912C35.3112 23.3944 35.3064 23.4035 35.3086 23.4124C35.3106 23.4209 35.3064 23.4296 35.2986 23.4335C35.2813 23.4591 35.2703 23.4884 35.2664 23.5191C35.2575 23.5624 35.2442 23.5968 35.2375 23.5957C35.2308 23.5946 35.203 23.6658 35.2153 23.6813C35.2275 23.6969 35.2308 23.6813 35.2375 23.6813C35.2442 23.6813 35.2486 23.6669 35.2453 23.6813C35.2406 23.6933 35.2301 23.7021 35.2175 23.7046C35.1997 23.7046 35.1942 23.7169 35.1942 23.7491C35.1945 23.7679 35.1895 23.7864 35.1797 23.8024C35.1532 23.8333 35.1325 23.8687 35.1186 23.9069L35.1075 23.9336V23.9414C35.0975 23.9669 35.0875 23.9925 35.0786 24.0192C35.0475 24.1003 35.0163 24.1836 34.9841 24.2703C34.913 24.4415 34.8207 24.6171 34.7285 24.8093C34.704 24.856 34.6829 24.906 34.6551 24.9538L34.5751 25.0983L34.3918 25.3972C34.3275 25.5041 34.2562 25.6065 34.1784 25.704L33.9383 26.0218C33.8528 26.1329 33.7538 26.2285 33.6583 26.3374C33.5599 26.4496 33.4557 26.5564 33.346 26.6575L32.9937 26.9742C32.8703 27.0787 32.7325 27.1743 32.5958 27.2776C32.5258 27.3276 32.458 27.3821 32.3847 27.4299L32.1557 27.5699C31.9993 27.6701 31.8372 27.761 31.6701 27.8422C30.7181 28.3225 29.67 28.582 28.6039 28.6013C26.7508 28.6382 24.9597 27.9336 23.6284 26.6442C22.5794 25.6404 21.8699 24.3342 21.599 22.9078C21.5679 22.7022 21.5335 22.4899 21.5057 22.271C21.496 22.0487 21.4853 21.8202 21.4734 21.5853C21.4823 21.3497 21.4957 21.1074 21.5112 20.8563C21.5301 20.7318 21.549 20.6051 21.569 20.4773L21.599 20.2828C21.6078 20.2168 21.6208 20.1515 21.6379 20.0872C21.6713 19.9583 21.7057 19.826 21.7402 19.6916L21.7935 19.4904L21.8669 19.2904L22.0169 18.8825C22.0758 18.748 22.1436 18.6147 22.2092 18.478L22.3092 18.2724C22.3436 18.2035 22.3881 18.139 22.427 18.0723C22.5081 17.939 22.5915 17.8034 22.6759 17.6667C22.8657 17.3946 23.0725 17.1348 23.2949 16.8887C23.5312 16.6284 23.7856 16.3851 24.0562 16.1608L24.5008 15.8274C24.5769 15.7724 24.6559 15.7216 24.7375 15.6752L24.982 15.5273C25.6879 15.122 26.4587 14.8423 27.2602 14.7005C27.4303 14.6749 27.6025 14.6483 27.7748 14.6249L28.2982 14.5983C28.4735 14.5905 28.6491 14.5938 28.8239 14.6083C28.9987 14.6121 29.1732 14.6265 29.3462 14.6516L29.8608 14.7316C30.0286 14.7705 30.1942 14.815 30.3576 14.8572C30.4387 14.8805 30.5209 14.8961 30.5987 14.9261L30.8321 15.0106L31.061 15.0961C31.1371 15.1215 31.2114 15.1519 31.2833 15.1873L31.7012 15.3895L31.8023 15.4395L31.8979 15.4973L32.0835 15.6085C32.2046 15.6852 32.3269 15.7507 32.4336 15.8307L32.7414 16.0608C32.9176 16.1948 33.0857 16.3392 33.2448 16.4931C33.316 16.5609 33.3871 16.6176 33.4427 16.6809L33.596 16.8499C34.0735 17.3721 34.4719 17.9614 34.7785 18.5991C34.7874 18.6147 34.8107 18.6625 34.8474 18.7358C34.8652 18.7725 34.8863 18.8147 34.9085 18.8636C34.9308 18.9125 34.9485 18.9681 34.9708 19.0292L35.1219 19.4393C35.1493 19.5176 35.1723 19.5974 35.1908 19.6782L35.2142 19.7694L35.2564 19.9438C35.2664 19.9872 35.2786 20.0361 35.2908 20.0872L35.3097 20.1661L35.3208 20.2484L35.3642 20.5418C35.3691 20.5835 35.3777 20.6248 35.3898 20.6651C35.3964 20.6651 35.3986 20.6884 35.3898 20.7085C35.3855 20.7267 35.3855 20.7457 35.3898 20.764C35.3958 20.7782 35.3958 20.7943 35.3898 20.8085C35.3803 20.8234 35.3803 20.8425 35.3898 20.8574C35.4058 20.9261 35.4058 20.9976 35.3898 21.0663C35.3884 21.0958 35.391 21.1253 35.3975 21.1541C35.4089 21.1819 35.4047 21.2136 35.3864 21.2375C35.3718 21.2603 35.3648 21.2871 35.3664 21.3141C35.3664 21.3886 35.2375 21.5364 35.1886 21.5164C35.1764 21.5164 35.1519 21.5231 35.1341 21.5397C35.1164 21.5564 35.093 21.5664 35.0852 21.5609C35.0775 21.5553 35.0708 21.5609 35.0708 21.5675C35.0708 21.5742 35.0508 21.5798 35.0119 21.5675C34.9288 21.5532 34.8438 21.5532 34.7607 21.5675C34.7477 21.5753 34.7315 21.5753 34.7185 21.5675C34.6742 21.5566 34.6283 21.5532 34.5829 21.5575C34.5339 21.5602 34.4848 21.5583 34.4362 21.552C34.4181 21.5464 34.3988 21.5464 34.3806 21.552C34.3614 21.5573 34.341 21.5573 34.3217 21.552C34.2549 21.5411 34.1872 21.5356 34.1195 21.5353C34.0537 21.5357 33.9879 21.5313 33.9228 21.522C33.908 21.5177 33.8922 21.5202 33.8794 21.5286C33.818 21.5463 33.7534 21.5497 33.6905 21.5386L33.6172 21.5253C33.4893 21.5064 33.4516 21.4597 33.436 21.2975C33.436 21.2664 33.4249 21.2375 33.4171 21.2341C33.4093 21.2308 33.4093 21.2063 33.4171 21.1763C33.4254 21.1397 33.4254 21.1018 33.4171 21.0652C33.4081 21.0437 33.4035 21.0207 33.4038 20.9974C33.393 20.8535 33.3722 20.7105 33.3415 20.5695C33.3277 20.5407 33.3205 20.5092 33.3204 20.4773C33.3204 20.4717 33.3204 20.464 33.3149 20.4584C33.3093 20.4528 33.296 20.4373 33.2849 20.3284C33.2849 20.3195 33.2849 20.3084 33.2849 20.2961V20.2739C33.2646 20.172 33.2356 20.0719 33.1982 19.975C33.1626 19.8738 33.1259 19.7705 33.087 19.666C33.0481 19.5615 32.9903 19.4626 32.9437 19.3582L32.8637 19.2081C32.8348 19.1581 32.8036 19.1092 32.7736 19.0592C32.7125 18.9614 32.6625 18.8581 32.5925 18.7625C32.4631 18.576 32.3217 18.3982 32.1691 18.2301L32.0579 18.1079L32.0046 18.0479L31.9457 17.9957L31.7234 17.7901C31.6535 17.7265 31.5792 17.6678 31.5011 17.6145L31.3 17.4633C31.17 17.3733 31.051 17.3099 30.9666 17.2533C30.9166 17.2255 30.8743 17.1933 30.8277 17.1721L30.6954 17.111C30.6132 17.0699 30.5365 17.0343 30.4643 16.9999C30.3176 16.9354 30.1775 16.8943 30.0253 16.8332C29.9421 16.8034 29.8571 16.779 29.7708 16.7598C29.6774 16.7376 29.5774 16.7065 29.4618 16.6798L29.0662 16.6165C28.9875 16.604 28.908 16.5969 28.8284 16.5954L28.5594 16.5798C28.4639 16.5731 28.3681 16.5731 28.2727 16.5798L27.9948 16.5909C27.8159 16.6109 27.6481 16.642 27.4981 16.6609C27.348 16.6798 27.2258 16.7287 27.1258 16.7509L26.9991 16.7821C26.9646 16.7909 26.9402 16.8043 26.9224 16.8098C25.9288 17.1387 25.062 17.7683 24.4419 18.6113C24.0696 19.1167 23.7956 19.6874 23.6339 20.2939C23.5675 20.5497 23.5181 20.8096 23.4861 21.0719C23.4794 21.1897 23.4739 21.2941 23.4694 21.3997C23.4602 21.4898 23.458 21.5805 23.4628 21.6709C23.4628 21.762 23.4717 21.8576 23.4761 21.9565C23.4761 22.0054 23.4761 22.0565 23.4828 22.1076C23.4894 22.1588 23.4994 22.2088 23.5072 22.261C23.5217 22.3655 23.5372 22.4733 23.5539 22.5833C23.5706 22.6933 23.6083 22.8056 23.6372 22.9167C23.7671 23.4071 23.9734 23.8741 24.2485 24.3003C24.8275 25.205 25.781 26.0096 26.869 26.3563C27.3944 26.529 27.9431 26.6201 28.4961 26.6264C28.9919 26.6162 29.4843 26.5415 29.9608 26.4041C30.3434 26.283 30.7107 26.1181 31.0555 25.9129L31.2655 25.7873C31.3322 25.7473 31.3867 25.6984 31.4422 25.6584C31.5534 25.575 31.6501 25.5106 31.7223 25.445C31.7945 25.3795 31.9323 25.2594 32.0857 25.1116L32.3235 24.8482C32.3688 24.7999 32.4104 24.7483 32.448 24.6937L32.5736 24.5248C32.6641 24.4051 32.7462 24.2792 32.8192 24.1481C32.857 24.0803 32.9059 24.0169 32.9381 23.9447C32.9703 23.8725 33.007 23.8002 33.0415 23.7224C33.0759 23.6446 33.117 23.578 33.1437 23.5002C33.1704 23.4224 33.1993 23.349 33.226 23.2723L33.2371 23.2423C33.2578 23.1903 33.2745 23.1368 33.2871 23.0823C33.2858 23.0697 33.2858 23.0571 33.2871 23.0445C33.292 23.0142 33.289 22.9832 33.2782 22.9545C33.2693 22.9289 33.2715 22.9256 33.2904 22.9312C33.3093 22.9367 33.3104 22.9312 33.3015 22.9178C33.2903 22.8725 33.3014 22.8246 33.3315 22.7889C33.3427 22.7802 33.3486 22.7663 33.3471 22.7522C33.3357 22.7294 33.3417 22.7016 33.3615 22.6855C33.3749 22.6722 33.3749 22.6666 33.3615 22.6633C33.3482 22.66 33.376 22.6 33.4038 22.59C33.4038 22.59 33.4138 22.5744 33.4127 22.56C33.4135 22.5385 33.4184 22.5174 33.4271 22.4977C33.4369 22.4789 33.4389 22.4569 33.4327 22.4366C33.426 22.421 33.4327 22.4133 33.4404 22.4088C33.4514 22.4033 33.4591 22.393 33.4616 22.381C33.4647 22.3311 33.4647 22.281 33.4616 22.231C33.4663 22.1877 33.4837 22.1467 33.5116 22.1132C33.5227 22.1132 33.5249 22.0976 33.5116 22.0776C33.4982 22.0576 33.4993 22.0476 33.5116 22.0387C33.5238 22.0298 33.536 21.9698 33.526 21.872C33.526 21.8487 33.526 21.8354 33.5371 21.8376C33.5482 21.8398 33.5538 21.8276 33.556 21.812C33.5649 21.7276 33.646 21.6264 33.6927 21.642C33.7074 21.6446 33.7225 21.6405 33.7338 21.6309C33.7461 21.6209 33.7616 21.6153 33.7683 21.6198C33.775 21.6242 33.7816 21.6198 33.7827 21.6064C33.7839 21.5931 33.7827 21.5886 33.8016 21.5998C33.8388 21.6113 33.879 21.6069 33.9128 21.5875C33.9128 21.5734 33.9242 21.562 33.9383 21.562C33.9524 21.562 33.9639 21.5734 33.9639 21.5875Z" fill="black"/>
<path d="M20.7354 6.94437C20.7387 6.97315 20.7498 7.00046 20.7677 7.02328C20.7888 7.05995 20.8021 7.09218 20.7955 7.09552C20.7888 7.09885 20.7955 7.10996 20.8055 7.12108C20.816 7.12911 20.8208 7.14264 20.8177 7.15553C20.8043 7.17665 20.8177 7.19887 20.8321 7.17776C20.8466 7.15664 20.841 7.16664 20.8388 7.17776C20.8366 7.18716 20.8311 7.19545 20.8232 7.20109C20.8088 7.20887 20.8121 7.21665 20.8377 7.23777C20.8495 7.24947 20.8573 7.26466 20.8599 7.28111C20.8635 7.30331 20.8698 7.32496 20.8788 7.34557C20.8884 7.36652 20.8955 7.38853 20.8999 7.41114C20.9041 7.43125 20.9155 7.44909 20.9322 7.46115C20.9544 7.47671 20.9588 7.48449 20.9488 7.49005C20.9388 7.4956 20.9488 7.50116 20.9588 7.50783C20.9688 7.5145 20.9799 7.52116 20.9744 7.53117C20.9688 7.54117 21.0344 7.67786 21.0566 7.67564C21.0789 7.67342 21.0666 7.67564 21.0566 7.68564C21.0466 7.69565 21.0422 7.70676 21.0633 7.73565C21.0766 7.7525 21.0844 7.77309 21.0855 7.79456C21.0839 7.80148 21.085 7.80879 21.0888 7.81485C21.0926 7.8209 21.0986 7.8252 21.1055 7.82678C21.1222 7.83345 21.1266 7.84012 21.12 7.85123C21.1133 7.86235 21.12 7.88013 21.1389 7.89902C21.154 7.91441 21.1624 7.93521 21.1622 7.95681C21.1622 7.97015 21.1622 7.98015 21.1622 7.97682C21.1622 7.97348 21.1689 7.9846 21.1622 7.99904C21.1555 8.01349 21.1622 8.0246 21.1811 8.02238C21.2 8.02016 21.2033 8.02238 21.2 8.04127C21.2022 8.07011 21.2106 8.09814 21.2244 8.12351C21.2379 8.14565 21.2452 8.17097 21.2456 8.19686C21.241 8.2136 21.241 8.23125 21.2456 8.24799C21.2533 8.28133 21.2544 8.28133 21.2644 8.24799C21.2744 8.21464 21.2756 8.2202 21.2767 8.25354C21.2778 8.28688 21.2767 8.28911 21.2611 8.28799C21.2456 8.28688 21.2522 8.29466 21.2667 8.308C21.2829 8.3296 21.2893 8.357 21.2845 8.38357C21.2778 8.47248 21.2667 8.48804 21.1611 8.55361C21.1289 8.57361 21.1044 8.59361 21.1066 8.59806C21.1089 8.60251 21.0966 8.61251 21.0789 8.62029C21.0571 8.63071 21.0372 8.6446 21.02 8.66141C20.9956 8.68231 20.966 8.69615 20.9344 8.70142C20.881 8.71253 20.8744 8.71697 20.8788 8.73698C20.8833 8.75698 20.8788 8.75809 20.8633 8.75476C20.8518 8.75134 20.8394 8.75532 20.8321 8.76476C20.8255 8.77365 20.8166 8.77588 20.8132 8.76476C20.8099 8.75365 20.7888 8.76476 20.7688 8.78032C20.7488 8.79588 20.7254 8.80588 20.7188 8.80144C20.6716 8.82164 20.6298 8.85245 20.5965 8.89146C20.5922 8.89569 20.5853 8.89569 20.581 8.89146C20.5471 8.9027 20.5152 8.9192 20.4865 8.94036C20.4409 8.96925 20.4009 8.99037 20.3976 8.98481C20.3943 8.97925 20.3687 8.99481 20.2965 9.06594C20.2731 9.08928 20.2509 9.10261 20.2431 9.09928C20.2408 9.09683 20.2376 9.09544 20.2342 9.09544C20.2309 9.09544 20.2276 9.09683 20.2253 9.09928C20.2219 9.10622 20.2135 9.10916 20.2064 9.10595C20.1998 9.10595 20.1698 9.11706 20.142 9.1404C20.1142 9.16374 20.0864 9.17596 20.0831 9.1704C20.0798 9.16485 20.0231 9.19263 20.0242 9.21152C20.0249 9.21567 20.0274 9.21928 20.0311 9.22142C20.0347 9.22356 20.0391 9.224 20.0431 9.22264C20.0564 9.22264 20.0575 9.22264 20.0431 9.23042C20.0336 9.23648 20.0214 9.23648 20.012 9.23042C19.9986 9.22153 19.9908 9.22486 19.9753 9.2482C19.9597 9.27154 19.9497 9.27821 19.9419 9.27821C19.9094 9.28293 19.8785 9.29552 19.8519 9.31488C19.8675 9.30154 19.6974 9.4149 19.5307 9.53048C19.364 9.64606 19.1484 9.81276 18.8862 10.0184C18.2688 10.5091 17.6848 11.0404 17.138 11.6087C16.4603 12.3154 15.8442 13.0787 15.2965 13.8903C14.9631 14.396 14.6097 15.0017 14.4919 15.2084C14.3741 15.4151 14.283 15.6118 14.2796 15.6273C14.2672 15.6601 14.2527 15.692 14.2363 15.7229C14.2152 15.7663 14.1863 15.8229 14.1574 15.883L13.9829 16.2475C13.93 16.3482 13.8843 16.4526 13.8462 16.5598C13.8462 16.5653 13.8462 16.5798 13.8329 16.592C13.8215 16.6032 13.8138 16.6175 13.8106 16.6331C13.8083 16.6461 13.7995 16.657 13.7873 16.662C13.774 16.669 13.7668 16.6839 13.7695 16.6987C13.7566 16.7556 13.7294 16.8084 13.6906 16.852C13.6786 16.8734 13.6703 16.8968 13.6662 16.921C13.6606 16.9554 13.6506 16.9687 13.6262 16.9787C13.6054 16.9896 13.5889 17.0073 13.5795 17.0288C13.5572 17.0843 13.3805 17.1499 13.3416 17.1165C13.3227 17.1089 13.3016 17.1089 13.2827 17.1165C13.2583 17.1232 13.235 17.1232 13.2294 17.1165C13.2238 17.1099 13.2172 17.1099 13.2138 17.1165C13.2105 17.1232 13.1894 17.1165 13.1561 17.0999C13.083 17.0582 13.0039 17.0282 12.9216 17.011C12.9065 17.0128 12.8917 17.0064 12.8827 16.9943C12.8453 16.9689 12.804 16.9497 12.7604 16.9376C12.714 16.9224 12.669 16.903 12.6259 16.8798C12.6118 16.8742 12.5965 16.8723 12.5815 16.8743C12.5616 16.8728 12.5427 16.8655 12.527 16.8532C12.4688 16.8186 12.4078 16.7889 12.3448 16.7642C12.2837 16.7405 12.2246 16.7118 12.1681 16.6787C12.156 16.6686 12.1397 16.6653 12.1247 16.6698C12.0604 16.6665 11.998 16.6466 11.9436 16.612L11.8824 16.5698C11.7713 16.5031 11.7635 16.4331 11.8358 16.2364C11.8474 16.2101 11.8531 16.1817 11.8524 16.153C11.8524 16.1452 11.8602 16.1163 11.8824 16.0852C11.9076 16.0462 11.9263 16.0034 11.938 15.9585C11.943 15.9292 11.9532 15.901 11.968 15.8752C11.9814 15.8585 12.1481 15.5018 12.1992 15.3651C12.2106 15.3251 12.229 15.2874 12.2536 15.2539C12.2614 15.2539 12.2648 15.2428 12.2625 15.2306C12.2603 15.2184 12.2625 15.195 12.3381 15.0761L12.3592 15.0394L12.4226 14.9216L12.6448 14.506C12.7904 14.2204 12.9516 13.9603 13.0205 13.8314C13.1597 13.5773 13.3137 13.3317 13.4817 13.0957C13.625 12.8734 13.7729 12.6645 13.8029 12.6245C14.2125 12.0199 14.6578 11.4402 15.1365 10.8885C15.2976 10.6974 15.5321 10.4607 15.7811 10.1895C16.03 9.91834 16.3212 9.64162 16.6112 9.38378C16.9013 9.12595 17.1769 8.8759 17.4181 8.68252C17.6592 8.48915 17.8471 8.33245 17.9526 8.25354L18.2916 7.99238C18.3683 7.93125 18.4561 7.87013 18.5461 7.80678L18.7161 7.68675C18.7753 7.64724 18.8317 7.6038 18.8851 7.55673C18.8928 7.54378 18.9025 7.53215 18.9139 7.52227C18.9434 7.49858 18.9676 7.46907 18.9851 7.43559C19.0006 7.40669 19.0051 7.40447 19.0162 7.42114C19.0273 7.43781 19.0306 7.43448 19.0362 7.41559C19.0688 7.36732 19.1191 7.33379 19.1762 7.32223C19.1942 7.32153 19.211 7.31349 19.2229 7.3C19.2361 7.27146 19.2638 7.25232 19.2951 7.24999C19.3174 7.24999 19.3218 7.24333 19.314 7.22999C19.3063 7.21665 19.384 7.18331 19.4129 7.19332C19.4265 7.19272 19.4393 7.18672 19.4485 7.17665C19.4704 7.15968 19.4948 7.14619 19.5207 7.13664C19.5451 7.12871 19.5666 7.11407 19.583 7.09441C19.5919 7.07662 19.6019 7.07107 19.6141 7.07662C19.6274 7.08302 19.643 7.08302 19.6563 7.07662C19.6863 7.05773 19.793 6.97438 19.8075 6.95993C19.8535 6.93141 19.9057 6.91427 19.9597 6.90992C19.9708 6.90992 19.982 6.90992 19.9964 6.88658C20.0108 6.86324 20.0208 6.85658 20.0409 6.86324C20.0609 6.86991 20.1275 6.8388 20.2264 6.76545C20.2498 6.74766 20.2665 6.74322 20.2698 6.75211C20.2731 6.761 20.2887 6.75878 20.3065 6.75211C20.4009 6.70321 20.5476 6.70654 20.5532 6.75211C20.558 6.7668 20.5703 6.77781 20.5854 6.78101C20.6021 6.78101 20.6143 6.79545 20.6132 6.80434C20.6121 6.81323 20.6221 6.81435 20.6332 6.80434C20.6443 6.79434 20.6532 6.79768 20.6499 6.81657C20.6465 6.83546 20.6921 6.90992 20.7166 6.90992C20.7248 6.9098 20.7324 6.91424 20.7364 6.92146C20.7403 6.92868 20.74 6.9375 20.7354 6.94437Z" fill="#FFF6ED"/>
<path d="M23.2615 7.19889C23.2482 7.17394 23.2318 7.15078 23.2126 7.12998C23.1946 7.11154 23.18 7.09011 23.1693 7.06664C23.1693 7.06664 23.1693 7.05552 23.1537 7.04441C23.1444 7.03694 23.1374 7.0269 23.1337 7.01551C23.1337 6.99996 23.116 6.97995 23.116 6.9944C23.116 7.00218 23.116 7.00885 23.116 6.9944C23.116 6.98662 23.116 6.97995 23.116 6.97773C23.116 6.97551 23.116 6.96773 23.0937 6.94661C23.0822 6.93518 23.0725 6.92206 23.0648 6.90771C23.0582 6.89549 23.0426 6.86993 23.0293 6.85104C23.016 6.83286 23.0037 6.81394 22.9926 6.79436C22.9827 6.77709 22.97 6.76167 22.9548 6.74879C22.9359 6.73212 22.9304 6.72545 22.9348 6.72212C22.9393 6.71878 22.9348 6.71434 22.9226 6.70656C22.9104 6.69878 22.9037 6.69211 22.9037 6.68433C22.8785 6.63471 22.8437 6.59052 22.8014 6.55431C22.7948 6.55431 22.7948 6.55431 22.8014 6.54541C22.8081 6.53652 22.8014 6.52986 22.7814 6.50318C22.767 6.48795 22.7553 6.47026 22.747 6.45095C22.7437 6.43844 22.7352 6.42793 22.7237 6.42205C22.7103 6.41428 22.7048 6.40761 22.7048 6.39872C22.7048 6.38983 22.6948 6.37427 22.677 6.35649C22.6619 6.34239 22.6505 6.32485 22.6436 6.30536C22.6436 6.29314 22.6359 6.28536 22.6336 6.28758C22.6314 6.2898 22.627 6.28091 22.6236 6.26869C22.6203 6.25646 22.6159 6.24646 22.6036 6.24646C22.5914 6.24646 22.587 6.24646 22.5847 6.22757C22.5726 6.20239 22.5585 6.17823 22.5425 6.15533C22.5261 6.13612 22.5136 6.11383 22.5058 6.08976C22.503 6.07458 22.4977 6.05996 22.4903 6.04642C22.4758 6.01752 22.4747 6.01641 22.4758 6.03975C22.4769 6.06309 22.4758 6.06309 22.4647 6.03975C22.4536 6.01641 22.4647 6.00974 22.4647 6.01086C22.4647 6.01197 22.4647 6.01086 22.4558 5.99307C22.438 5.9743 22.426 5.95074 22.4214 5.92528C22.4014 5.8486 22.4058 5.83415 22.4669 5.78636C22.4858 5.77192 22.4992 5.75636 22.4958 5.75191C22.4925 5.74747 22.4958 5.73969 22.5114 5.73524C22.5248 5.72761 22.5362 5.71695 22.5447 5.70412C22.5575 5.6876 22.5772 5.67779 22.5981 5.67745C22.6336 5.67745 22.6381 5.67078 22.6314 5.65189C22.6247 5.633 22.6314 5.633 22.6392 5.63855C22.6452 5.64406 22.6543 5.64406 22.6603 5.63855C22.6603 5.63189 22.6692 5.63189 22.6736 5.63855C22.6781 5.64522 22.6914 5.63855 22.7036 5.63189C22.7159 5.62522 22.7303 5.61744 22.737 5.62188C22.7437 5.62633 22.807 5.58076 22.8114 5.56298C22.8159 5.5452 22.817 5.56298 22.8226 5.56298C22.8281 5.56298 22.8548 5.55631 22.8848 5.53964C22.9148 5.52297 22.9404 5.51297 22.9437 5.51742C22.947 5.52186 22.9626 5.51742 23.0059 5.46629C23.0204 5.45074 23.0359 5.44407 23.0415 5.44851C23.0471 5.45296 23.0526 5.44851 23.0537 5.44851C23.0548 5.44851 23.0604 5.44296 23.0659 5.44851C23.0715 5.45407 23.0915 5.44851 23.1104 5.43518C23.1293 5.42184 23.1482 5.41851 23.1504 5.42517C23.1526 5.43184 23.1915 5.42517 23.1904 5.40517C23.1892 5.39751 23.1835 5.39135 23.176 5.38961C23.166 5.38961 23.166 5.38961 23.176 5.38183C23.186 5.37405 23.1904 5.38183 23.1982 5.39183C23.206 5.40184 23.2138 5.40295 23.2226 5.39183C23.2315 5.38072 23.2404 5.37405 23.246 5.37628C23.2715 5.38739 23.3038 5.37628 23.4938 5.31071C23.6305 5.26403 23.7561 5.23402 23.835 5.21402C23.9139 5.19401 24.0395 5.16401 24.2595 5.12178C24.3484 5.10622 24.4496 5.08844 24.4818 5.08621C24.5052 5.08522 24.5281 5.07994 24.5496 5.07065C24.5496 5.07065 24.5707 5.05954 24.5941 5.05621C24.6174 5.05287 24.7252 5.03954 24.8352 5.02842C24.904 5.02581 24.9724 5.01726 25.0397 5.00286C25.0397 4.99619 25.0508 4.99508 25.0608 5.00286C25.0708 5.01064 25.0842 5.01064 25.0897 5.00286C25.0953 4.99508 25.1042 5.00286 25.1108 5.01175C25.1175 5.02064 25.1275 5.02287 25.1364 5.01175C25.1453 5.00064 25.1842 5.00397 25.2397 5.02287C25.2544 5.0246 25.2693 5.02269 25.2831 5.01731C25.3042 5.00953 25.3142 5.01731 25.3253 5.03176C25.333 5.0457 25.3472 5.05487 25.3631 5.05621C25.4009 5.05621 25.4742 5.19513 25.4609 5.24291C25.4597 5.26209 25.4636 5.28123 25.472 5.29848C25.4794 5.31404 25.4825 5.33132 25.4809 5.34849C25.4809 5.35627 25.4809 5.36294 25.4809 5.36294C25.4809 5.36294 25.4809 5.38405 25.4809 5.42184C25.474 5.50542 25.474 5.58943 25.4809 5.67301C25.485 5.68679 25.485 5.70145 25.4809 5.71524C25.4753 5.7602 25.4731 5.80552 25.4742 5.85082C25.4742 5.91528 25.4742 5.98085 25.4742 5.99641C25.4715 6.01483 25.4715 6.03356 25.4742 6.05198C25.477 6.07151 25.477 6.09134 25.4742 6.11088C25.4742 6.12755 25.4665 6.22201 25.4642 6.31314C25.462 6.40427 25.4576 6.4954 25.4553 6.50874C25.4525 6.52305 25.4525 6.53777 25.4553 6.55208C25.4618 6.61527 25.4618 6.67894 25.4553 6.74212C25.4553 6.76102 25.4553 6.79436 25.4487 6.81436C25.4387 6.94105 25.4187 6.97662 25.3531 6.9844C25.3398 6.9844 25.3275 6.99329 25.3264 6.99996C25.3253 7.00662 25.3153 7.00662 25.3031 6.99996C25.2893 6.99224 25.2725 6.99224 25.2586 6.99996C25.2464 7.00662 25.2331 7.00774 25.2309 6.99996C25.1708 6.99259 25.1098 6.99789 25.0519 7.01551C25.033 7.02329 25.0153 7.02329 25.013 7.01551C25.0108 7.00774 25.0064 7.01551 25.0053 7.01551C25.0041 7.01551 24.9964 7.02774 24.9497 7.01551C24.9062 7.00865 24.862 7.00865 24.8185 7.01551C24.7963 7.02442 24.772 7.02674 24.7485 7.02218C24.7327 7.02037 24.7166 7.02037 24.7007 7.02218C24.6456 7.04246 24.5886 7.05771 24.5307 7.06775C24.4254 7.08169 24.3218 7.10665 24.2218 7.14221L24.1428 7.17999C24.1202 7.18854 24.0995 7.20137 24.0817 7.21778C24.0813 7.22443 24.0785 7.23071 24.0739 7.23556C24.0628 7.24727 24.0564 7.26274 24.0562 7.2789C24.0562 7.29669 24.0562 7.29557 24.0439 7.2789C24.0317 7.26223 24.0339 7.26223 24.035 7.2789C24.0349 7.29023 24.0288 7.30064 24.019 7.30633C24.0092 7.31202 23.9972 7.31216 23.9873 7.30669C23.9773 7.30113 23.9695 7.30669 23.9695 7.30669C23.9695 7.30669 23.9617 7.33114 23.9461 7.32336C23.9306 7.31558 23.935 7.32336 23.9461 7.33336C23.9572 7.34336 23.9239 7.34892 23.9061 7.33336C23.9047 7.33102 23.9022 7.32959 23.8995 7.32959C23.8967 7.32959 23.8942 7.33102 23.8928 7.33336C23.8856 7.34 23.8757 7.34288 23.8661 7.34114C23.8612 7.34052 23.8563 7.34196 23.8525 7.34512C23.8487 7.34828 23.8464 7.35288 23.8461 7.35781C23.8461 7.36892 23.8461 7.37003 23.835 7.35781C23.8239 7.34559 23.8194 7.34781 23.815 7.35114C23.7979 7.3648 23.7829 7.3809 23.7705 7.39893C23.7705 7.40893 23.7216 7.41115 23.7105 7.39893C23.6994 7.38671 23.7005 7.39893 23.7005 7.40893C23.7005 7.41893 23.7005 7.42671 23.685 7.4156C23.6694 7.40449 23.6483 7.4156 23.6238 7.45005C23.6238 7.45783 23.6116 7.45894 23.6061 7.45005C23.6026 7.44311 23.5942 7.44017 23.5872 7.44338C23.5572 7.46005 23.476 7.4256 23.4527 7.38448C23.4448 7.37326 23.435 7.36348 23.4238 7.35559C23.4135 7.34951 23.4048 7.34114 23.3982 7.33114C23.3982 7.32447 23.3905 7.32225 23.386 7.32447C23.3816 7.32669 23.3771 7.32447 23.3727 7.31113C23.3529 7.27794 23.3273 7.24858 23.2971 7.22445C23.2817 7.22256 23.2683 7.21292 23.2615 7.19889Z" fill="#FFF6ED"/>
<defs>
<linearGradient id="paint0_linear_2808_27335" x1="-28.3288" y1="-23.3071" x2="6.77604" y2="81.6406" gradientUnits="userSpaceOnUse">
<stop stop-color="#FFD4B6"/>
<stop offset="0.47" stop-color="#FF9C41"/>
<stop offset="1" stop-color="#472E9F"/>
</linearGradient>
</defs>
</svg>
