<svg width="25" height="24" viewBox="0 0 25 24" fill="none" xmlns="http://www.w3.org/2000/svg">
<g id="call">
<mask id="mask0_1311_18277" style="mask-type:alpha" maskUnits="userSpaceOnUse" x="0" y="0" width="25" height="24">
<rect id="Bounding box" x="0.5" width="24" height="24" fill="#D9D9D9"/>
</mask>
<g mask="url(#mask0_1311_18277)">
<path id="call_2" d="M20.45 21C18.3667 21 16.3083 20.5458 14.275 19.6375C12.2417 18.7292 10.3917 17.4417 8.725 15.775C7.05833 14.1083 5.77083 12.2583 4.8625 10.225C3.95417 8.19167 3.5 6.13333 3.5 4.05C3.5 3.75 3.6 3.5 3.8 3.3C4 3.1 4.25 3 4.55 3H8.6C8.83333 3 9.04167 3.07917 9.225 3.2375C9.40833 3.39583 9.51667 3.58333 9.55 3.8L10.2 7.3C10.2333 7.56667 10.225 7.79167 10.175 7.975C10.125 8.15833 10.0333 8.31667 9.9 8.45L7.475 10.9C7.80833 11.5167 8.20417 12.1125 8.6625 12.6875C9.12083 13.2625 9.625 13.8167 10.175 14.35C10.6917 14.8667 11.2333 15.3458 11.8 15.7875C12.3667 16.2292 12.9667 16.6333 13.6 17L15.95 14.65C16.1 14.5 16.2958 14.3875 16.5375 14.3125C16.7792 14.2375 17.0167 14.2167 17.25 14.25L20.7 14.95C20.9333 15.0167 21.125 15.1375 21.275 15.3125C21.425 15.4875 21.5 15.6833 21.5 15.9V19.95C21.5 20.25 21.4 20.5 21.2 20.7C21 20.9 20.75 21 20.45 21Z" fill="#CAF441"/>
</g>
</g>
</svg>
