<svg width="49" height="52" viewBox="0 0 49 52" fill="none" xmlns="http://www.w3.org/2000/svg">
<g id="icon-cards">
<path id="Union" fill-rule="evenodd" clip-rule="evenodd" d="M8.5 0C6.29086 0 4.5 1.79086 4.5 4V8C4.5 10.2091 6.29086 12 8.5 12H40.5C42.7091 12 44.5 10.2091 44.5 8V4C44.5 1.79086 42.7091 0 40.5 0H8.5ZM0.5 18C0.5 15.7909 2.29086 14 4.5 14H44.5C46.7091 14 48.5 15.7909 48.5 18V34C48.5 36.2091 46.7091 38 44.5 38H4.5C2.29086 38 0.5 36.2091 0.5 34V18ZM4.5 44C4.5 41.7909 6.29086 40 8.5 40H40.5C42.7091 40 44.5 41.7909 44.5 44V48C44.5 50.2091 42.7091 52 40.5 52H8.5C6.29086 52 4.5 50.2091 4.5 48V44Z" fill="#D4D4D4"/>
</g>
</svg>
