<svg width="25" height="24" viewBox="0 0 25 24" fill="none" xmlns="http://www.w3.org/2000/svg">
<g id="local_shipping">
<mask id="mask0_1227_17071" style="mask-type:alpha" maskUnits="userSpaceOnUse" x="0" y="0" width="25" height="24">
<rect id="Bounding box" x="0.5" width="24" height="24" fill="#D9D9D9"/>
</mask>
<g mask="url(#mask0_1227_17071)">
<path id="local_shipping_2" d="M6.5 20C5.66667 20 4.95833 19.7083 4.375 19.125C3.79167 18.5417 3.5 17.8333 3.5 17H2.5C2.21667 17 1.97917 16.9042 1.7875 16.7125C1.59583 16.5208 1.5 16.2833 1.5 16V6C1.5 5.45 1.69583 4.97917 2.0875 4.5875C2.47917 4.19583 2.95 4 3.5 4H15.5C16.05 4 16.5208 4.19583 16.9125 4.5875C17.3042 4.97917 17.5 5.45 17.5 6V8H19.5C19.8167 8 20.1167 8.07083 20.4 8.2125C20.6833 8.35417 20.9167 8.55 21.1 8.8L23.3 11.725C23.3667 11.8083 23.4167 11.9 23.45 12C23.4833 12.1 23.5 12.2083 23.5 12.325V16C23.5 16.2833 23.4042 16.5208 23.2125 16.7125C23.0208 16.9042 22.7833 17 22.5 17H21.5C21.5 17.8333 21.2083 18.5417 20.625 19.125C20.0417 19.7083 19.3333 20 18.5 20C17.6667 20 16.9583 19.7083 16.375 19.125C15.7917 18.5417 15.5 17.8333 15.5 17H9.5C9.5 17.8333 9.20833 18.5417 8.625 19.125C8.04167 19.7083 7.33333 20 6.5 20ZM6.5 18C6.78333 18 7.02083 17.9042 7.2125 17.7125C7.40417 17.5208 7.5 17.2833 7.5 17C7.5 16.7167 7.40417 16.4792 7.2125 16.2875C7.02083 16.0958 6.78333 16 6.5 16C6.21667 16 5.97917 16.0958 5.7875 16.2875C5.59583 16.4792 5.5 16.7167 5.5 17C5.5 17.2833 5.59583 17.5208 5.7875 17.7125C5.97917 17.9042 6.21667 18 6.5 18ZM18.5 18C18.7833 18 19.0208 17.9042 19.2125 17.7125C19.4042 17.5208 19.5 17.2833 19.5 17C19.5 16.7167 19.4042 16.4792 19.2125 16.2875C19.0208 16.0958 18.7833 16 18.5 16C18.2167 16 17.9792 16.0958 17.7875 16.2875C17.5958 16.4792 17.5 16.7167 17.5 17C17.5 17.2833 17.5958 17.5208 17.7875 17.7125C17.9792 17.9042 18.2167 18 18.5 18ZM17.5 13H21.75L19.5 10H17.5V13Z" fill="#CAF441"/>
</g>
</g>
</svg>
