<svg width="96" height="30" viewBox="0 0 96 30" fill="none" xmlns="http://www.w3.org/2000/svg">
<path fill-rule="evenodd" clip-rule="evenodd" d="M14.7193 11.7064C14.7193 12.8335 14.4587 13.8876 13.9374 14.8689C13.4161 15.8502 12.7031 16.6244 11.7985 17.1918C10.9015 17.759 9.90489 18.0428 8.8086 18.0428C7.191 18.0428 5.77657 17.4218 4.56529 16.1797V20.9866H6.92268V23.1025H0V20.9866H2.1849V7.72765H0.16099V5.60021H4.56529V7.53217C5.16326 6.82682 5.82257 6.30164 6.54319 5.95681C7.26383 5.61179 8.0343 5.43928 8.8546 5.43928C9.99688 5.43928 11.0127 5.72287 11.902 6.29025C12.7913 6.84978 13.4812 7.60891 13.9719 8.56704C14.4702 9.52537 14.7193 10.5718 14.7193 11.7064ZM8.77409 15.8692C9.4334 15.8692 10.0276 15.6777 10.5565 15.2944C11.0855 14.9111 11.4995 14.3896 11.7985 13.7304C12.0974 13.0712 12.2469 12.3735 12.2469 11.6375C12.2469 10.8939 12.0821 10.2115 11.7525 9.59053C11.4228 8.96191 10.9705 8.46362 10.3955 8.09563C9.82056 7.72 9.17275 7.53217 8.45211 7.53217C7.70082 7.53217 7.02618 7.73157 6.42821 8.13017C5.83023 8.52112 5.36643 9.04238 5.03678 9.69415C4.70712 10.3457 4.54229 11.0625 4.54229 11.8445C4.54229 13.1018 4.93712 14.0868 5.72674 14.7998C6.52404 15.5128 7.53983 15.8692 8.77409 15.8692ZM28.7951 12.2469H18.6641C18.8097 13.4046 19.2583 14.3207 20.0096 14.9953C20.7609 15.6624 21.6807 15.9958 22.7694 15.9958C23.5668 15.9958 24.3065 15.8309 24.9888 15.5012C25.671 15.1717 26.2423 14.6657 26.7022 13.9834L28.7951 14.9264C28.1358 15.9536 27.2696 16.7318 26.1962 17.2607C25.1307 17.7821 23.9693 18.0428 22.7119 18.0428C21.4087 18.0428 20.251 17.7705 19.2391 17.2261C18.2272 16.6819 17.4374 15.923 16.8703 14.9493C16.3105 13.9757 16.0307 12.8794 16.0307 11.6605C16.0307 10.4492 16.3068 9.35678 16.8587 8.38315C17.4184 7.40951 18.1811 6.65059 19.147 6.10617C20.113 5.55429 21.1787 5.27835 22.3439 5.27835C23.6166 5.27835 24.7243 5.56194 25.6673 6.12932C26.618 6.68885 27.3653 7.49391 27.9098 8.54408C28.454 9.5868 28.7491 10.8211 28.7951 12.2469ZM22.39 7.25624C21.4929 7.25624 20.7071 7.55906 20.0326 8.16471C19.3578 8.76252 18.9247 9.55598 18.7331 10.5451H26.2999C26.0775 9.55598 25.6059 8.76252 24.8854 8.16471C24.1648 7.55906 23.3328 7.25624 22.39 7.25624ZM34.5223 12.8335V15.5703H37.1557V17.6862H29.7385V15.5703H32.165V7.72765H29.7385V5.60021H34.0509V8.33722C34.5338 7.25623 35.1318 6.50496 35.8448 6.08321C36.5655 5.65399 37.5927 5.43928 38.9267 5.43928H39.4672V7.84266H38.9496C37.6618 7.84266 36.7035 8.01124 36.0749 8.34861C35.446 8.68597 35.0284 9.19585 34.8214 9.87805C34.622 10.5604 34.5223 11.5454 34.5223 12.8335ZM48.2071 2.78293L46.0913 3.1048C46.0224 2.32291 45.7233 1.93196 45.1944 1.93196C44.8187 1.93196 44.5658 2.066 44.4354 2.33448C44.3128 2.60277 44.2514 3.08183 44.2514 3.77188V5.60021H46.3213V7.72765H44.2514V15.5703H46.5283V17.6862H40.1001V15.5703H41.8709V7.72765H40.1001V5.60021H41.8709V3.72576C41.8709 2.62181 42.1392 1.7249 42.676 1.03486C43.2202 0.345016 44.0213 0 45.0794 0C45.9533 0 46.6547 0.233743 47.1836 0.701425C47.7204 1.16145 48.0615 1.85522 48.2071 2.78293ZM60.0636 12.2469H49.9326C50.0782 13.4046 50.5267 14.3207 51.278 14.9953C52.0292 15.6624 52.9493 15.9958 54.0379 15.9958C54.8351 15.9958 55.575 15.8309 56.2572 15.5012C56.9396 15.1717 57.5107 14.6657 57.9707 13.9834L60.0636 14.9264C59.4042 15.9536 58.5379 16.7318 57.4648 17.2607C56.3991 17.7821 55.2377 18.0428 53.9804 18.0428C52.6771 18.0428 51.5196 17.7705 50.5075 17.2261C49.4956 16.6819 48.706 15.923 48.1386 14.9493C47.5791 13.9757 47.2992 12.8794 47.2992 11.6605C47.2992 10.4492 47.5752 9.35678 48.1272 8.38315C48.6868 7.40951 49.4496 6.65059 50.4156 6.10617C51.3816 5.55429 52.4471 5.27835 53.6124 5.27835C54.885 5.27835 55.9929 5.56194 56.9357 6.12932C57.8864 6.68885 58.6339 7.49391 59.1781 8.54408C59.7225 9.5868 60.0175 10.8211 60.0636 12.2469ZM53.6584 7.25624C52.7615 7.25624 51.9757 7.55906 51.3009 8.16471C50.6264 8.76252 50.1932 9.55598 50.0015 10.5451H57.5682C57.3459 9.55598 56.8745 8.76252 56.1538 8.16471C55.4331 7.55906 54.6014 7.25624 53.6584 7.25624ZM70.7126 6.47415V5.60021H72.8284V10.1771H70.7126C70.6205 9.29535 70.2679 8.62455 69.6546 8.16471C69.0413 7.69703 68.3322 7.46309 67.5273 7.46309C66.8373 7.46309 66.2163 7.64718 65.6642 8.01517C65.12 8.38315 64.6983 8.88145 64.3994 9.51006C64.1005 10.1387 63.9509 10.8248 63.9509 11.5684C63.9509 12.8335 64.2883 13.8684 64.9628 14.6734C65.6376 15.4706 66.5268 15.8692 67.6307 15.8692C69.3403 15.8692 70.5477 15.0757 71.2531 13.489L73.231 14.4318C72.1194 16.8391 70.218 18.0428 67.5273 18.0428C66.3237 18.0428 65.2541 17.759 64.3189 17.1918C63.3835 16.6244 62.6591 15.8462 62.1455 14.8573C61.6396 13.8684 61.3864 12.7721 61.3864 11.5684C61.3864 10.3879 61.6433 9.31459 62.1569 8.34861C62.6782 7.38263 63.3912 6.63135 64.2959 6.09478C65.2005 5.55036 66.2087 5.27835 67.3203 5.27835C68.6389 5.27835 69.7696 5.67695 70.7126 6.47415ZM80.2805 5.60021V7.72765H78.0726V14.0638C78.0726 14.7233 78.1417 15.1525 78.2797 15.3519C78.4253 15.5434 78.6706 15.6394 79.0157 15.6394C79.4372 15.6394 79.859 15.5664 80.2805 15.4208V17.5711C79.5446 17.7859 78.9505 17.8932 78.4981 17.8932C77.5015 17.8932 76.7848 17.644 76.3477 17.1457C75.9109 16.6397 75.6922 15.7774 75.6922 14.5584V7.72765H74.1169V5.60021H75.6922V3.77188L78.0726 1.59852V5.60021H80.2805ZM94.1379 11.6605C94.1379 12.8335 93.858 13.9066 93.2985 14.8803C92.7388 15.8539 91.9761 16.6244 91.0101 17.1918C90.0442 17.759 88.9748 18.0428 87.8017 18.0428C86.5904 18.0428 85.4981 17.759 84.5244 17.1918C83.5508 16.6244 82.7919 15.8539 82.2474 14.8803C81.7109 13.9066 81.4426 12.8335 81.4426 11.6605C81.4426 10.4338 81.7109 9.33755 82.2474 8.37157C82.7919 7.40559 83.5469 6.65059 84.5128 6.10617C85.4788 5.55429 86.5751 5.27835 87.8017 5.27835C88.9901 5.27835 90.0671 5.5696 91.0331 6.15229C91.9991 6.72713 92.758 7.50156 93.3099 8.47519C93.862 9.44882 94.1379 10.5106 94.1379 11.6605ZM87.8017 15.7312C88.5071 15.7312 89.1549 15.5473 89.7451 15.1794C90.3354 14.8114 90.7954 14.3168 91.1251 13.6958C91.4547 13.0749 91.6195 12.3964 91.6195 11.6605C91.6195 10.9398 91.4547 10.269 91.1251 9.64803C90.7954 9.02707 90.3354 8.52877 89.7451 8.15314C89.1549 7.76985 88.4994 7.5781 87.7788 7.5781C87.0734 7.5781 86.4256 7.76592 85.8352 8.14156C85.2451 8.50954 84.7811 9.00783 84.4439 9.63664C84.1066 10.2653 83.938 10.9398 83.938 11.6605C83.938 12.3811 84.1066 13.0556 84.4439 13.6845C84.7811 14.3131 85.2488 14.8114 85.8468 15.1794C86.4448 15.5473 87.0964 15.7312 87.8017 15.7312ZM61.7611 27.7348V26.9413H61.071V21.2363H59.3763V22.0211H60.1784V26.9413H59.3763V27.7348H61.7611ZM66.9164 26.6826C67.1262 26.3176 67.2312 25.915 67.2312 25.4752C67.2312 25.0439 67.1275 24.6458 66.9207 24.2806C66.7136 23.9156 66.4291 23.6251 66.0668 23.4096C65.7045 23.1912 65.3006 23.0819 64.8551 23.0819C64.3951 23.0819 63.9839 23.1853 63.6218 23.3923C63.2595 23.5965 62.9763 23.8797 62.7722 24.242C62.571 24.604 62.4703 25.0152 62.4703 25.4752C62.4703 25.915 62.571 26.3176 62.7722 26.6826C62.9763 27.0477 63.2609 27.3367 63.6261 27.5495C63.9911 27.7622 64.4007 27.8686 64.8551 27.8686C65.2949 27.8686 65.696 27.7622 66.0581 27.5495C66.4204 27.3367 66.7064 27.0477 66.9164 26.6826ZM65.5838 26.7947C65.3624 26.9326 65.1196 27.0017 64.8551 27.0017C64.5905 27.0017 64.3462 26.9326 64.122 26.7947C63.8977 26.6567 63.7223 26.4699 63.5959 26.2342C63.4693 25.9985 63.4061 25.7455 63.4061 25.4752C63.4061 25.205 63.4693 24.952 63.5959 24.7163C63.7223 24.4804 63.8964 24.2936 64.1177 24.1556C64.3389 24.0147 64.5819 23.9442 64.8464 23.9442C65.1167 23.9442 65.3624 24.0163 65.5838 24.1599C65.8052 24.3008 65.9777 24.4877 66.1013 24.7206C66.2249 24.9534 66.2868 25.205 66.2868 25.4752C66.2868 25.7512 66.2249 26.0055 66.1013 26.2385C65.9777 26.4712 65.8052 26.6567 65.5838 26.7947ZM71.8344 23.2026V23.8581C71.5871 23.6167 71.3328 23.4369 71.0711 23.319C70.8125 23.2012 70.5336 23.1423 70.2345 23.1423C69.8176 23.1423 69.4383 23.2514 69.0962 23.4699C68.7539 23.6885 68.4837 23.9817 68.2855 24.3497C68.09 24.7177 67.9923 25.1159 67.9923 25.5441C67.9923 25.9639 68.0857 26.3505 68.2725 26.7042C68.4623 27.0549 68.7239 27.3367 69.0573 27.5495C69.3937 27.7622 69.7717 27.8686 70.1915 27.8686C70.4904 27.8686 70.7893 27.8025 71.0884 27.6702C71.3903 27.5379 71.6389 27.3568 71.8344 27.1267V27.5495C71.8344 28.0093 71.708 28.3789 71.455 28.6577C71.2019 28.9364 70.8512 29.076 70.4027 29.076C70.1554 29.076 69.927 29.0371 69.7172 28.9596C69.5101 28.8848 69.3031 28.7712 69.0962 28.6189L68.5225 29.2614C69.0344 29.6697 69.6524 29.8738 70.3768 29.8738C71.1416 29.8738 71.7223 29.6581 72.119 29.2269C72.5185 28.7985 72.7185 28.1891 72.7185 27.3986V24.0004H73.5377V23.2026H71.8344ZM71.123 26.8594C70.8957 27.0004 70.6413 27.0708 70.3595 27.0708C70.0808 27.0708 69.8322 27.0017 69.6135 26.8638C69.3981 26.7258 69.2312 26.5389 69.1133 26.303C68.9955 26.0673 68.9366 25.8087 68.9366 25.5269C68.9366 25.2509 68.9983 24.9936 69.1219 24.755C69.2456 24.5163 69.4181 24.3267 69.6395 24.1858C69.8608 24.0449 70.1065 23.9745 70.3768 23.9745C70.6529 23.9745 70.903 24.0478 71.1273 24.1945C71.3514 24.3411 71.5269 24.5336 71.6532 24.7722C71.7798 25.0109 71.843 25.2595 71.843 25.5182C71.843 25.7943 71.7798 26.0516 71.6532 26.2903C71.5269 26.5287 71.35 26.7185 71.123 26.8594ZM75.4502 22.0554C75.5566 21.9491 75.6098 21.8227 75.6098 21.6761C75.6098 21.5236 75.558 21.3958 75.4546 21.2922C75.3509 21.1888 75.2232 21.137 75.0707 21.137C74.9241 21.137 74.7991 21.1901 74.6956 21.2965C74.592 21.4029 74.5404 21.5295 74.5404 21.6761C74.5404 21.8227 74.592 21.9491 74.6956 22.0554C74.7991 22.1618 74.9241 22.215 75.0707 22.215C75.2173 22.215 75.3439 22.1618 75.4502 22.0554ZM76.248 27.7348V26.9413H75.558V23.2026H73.9581V24.0004H74.6654V26.9413H73.9581V27.7348H76.248ZM79.618 23.2026V23.3967C79.3218 23.2271 78.9568 23.1423 78.5227 23.1423C78.2638 23.1423 78.0124 23.1926 77.7681 23.2932C77.5237 23.3937 77.3223 23.5446 77.1642 23.746C77.0089 23.9442 76.9314 24.1844 76.9314 24.4661C76.9314 24.814 77.0378 25.1 77.2505 25.3243C77.4633 25.5484 77.7981 25.7066 78.2554 25.7987L78.7168 25.8978C79.1163 25.9755 79.3823 26.0516 79.5145 26.1264C79.6466 26.1982 79.7128 26.3074 79.7128 26.4542C79.7128 26.6553 79.6294 26.8076 79.4627 26.9112C79.2959 27.0117 79.0675 27.0622 78.777 27.0622C78.5127 27.0622 78.2797 26.996 78.0785 26.8638C77.8801 26.7315 77.7594 26.5562 77.7162 26.3376V26.1824H76.9228V27.7348H77.7162V27.489C77.8542 27.5811 78.0253 27.6586 78.2295 27.7218C78.4363 27.7822 78.6463 27.8125 78.859 27.8125C79.3936 27.8125 79.8221 27.6859 80.1441 27.4329C80.4689 27.1799 80.6313 26.8451 80.6313 26.4283C80.6313 25.7153 80.1844 25.2768 79.2902 25.1129L78.6908 24.9966C78.294 24.9332 78.0383 24.86 77.9233 24.7766C77.811 24.6931 77.7551 24.5781 77.7551 24.4315C77.7551 24.2677 77.8299 24.134 77.9792 24.0306C78.1288 23.9272 78.3213 23.8753 78.5572 23.8753C79.0057 23.8753 79.3593 24.0608 79.618 24.4315V24.7077H80.3942V23.2026H79.618ZM83.6607 24.0004V23.2026H82.8327V21.702L81.9401 22.5168V23.2026H81.3494V24.0004H81.9401V26.5619C81.9401 27.019 82.0219 27.3424 82.1858 27.5322C82.3497 27.719 82.6186 27.8125 82.9922 27.8125C83.1618 27.8125 83.3848 27.7722 83.6607 27.6918V26.8853C83.5025 26.9399 83.3445 26.9672 83.1863 26.9672C83.057 26.9672 82.965 26.9313 82.9104 26.8594C82.8586 26.7847 82.8327 26.6237 82.8327 26.3765V24.0004H83.6607ZM85.7369 22.0554C85.8433 21.9491 85.8965 21.8227 85.8965 21.6761C85.8965 21.5236 85.8448 21.3958 85.7412 21.2922C85.6378 21.1888 85.5098 21.137 85.3575 21.137C85.2109 21.137 85.0857 21.1901 84.9823 21.2965C84.8789 21.4029 84.827 21.5295 84.827 21.6761C84.827 21.8227 84.8789 21.9491 84.9823 22.0554C85.0857 22.1618 85.2109 22.215 85.3575 22.215C85.5041 22.215 85.6305 22.1618 85.7369 22.0554ZM86.5347 27.7348V26.9413H85.8448V23.2026H84.2449V24.0004H84.9521V26.9413H84.2449V27.7348H86.5347ZM90.6551 23.2026V23.5303C90.3015 23.2314 89.8773 23.0819 89.383 23.0819C88.9661 23.0819 88.5879 23.1839 88.2488 23.388C87.9095 23.5892 87.6422 23.871 87.4467 24.2333C87.2542 24.5954 87.1578 24.9979 87.1578 25.4407C87.1578 25.8921 87.2526 26.303 87.4424 26.674C87.6349 27.0449 87.9067 27.3367 88.2574 27.5495C88.6081 27.7622 89.0091 27.8686 89.4605 27.8686C90.4696 27.8686 91.1826 27.4172 91.5995 26.5144L90.8576 26.1608C90.5933 26.756 90.1405 27.0535 89.4994 27.0535C89.0854 27.0535 88.7518 26.904 88.4988 26.6051C88.2458 26.303 88.1195 25.915 88.1195 25.4407C88.1195 25.1618 88.1754 24.9045 88.2877 24.6688C88.3997 24.4331 88.5579 24.2463 88.762 24.1081C88.9689 23.9701 89.2018 23.9013 89.4605 23.9013C89.7623 23.9013 90.0283 23.9888 90.2583 24.1642C90.4883 24.3367 90.6206 24.5883 90.6551 24.9188H91.4486V23.2026H90.6551ZM94.9867 23.2026V23.3967C94.6906 23.2271 94.3255 23.1423 93.8914 23.1423C93.6325 23.1423 93.3811 23.1926 93.1366 23.2932C92.8923 23.3937 92.6911 23.5446 92.5329 23.746C92.3777 23.9442 92.3001 24.1844 92.3001 24.4661C92.3001 24.814 92.4065 25.1 92.6193 25.3243C92.832 25.5484 93.1668 25.7066 93.6239 25.7987L94.0853 25.8978C94.4851 25.9755 94.751 26.0516 94.8831 26.1264C95.0154 26.1982 95.0815 26.3074 95.0815 26.4542C95.0815 26.6553 94.9981 26.8076 94.8315 26.9112C94.6647 27.0117 94.4362 27.0622 94.1458 27.0622C93.8812 27.0622 93.6484 26.996 93.4471 26.8638C93.2488 26.7315 93.128 26.5562 93.085 26.3376V26.1824H92.2915V27.7348H93.085V27.489C93.2229 27.5811 93.3939 27.6586 93.5982 27.7218C93.805 27.7822 94.015 27.8125 94.2278 27.8125C94.7624 27.8125 95.1908 27.6859 95.5127 27.4329C95.8377 27.1799 96 26.8451 96 26.4283C96 25.7153 95.5529 25.2768 94.659 25.1129L94.0596 24.9966C93.6628 24.9332 93.4068 24.86 93.2918 24.7766C93.1798 24.6931 93.1238 24.5781 93.1238 24.4315C93.1238 24.2677 93.1984 24.134 93.348 24.0306C93.4975 23.9272 93.69 23.8753 93.9258 23.8753C94.3744 23.8753 94.7279 24.0608 94.9867 24.4315V24.7077H95.7629V23.2026H94.9867Z" fill="#939393"/>
</svg>
