<svg width="25" height="24" viewBox="0 0 25 24" fill="none" xmlns="http://www.w3.org/2000/svg">
<g id="near_me">
<mask id="mask0_1311_20208" style="mask-type:alpha" maskUnits="userSpaceOnUse" x="0" y="0" width="25" height="24">
<rect id="Bounding box" x="0.75" width="24" height="24" fill="#D9D9D9"/>
</mask>
<g mask="url(#mask0_1311_20208)">
<path id="near_me_2" d="M10.8002 13.9499L4.3252 11.3249C4.10853 11.2416 3.9502 11.1124 3.8502 10.9374C3.7502 10.7624 3.7002 10.5832 3.7002 10.3999C3.7002 10.2166 3.75436 10.0374 3.8627 9.8624C3.97103 9.6874 4.13353 9.55824 4.3502 9.4749L19.7002 3.7749C19.9002 3.69157 20.0919 3.6749 20.2752 3.7249C20.4585 3.7749 20.6169 3.86657 20.7502 3.9999C20.8835 4.13324 20.9752 4.29157 21.0252 4.4749C21.0752 4.65824 21.0585 4.8499 20.9752 5.0499L15.2752 20.3999C15.1919 20.6166 15.0627 20.7791 14.8877 20.8874C14.7127 20.9957 14.5335 21.0499 14.3502 21.0499C14.1669 21.0499 13.9877 20.9999 13.8127 20.8999C13.6377 20.7999 13.5085 20.6416 13.4252 20.4249L10.8002 13.9499Z" fill="#CAF441"/>
</g>
</g>
</svg>
