<svg width="56" height="56" viewBox="0 0 56 56" fill="none" xmlns="http://www.w3.org/2000/svg">
<path d="M16.0536 2.66004C13.8847 3.88166 13.0865 7.02578 14.4106 9.13463C13.6787 7.96891 10.3855 11.5313 10.0335 12.0945C4.40989 21.1013 13.9271 31.1435 10.1515 40.4164C9.37091 42.3327 7.62337 45.1269 8.53338 47.2492C9.07068 48.5019 10.4787 49.1127 11.7924 49.4802C19.5797 51.6388 27.9861 50.4917 35.2807 47.1861C40.3142 44.9085 52.168 38.5229 49.7879 31.4354C49.2776 29.9136 47.7567 29.9664 46.4937 29.5078C44.7617 28.8793 44.0091 27.8596 43.1995 26.2104C40.3773 20.4439 39.7924 14.0977 34.9846 9.3686C33.5808 7.98755 31.8229 6.8943 29.9117 6.39116C27.7863 5.83108 25.8131 6.59821 23.7177 6.31041C21.8842 6.05884 21.6472 3.94481 20.2071 3.05655C19.1625 2.41261 17.7038 2.34117 16.7617 3.12694" fill="url(#paint0_linear_2808_27343)"/>
<path d="M15.804 2.24282C15.804 2.25006 15.8134 2.28112 15.832 2.31115C15.8506 2.34117 15.8631 2.37119 15.8579 2.3743C15.8527 2.3774 15.8579 2.38776 15.8662 2.39604C15.8744 2.40432 15.8817 2.41881 15.8775 2.42606C15.8734 2.43331 15.8775 2.46437 15.891 2.44573C15.9045 2.4271 15.8993 2.43538 15.8972 2.44573C15.8949 2.45411 15.8902 2.46166 15.8838 2.46747C15.8713 2.47472 15.8734 2.48093 15.8962 2.49853C15.9071 2.50823 15.9144 2.52138 15.9169 2.5358C15.9201 2.55564 15.9263 2.57486 15.9355 2.59274C15.9444 2.61075 15.9507 2.62992 15.9542 2.64968C15.959 2.66655 15.9697 2.6812 15.9842 2.69109C16.0038 2.70455 16.008 2.7118 15.9997 2.71697C15.9914 2.72215 15.9945 2.72629 16.009 2.73147C16.0235 2.73664 16.0266 2.74285 16.0225 2.75217C16.0183 2.76149 16.0794 2.87744 16.0981 2.87433C16.1167 2.87123 16.1063 2.87433 16.0981 2.88365C16.0898 2.89297 16.0877 2.90229 16.1063 2.92713C16.118 2.94176 16.1256 2.9593 16.1281 2.97786C16.1261 2.99004 16.1337 3.00172 16.1457 3.00478C16.1602 3.00995 16.1643 3.01617 16.1591 3.02652C16.154 3.03687 16.1591 3.05033 16.1778 3.06689C16.191 3.07983 16.1991 3.09712 16.2006 3.11555C16.2006 3.12798 16.2006 3.13626 16.2006 3.13419C16.2006 3.13212 16.2068 3.13936 16.2006 3.15179C16.1943 3.16421 16.2006 3.17353 16.2171 3.17146C16.2337 3.16939 16.2358 3.17146 16.2347 3.18906C16.2386 3.21352 16.2471 3.23704 16.2596 3.25842C16.2724 3.27682 16.2802 3.29822 16.2823 3.32054C16.2809 3.33523 16.2827 3.35006 16.2875 3.36402C16.2958 3.39093 16.2968 3.39197 16.302 3.36402C16.3072 3.33606 16.3082 3.34124 16.3124 3.36402C16.3165 3.38679 16.3124 3.39404 16.3041 3.393C16.2958 3.39197 16.2968 3.39818 16.3093 3.40957C16.3244 3.42743 16.3322 3.45038 16.331 3.47376C16.331 3.54623 16.331 3.55865 16.2554 3.60938C16.2337 3.62491 16.2171 3.64043 16.2202 3.64354C16.2233 3.64665 16.214 3.65493 16.2016 3.66218C16.187 3.6719 16.1747 3.68461 16.1654 3.69945C16.1514 3.71774 16.1317 3.73085 16.1094 3.73672C16.0722 3.74914 16.068 3.75328 16.0742 3.76984C16.0805 3.78641 16.0742 3.78744 16.066 3.78434C16.0574 3.78186 16.0483 3.78576 16.0442 3.79366C16.0442 3.8009 16.0339 3.80297 16.0297 3.79366C16.0256 3.78434 16.0111 3.79366 15.9976 3.80711C15.9842 3.82057 15.9697 3.82885 15.9635 3.82575C15.9573 3.82264 15.8879 3.88372 15.8879 3.90546C15.8875 3.9077 15.886 3.90962 15.884 3.91063C15.882 3.91165 15.8796 3.91165 15.8775 3.91064C15.8775 3.91064 15.8455 3.93135 15.8175 3.96033C15.7895 3.98932 15.7637 4.01003 15.7606 4.00589C15.7575 4.00174 15.7409 4.01727 15.7026 4.08043C15.6912 4.10217 15.6767 4.11562 15.6705 4.11355C15.6643 4.11148 15.6581 4.11355 15.657 4.11977C15.656 4.12598 15.657 4.12908 15.6456 4.12805C15.6343 4.12701 15.6218 4.14358 15.6063 4.16532C15.5908 4.18706 15.5742 4.20259 15.5701 4.19948C15.5659 4.19638 15.5307 4.2264 15.5369 4.24089C15.542 4.24526 15.5495 4.24526 15.5545 4.24089C15.5649 4.24089 15.5659 4.24089 15.5608 4.24607C15.5536 4.25109 15.5441 4.25109 15.5369 4.24607C15.5235 4.24089 15.5183 4.24607 15.5131 4.26574C15.5115 4.27715 15.5056 4.28751 15.4966 4.29473C15.4821 4.29473 15.4676 4.30715 15.4365 4.33821L15.4241 4.35063C15.414 4.36212 15.4047 4.37422 15.3961 4.38687C15.363 4.43967 15.3289 4.49039 15.2926 4.54733C15.2181 4.6549 15.1526 4.76848 15.097 4.8869C15.0322 5.00748 14.9758 5.13235 14.9282 5.26064C14.7053 5.81924 14.6091 6.42034 14.6466 7.0206C14.6528 7.09928 14.658 7.17796 14.6642 7.25871C14.6704 7.33946 14.6911 7.41607 14.7056 7.49579L14.7263 7.61588C14.7328 7.64944 14.7432 7.68211 14.7574 7.7132L14.8019 7.83536L14.9831 8.32918C15.0003 8.37758 15.0225 8.42406 15.0493 8.46791L15.0897 8.54038C15.1011 8.56523 15.127 8.59421 15.097 8.60146L14.8899 8.74743L14.6828 8.89341L14.657 8.91204L14.6456 8.92136L14.6249 8.93792L14.5824 8.97209L14.4126 9.11081C14.4364 9.08597 14.4634 9.05698 14.423 9.07458C14.3433 9.11256 14.2659 9.15508 14.1911 9.20192L14.0068 9.31166L13.9571 9.34168C13.9468 9.34168 13.9468 9.36238 13.9447 9.38102L13.9395 9.43589L13.9167 9.65537L13.9054 9.76614C13.8826 9.77753 13.8546 9.78581 13.8298 9.79616C13.8049 9.80652 13.7625 9.82722 13.7594 9.82826L13.7335 9.83965C13.6993 9.85414 13.659 9.87899 13.6207 9.89866C13.544 9.9411 13.4623 9.98976 13.3794 10.0457C13.0161 10.2926 12.6718 10.5663 12.3493 10.8646C12.0015 11.1751 11.6516 11.5261 11.3141 11.8947C11.1464 12.0758 10.9724 12.2725 10.8347 12.4475L10.7913 12.5055C10.7768 12.5272 10.7819 12.5169 10.7664 12.5417L10.6722 12.7084L10.4796 13.0448C9.94427 14.0065 9.55819 15.044 9.33463 16.1217C9.09324 17.3431 9.01906 18.5917 9.11411 19.8331C9.25491 21.7411 9.66695 23.6336 10.1318 25.5044C10.5966 27.3751 11.1018 29.2313 11.458 31.1186C11.8141 33.0059 12.0191 34.915 11.8617 36.8043C11.7844 37.7404 11.6109 38.666 11.3441 39.5665C11.2817 39.7891 11.2081 40.0086 11.1236 40.2239C11.0418 40.4392 10.9735 40.6618 10.8803 40.8668C10.7043 41.286 10.521 41.6732 10.3451 42.0542C9.99757 42.7671 9.69435 43.5008 9.43712 44.2511C9.20108 44.9613 9.08927 45.6528 9.15242 46.2491C9.1866 46.5274 9.26818 46.7977 9.39364 47.0484C9.53128 47.2861 9.71128 47.4966 9.92473 47.6695C10.372 48.0433 10.9745 48.3124 11.5998 48.5133C11.9104 48.6168 12.2437 48.6965 12.5761 48.7793C12.9084 48.8622 13.2314 48.9502 13.5565 49.0195C14.2097 49.1417 14.8392 49.2908 15.4645 49.3663L16.3838 49.4989L17.2814 49.5858C17.8684 49.6552 18.443 49.6604 18.9937 49.6893C19.5724 49.7132 20.1698 49.7028 20.7858 49.7038L21.7248 49.6655L22.2051 49.6438L22.6917 49.6024C24.0889 49.4937 25.4781 49.2991 26.8514 49.0195C29.7813 48.4294 33.0061 47.3952 36.4795 45.6766C38.3317 44.7713 40.1258 43.7517 41.8515 42.6236C42.7879 42.0092 43.6922 41.3471 44.5608 40.64C45.4741 39.9061 46.3199 39.0919 47.0879 38.2071C47.4778 37.7542 47.8348 37.274 48.1563 36.7702C48.4756 36.2659 48.7394 35.7286 48.9431 35.1676C49.1441 34.6106 49.2587 34.0262 49.2827 33.4345C49.292 32.8341 49.2035 32.2362 49.0208 31.6642C48.9562 31.4557 48.8389 31.2674 48.6801 31.1176C48.4853 30.9568 48.2609 30.8355 48.0196 30.7604C47.736 30.6569 47.3985 30.5782 47.031 30.484C46.6321 30.386 46.2414 30.2576 45.8621 30.0999C45.0405 29.7638 44.3106 29.2372 43.7326 28.5636C43.1539 27.8803 42.7625 27.1277 42.4116 26.3968C41.279 24.0488 40.4632 21.5113 39.6163 19.1084C39.1877 17.9065 38.7488 16.7335 38.255 15.6299C37.7786 14.5679 37.225 13.5423 36.5985 12.5614C36.2745 12.109 35.9774 11.6503 35.6295 11.2497C35.4577 11.0478 35.3075 10.8356 35.1253 10.6482L34.6077 10.0923C33.9704 9.42742 33.2542 8.84299 32.475 8.35196C31.0474 7.45541 29.685 7.04959 28.834 6.98229C27.9426 6.89637 27.0088 7.00714 26.0915 7.08582C25.6319 7.12413 25.1743 7.15001 24.7322 7.1469C24.5117 7.1469 24.2933 7.13448 24.0821 7.12309L23.7715 7.091L23.5996 7.09824L23.4226 7.06305C23.1955 7.01838 22.974 6.94894 22.7621 6.85599C22.5741 6.76636 22.3949 6.65925 22.2269 6.53609C22.0841 6.4323 21.9491 6.31811 21.8231 6.19445C21.7196 6.08161 21.6161 5.97601 21.5363 5.88387C21.2175 5.49357 21.0788 5.26271 21.0353 5.20784L20.7247 4.74921C20.5427 4.4716 20.331 4.21471 20.0932 3.98311C20.0284 3.92246 19.9592 3.86675 19.8861 3.81643C19.8064 3.75828 19.7223 3.70637 19.6346 3.66114C19.4425 3.56172 19.2392 3.48594 19.0289 3.43545C18.8051 3.38112 18.5748 3.35778 18.3446 3.36609L18.1199 3.38576C18.033 3.39662 17.9469 3.41322 17.8622 3.43545C17.8131 3.44658 17.7652 3.46253 17.7193 3.48307C17.6988 3.48922 17.6793 3.49829 17.6613 3.50999C17.6613 3.50999 17.652 3.51931 17.6406 3.51931C17.6309 3.51807 17.6211 3.52109 17.6137 3.52759C17.6066 3.53261 17.597 3.53261 17.5899 3.52759C17.5858 3.52472 17.5806 3.52399 17.5759 3.52563C17.5711 3.52727 17.5675 3.53108 17.5661 3.53587C17.5609 3.55037 17.5226 3.55761 17.4625 3.57314C17.4486 3.57879 17.4362 3.58765 17.4263 3.59902C17.422 3.60628 17.415 3.61148 17.4068 3.61343C17.3986 3.61539 17.3899 3.61392 17.3828 3.60938C17.369 3.60163 17.3521 3.60163 17.3383 3.60938C17.3104 3.63112 17.1716 3.58246 17.154 3.54415C17.1436 3.53018 17.1292 3.5197 17.1126 3.51413C17.094 3.50688 17.0764 3.4955 17.0743 3.48825C17.0723 3.481 17.0681 3.4779 17.064 3.481C17.0598 3.48411 17.0453 3.47169 17.0277 3.44373C16.9888 3.38154 16.9418 3.3248 16.888 3.27498C16.8762 3.26973 16.868 3.25877 16.8662 3.246C16.8481 3.21117 16.8251 3.1791 16.7979 3.15075C16.7687 3.1191 16.743 3.08439 16.7213 3.04722C16.7149 3.03198 16.7041 3.019 16.6902 3.00995C16.6757 3.00082 16.6647 2.98692 16.6592 2.97061C16.6305 2.91921 16.598 2.87006 16.5619 2.82361C16.5263 2.7785 16.4948 2.73035 16.4677 2.6797C16.4643 2.66645 16.4532 2.65658 16.4397 2.65486C16.3898 2.62747 16.3502 2.58459 16.3269 2.53269L16.302 2.47161C16.2565 2.36809 16.2886 2.29562 16.4873 2.16103C16.5157 2.14504 16.5413 2.12439 16.5629 2.09995C16.5836 2.08029 16.6089 2.06606 16.6364 2.05854C16.6853 2.03843 16.7327 2.0149 16.7782 1.98814C16.8055 1.96835 16.8355 1.95265 16.8673 1.94155C16.889 1.93017 17.3042 1.7728 17.4584 1.7345C17.5003 1.71644 17.5453 1.70659 17.5909 1.70551C17.5971 1.70551 17.6085 1.70551 17.6178 1.6993C17.6272 1.69309 17.651 1.68066 17.8042 1.66617H17.8497H17.8746H17.9088C18.5954 1.57831 19.293 1.6597 19.941 1.90325C20.4568 2.09327 20.9284 2.38634 21.3272 2.76459C21.4494 2.8909 21.5829 3.02134 21.6865 3.15282C22.1192 3.68185 22.4236 4.19948 22.7321 4.61359C22.8651 4.79208 23.016 4.9565 23.1824 5.10431C23.3202 5.21268 23.4757 5.29639 23.6421 5.35174L23.7746 5.37762L23.8398 5.39315L23.9361 5.4035C24.0655 5.41696 24.1929 5.43456 24.3264 5.4387C24.5956 5.45429 24.8655 5.45636 25.135 5.44491C26.2365 5.40868 27.4519 5.19852 28.7242 5.27824C29.042 5.29831 29.3583 5.33702 29.6715 5.39419L30.1364 5.49771L30.565 5.61988C31.1067 5.78804 31.6354 5.99565 32.1469 6.24104C33.6889 6.99432 35.0688 8.04162 36.2093 9.32408C36.3128 9.43589 36.4163 9.54563 36.5198 9.65123L36.789 9.97941L37.2859 10.5913C37.5831 10.994 37.844 11.3687 38.0893 11.7301C38.314 12.0996 38.5366 12.4485 38.7436 12.8067C38.9507 13.1649 39.1432 13.5314 39.3389 13.9269C39.7199 14.7147 40.134 15.603 40.575 16.7667C41.016 17.9303 41.514 19.361 42.1517 21.1904C42.7894 23.0445 43.5079 24.8076 44.1746 26.1297C44.4248 26.6521 44.7426 27.1394 45.1198 27.579C45.3141 27.7968 45.5353 27.9889 45.7783 28.1505C46.0595 28.3356 46.3602 28.4894 46.6748 28.6091C47.0289 28.7551 47.4627 28.8504 48.0435 29.0046C48.3712 29.0877 48.6912 29.1985 49 29.3359C49.3951 29.5132 49.7496 29.7698 50.0415 30.0896C50.3406 30.4341 50.5601 30.8402 50.6844 31.2791C50.7362 31.4655 50.788 31.6528 50.8397 31.8444C50.8915 32.0359 50.907 32.2378 50.9433 32.4376C51.0499 33.2741 51.006 34.1229 50.8138 34.944C50.6061 35.7855 50.2772 36.5925 49.8376 37.3396C48.9731 38.8521 47.767 40.1431 46.4843 41.2995C43.8889 43.5947 40.9239 45.3557 38.2746 46.7368C35.6254 48.1178 33.208 49.0672 31.6075 49.5786C29.5107 50.2686 27.3583 50.7767 25.1743 51.0973C24.5624 51.1688 23.9402 51.2743 23.2984 51.3168L22.3273 51.3996L21.3355 51.4431C20.6688 51.4845 19.9896 51.4586 19.3002 51.4628C18.9554 51.4545 18.6086 51.4307 18.2597 51.4162C17.9108 51.4017 17.5599 51.382 17.2079 51.3427L16.1446 51.2392L15.0794 51.0797C14.9002 51.0518 14.7211 51.029 14.542 50.9979L14.0058 50.8944C13.6476 50.8209 13.2863 50.7598 12.9281 50.6749C12.2116 50.4844 11.5035 50.3498 10.7436 50.0734C9.99927 49.8012 9.22282 49.4336 8.55403 48.7866C8.20931 48.4531 7.93169 48.0567 7.73617 47.6188C7.55566 47.1875 7.44825 46.7292 7.41834 46.2626C7.35312 45.3536 7.54257 44.5254 7.78275 43.7697C8.02746 43.0414 8.31508 42.3282 8.6441 41.6339C8.95468 40.9568 9.27251 40.3243 9.48371 39.6959C9.93969 38.4361 10.1774 37.1078 10.1867 35.768C10.1943 34.442 10.074 33.1183 9.82742 31.8154C9.35844 29.2272 8.62029 26.7829 8.10886 24.4908C7.57984 22.2039 7.29411 20.0474 7.35519 18.2005C7.39517 16.7209 7.68065 15.2581 8.19997 13.872C8.2538 13.7333 8.3035 13.5708 8.38425 13.3968C8.465 13.2229 8.553 13.0355 8.65031 12.8295C8.69897 12.726 8.74659 12.6173 8.80353 12.5096C8.86047 12.4019 8.92673 12.2922 8.99195 12.1794C9.05717 12.0665 9.12343 11.9475 9.19279 11.8274C9.22696 11.7663 9.26216 11.7052 9.29632 11.6431C9.31806 11.6069 9.36154 11.5396 9.38535 11.5106L9.46507 11.407C9.87059 10.9082 10.3066 10.4348 10.7705 9.98976C11.3044 9.45899 11.8878 8.98058 12.5129 8.56108C12.6071 8.50414 12.6962 8.44617 12.7997 8.39233C12.8514 8.36542 12.9032 8.33643 12.955 8.31055L13.0378 8.27121C13.0316 8.27121 13.0378 8.27121 13.0378 8.27121C13.0524 8.26429 13.0682 8.26042 13.0844 8.25982C13.0926 8.26037 13.1005 8.26324 13.1072 8.2681C13.1134 8.2681 13.1217 8.2857 13.1144 8.2681C13.1058 8.25381 13.0982 8.23893 13.0916 8.22359C13.0916 8.20909 13.0916 8.22359 13.0782 8.18528L13.0502 8.08175C13.0502 8.08175 13.0171 7.92543 12.9974 7.81465C12.9777 7.70388 12.9519 7.57758 12.9394 7.45852C12.886 6.97894 12.8915 6.49461 12.956 6.01639C12.989 5.77597 13.035 5.53751 13.0937 5.30205C13.1554 5.06836 13.2308 4.83848 13.3194 4.61359C13.4073 4.3844 13.5111 4.16162 13.63 3.94688C13.6874 3.83689 13.7514 3.73041 13.8215 3.62801L13.925 3.47272L13.9758 3.39404C13.9902 3.3723 14.0234 3.33192 14.0151 3.34228L14.0399 3.31122C14.0838 3.25671 14.1249 3.20005 14.1631 3.14143C14.1679 3.12718 14.1745 3.11361 14.1828 3.10106C14.2048 3.06996 14.2203 3.03475 14.2284 2.99753C14.2366 2.96751 14.2397 2.9644 14.2532 2.97579C14.2667 2.98718 14.2687 2.98304 14.2708 2.9644C14.2708 2.9292 14.3412 2.86087 14.3816 2.84017C14.3981 2.83399 14.412 2.82229 14.4209 2.80704C14.4292 2.77745 14.4511 2.75361 14.4799 2.74285C14.5006 2.73457 14.5037 2.7294 14.4944 2.72008C14.4851 2.71076 14.5524 2.659 14.5804 2.66003C14.5876 2.66003 14.6011 2.64968 14.6104 2.63622C14.6281 2.61521 14.6487 2.59675 14.6715 2.58135C14.6927 2.567 14.7109 2.54873 14.7253 2.52752C14.7336 2.50992 14.7429 2.50371 14.7553 2.50578C14.7696 2.50612 14.7836 2.50135 14.7947 2.49232C14.8424 2.45047 14.888 2.40624 14.9313 2.3598C14.9711 2.32476 15.0181 2.29895 15.069 2.28423C15.0794 2.28423 15.0897 2.27802 15.1011 2.25524C15.1125 2.23246 15.1228 2.22315 15.1415 2.22625C15.2085 2.20294 15.2694 2.16471 15.3195 2.11444C15.3423 2.09684 15.3578 2.09063 15.3609 2.09788C15.3641 2.10513 15.3796 2.09788 15.3972 2.09167C15.4883 2.03783 15.628 2.02748 15.6332 2.07303C15.6365 2.08657 15.6483 2.0963 15.6622 2.09684C15.6777 2.09684 15.6891 2.1072 15.6881 2.11548C15.6871 2.12376 15.6964 2.12376 15.7067 2.11548C15.7171 2.1072 15.7264 2.10823 15.7223 2.12583C15.7181 2.14343 15.7606 2.20658 15.7833 2.20451C15.7939 2.19879 15.8071 2.20273 15.8128 2.21331C15.8186 2.22389 15.8146 2.2371 15.804 2.24282Z" fill="url(#paint1_linear_2808_27343)"/>
<path d="M13.7336 45.1434C13.7255 45.12 13.712 45.0987 13.6943 45.0813C13.6705 45.0534 13.6539 45.0275 13.6591 45.0244C13.6643 45.0213 13.6591 45.012 13.6467 45.0037C13.6342 44.9954 13.6291 44.984 13.6322 44.9768C13.6353 44.9695 13.6239 44.9405 13.6156 44.9592C13.6073 44.9778 13.6094 44.9695 13.6104 44.9592C13.6109 44.9511 13.6142 44.9434 13.6197 44.9374C13.6311 44.9291 13.628 44.9229 13.6032 44.9084C13.5907 44.9005 13.5815 44.8884 13.5773 44.8743C13.5712 44.8559 13.5625 44.8384 13.5514 44.8225C13.5399 44.8063 13.5309 44.7885 13.5245 44.7697C13.5171 44.7532 13.5043 44.7397 13.4883 44.7314C13.4675 44.7211 13.4624 44.7138 13.4707 44.7086C13.4789 44.7035 13.4707 44.6993 13.4593 44.6952C13.4479 44.691 13.4386 44.6859 13.4427 44.6765C13.4468 44.6672 13.3702 44.5596 13.3506 44.5658C13.3309 44.572 13.3412 44.5658 13.3506 44.5564C13.3599 44.5471 13.3599 44.5368 13.3381 44.515C13.3243 44.5023 13.3145 44.4857 13.3102 44.4674C13.3102 44.454 13.304 44.4467 13.2895 44.4426C13.275 44.4384 13.2688 44.4343 13.2729 44.4229C13.2771 44.4115 13.2667 44.3991 13.2501 44.3856C13.2347 44.3747 13.2245 44.3578 13.2222 44.339C13.2222 44.3266 13.2222 44.3194 13.216 44.3225C13.2098 44.3256 13.2087 44.3173 13.2098 44.3038C13.2108 44.2904 13.2098 44.2821 13.1891 44.2873C13.1684 44.2925 13.1684 44.2873 13.1694 44.2728C13.1645 44.2485 13.1538 44.2258 13.1383 44.2065C13.1235 44.1891 13.1139 44.168 13.1104 44.1454C13.1124 44.1307 13.1106 44.1158 13.1052 44.102C13.0938 44.074 13.0928 44.074 13.0876 44.102C13.0824 44.1299 13.0804 44.1278 13.0752 44.102C13.07 44.0761 13.0752 44.0709 13.0855 44.0699C13.0959 44.0688 13.0928 44.0626 13.0783 44.0533C13.0608 44.0367 13.052 44.013 13.0545 43.9891C13.0545 43.9115 13.0545 43.8959 13.1518 43.8224C13.1797 43.7997 13.2004 43.7779 13.1973 43.7748C13.1942 43.7717 13.2056 43.7603 13.2212 43.75C13.2403 43.7379 13.2571 43.7224 13.2708 43.7044C13.2919 43.6828 13.3178 43.6665 13.3464 43.6568C13.394 43.6382 13.4003 43.634 13.3951 43.6164C13.3899 43.5988 13.3951 43.5967 13.4075 43.5988C13.4188 43.5992 13.4295 43.5942 13.4365 43.5854C13.4365 43.5771 13.4489 43.574 13.4531 43.5854C13.4572 43.5967 13.4758 43.5854 13.4934 43.5657C13.511 43.546 13.5317 43.5388 13.5379 43.5408C13.5806 43.5181 13.6177 43.4863 13.6467 43.4477C13.6476 43.445 13.6495 43.4429 13.6521 43.4417C13.6546 43.4406 13.6575 43.4405 13.6601 43.4415C13.6912 43.4289 13.72 43.411 13.745 43.3887C13.7684 43.3667 13.7958 43.3495 13.8258 43.3379C13.8309 43.3452 13.8506 43.3265 13.9138 43.2551C13.9345 43.2323 13.9552 43.2168 13.9614 43.2199C13.9679 43.2221 13.9751 43.219 13.9779 43.2127C13.9791 43.2094 13.9815 43.2068 13.9847 43.2055C13.9878 43.2041 13.9914 43.2041 13.9945 43.2054C14.0173 43.1986 14.0379 43.1861 14.0545 43.1692C14.0804 43.1474 14.1042 43.134 14.1084 43.1381C14.1125 43.1423 14.1633 43.1143 14.1622 43.0977C14.1612 43.0812 14.1539 43.0864 14.1446 43.0884C14.1353 43.0905 14.1312 43.0884 14.1446 43.0822C14.1532 43.077 14.164 43.077 14.1726 43.0822C14.185 43.0895 14.1933 43.0822 14.2067 43.0636C14.2202 43.0449 14.2295 43.0356 14.2368 43.0346C14.267 43.0285 14.2953 43.0153 14.3196 42.9963L14.3382 42.9839H14.3434L14.3931 42.9466C14.4448 42.9083 14.4966 42.8669 14.5536 42.8275L15.3362 42.2892C15.6344 42.0873 15.9646 41.8502 16.3477 41.6007L17.649 40.7839C19.938 39.3805 22.3427 38.1752 24.8369 37.1812L25.1837 37.0383C25.3028 36.9876 25.426 36.9348 25.5554 36.8934L26.3836 36.5911L27.3154 36.2484L28.392 35.9036L28.9832 35.7142L29.2938 35.6107L29.6168 35.5216L31.0123 35.1375C31.2587 35.0651 31.5165 35.0102 31.7805 34.9481L32.5983 34.7586L33.0249 34.6551C33.1688 34.6209 33.3148 34.5868 33.4649 34.5609L34.3883 34.388L35.1586 34.2431C35.4174 34.1934 35.6814 34.1644 35.9402 34.124C36.4578 34.0505 36.9672 33.9718 37.4382 33.917L38.7127 33.7875C39.0802 33.7534 39.3794 33.714 39.5854 33.7078C40.4074 33.6602 41.1238 33.6157 41.1776 33.6043C41.2046 33.6043 41.3371 33.5877 41.5307 33.5815L42.1156 33.5701H42.4935C42.5794 33.5701 42.6581 33.5701 42.7161 33.5701C42.7479 33.571 42.7798 33.5689 42.8113 33.5639C42.8113 33.5577 42.8299 33.5577 42.8455 33.5639C42.8594 33.5678 42.874 33.5678 42.8879 33.5639C42.9 33.5613 42.9126 33.5644 42.9221 33.5722C42.9333 33.5799 42.9481 33.5799 42.9593 33.5722C43.0133 33.5631 43.0687 33.567 43.1209 33.5836C43.1432 33.587 43.1658 33.587 43.1881 33.5836C43.2097 33.5743 43.2348 33.5792 43.2513 33.596C43.2685 33.6092 43.2897 33.6162 43.3113 33.6157C43.3672 33.6157 43.4832 33.7347 43.4666 33.7762C43.4653 33.7941 43.4717 33.8119 43.4842 33.8248C43.4977 33.8414 43.5049 33.861 43.5008 33.8673C43.4967 33.8735 43.5008 33.8797 43.5008 33.8797C43.5008 33.8797 43.5101 33.8983 43.5008 33.9314C43.4892 34.0038 43.4892 34.0775 43.5008 34.1499C43.5077 34.1614 43.5077 34.1757 43.5008 34.1872C43.4916 34.2258 43.4885 34.2656 43.4915 34.3052C43.4938 34.3477 43.4917 34.3904 43.4853 34.4325C43.4806 34.4484 43.4806 34.4653 43.4853 34.4812C43.4909 34.4976 43.4909 34.5155 43.4853 34.5319C43.4758 34.5901 43.4702 34.6489 43.4687 34.7079C43.4683 34.7651 43.4634 34.8222 43.4542 34.8787C43.4502 34.8916 43.4521 34.9057 43.4594 34.917C43.4765 34.9702 43.4793 35.027 43.4677 35.0816C43.4677 35.0982 43.4573 35.1272 43.4542 35.1448C43.4335 35.2556 43.3838 35.2866 43.2161 35.2959C43.1928 35.2953 43.1697 35.3002 43.1488 35.3104C43.1436 35.3166 43.1188 35.3166 43.0888 35.3104C43.0521 35.3038 43.0146 35.3038 42.978 35.3104C42.9544 35.3146 42.9302 35.3146 42.9065 35.3104C42.757 35.2998 42.6068 35.2998 42.4572 35.3104C42.423 35.3166 42.3879 35.3166 42.3537 35.3104C42.3537 35.3042 42.3413 35.3104 42.334 35.3104C42.3268 35.3104 42.3071 35.3218 42.1953 35.3104H42.1612H42.1384H41.8216H41.4882L41.1445 35.3291L40.4426 35.3684C39.5046 35.4046 38.6122 35.5185 38.1867 35.5589L37.6194 35.6189C37.4579 35.6365 37.3088 35.6624 37.1484 35.6842L35.6514 35.8912C34.8863 36.0248 34.1461 36.1656 34.0022 36.1925L33.7692 36.238C33.6802 36.2536 33.5819 36.2732 33.4763 36.3001L32.7516 36.471L31.883 36.678C31.7297 36.7112 31.5724 36.7536 31.4202 36.7981L30.9481 36.9286L30.006 37.1905L29.7772 37.2536L29.5546 37.3251L29.1271 37.4628C28.5763 37.6408 28.1022 37.7878 27.7957 37.8924L26.602 38.3282C26.3805 38.4111 26.1455 38.4897 25.9084 38.586L25.1765 38.8894C24.6764 39.0964 24.1474 39.3035 23.6308 39.555L22.844 39.9257C22.5821 40.0468 22.3191 40.1648 22.0676 40.3004L20.5892 41.0624L19.2961 41.8016C19.1005 41.9165 18.9079 42.0159 18.7392 42.1267L18.264 42.4259L17.5745 42.8607L17.1604 43.1267L16.5288 43.5636L15.7669 44.0926L15.5598 44.2324C15.4946 44.279 15.4242 44.3359 15.3662 44.3784L15.3393 44.3991C15.2927 44.433 15.2485 44.47 15.2068 44.5099C15.2014 44.5211 15.1941 44.5313 15.1851 44.5399C15.1622 44.5603 15.1438 44.5854 15.1312 44.6134C15.1209 44.6372 15.1178 44.6393 15.1074 44.6258C15.0971 44.6124 15.094 44.6144 15.0909 44.6258C15.0687 44.6665 15.0316 44.6969 14.9873 44.7107C14.9729 44.7115 14.9598 44.7192 14.9521 44.7314C14.9439 44.7556 14.9226 44.7729 14.8973 44.7759C14.8786 44.7759 14.8755 44.7832 14.8838 44.7935C14.8921 44.8039 14.831 44.837 14.8051 44.8287C14.7941 44.8298 14.784 44.8354 14.7772 44.8443C14.761 44.8595 14.7425 44.8721 14.7223 44.8815C14.702 44.8886 14.6848 44.9025 14.6736 44.9209C14.6674 44.9354 14.6602 44.9405 14.6488 44.9364C14.6372 44.9338 14.6251 44.9365 14.6157 44.9436C14.5759 44.9762 14.5379 45.0107 14.5018 45.0472C14.4681 45.0751 14.4278 45.094 14.3848 45.102C14.3755 45.102 14.3672 45.102 14.3579 45.1248C14.3486 45.1476 14.3413 45.1517 14.3248 45.1466C14.3082 45.1414 14.2564 45.1755 14.185 45.2449C14.1684 45.2615 14.155 45.2677 14.1519 45.2604C14.1488 45.2532 14.1343 45.2604 14.1208 45.2656C14.0504 45.3143 13.9272 45.3246 13.9138 45.2832C13.908 45.271 13.8962 45.2627 13.8827 45.2615C13.8682 45.2615 13.8558 45.2532 13.8547 45.2459C13.8537 45.2387 13.8465 45.2377 13.8371 45.2459C13.8278 45.2542 13.8216 45.2532 13.8226 45.2366C13.8237 45.2201 13.7719 45.1642 13.7502 45.1662C13.7449 45.1655 13.7402 45.1626 13.7371 45.1583C13.734 45.154 13.7327 45.1487 13.7336 45.1434Z" fill="black"/>
<path d="M25.7758 37.9318C25.2861 41.3989 24.7985 44.9405 25.4538 48.3808C25.7054 49.7028 26.1506 51.0362 27.0637 52.0249C27.9768 53.0136 29.4448 53.5778 30.712 53.1275C31.7649 52.7527 32.4916 51.7702 32.9295 50.7412C33.8375 48.6116 33.7526 46.1642 33.1501 43.9301C32.5475 41.696 31.4574 39.6265 30.3776 37.5798C30.1871 37.2205 29.9769 36.8395 29.6177 36.648C29.2585 36.4565 26.6102 37.7868 26.5119 38.1813" fill="black"/>
<path d="M25.2934 37.8748C25.3154 37.8867 25.3399 37.8927 25.3649 37.8924C25.4011 37.8924 25.4301 37.9038 25.4301 37.91C25.4301 37.9162 25.4394 37.9183 25.4518 37.9162C25.4643 37.9141 25.4787 37.9162 25.4819 37.9255C25.485 37.9348 25.5139 37.9462 25.5057 37.9255C25.4974 37.9048 25.5057 37.9141 25.5057 37.9255C25.5104 37.9318 25.5133 37.9394 25.5139 37.9473C25.5139 37.9618 25.5139 37.9638 25.546 37.9566C25.5603 37.9547 25.5747 37.9573 25.5875 37.9638C25.605 37.973 25.6239 37.9797 25.6434 37.9835C25.6627 37.9878 25.6815 37.9944 25.6993 38.0032C25.7159 38.0095 25.7344 38.0095 25.751 38.0032C25.7738 37.997 25.7821 38.0032 25.78 38.0032C25.7779 38.0032 25.78 38.0135 25.7976 38.0032C25.8152 37.9928 25.8183 37.9959 25.8225 38.0032C25.8266 38.0104 25.955 38.0384 25.9653 38.0208C25.9757 38.0032 25.9726 38.0146 25.9715 38.027C25.9705 38.0394 25.9778 38.0487 26.0098 38.0487C26.0285 38.049 26.0468 38.0544 26.0626 38.0643C26.0668 38.0688 26.0726 38.0713 26.0787 38.0713C26.0848 38.0713 26.0906 38.0688 26.0947 38.0643C26.1082 38.056 26.1154 38.056 26.1196 38.0643C26.1237 38.0725 26.1413 38.0767 26.1631 38.0756C26.1816 38.0728 26.2005 38.0781 26.2148 38.0901C26.2231 38.0984 26.2304 38.1026 26.2314 38.0974C26.2324 38.0922 26.2397 38.0974 26.249 38.1057C26.2583 38.114 26.2666 38.1202 26.2749 38.1057C26.2832 38.0912 26.2883 38.0912 26.2987 38.1057C26.3197 38.1192 26.3433 38.1281 26.368 38.1315C26.3905 38.1344 26.4119 38.143 26.4302 38.1564C26.4389 38.1683 26.4507 38.1776 26.4643 38.1833C26.4912 38.1968 26.4923 38.1957 26.4788 38.173C26.4654 38.1502 26.4654 38.1502 26.4892 38.173C26.513 38.1957 26.5099 38.1957 26.5047 38.203C26.4995 38.2102 26.5047 38.2123 26.5213 38.2092C26.5452 38.2096 26.5678 38.2201 26.5834 38.2382C26.6403 38.292 26.6445 38.3086 26.632 38.4235C26.6269 38.4446 26.6269 38.4666 26.632 38.4877C26.6372 38.4877 26.6372 38.5032 26.632 38.5208C26.6285 38.5428 26.6285 38.5651 26.632 38.5871C26.6333 38.6168 26.6269 38.6464 26.6134 38.673C26.5927 38.7175 26.5917 38.7248 26.6082 38.7341C26.6248 38.7434 26.6217 38.7465 26.6082 38.7548C26.5997 38.7618 26.5954 38.7728 26.5968 38.7838C26.5968 38.7931 26.5968 38.8003 26.5886 38.7993C26.5803 38.7983 26.5761 38.8169 26.5741 38.8397C26.5752 38.857 26.5705 38.8741 26.5606 38.8883C26.5462 38.9331 26.5427 38.9807 26.5503 39.0271C26.5513 39.0297 26.5512 39.0326 26.55 39.0351C26.5488 39.0376 26.5467 39.0396 26.544 39.0405C26.532 39.071 26.5247 39.1031 26.5223 39.1358C26.5213 39.1668 26.5143 39.1974 26.5016 39.2258C26.4923 39.2258 26.4912 39.2517 26.5016 39.3439C26.5016 39.3739 26.5016 39.3987 26.4944 39.4018C26.4914 39.403 26.489 39.4053 26.4878 39.4082C26.4867 39.4112 26.4868 39.4145 26.4881 39.4174C26.4899 39.4239 26.4869 39.4308 26.4809 39.4339C26.4699 39.4538 26.4645 39.4764 26.4654 39.4991C26.4654 39.5323 26.455 39.5592 26.4498 39.5582C26.4447 39.5571 26.4281 39.613 26.4405 39.6234C26.4437 39.6255 26.4477 39.6261 26.4514 39.6248C26.455 39.6236 26.4579 39.6208 26.4592 39.6172C26.4654 39.6058 26.4674 39.6058 26.4664 39.6172C26.4648 39.6273 26.4568 39.6352 26.4467 39.6368C26.4333 39.6368 26.4312 39.6493 26.4364 39.6731C26.4413 39.6864 26.4413 39.7011 26.4364 39.7145C26.4204 39.7399 26.4102 39.7685 26.4064 39.7983C26.4064 39.8045 26.4064 39.8118 26.4064 39.819V39.8253L26.396 39.9008C26.3856 39.9795 26.3753 40.0613 26.3639 40.1462C26.3194 40.4847 26.2728 40.8709 26.2231 41.3129C26.1734 41.755 26.1248 42.2509 26.0854 42.8089C26.0461 43.3669 26.015 43.9891 26.0088 44.6724C25.9988 45.6245 26.0583 46.576 26.1869 47.5194C26.2901 48.3576 26.4938 49.1803 26.7935 49.9699C26.9271 50.3042 27.0932 50.6246 27.2894 50.9265C27.4621 51.1901 27.6665 51.4314 27.8982 51.645C28.2832 51.9963 28.7502 52.2454 29.2565 52.3697C29.4875 52.4266 29.7263 52.4462 29.9635 52.4276C30.2197 52.4073 30.4695 52.3369 30.6986 52.2206C30.8287 52.1501 30.9524 52.0683 31.0682 51.9762C31.1979 51.8696 31.3194 51.7533 31.4316 51.6284C31.6909 51.3252 31.9082 50.9885 32.0776 50.6273C32.5102 49.6856 32.7502 48.667 32.7836 47.6312C32.8099 46.9976 32.7805 46.363 32.6956 45.7346C32.5953 45.0199 32.4382 44.3144 32.2256 43.6247C31.8454 42.4329 31.3719 41.2729 30.8094 40.1555C30.5526 39.6286 30.3042 39.1461 30.0909 38.7382L29.802 38.1843C29.7161 38.0208 29.6405 37.8738 29.5877 37.7806C29.5608 37.7309 29.5349 37.6874 29.5101 37.645C29.4977 37.6263 29.4853 37.6046 29.4728 37.587L29.4552 37.5601L29.4449 37.5456C29.4346 37.5309 29.4228 37.5174 29.4097 37.5052C29.3973 37.4929 29.3825 37.4834 29.3662 37.4773C29.3508 37.4767 29.3355 37.4785 29.3206 37.4824L29.2751 37.4969L29.1446 37.5446C29.0546 37.5797 28.9976 37.6046 28.9842 37.6108C28.9707 37.617 28.8154 37.6833 28.6115 37.7775C28.508 37.8261 28.392 37.881 28.2667 37.9462L28.0721 38.0498L28.0017 38.087C27.9727 38.1015 27.835 38.174 27.7025 38.2496C27.6198 38.2914 27.5414 38.3414 27.4685 38.3986C27.4685 38.4049 27.4582 38.4121 27.4447 38.4142C27.4326 38.4156 27.4213 38.4211 27.4126 38.4297C27.4057 38.4369 27.3955 38.4401 27.3857 38.438C27.3743 38.4346 27.3623 38.4411 27.3588 38.4525C27.3305 38.4817 27.2947 38.5024 27.2553 38.5125C27.2418 38.5195 27.2304 38.5299 27.2221 38.5426C27.2128 38.5591 27.2045 38.5612 27.1859 38.555C27.1756 38.5512 27.1642 38.5512 27.1538 38.555C27.1476 38.5604 27.1383 38.5604 27.1321 38.555L27.1259 38.5467L27.1041 38.527L27.0731 38.5001C27.0327 38.4649 26.9913 38.4318 26.9509 38.4028C26.8963 38.3503 26.8346 38.3057 26.7677 38.2703C26.7494 38.2618 26.732 38.2514 26.7159 38.2392C26.6807 38.2195 26.6569 38.2144 26.6693 38.2185H26.6538C26.6289 38.2123 26.6227 38.2123 26.6383 38.2185C26.6745 38.2268 26.6745 38.2278 26.6383 38.2185H26.6445H26.6579L26.6434 38.2133L26.572 38.1875C26.5302 38.1769 26.4904 38.1598 26.454 38.1367C26.4425 38.1246 26.4261 38.1185 26.4095 38.1202C26.3912 38.1234 26.3727 38.1152 26.3629 38.0995C26.3184 38.0585 26.2703 38.0217 26.219 37.9897C26.187 37.969 26.1574 37.9447 26.131 37.9172C26.1143 37.9045 26.1002 37.8887 26.0896 37.8707C26.0896 37.8551 26.0678 37.851 26.0502 37.8634C26.0067 37.9038 25.9001 37.8986 25.8866 37.8179C25.885 37.8014 25.8818 37.7851 25.8773 37.7692L25.8608 37.735C25.844 37.7033 25.8381 37.6669 25.8442 37.6315C25.8523 37.5868 25.8669 37.5435 25.8877 37.5031C25.9427 37.4039 26.0157 37.3157 26.103 37.2433C26.1297 37.2228 26.1531 37.1984 26.1724 37.1708C26.1724 37.1625 26.2014 37.1418 26.2386 37.1222C26.282 37.1006 26.322 37.0731 26.3577 37.0404C26.3786 37.0194 26.4027 37.0019 26.4291 36.9886C26.4395 36.9886 26.5254 36.9337 26.6196 36.8747C26.7138 36.8157 26.8194 36.7515 26.8733 36.7153C26.9028 36.6923 26.9361 36.6744 26.9716 36.6625C26.9778 36.6625 26.9861 36.6625 26.9902 36.6501C26.9944 36.6377 27.011 36.6263 27.1269 36.5786L27.1621 36.5641L27.1859 36.5538C27.3133 36.4855 27.4447 36.4182 27.5814 36.3467C27.8557 36.2132 28.1456 36.0807 28.4655 35.9575L28.5877 35.9119L28.7233 35.8633C28.7906 35.8415 28.8548 35.8198 28.9303 35.8012C29.0059 35.7825 29.0753 35.7587 29.1478 35.7463C29.2904 35.7141 29.4364 35.6995 29.5826 35.7028C29.6526 35.7058 29.7221 35.7169 29.7896 35.7359C29.8072 35.74 29.8245 35.7452 29.8414 35.7515L29.8673 35.7608H29.8797C29.8859 35.7432 29.8797 35.7608 29.8859 35.7535H29.8921L29.9905 35.7929C30.2533 35.9209 30.4861 36.1029 30.6737 36.3271C30.7597 36.4251 30.8389 36.5289 30.9108 36.6377C30.9636 36.7205 31.0143 36.8002 31.0547 36.8747C31.1407 37.0279 31.2048 37.1553 31.269 37.2764L31.4554 37.6325C31.6956 38.0943 31.8964 38.4815 32.0258 38.732C32.3012 39.2703 32.4503 39.5778 32.6397 39.9805C32.8292 40.3833 33.0621 40.8812 33.4348 41.8544C33.6201 42.3482 33.7837 42.8462 33.9028 43.2448C34.0218 43.6433 34.0922 43.9487 34.1171 44.0471C34.2574 44.6267 34.3611 45.2145 34.4276 45.8071C34.5301 46.6758 34.5346 47.5534 34.4411 48.4232C34.3901 48.8876 34.306 49.3477 34.1895 49.8001C34.0771 50.2298 33.9349 50.6511 33.764 51.0611C33.6103 51.4336 33.4247 51.7921 33.2091 52.1326C33.0395 52.3961 32.8469 52.6442 32.6335 52.8738C32.4135 53.1121 32.168 53.3256 31.9016 53.5105C31.5862 53.73 31.2387 53.8994 30.8715 54.0126C30.4665 54.1368 30.043 54.1901 29.6198 54.17C29.1858 54.1494 28.7575 54.0628 28.3496 53.9132C27.9354 53.7626 27.5436 53.5565 27.1849 53.3004C27.0034 53.1698 26.8304 53.0277 26.6672 52.8749C26.5844 52.7983 26.5068 52.7144 26.4271 52.6336C26.3473 52.5529 26.2801 52.468 26.2086 52.3831C25.6753 51.7111 25.2672 50.9488 25.0036 50.1324C24.7667 49.3964 24.5935 48.6413 24.4859 47.8755C24.3824 47.156 24.3255 46.4738 24.2954 45.8578C24.2437 44.6248 24.2954 43.6568 24.3224 43.1371C24.3317 42.9911 24.3472 42.7634 24.3669 42.4756C24.3865 42.1877 24.4166 41.843 24.4569 41.4641C24.4973 41.0852 24.5408 40.67 24.5926 40.2445C24.6205 40.023 24.6485 39.7952 24.6764 39.5726C24.6856 39.5144 24.6908 39.4556 24.6919 39.3967C24.6883 39.3842 24.6865 39.3713 24.6868 39.3583C24.6888 39.3269 24.6839 39.2955 24.6723 39.2662C24.6619 39.2414 24.664 39.2372 24.6806 39.2403C24.6971 39.2434 24.6982 39.2403 24.6888 39.2238C24.6766 39.1771 24.6825 39.1275 24.7054 39.085C24.715 39.0736 24.7189 39.0583 24.7158 39.0436C24.7049 39.0203 24.7077 38.9929 24.723 38.9722C24.7344 38.9567 24.7344 38.9515 24.723 38.9494C24.7116 38.9473 24.7302 38.8801 24.7541 38.8666C24.761 38.8578 24.764 38.8466 24.7623 38.8355C24.7631 38.8125 24.7676 38.7898 24.7758 38.7682C24.7844 38.7484 24.7866 38.7263 24.782 38.7051C24.7758 38.6896 24.782 38.6802 24.7882 38.6751C24.7991 38.6691 24.8064 38.6584 24.8079 38.6461C24.8128 38.5934 24.8149 38.5406 24.8141 38.4877C24.8181 38.4431 24.8334 38.4004 24.8586 38.3635C24.8679 38.3635 24.869 38.3479 24.8586 38.3283C24.8483 38.3086 24.8514 38.2962 24.8669 38.2879C24.8824 38.2796 24.8959 38.2175 24.8969 38.116C24.8969 38.0922 24.9021 38.0788 24.9104 38.0808C24.9187 38.0829 24.9249 38.0725 24.928 38.056C24.9445 37.97 25.0243 37.8748 25.0626 37.8955C25.0752 37.9006 25.0896 37.8982 25.0998 37.8893C25.1123 37.881 25.1257 37.8779 25.1309 37.882C25.1361 37.8862 25.1423 37.882 25.1444 37.8707C25.1464 37.8593 25.1506 37.8541 25.1609 37.8707C25.193 37.8892 25.2324 37.8892 25.2644 37.8707C25.2736 37.8638 25.2866 37.8657 25.2934 37.8748Z" fill="black"/>
<path d="M25.1733 9.78991C25.1778 9.76536 25.176 9.74007 25.1681 9.7164C25.1608 9.68017 25.1598 9.65015 25.1681 9.64911C25.1764 9.64808 25.1733 9.63772 25.1681 9.6253C25.1627 9.61564 25.1627 9.6039 25.1681 9.59424C25.1836 9.58078 25.1784 9.55904 25.1619 9.57147C25.1453 9.58389 25.1526 9.57768 25.1567 9.57147C25.1608 9.56437 25.1675 9.55916 25.1753 9.55697C25.1888 9.55697 25.1888 9.54869 25.1753 9.52384C25.1687 9.51075 25.1665 9.49584 25.1691 9.4814C25.1714 9.46214 25.1714 9.44268 25.1691 9.42342C25.1664 9.4035 25.1664 9.3833 25.1691 9.36338C25.1709 9.34572 25.1661 9.32804 25.1557 9.31368C25.1432 9.29401 25.1412 9.28573 25.1557 9.2847C25.1702 9.28366 25.164 9.27745 25.1557 9.2671C25.1474 9.25674 25.1422 9.2495 25.1505 9.24328C25.1588 9.23707 25.1453 9.10559 25.1246 9.10145C25.1039 9.09731 25.1174 9.09628 25.1298 9.09317C25.1422 9.09006 25.1484 9.08075 25.1391 9.05072C25.1333 9.0329 25.1333 9.01368 25.1391 8.99585C25.1428 8.99094 25.1442 8.98463 25.1428 8.97862C25.1414 8.97262 25.1374 8.96755 25.1319 8.9648C25.1194 8.95341 25.1184 8.9472 25.1319 8.93891C25.1453 8.93063 25.1391 8.9151 25.1319 8.89543C25.1241 8.87833 25.1241 8.85871 25.1319 8.8416C25.1381 8.83021 25.1401 8.82193 25.1319 8.82296C25.1236 8.824 25.1319 8.81468 25.1319 8.80433C25.1319 8.79398 25.1401 8.78259 25.1225 8.77948C25.1049 8.77638 25.1039 8.77016 25.1122 8.75774C25.1195 8.73359 25.1212 8.70812 25.1174 8.6832C25.1138 8.66087 25.1163 8.63798 25.1246 8.61694C25.1342 8.60506 25.1403 8.59071 25.1422 8.57553C25.1474 8.54655 25.1422 8.54551 25.1277 8.56518C25.1132 8.58485 25.107 8.58485 25.1184 8.5569C25.1298 8.52895 25.136 8.52998 25.1443 8.53309C25.1526 8.53619 25.1557 8.53309 25.1443 8.51549C25.1364 8.49258 25.1407 8.46724 25.1557 8.4482C25.195 8.3778 25.2116 8.36744 25.3368 8.34467C25.3605 8.34319 25.3834 8.33647 25.4041 8.325C25.4041 8.31982 25.4197 8.31672 25.4404 8.31672C25.4647 8.31535 25.4887 8.31082 25.5118 8.30326C25.5434 8.29569 25.5764 8.29569 25.6081 8.30326C25.6619 8.31257 25.6692 8.31154 25.6754 8.29394C25.6816 8.27634 25.6857 8.27634 25.6971 8.28462C25.7074 8.29033 25.7199 8.29033 25.7302 8.28462C25.7406 8.27945 25.7489 8.28462 25.7489 8.28462C25.7489 8.28462 25.7717 8.2929 25.7965 8.28462C25.8144 8.27911 25.8335 8.27911 25.8514 8.28462C25.9028 8.28745 25.9543 8.28114 26.0036 8.26599C26.0057 8.26371 26.0087 8.26242 26.0118 8.26242C26.015 8.26242 26.018 8.26371 26.0201 8.26599C26.0545 8.27094 26.0893 8.27094 26.1236 8.26599C26.1579 8.25964 26.193 8.25964 26.2272 8.26599C26.2272 8.2753 26.2572 8.27116 26.3566 8.24735C26.3897 8.24011 26.4166 8.24011 26.4208 8.24735C26.426 8.25235 26.4342 8.25235 26.4394 8.24735C26.4451 8.24267 26.4534 8.24267 26.4591 8.24735C26.4826 8.25603 26.5079 8.25852 26.5326 8.2546C26.5688 8.2546 26.5988 8.2546 26.5988 8.26185C26.5988 8.26909 26.662 8.27427 26.6713 8.26185C26.6806 8.24942 26.6713 8.24735 26.662 8.24425C26.6527 8.24114 26.6485 8.23803 26.662 8.237C26.6724 8.23765 26.6816 8.24403 26.6858 8.25356C26.692 8.26702 26.7013 8.26806 26.7262 8.25874C26.741 8.25392 26.7569 8.25392 26.7717 8.25874C26.8022 8.27026 26.8344 8.2769 26.867 8.27841C26.8235 8.27841 27.1041 8.28773 27.3753 8.30636C27.7363 8.33261 28.0956 8.37753 28.452 8.44095C29.4915 8.62818 30.4975 8.96906 31.4367 9.45241C31.8775 9.67993 32.3022 9.93728 32.708 10.2227C33.9307 11.0901 34.956 12.2064 35.7165 13.4983C35.8801 13.7757 36.0105 14.0252 36.0271 14.0418C36.0436 14.0583 36.0581 14.0966 36.0923 14.1639C36.1264 14.2312 36.1585 14.2964 36.1958 14.371C36.2144 14.4041 36.2838 14.5708 36.3552 14.7395C36.4267 14.9083 36.4795 15.0501 36.4878 15.0501C36.496 15.0501 36.5002 15.0667 36.5002 15.0833C36.5004 15.0989 36.5047 15.1142 36.5126 15.1278C36.5174 15.1394 36.5174 15.1524 36.5126 15.164C36.5072 15.1782 36.5119 15.1942 36.524 15.2033C36.5526 15.254 36.5685 15.3108 36.5706 15.369C36.5753 15.3923 36.5836 15.4146 36.5954 15.4352C36.6106 15.4551 36.6142 15.4815 36.6047 15.5046C36.598 15.5262 36.598 15.5493 36.6047 15.5709C36.6244 15.6288 36.5468 15.7779 36.5012 15.7779C36.4909 15.7779 36.4733 15.7914 36.4608 15.81C36.4484 15.8287 36.4329 15.8421 36.4256 15.84C36.4184 15.838 36.4132 15.84 36.4153 15.8483C36.4174 15.8566 36.4008 15.8639 36.3677 15.869C36.2957 15.8786 36.2257 15.8999 36.1606 15.9322C36.1512 15.9418 36.1372 15.9453 36.1244 15.9415C36.0849 15.9439 36.0461 15.9527 36.0095 15.9674C35.9705 15.9833 35.9299 15.9948 35.8883 16.0015C35.8716 16.002 35.8554 16.0074 35.8417 16.0171C35.8272 16.0263 35.8103 16.031 35.7931 16.0305C35.7346 16.0388 35.6768 16.0516 35.6202 16.0688C35.5654 16.0849 35.5098 16.0977 35.4535 16.1071C35.44 16.1064 35.4269 16.1122 35.4183 16.1227C35.3722 16.1545 35.3188 16.1741 35.263 16.1796L35.1988 16.1869C35.0881 16.2014 35.0446 16.1682 34.9918 16.0233C34.9862 16.0025 34.9751 15.9835 34.9597 15.9684C34.9524 15.9684 34.9462 15.9446 34.9442 15.9167C34.9409 15.8821 34.9295 15.8487 34.911 15.8193C34.8986 15.8012 34.8898 15.7808 34.8852 15.7593C34.847 15.6268 34.7956 15.4985 34.7319 15.3762C34.7146 15.3507 34.7029 15.3218 34.6978 15.2913C34.6978 15.2862 34.6978 15.2789 34.6895 15.2748C34.6812 15.2706 34.6709 15.2561 34.6408 15.1568L34.6294 15.1267L34.6232 15.1091C34.6077 15.077 34.5932 15.045 34.5766 15.0118C34.5166 14.8772 34.4421 14.7333 34.3644 14.5977C34.2429 14.3718 34.1092 14.1527 33.9638 13.9414C33.8778 13.8109 33.824 13.7426 33.7567 13.6515C33.6894 13.5604 33.6097 13.4444 33.4461 13.2374C33.2826 13.0303 33.1107 12.8377 33.0734 12.8046C32.8261 12.5479 32.5656 12.3043 32.2928 12.0748C32.0046 11.8381 31.7032 11.6179 31.3901 11.4153C30.7973 11.0336 30.16 10.7259 29.4924 10.4991C28.9339 10.3102 28.3578 10.1781 27.7728 10.1046C27.6993 10.0943 27.5409 10.0767 27.3442 10.0632C27.2407 10.0539 27.1372 10.0487 27.0274 10.0467L26.8297 10.0394C26.7764 10.0382 26.7231 10.0413 26.6703 10.0487C26.6599 10.054 26.6487 10.0575 26.6371 10.0591C26.6088 10.0614 26.5814 10.0707 26.5574 10.086C26.5357 10.0995 26.5326 10.0984 26.5326 10.086C26.5326 10.0736 26.5326 10.0684 26.5171 10.0787C26.4779 10.0983 26.4324 10.1001 26.3918 10.0839C26.3773 10.0767 26.3607 10.0746 26.3535 10.0839C26.3351 10.0993 26.3092 10.1017 26.2883 10.0901C26.2727 10.0819 26.2676 10.0839 26.2686 10.0963C26.2696 10.1088 26.2065 10.1026 26.1899 10.0819C26.1899 10.0819 26.1733 10.0756 26.1609 10.0819C26.1407 10.0854 26.12 10.0854 26.0998 10.0819C26.081 10.0755 26.0607 10.0755 26.0419 10.0819C26.0294 10.0912 26.0212 10.0912 26.0149 10.0819C26.0077 10.0729 25.9964 10.0682 25.9849 10.0694C25.9381 10.0772 25.8918 10.0876 25.8462 10.1005C25.8062 10.1063 25.7653 10.1009 25.7282 10.085C25.722 10.0767 25.7116 10.0777 25.695 10.0901C25.6785 10.1026 25.6692 10.1046 25.6578 10.0901C25.6464 10.0756 25.5894 10.0787 25.5014 10.1057C25.4797 10.1119 25.4673 10.1108 25.4673 10.1057C25.4673 10.1005 25.4549 10.0932 25.4404 10.0953C25.3607 10.1026 25.2551 10.0508 25.2623 10.0084C25.2628 9.99519 25.2566 9.98268 25.2457 9.97522C25.2354 9.9659 25.2281 9.95348 25.2312 9.94727C25.2343 9.94106 25.2312 9.93692 25.2167 9.93795C25.2023 9.93899 25.2002 9.93795 25.2074 9.92242C25.2133 9.88774 25.203 9.85227 25.1795 9.82614C25.1715 9.82457 25.1653 9.81821 25.1639 9.81017C25.1625 9.80212 25.1662 9.79406 25.1733 9.78991Z" fill="#FFF6ED"/>
<path d="M23.1545 10.2755C23.1476 10.2521 23.1389 10.2293 23.1286 10.2072C23.1196 10.1866 23.112 10.1655 23.1058 10.144C23.1046 10.1363 23.1018 10.1288 23.0975 10.1223C23.0929 10.1131 23.0894 10.1033 23.0872 10.0933C23.0872 10.0809 23.0778 10.0602 23.0778 10.0715C23.0778 10.0715 23.0778 10.0829 23.0778 10.0715V10.0602C23.0778 10.0602 23.0778 10.0519 23.0654 10.0281C23.053 10.0043 23.054 10.0001 23.0499 9.98872C23.0458 9.97733 23.0375 9.95352 23.0313 9.93489L23.0116 9.87898C23.0063 9.86279 22.9994 9.84718 22.9909 9.8324C22.9816 9.81273 22.9785 9.80548 22.9805 9.80444C22.9826 9.80341 22.9805 9.79927 22.9733 9.78892C22.9684 9.78218 22.9652 9.77437 22.964 9.76614C22.9492 9.72026 22.9308 9.6756 22.9091 9.63259C22.9091 9.63259 22.9091 9.63259 22.9091 9.62534C22.9091 9.6181 22.9091 9.61499 22.8977 9.58704C22.8898 9.57031 22.8833 9.553 22.878 9.53527C22.8757 9.52494 22.8715 9.51512 22.8656 9.50629C22.8606 9.49921 22.8574 9.49104 22.8563 9.48247C22.852 9.46836 22.8468 9.45453 22.8408 9.44106C22.8331 9.42496 22.8265 9.40836 22.8211 9.39137C22.8198 9.38571 22.8181 9.38017 22.8159 9.37481C22.8136 9.36905 22.8115 9.36318 22.8097 9.35721C22.8091 9.34833 22.8054 9.33993 22.7994 9.3334C22.7937 9.32786 22.79 9.32056 22.789 9.31269C22.7826 9.28942 22.7746 9.2666 22.7652 9.24436C22.7565 9.22453 22.7493 9.20412 22.7435 9.18328C22.7403 9.17066 22.7365 9.15822 22.7321 9.14601C22.7227 9.12013 22.7227 9.11909 22.7259 9.13566C22.729 9.15222 22.7259 9.15222 22.7207 9.12738C22.7155 9.10253 22.7155 9.10356 22.7207 9.10771C22.7259 9.11185 22.7207 9.10771 22.7155 9.09114C22.7068 9.07134 22.6995 9.05092 22.6938 9.03006C22.6772 8.96691 22.6772 8.9607 22.6938 8.94827C22.6989 8.94593 22.7015 8.94022 22.7 8.93482C22.7 8.93482 22.7 8.92757 22.7 8.9286C22.7 8.92964 22.7072 8.9286 22.7083 8.91825C22.7093 8.9079 22.7155 8.91204 22.7248 8.91825C22.7341 8.92446 22.7393 8.92757 22.7341 8.911C22.729 8.89444 22.7341 8.89651 22.7341 8.90376C22.7341 8.911 22.7424 8.91204 22.7424 8.90376C22.7424 8.89548 22.7424 8.90376 22.7424 8.90376C22.7424 8.90376 22.7497 8.91307 22.7528 8.90893C22.7559 8.90479 22.76 8.90893 22.7631 8.90893C22.7662 8.90893 22.7838 8.90272 22.7828 8.89133C22.7818 8.87995 22.7828 8.89133 22.7828 8.89133C22.7828 8.89133 22.7942 8.89133 22.8025 8.89133C22.8107 8.89133 22.819 8.89133 22.8211 8.89133C22.8232 8.89133 22.8283 8.89133 22.8346 8.87166C22.8346 8.86338 22.8408 8.86131 22.8439 8.87166C22.8439 8.87684 22.847 8.88202 22.8439 8.87166C22.8439 8.86649 22.8439 8.87166 22.8439 8.87166C22.8456 8.87385 22.8483 8.87512 22.8511 8.87512C22.8539 8.87512 22.8566 8.87385 22.8584 8.87166C22.8597 8.86948 22.862 8.86815 22.8646 8.86815C22.8671 8.86815 22.8695 8.86948 22.8708 8.87166C22.877 8.88409 22.8863 8.87995 22.8822 8.86649C22.8805 8.8609 22.8772 8.85589 22.8729 8.85199C22.8729 8.85199 22.8677 8.84682 22.8729 8.84475C22.878 8.84268 22.8791 8.84992 22.8832 8.85821C22.8874 8.86649 22.8925 8.86959 22.8925 8.85821C22.8925 8.84682 22.8925 8.84785 22.8925 8.85096C22.8925 8.85406 22.9153 8.86442 22.9691 8.85096L23.0665 8.82715C23.1061 8.81724 23.1449 8.80408 23.1824 8.78781L23.2414 8.764C23.2518 8.764 23.258 8.75468 23.2569 8.75157C23.2565 8.74631 23.2594 8.74133 23.2642 8.73915L23.3242 8.70706C23.3512 8.69256 23.3719 8.676 23.3688 8.67186C23.3657 8.66772 23.3688 8.66564 23.3739 8.67186C23.3791 8.67807 23.3833 8.67186 23.3833 8.67186C23.3833 8.67186 23.3833 8.67186 23.3926 8.67186C23.4019 8.67186 23.4029 8.67807 23.3998 8.67186C23.3967 8.66564 23.4081 8.66047 23.4319 8.66668C23.4319 8.66668 23.4392 8.66668 23.4402 8.65736C23.4412 8.64804 23.4454 8.64908 23.4578 8.65736C23.4702 8.66564 23.4754 8.67082 23.4785 8.66875C23.4816 8.66668 23.5758 8.74743 23.5986 8.78367C23.6038 8.79091 23.6183 8.80748 23.6296 8.8199C23.6404 8.82992 23.6501 8.84102 23.6586 8.85303C23.6586 8.85924 23.6659 8.86338 23.6669 8.86235C23.6788 8.87453 23.6893 8.88808 23.698 8.90272C23.7415 8.96587 23.8119 9.06008 23.8284 9.07872C23.8369 9.08781 23.8442 9.09789 23.8502 9.10874C23.8502 9.11599 23.8843 9.15947 23.9185 9.20399C23.9526 9.2485 23.9858 9.29613 23.993 9.30751C24.0018 9.3209 24.0115 9.33369 24.022 9.34582C24.0332 9.35875 24.0432 9.3726 24.052 9.38723L24.1556 9.53113L24.2539 9.66986C24.2605 9.68088 24.2685 9.69097 24.2777 9.69988C24.3149 9.74155 24.3495 9.78546 24.3813 9.83136L24.4165 9.88416C24.4775 9.9763 24.4848 10.0084 24.4506 10.0405C24.4448 10.0461 24.4421 10.0542 24.4434 10.0622C24.4434 10.0684 24.4434 10.0715 24.4289 10.0705C24.4176 10.0686 24.4065 10.0746 24.402 10.085C24.402 10.0954 24.3916 10.1005 24.3875 10.0985C24.3483 10.1127 24.3128 10.1357 24.2839 10.1658C24.2746 10.1771 24.2632 10.1823 24.2601 10.1782C24.2539 10.1782 24.257 10.174 24.2601 10.1782C24.2663 10.1782 24.2601 10.1916 24.226 10.1958C24.1965 10.2014 24.1684 10.2127 24.1431 10.2289C24.1305 10.2393 24.1149 10.2454 24.0986 10.2465L24.0676 10.2548C24.036 10.279 24.0012 10.2985 23.964 10.3128C23.8966 10.3336 23.8303 10.3578 23.7653 10.3852L23.7156 10.4142C23.6938 10.4256 23.6773 10.438 23.6773 10.4422C23.6783 10.4466 23.6783 10.4512 23.6773 10.4556C23.6698 10.4653 23.6664 10.4776 23.6679 10.4898C23.6679 10.5043 23.6679 10.5043 23.6586 10.4898C23.6493 10.4753 23.6504 10.4743 23.6524 10.4898C23.6546 10.4984 23.6508 10.5075 23.643 10.5118C23.6352 10.5162 23.6255 10.5148 23.6193 10.5084C23.6131 10.5022 23.6069 10.5022 23.6069 10.5084C23.6069 10.5146 23.6069 10.5281 23.5913 10.5188C23.5758 10.5095 23.5831 10.5188 23.5913 10.526C23.5996 10.5333 23.5758 10.5364 23.5624 10.5188C23.5489 10.5012 23.5551 10.5188 23.553 10.5188C23.551 10.5188 23.5427 10.5188 23.5344 10.5188C23.5261 10.5188 23.5209 10.5188 23.5209 10.5281C23.5209 10.5374 23.5209 10.5374 23.5127 10.5281C23.5044 10.5188 23.5013 10.5177 23.4982 10.5188C23.4857 10.5268 23.4751 10.5374 23.4671 10.5498C23.4671 10.5581 23.4319 10.5498 23.4247 10.5385C23.4174 10.5271 23.4174 10.5322 23.4164 10.5436C23.4153 10.555 23.4164 10.5581 23.406 10.5436C23.3957 10.5291 23.3801 10.5343 23.3605 10.5561C23.3605 10.5612 23.3512 10.5561 23.3491 10.5561C23.347 10.5561 23.3408 10.5447 23.3367 10.5457C23.3139 10.5509 23.2632 10.5001 23.2518 10.4608C23.2477 10.4494 23.2421 10.4386 23.2352 10.4287C23.2291 10.4207 23.2245 10.4115 23.2217 10.4018C23.2217 10.3966 23.2166 10.3925 23.2145 10.3935C23.2124 10.3945 23.2093 10.3935 23.2062 10.379C23.1969 10.3468 23.1837 10.3159 23.1669 10.2869C23.1622 10.2838 23.158 10.2799 23.1545 10.2755Z" fill="#FFF6ED"/>
<defs>
<linearGradient id="paint0_linear_2808_27343" x1="-38.5244" y1="4.22326" x2="8.64597" y2="111.896" gradientUnits="userSpaceOnUse">
<stop stop-color="#FFD4B6"/>
<stop offset="0.5" stop-color="#FF8C98"/>
<stop offset="1" stop-color="#822E5F"/>
</linearGradient>
<linearGradient id="paint1_linear_2808_27343" x1="-38.7167" y1="4.12924" x2="8.13519" y2="111.976" gradientUnits="userSpaceOnUse">
<stop stop-color="#FFD4B6"/>
<stop offset="0.5" stop-color="#FF8C98"/>
<stop offset="1" stop-color="#822E5F"/>
</linearGradient>
</defs>
</svg>
