<svg width="25" height="24" viewBox="0 0 25 24" fill="none" xmlns="http://www.w3.org/2000/svg">
<g id="widgets">
<mask id="mask0_1399_15315" style="mask-type:alpha" maskUnits="userSpaceOnUse" x="0" y="0" width="25" height="24">
<rect id="Bounding box" x="0.166504" width="24" height="24" fill="#D9D9D9"/>
</mask>
<g mask="url(#mask0_1399_15315)">
<path id="widgets_2" d="M16.1165 12.3L11.8665 8.05C11.7665 7.95 11.6957 7.84167 11.654 7.725C11.6123 7.60833 11.5915 7.48333 11.5915 7.35C11.5915 7.21667 11.6123 7.09167 11.654 6.975C11.6957 6.85833 11.7665 6.75 11.8665 6.65L16.1165 2.4C16.2165 2.3 16.3248 2.22917 16.4415 2.1875C16.5582 2.14583 16.6832 2.125 16.8165 2.125C16.9498 2.125 17.0748 2.14583 17.1915 2.1875C17.3082 2.22917 17.4165 2.3 17.5165 2.4L21.7665 6.65C21.8665 6.75 21.9373 6.85833 21.979 6.975C22.0207 7.09167 22.0415 7.21667 22.0415 7.35C22.0415 7.48333 22.0207 7.60833 21.979 7.725C21.9373 7.84167 21.8665 7.95 21.7665 8.05L17.5165 12.3C17.4165 12.4 17.3082 12.4708 17.1915 12.5125C17.0748 12.5542 16.9498 12.575 16.8165 12.575C16.6832 12.575 16.5582 12.5542 16.4415 12.5125C16.3248 12.4708 16.2165 12.4 16.1165 12.3ZM3.1665 10V4C3.1665 3.71667 3.26234 3.47917 3.454 3.2875C3.64567 3.09583 3.88317 3 4.1665 3H10.1665C10.4498 3 10.6873 3.09583 10.879 3.2875C11.0707 3.47917 11.1665 3.71667 11.1665 4V10C11.1665 10.2833 11.0707 10.5208 10.879 10.7125C10.6873 10.9042 10.4498 11 10.1665 11H4.1665C3.88317 11 3.64567 10.9042 3.454 10.7125C3.26234 10.5208 3.1665 10.2833 3.1665 10ZM13.1665 20V14C13.1665 13.7167 13.2623 13.4792 13.454 13.2875C13.6457 13.0958 13.8832 13 14.1665 13H20.1665C20.4498 13 20.6873 13.0958 20.879 13.2875C21.0707 13.4792 21.1665 13.7167 21.1665 14V20C21.1665 20.2833 21.0707 20.5208 20.879 20.7125C20.6873 20.9042 20.4498 21 20.1665 21H14.1665C13.8832 21 13.6457 20.9042 13.454 20.7125C13.2623 20.5208 13.1665 20.2833 13.1665 20ZM3.1665 20V14C3.1665 13.7167 3.26234 13.4792 3.454 13.2875C3.64567 13.0958 3.88317 13 4.1665 13H10.1665C10.4498 13 10.6873 13.0958 10.879 13.2875C11.0707 13.4792 11.1665 13.7167 11.1665 14V20C11.1665 20.2833 11.0707 20.5208 10.879 20.7125C10.6873 20.9042 10.4498 21 10.1665 21H4.1665C3.88317 21 3.64567 20.9042 3.454 20.7125C3.26234 20.5208 3.1665 20.2833 3.1665 20Z" fill="#CAF441"/>
</g>
</g>
</svg>
