<svg width="97" height="96" viewBox="0 0 97 96" fill="none" xmlns="http://www.w3.org/2000/svg">
<g id="Group 2206">
<g id="Group 2205">
<path id="Path" d="M88.7993 42.7034C88.7091 41.7925 88.5906 40.907 88.4412 40.0554V39.9652V39.8552C88.4186 39.4829 88.413 39.4435 88.3707 39.404C88.3284 39.3645 88.3425 39.3532 88.3707 39.3391C88.3704 39.2295 88.3513 39.1208 88.3143 39.0176C88.2156 38.6482 87.9928 37.6274 88.0013 37.571C87.9925 37.493 87.9716 37.4169 87.9392 37.3454C87.8932 37.2312 87.8665 37.1102 87.8603 36.9872C87.8603 36.8857 87.8405 36.8068 87.818 36.7983C87.7713 36.7386 87.7385 36.6692 87.7221 36.5953C87.5557 36.0651 87.4232 35.9354 87.0904 35.9636H86.8958C86.7289 35.9755 86.5682 36.032 86.4305 36.1271C86.4057 36.1592 86.3667 36.1771 86.3262 36.1751C86.1562 36.1942 85.9883 36.2281 85.8242 36.2766C85.654 36.3232 85.4806 36.3572 85.3053 36.3781C85.2534 36.3746 85.2018 36.3885 85.1587 36.4176C85.1174 36.4442 85.0696 36.4589 85.0205 36.4599C84.9476 36.4668 84.8757 36.482 84.8062 36.505C84.8049 36.4909 84.8049 36.4768 84.8062 36.4627C84.7865 36.395 84.7611 36.3274 84.7413 36.2597L84.7667 36.2428C84.8057 36.2063 84.8572 36.1861 84.9105 36.1864C84.9711 36.1868 85.0316 36.1812 85.091 36.1694C85.1481 36.1547 85.2071 36.149 85.2659 36.1525C85.3096 36.1567 85.3534 36.1457 85.3899 36.1215C85.4548 36.0679 85.4745 36.0651 85.4886 36.1046C85.4997 36.1275 85.5188 36.1455 85.5422 36.1553C85.5648 36.1553 85.5676 36.1553 85.5422 36.1384C85.5168 36.1215 85.5591 36.0707 85.6071 36.113C85.6362 36.1321 85.6739 36.1321 85.703 36.113C85.734 36.0905 85.765 36.0848 85.7706 36.113C85.7763 36.1412 85.8665 36.113 85.9709 36.082C86.0396 36.0501 86.1153 36.0365 86.1908 36.0425C86.2052 36.0594 86.228 36.0663 86.2492 36.0602C86.2705 36.0541 86.2862 36.0362 86.2895 36.0143C86.3552 35.9265 86.4626 35.8803 86.5715 35.8931C86.6195 35.9128 86.6279 35.8931 86.6138 35.8592C86.5997 35.8254 86.6138 35.8028 86.6307 35.8085C86.6477 35.8141 86.6843 35.7887 86.7041 35.7493C86.7202 35.7116 86.7563 35.6865 86.7971 35.6844C86.9297 35.6844 87.0114 35.3234 86.9353 35.0555C86.9212 35.002 86.9353 34.9597 86.9353 34.9568C86.9353 34.954 86.9522 34.9089 86.9353 34.8412C86.7971 34.5451 86.7407 34.3618 86.7746 34.3082C86.8084 34.2547 86.7971 34.2377 86.7407 34.1813C86.6843 34.1249 86.6787 34.0996 86.6984 34.0742C86.7129 33.9326 86.6936 33.7895 86.642 33.6568C86.5666 33.5072 86.4988 33.3537 86.439 33.1972C86.4243 33.161 86.4243 33.1205 86.439 33.0844C86.4587 33.0562 86.439 33.028 86.4136 32.9913C86.3723 32.936 86.346 32.8709 86.3375 32.8024C86.325 32.7313 86.3012 32.6628 86.267 32.5993C86.2416 32.5598 86.2275 32.5147 86.2388 32.5006C86.2782 32.4273 86.2388 32.2186 86.1852 32.2186C86.1316 32.2186 86.1372 32.2186 86.1401 32.1622C86.1485 32.0804 86.1118 32.0004 86.0442 31.9535C86.0137 31.9165 85.9994 31.8687 86.0047 31.821C85.9962 31.6681 85.932 31.5236 85.8242 31.4149C85.7791 31.3895 85.7791 31.3754 85.8242 31.3585C85.8693 31.3416 85.8693 31.3247 85.8045 31.2711C85.7269 31.2091 85.6634 31.1312 85.6184 31.0427C85.5994 31.0069 85.5747 30.9744 85.545 30.9468C85.4543 30.7825 85.3734 30.613 85.3025 30.4392L85.2574 30.3405C85.0149 29.7765 84.6426 29.1251 84.3409 28.5244C84.0396 27.9081 83.7055 27.3085 83.3398 26.7281C82.9788 26.149 82.6226 25.5747 82.271 25.005C81.8931 24.441 81.4927 23.925 81.1092 23.3976C80.376 22.3176 79.4933 21.4011 78.7235 20.4705C76.3486 17.8296 73.5921 15.5588 70.5454 13.7335L69.3413 13.0144L67.8975 12.284C66.7249 11.6967 65.5198 11.1769 64.2879 10.7274C61.0485 9.58764 57.6505 8.96247 54.2176 8.87463C53.2447 8.86053 52.2436 8.84079 51.2763 8.92257C50.3091 9.00435 49.3023 9.06075 48.2787 9.17637C47.255 9.29199 46.237 9.45837 45.1767 9.59937C44.1361 9.79395 43.0758 9.98007 42.0155 10.2282C37.5645 11.2303 33.2553 12.7819 29.1873 14.8474C24.9123 17.0008 20.9914 19.7948 17.5604 23.1326C17.1261 23.5443 16.7313 23.9983 16.3168 24.4269C15.892 24.8553 15.4928 25.3083 15.1211 25.7834L13.9931 27.23L13.4291 27.9491C13.2571 28.2001 13.1076 28.4652 12.9469 28.719L12.0078 30.2615C11.8583 30.521 11.6891 30.7691 11.5538 31.0342L11.1759 31.8407C10.6908 32.918 10.1325 33.9586 9.80255 35.064C8.35792 39.1376 7.63457 43.4319 7.66498 47.754C7.63678 51.7302 8.31922 55.2778 9.04679 58.2557C10.0249 62.0425 11.5255 65.6748 13.5052 69.0479L13.9592 69.8487C14.1228 70.1138 14.3061 70.3676 14.4809 70.6299C14.8344 71.1525 15.1944 71.6808 15.561 72.2147C15.9367 72.7553 16.3405 73.2759 16.7708 73.7742C17.1966 74.2846 17.6168 74.8119 18.0595 75.3224C19.9399 77.3536 22.0352 79.1747 24.3086 80.7537C26.5833 82.2687 29.0116 83.5391 31.5532 84.5438C33.8946 85.4318 36.3119 86.1048 38.7753 86.5544C42.313 87.1624 45.9124 87.3301 49.4913 87.0536C50.0948 86.9803 51.9701 86.859 54.4601 86.3852C57.3911 85.8156 60.2622 84.9725 63.0358 83.867C65.4015 82.9047 67.684 81.7493 69.8602 80.4125L72.1162 78.915L73.9069 77.553C74.4709 77.1441 74.9418 76.6788 75.4438 76.2586C75.9457 75.8384 76.4336 75.4126 76.9074 74.9163C77.3811 74.42 77.9113 73.9377 78.4471 73.3625L80.1617 71.3885C81.2474 69.9587 83.0014 67.7563 84.5157 64.7756C86.228 61.4716 87.4795 57.9486 88.2353 54.3049C89.0048 50.488 89.195 46.5769 88.7993 42.7034Z" fill="url(#paint0_linear_2808_31068)"/>
<path id="Path_2" d="M59.6741 30.5436C59.6199 30.3915 59.5549 30.2436 59.4795 30.1008C59.3578 29.8969 59.2231 29.701 59.0763 29.5143C58.8253 29.0772 58.0865 28.6457 57.6663 28.1494C57.5013 27.944 57.3523 27.7262 57.2207 27.498C57.1136 27.3231 57.0092 27.137 56.9923 27.0947C56.9463 27.022 56.9209 26.9382 56.919 26.8522C56.919 26.8325 56.8851 26.7873 56.8428 26.7507C56.8005 26.714 56.7723 26.6802 56.8034 26.6435C56.8197 26.6177 56.8197 26.5847 56.8034 26.5589C56.7808 26.5251 56.778 26.5279 56.7808 26.5589C56.7842 26.5702 56.7824 26.5825 56.7759 26.5923C56.7693 26.6021 56.7587 26.6085 56.747 26.6097C56.6934 26.6097 56.6031 26.4574 56.6426 26.4348C56.6821 26.4123 56.6285 26.3502 56.5665 26.2544C56.5193 26.1935 56.4883 26.1217 56.4762 26.0457C56.4853 26.0253 56.4781 26.0013 56.4593 25.9893C56.4394 25.9781 56.4319 25.9532 56.4424 25.9329C56.4424 25.9075 56.4142 25.8426 56.3409 25.758C56.1181 25.5042 56.0589 25.4253 56.0871 25.4084C56.0516 25.2951 55.9962 25.1891 55.9235 25.0953C55.8463 24.9916 55.7836 24.8777 55.7374 24.7569C55.7438 24.7358 55.7358 24.7131 55.7177 24.7005C55.5688 24.5642 55.4422 24.4052 55.3426 24.2296C55.3254 24.1565 55.286 24.0905 55.2298 24.0407C55.1565 23.9561 55.1085 23.8799 55.1255 23.8658C55.1424 23.8517 55.1255 23.8179 55.0888 23.7925C55.0496 23.7619 55.0234 23.7175 55.0155 23.6684C55.0155 23.612 54.9873 23.5951 54.9365 23.6064C54.8858 23.6177 54.866 23.6064 54.7278 23.3864C54.6469 23.2583 54.5449 23.1449 54.4261 23.0508C54.3443 22.9973 54.24 22.8957 54.1441 22.8281C54.0482 22.7604 54.0003 22.7096 53.989 22.7209C53.8823 22.6691 53.7828 22.6037 53.6929 22.5263C53.1656 22.1484 53.0274 22.1372 52.7172 22.1851C52.5875 22.2105 52.5226 22.2556 52.5254 22.3176C52.5282 22.3797 52.5085 22.3938 52.4775 22.3571C52.4465 22.3205 52.3731 22.3233 52.3111 22.3571C52.2491 22.391 52.2096 22.4079 52.3337 22.4022C52.4577 22.3966 52.4606 22.4022 52.3788 22.4643C52.332 22.5 52.2765 22.5224 52.218 22.5291C52.1757 22.5291 52.1024 22.5968 52.0517 22.6871C52.0137 22.7631 51.9538 22.826 51.8796 22.8675C51.8232 22.8845 51.8232 22.9042 51.8796 22.9493C51.936 22.9944 51.9389 23.0142 51.8796 23.0339C51.8204 23.0537 51.8091 23.0678 51.8289 23.0762C51.8486 23.0847 51.8289 23.1044 51.7809 23.1185C51.7242 23.1458 51.6872 23.2022 51.6851 23.2652C51.6851 23.3357 51.6456 23.3864 51.6061 23.3864C51.5666 23.3864 51.5525 23.4118 51.5751 23.4654C51.5976 23.519 51.5751 23.5443 51.5412 23.5641C51.4909 23.5999 51.4557 23.6532 51.4425 23.7135C51.4172 23.8122 51.3946 23.832 51.3354 23.8094C51.2762 23.7869 51.2762 23.8094 51.3044 23.8235C51.3326 23.8376 51.2113 24.2493 51.1408 24.2606C51.0703 24.2719 51.0985 24.2888 51.1154 24.3368C51.1323 24.3847 51.1154 24.4016 51.0985 24.3875C51.0816 24.3734 51.059 24.3875 51.0618 24.4778C51.0649 24.5357 51.0469 24.5928 51.0111 24.6385C50.9709 24.6878 50.9368 24.7418 50.9096 24.7992C50.8827 24.8563 50.8496 24.9102 50.8109 24.96C50.783 24.997 50.7655 25.0408 50.7601 25.0869C50.7601 25.1799 50.7432 25.1997 50.7093 25.1856C50.6903 25.1782 50.6692 25.1782 50.6501 25.1856C50.6304 25.1856 50.6332 25.2053 50.6501 25.1856C50.667 25.1658 50.684 25.242 50.6304 25.2589C50.5768 25.2758 50.5909 25.304 50.5852 25.3491C50.5796 25.3943 50.5655 25.4225 50.5542 25.4168C50.543 25.4112 50.5035 25.4986 50.4668 25.6142C50.4475 25.6906 50.4171 25.7638 50.3766 25.8314C50.3437 25.8563 50.3292 25.8987 50.3399 25.9385C50.3364 26.0484 50.3064 26.1558 50.2525 26.2515C50.2271 26.2854 50.2243 26.2967 50.2525 26.3079C50.2807 26.3192 50.2525 26.3305 50.2525 26.3474C50.2385 26.3774 50.2317 26.4102 50.2327 26.4433C50.2315 26.4837 50.2208 26.5233 50.2017 26.5589C50.1473 26.6859 50.1473 26.8296 50.2017 26.9565C50.2017 26.9565 50.2017 26.9876 50.2017 27.0073C50.2017 27.027 50.2017 27.044 50.2017 27.044C50.3033 27.0722 50.3596 27.1257 50.3343 27.1709C50.3089 27.216 50.3343 27.2244 50.3709 27.216C50.4076 27.2075 50.4273 27.216 50.4104 27.2498C50.4037 27.3258 50.4305 27.401 50.4837 27.4557C50.5692 27.511 50.6454 27.5795 50.7093 27.6587C50.7264 27.6843 50.7264 27.7177 50.7093 27.7433C50.6924 27.7743 50.7093 27.7913 50.7432 27.8025C50.7875 27.8248 50.8203 27.8647 50.8334 27.9125C50.8486 27.9675 50.8756 28.0184 50.9124 28.062C50.9378 28.0874 50.9519 28.1212 50.9434 28.1381C50.9096 28.2114 50.9603 28.3835 51.0111 28.3524C51.0618 28.3214 51.059 28.3524 51.0562 28.3976C51.0538 28.4723 51.0991 28.5403 51.169 28.5668C51.2028 28.594 51.2208 28.6363 51.2169 28.6796C51.224 28.7545 51.2503 28.8263 51.2931 28.8882H51.1323C51.0872 28.9052 50.5063 28.8882 49.8408 28.8882C48.4222 28.9042 47.0074 29.0372 45.6108 29.2859C43.9609 29.5774 42.3418 30.0221 40.7745 30.6141C37.7627 31.7484 34.9821 33.4205 32.5682 35.5491C31.8745 36.161 31.3528 36.6771 30.9467 37.1001L30.1938 37.8981C30.1239 37.9813 30.0387 38.0502 29.9428 38.1012C29.9016 38.1314 29.871 38.1738 29.8554 38.2225C29.8244 38.3042 29.799 38.3268 29.7539 38.3127C29.72 38.3038 29.6841 38.3147 29.6608 38.3409C29.6326 38.3776 29.6383 38.3804 29.6777 38.3578C29.7172 38.3353 29.7341 38.3578 29.7398 38.3578C29.7454 38.3578 29.6213 38.5693 29.5875 38.5439C29.5537 38.5186 29.5029 38.6032 29.4324 38.7019C29.3619 38.8006 29.2858 38.8795 29.2632 38.8795C29.239 38.8789 29.2178 38.8954 29.2124 38.919C29.2096 38.9432 29.1889 38.9615 29.1645 38.9613C29.1391 38.9613 29.0855 39.029 29.032 39.1277C28.874 39.4266 28.8317 39.514 28.8064 39.4943C28.7204 39.5673 28.647 39.654 28.5892 39.7509C28.5271 39.8562 28.4491 39.9514 28.358 40.0329C28.3372 40.0328 28.32 40.0489 28.3185 40.0696C28.257 40.2293 28.1682 40.3772 28.0562 40.5067C28.0309 40.5067 27.9801 40.5687 27.9378 40.6448C27.8955 40.721 27.8447 40.7717 27.8278 40.7605C27.8109 40.7492 27.7855 40.7605 27.7771 40.7999C27.7651 40.8375 27.7357 40.867 27.6981 40.8789C27.653 40.8789 27.6473 40.9127 27.6755 40.955C27.7037 40.9973 27.6953 41.0255 27.5599 41.1468C27.4799 41.2193 27.4172 41.309 27.3766 41.4091C27.3512 41.4861 27.3152 41.5592 27.2695 41.6262C27.23 41.6798 27.2074 41.7305 27.2215 41.739C27.2064 41.8167 27.1757 41.8906 27.1313 41.9561C26.9254 42.3227 26.9254 42.3932 27.0269 42.6329C27.0721 42.7345 27.1228 42.788 27.1792 42.7965C27.2356 42.805 27.2497 42.8219 27.2215 42.8388C27.1933 42.8557 27.199 42.9065 27.2215 42.9572C27.2441 43.008 27.2751 43.039 27.261 42.9572C27.2469 42.8755 27.261 42.8642 27.3174 42.9375C27.3522 42.9724 27.3767 43.0164 27.3879 43.0644C27.3879 43.0926 27.4612 43.1603 27.5458 43.2139C27.6189 43.2509 27.681 43.3063 27.7263 43.3746C27.7432 43.4197 27.763 43.4254 27.8053 43.3887C27.8476 43.352 27.8645 43.352 27.8842 43.4113C27.904 43.4705 27.9209 43.4733 27.9265 43.4564C27.9322 43.4395 27.9547 43.4564 27.9688 43.5015C27.9988 43.5542 28.0503 43.5913 28.1098 43.603C28.1803 43.6199 28.2254 43.6538 28.2283 43.6876C28.2311 43.7215 28.2508 43.7356 28.3016 43.7243C28.3523 43.713 28.3805 43.7243 28.3975 43.7666C28.4329 43.8159 28.4833 43.8525 28.5413 43.8709C28.6343 43.9076 28.6541 43.933 28.6315 43.9809C28.609 44.0288 28.6315 44.0288 28.6315 44.0091C28.6315 43.9894 29.0432 44.1473 29.0461 44.2178C29.0489 44.2883 29.0743 44.2601 29.1222 44.2516C29.1701 44.2432 29.1871 44.2516 29.173 44.2742C29.1589 44.2967 29.173 44.3137 29.2576 44.3193C29.3146 44.3214 29.3688 44.3445 29.4098 44.3842C29.4548 44.4313 29.5061 44.4721 29.5621 44.5054C29.6157 44.5386 29.665 44.5784 29.7088 44.6239C29.7401 44.6584 29.7815 44.6821 29.8272 44.6915C29.9203 44.6915 29.9372 44.7141 29.9174 44.7536C29.9091 44.7773 29.9091 44.8032 29.9174 44.8269C29.9174 44.8551 29.9344 44.8495 29.9315 44.8269C29.9287 44.8043 29.9964 44.7874 30.002 44.8551C30.002 44.8777 30.0415 44.9059 30.0838 44.9143C30.1261 44.9228 30.1543 44.9425 30.1459 44.9566C30.1374 44.9707 30.2192 45.0271 30.3263 45.0779C30.4016 45.1063 30.4698 45.1506 30.5266 45.2076C30.5272 45.2307 30.5401 45.2518 30.5605 45.2629C30.5808 45.2739 30.6055 45.2733 30.6253 45.2612C30.739 45.2517 30.851 45.2942 30.9298 45.3768C30.9524 45.4247 30.9665 45.4247 30.989 45.3768C31.0116 45.3289 31.0257 45.3373 31.0398 45.3571C31.0539 45.3768 31.0962 45.3824 31.1385 45.3571C31.1806 45.3454 31.2258 45.3549 31.2598 45.3824C31.3556 45.484 31.6884 45.3148 31.8238 45.1004C31.8491 45.0581 31.883 45.0384 31.9027 45.0525C31.9225 45.0666 31.9507 45.0525 31.9732 44.9735C32.086 44.7056 32.1791 44.5618 32.2552 44.559C32.3314 44.5562 32.3229 44.5364 32.3229 44.4603C32.3229 44.3842 32.337 44.3672 32.368 44.3701C32.4827 44.3079 32.5798 44.2177 32.65 44.1078C32.7087 43.969 32.7765 43.8343 32.8531 43.7045C32.8732 43.6758 32.9055 43.6581 32.9405 43.6566C32.9771 43.6566 32.9941 43.6369 32.9941 43.5889C33.0054 43.527 33.0397 43.4717 33.0899 43.4338C33.1411 43.3933 33.1841 43.3436 33.2168 43.2872C33.2168 43.2505 33.262 43.2195 33.2789 43.2195C33.3635 43.2195 33.5186 43.0926 33.4706 43.0588C33.4227 43.0249 33.4424 43.0193 33.4932 42.9967C33.5631 42.9702 33.6084 42.9022 33.606 42.8275C33.606 42.7993 33.6455 42.7598 33.6934 42.7429C33.8153 42.678 33.9021 42.5623 33.9303 42.4271C33.9303 42.3763 33.9303 42.3707 33.9754 42.4017C34.0205 42.4327 34.0262 42.4299 34.0346 42.3509C34.0442 42.2613 34.0752 42.1752 34.1249 42.1C34.1442 42.0685 34.1584 42.0343 34.1672 41.9984C34.2586 41.8585 34.3604 41.7255 34.4717 41.6008L34.5338 41.5247C34.6015 41.4429 34.6776 41.3583 34.7509 41.2793L35.1711 40.8225L35.7633 40.2218C36.5992 39.4257 37.499 38.6995 38.4536 38.0504C39.5941 37.2777 40.8112 36.6247 42.0858 36.1018C42.4806 35.9298 43.3096 35.6168 44.1387 35.3517C44.9678 35.0866 45.8053 34.8948 46.1635 34.8243C46.2565 34.8046 46.75 34.7059 47.2661 34.6523C48.2813 34.5452 48.3518 34.5423 48.9581 34.4888C49.459 34.4482 49.9616 34.4332 50.464 34.4436L50.9603 34.4662L50.5486 34.9343L50.1763 35.3432L50.041 35.4814L49.9592 35.5604C49.6772 35.8113 49.6575 35.8424 49.6546 35.9016C49.6518 35.9608 49.6349 35.958 49.6152 35.9552C49.5271 36.0213 49.4525 36.1036 49.3952 36.1977C49.0991 36.5955 48.7759 36.9724 48.4279 37.3257C48.3697 37.379 48.321 37.442 48.2841 37.5118C48.219 37.6191 48.136 37.7145 48.0388 37.7938C47.957 37.853 47.9006 37.9151 47.9062 37.9405C47.8844 38.0135 47.8469 38.0809 47.7963 38.1378C47.4494 38.5749 47.4212 38.7639 47.6496 39.0431L47.7765 39.2095C47.8876 39.353 48.0344 39.4649 48.2023 39.5338C48.2466 39.5366 48.2861 39.5622 48.3067 39.6014C48.4295 39.7398 48.5614 39.8698 48.7015 39.9906C48.8449 40.1168 48.9788 40.2534 49.1019 40.3995C49.1318 40.4467 49.1749 40.484 49.226 40.5067C49.2753 40.5282 49.3174 40.5635 49.3473 40.6082C49.437 40.7131 49.5382 40.8077 49.649 40.8902C49.757 40.9691 49.8521 41.0642 49.931 41.1722C49.9416 41.2131 49.9743 41.2447 50.0156 41.254C50.2195 41.3773 50.4023 41.5325 50.557 41.7136C50.6276 41.7954 50.6783 41.8292 50.6952 41.8095C50.7122 41.7898 50.7262 41.8095 50.7347 41.8095C50.7432 41.8095 50.808 41.8546 50.8757 41.8574C50.9343 41.8544 50.9915 41.8759 51.0336 41.9167C51.1041 42.0436 51.6399 42.0154 51.7584 41.8772C51.8044 41.8261 51.8657 41.7915 51.9332 41.7785C52.0065 41.7785 52.046 41.7418 52.0968 41.6516C52.1317 41.5885 52.1764 41.5314 52.2293 41.4824C52.4521 41.3104 52.5818 41.1835 52.5931 41.1186C52.5999 41.075 52.6341 41.0408 52.6777 41.034C52.7163 41.0298 52.7502 41.0065 52.7679 40.972C52.7924 40.9313 52.8275 40.8982 52.8695 40.8761C52.9146 40.8507 52.9428 40.814 52.9371 40.7971C53.1368 40.5233 53.3524 40.2615 53.5829 40.0132L54.3725 39.1079C54.4611 39.0133 54.5405 38.9104 54.6094 38.8006C54.7292 38.6339 54.8601 38.4757 55.0014 38.3268L56.3381 36.804L58.2951 34.5621C58.6411 34.1896 58.9623 33.7949 59.2568 33.3805C59.4436 33.0899 59.5915 32.7761 59.6967 32.4471C59.7795 32.1999 59.8298 31.943 59.8461 31.6829C59.8656 31.2954 59.8071 30.908 59.6741 30.5436Z" fill="#FFF6ED"/>
<path id="Path_3" d="M37.0155 65.5028C37.0709 65.6552 37.1359 65.804 37.2101 65.9483C37.332 66.1519 37.4677 66.3469 37.6161 66.5321C37.8643 66.972 38.6031 67.4034 39.0261 67.8998C39.192 68.1035 39.341 68.3204 39.4717 68.5484C39.5559 68.679 39.6322 68.8146 39.7001 68.9544C39.745 69.0278 39.7712 69.1111 39.7763 69.197C39.7763 69.2139 39.8073 69.2618 39.8496 69.2957C39.8919 69.3295 39.9201 69.369 39.8919 69.4028C39.8726 69.4288 39.8726 69.4643 39.8919 69.4902C39.9116 69.5213 39.9173 69.5184 39.9116 69.4902C39.906 69.462 39.9116 69.4395 39.9483 69.4395C39.9849 69.4395 40.0893 69.5918 40.0498 69.6143C40.0103 69.6369 40.0498 69.6989 40.1259 69.7976C40.1739 69.8583 40.2059 69.93 40.219 70.0063C40.2085 70.0266 40.216 70.0516 40.2359 70.0627C40.2548 70.0747 40.2619 70.0987 40.2529 70.1191C40.2529 70.1417 40.2782 70.2065 40.3516 70.2911C40.5743 70.5477 40.6336 70.6267 40.6082 70.6408C40.6407 70.7552 40.6963 70.8618 40.7717 70.9538C40.8482 71.0586 40.9099 71.1734 40.955 71.295C40.9485 71.316 40.958 71.3386 40.9776 71.3486C41.1264 71.4854 41.2521 71.6454 41.3498 71.8224C41.3675 71.8953 41.4069 71.9611 41.4626 72.0113C41.5388 72.0931 41.5867 72.1721 41.567 72.1862C41.5472 72.2003 41.567 72.2341 41.6036 72.2595C41.6433 72.2897 41.6696 72.3342 41.677 72.3836C41.677 72.4371 41.7052 72.4541 41.7559 72.4456C41.8067 72.4371 41.8264 72.4456 41.9646 72.6627C42.0455 72.7908 42.1475 72.9043 42.2663 72.9983C42.3597 73.0685 42.4492 73.1438 42.5342 73.2239C42.6104 73.2944 42.6781 73.3395 42.6893 73.3283C42.796 73.3817 42.8963 73.4469 42.9883 73.5228C43.5128 73.9007 43.651 73.912 43.9612 73.8641C44.0909 73.8415 44.1557 73.7936 44.1557 73.7315C44.1557 73.6695 44.1698 73.6582 44.2037 73.6949C44.2375 73.7315 44.3052 73.7259 44.3672 73.6949C44.4716 73.6497 44.4688 73.6469 44.3447 73.6526C44.2206 73.6582 44.2178 73.6526 44.2996 73.5877C44.3477 73.553 44.4041 73.5316 44.4631 73.5257C44.5026 73.5257 44.5759 73.4552 44.6267 73.3677C44.6654 73.2922 44.7252 73.2296 44.7987 73.1873C44.8579 73.1703 44.8551 73.1478 44.7987 73.1055C44.7423 73.0632 44.7395 73.0406 44.7987 73.0181C44.8579 72.9955 44.8692 72.9842 44.8495 72.9758C44.8297 72.9673 44.8495 72.9476 44.8974 72.9335C44.956 72.9084 44.9938 72.8506 44.9933 72.7868C44.9933 72.7163 45.0356 72.6684 45.0722 72.6656C45.1089 72.6627 45.1286 72.643 45.1033 72.5894C45.0779 72.5358 45.0892 72.5076 45.1371 72.4907C45.1889 72.4551 45.2244 72.4003 45.2358 72.3384C45.2612 72.2426 45.2837 72.2228 45.3458 72.2426C45.4078 72.2623 45.4022 72.2426 45.374 72.2426C45.3458 72.2426 45.467 71.8167 45.5375 71.8055C45.608 71.7942 45.5798 71.7744 45.5629 71.7293C45.546 71.6842 45.5629 71.6645 45.5827 71.6757C45.6024 71.687 45.6193 71.6757 45.6165 71.5855C45.615 71.5286 45.6329 71.4729 45.6673 71.4276C45.7083 71.3779 45.7425 71.3229 45.7688 71.264C45.7963 71.2073 45.8293 71.1535 45.8675 71.1033C45.8965 71.0669 45.9142 71.0227 45.9182 70.9764C45.9182 70.8833 45.938 70.8664 45.969 70.8805C45.9878 70.8892 46.0094 70.8892 46.0282 70.8805C46.0451 70.8608 46.048 70.8664 46.0282 70.8805C46.0113 70.9002 45.9972 70.8241 46.048 70.8072C46.0751 70.7848 46.0915 70.752 46.0931 70.7169C46.0931 70.6746 46.1128 70.6436 46.1269 70.6493C46.1691 70.5904 46.198 70.523 46.2115 70.4519C46.2331 70.3753 46.2634 70.3015 46.3018 70.2319C46.3377 70.2092 46.3529 70.1646 46.3384 70.1247C46.3423 70.0149 46.3722 69.9076 46.4258 69.8117C46.454 69.7807 46.454 69.7666 46.4258 69.7581C46.3976 69.7497 46.4089 69.7328 46.4258 69.7158C46.4396 69.6857 46.4473 69.6531 46.4484 69.62C46.4499 69.5808 46.4595 69.5424 46.4766 69.5072C46.5294 69.3799 46.5294 69.2368 46.4766 69.1095C46.4638 69.094 46.4638 69.0715 46.4766 69.056C46.4766 69.0362 46.4766 69.0193 46.4625 69.0221C46.361 68.9939 46.3046 68.9375 46.33 68.8952C46.3553 68.8529 46.33 68.8416 46.2933 68.8473C46.2566 68.8529 46.2397 68.8473 46.2538 68.8134C46.258 68.7377 46.2316 68.6635 46.1805 68.6076C46.0962 68.5508 46.0202 68.4824 45.9549 68.4045C45.9392 68.3785 45.9392 68.3459 45.9549 68.3199C45.9718 68.2917 45.9605 68.272 45.9211 68.2607C45.877 68.2403 45.8448 68.2008 45.8336 68.1536C45.8167 68.0993 45.79 68.0486 45.7547 68.0041C45.7265 67.9787 45.7124 67.9449 45.7208 67.928C45.7575 67.8546 45.7039 67.6826 45.656 67.7108C45.608 67.739 45.608 67.7108 45.608 67.6657C45.6096 67.5912 45.5646 67.5237 45.4952 67.4965C45.4618 67.469 45.4439 67.4269 45.4473 67.3837C45.4397 67.3089 45.4135 67.2371 45.3712 67.175C45.4247 67.1779 45.4784 67.1779 45.5319 67.175C45.577 67.1581 46.1579 67.175 46.8235 67.175C48.2419 67.1563 49.6564 67.0233 51.0535 66.7774C52.7031 66.4849 54.3221 66.0402 55.8898 65.4492C58.9005 64.3115 61.6807 62.6386 64.096 60.5113C64.7897 59.8994 65.3114 59.3833 65.7203 58.9603L66.4704 58.1651C66.5403 58.0808 66.6267 58.0118 66.7242 57.9621C66.7642 57.9301 66.7936 57.8869 66.8088 57.838C66.8427 57.7562 66.8652 57.7336 66.9104 57.7477C66.9442 57.7581 66.981 57.7469 67.0034 57.7195C67.0316 57.6857 67.0288 57.6801 66.9865 57.7054C66.9442 57.7308 66.9301 57.7054 66.9244 57.7054C66.9188 57.7054 67.0429 57.4939 67.0767 57.5221C67.1106 57.5503 67.1613 57.4629 67.2318 57.3642C67.3023 57.2655 67.3785 57.1837 67.401 57.1866C67.4261 57.1869 67.4476 57.169 67.4518 57.1443C67.4547 57.1204 67.4758 57.1031 67.4997 57.1048C67.5251 57.1048 67.5815 57.0343 67.6323 56.9356C67.7902 56.6536 67.8325 56.5492 67.8579 56.569C67.946 56.4973 68.0205 56.4104 68.0778 56.3124C68.1393 56.2074 68.2163 56.1123 68.3063 56.0304C68.3267 56.0308 68.3445 56.0165 68.3486 55.9965C68.4084 55.8351 68.4973 55.686 68.6108 55.5566C68.6334 55.5566 68.687 55.4946 68.7293 55.4184C68.7716 55.3423 68.8195 55.2915 68.8392 55.3056C68.859 55.3197 68.8787 55.3056 68.8872 55.2633C68.8991 55.2257 68.9285 55.1963 68.9661 55.1844C69.0113 55.1844 69.0197 55.1505 68.9915 55.111C68.9633 55.0716 68.969 55.0377 69.1043 54.9165C69.1849 54.8444 69.2477 54.7547 69.2876 54.6542C69.3136 54.5774 69.3496 54.5044 69.3948 54.4371C69.4343 54.3835 69.4568 54.3327 69.4427 54.3271C69.4572 54.2492 69.488 54.1752 69.533 54.1099C69.7416 53.7405 69.7388 53.67 69.6373 53.4303C69.595 53.3316 69.5442 53.2752 69.485 53.2668C69.4258 53.2583 69.4145 53.2442 69.4455 53.2245C69.4766 53.2047 69.4653 53.1568 69.4455 53.1088C69.4258 53.0609 69.3948 53.0271 69.4061 53.1088C69.4173 53.1906 69.4061 53.1991 69.3525 53.1286C69.3165 53.0941 69.291 53.0501 69.2792 53.0017C69.2792 52.9707 69.2058 52.9058 69.1212 52.8522C69.0506 52.8117 68.9891 52.757 68.9408 52.6915C68.9238 52.6435 68.9041 52.6407 68.8646 52.6915C68.8251 52.7422 68.8054 52.7253 68.7828 52.6661C68.7603 52.6069 68.749 52.6069 68.7405 52.621C68.7321 52.6351 68.7123 52.621 68.6982 52.5759C68.6682 52.5231 68.6168 52.4861 68.5572 52.4743C68.4896 52.4574 68.4416 52.4236 68.4388 52.3926C68.436 52.3615 68.4191 52.3446 68.3655 52.3559C68.3119 52.3672 68.2865 52.3559 68.2696 52.3136C68.2356 52.2622 68.1847 52.2244 68.1258 52.2064C68.0327 52.1698 68.013 52.1472 68.0355 52.0965C68.0581 52.0457 68.0355 52.0485 68.0355 52.0711C68.0355 52.0936 67.621 51.9301 67.6182 51.8596C67.6154 51.7891 67.5928 51.8173 67.542 51.8286C67.4913 51.8398 67.48 51.8286 67.4941 51.8032C67.5082 51.7778 67.4941 51.7637 67.4095 51.7609C67.3512 51.7584 67.2958 51.7343 67.2544 51.6932C67.209 51.6485 67.1588 51.6088 67.1049 51.5748C67.0497 51.5415 66.9994 51.5007 66.9555 51.4535C66.9247 51.4188 66.8828 51.3959 66.837 51.3886C66.744 51.3886 66.7271 51.3633 66.7468 51.3266C66.7552 51.3019 66.7552 51.2751 66.7468 51.2505C66.7468 51.2251 66.7299 51.2279 66.7327 51.2505C66.7355 51.273 66.6678 51.2871 66.6622 51.2223C66.6565 51.1574 66.6227 51.1687 66.5804 51.163C66.5381 51.1574 66.5099 51.1348 66.5184 51.1179C66.5268 51.101 66.4451 51.0474 66.3379 50.9967C66.262 50.9695 66.1935 50.9251 66.1377 50.8669C66.137 50.8438 66.1241 50.8227 66.1038 50.8117C66.0834 50.8006 66.0587 50.8013 66.039 50.8134C65.9251 50.8236 65.8128 50.781 65.7344 50.6977C65.7118 50.6526 65.7006 50.6498 65.678 50.6977C65.6554 50.7457 65.6385 50.7344 65.6273 50.7147C65.616 50.6949 65.568 50.6893 65.5257 50.7006C65.4849 50.712 65.4411 50.7037 65.4073 50.678C65.3086 50.5765 64.9758 50.7429 64.8433 50.96C64.8179 50.9995 64.7812 51.022 64.7643 51.0051C64.7474 50.9882 64.7136 51.0051 64.691 51.0841C64.581 51.3661 64.4851 51.4986 64.409 51.5014C64.3329 51.5043 64.3413 51.5212 64.3441 51.5973C64.347 51.6735 64.3441 51.6904 64.2962 51.6904C64.2483 51.6904 64.048 51.8906 64.0142 51.9526C63.9573 52.0913 63.8894 52.2252 63.8112 52.3531C63.7923 52.3835 63.7595 52.4026 63.7237 52.4038C63.6871 52.4038 63.6702 52.4208 63.6702 52.4715C63.6595 52.5329 63.625 52.5876 63.5743 52.6238C63.5238 52.6641 63.4816 52.7139 63.4502 52.7704C63.4333 52.8099 63.4051 52.8381 63.3853 52.8381C63.3007 52.8381 63.1456 52.965 63.1936 52.9989C63.2415 53.0327 63.2218 53.0412 63.171 53.0609C63.1006 53.0879 63.056 53.1577 63.061 53.2329C63.061 53.2611 63.0187 53.2978 62.9708 53.3175C62.8497 53.3827 62.7639 53.4985 62.7367 53.6334C62.7367 53.6813 62.7367 53.6869 62.6916 53.6559C62.6465 53.6249 62.638 53.6305 62.6296 53.7067C62.6222 53.7977 62.5911 53.8852 62.5393 53.9605C62.5192 53.9901 62.5057 54.0238 62.4999 54.0592C62.4073 54.2 62.3046 54.3338 62.1925 54.4596L62.1304 54.5329C62.0656 54.6147 61.9894 54.6993 61.9133 54.7783L61.4931 55.2379L60.9009 55.8386C60.0652 56.6341 59.1654 57.3594 58.2106 58.0072C57.0708 58.781 55.8535 59.434 54.5785 59.9558C54.1865 60.1278 53.3546 60.4408 52.5255 60.7059C51.6964 60.971 50.8589 61.1628 50.5036 61.2361C50.4077 61.2558 49.9142 61.3517 49.3981 61.4053C48.3829 61.5153 48.3124 61.5181 47.7061 61.5717C47.2052 61.6109 46.7026 61.6251 46.2002 61.614L45.7096 61.5181C45.8252 61.3827 45.969 61.2192 46.1213 61.05L46.4963 60.6411L46.6289 60.5001L46.7107 60.4239C46.9927 60.1701 47.0124 60.1419 47.0152 60.0799C47.018 60.0178 47.035 60.0263 47.0547 60.0291C47.1434 59.9626 47.2181 59.8792 47.2747 59.7838C47.5722 59.3872 47.8953 59.0104 48.2419 58.6558C48.3016 58.6042 48.3513 58.542 48.3886 58.4725C48.4522 58.3641 48.5354 58.2685 48.6339 58.1905C48.7157 58.1313 48.7693 58.0692 48.7636 58.0467C48.7844 57.9726 48.8232 57.9048 48.8764 57.8493C49.2205 57.4093 49.2487 57.2232 49.0202 56.9412L48.8933 56.7777C48.7815 56.6342 48.6349 56.5217 48.4675 56.4505C48.4241 56.4478 48.3849 56.4234 48.3632 56.3857C48.2412 56.2466 48.1103 56.1156 47.9712 55.9937C47.826 55.8695 47.6911 55.7337 47.5679 55.5876C47.5385 55.5394 47.4953 55.501 47.4439 55.4776C47.396 55.4564 47.355 55.4222 47.3254 55.3789C47.233 55.2755 47.1311 55.1811 47.0209 55.0969C46.9114 55.0255 46.8158 54.9347 46.7389 54.829C46.7252 54.7889 46.6924 54.7582 46.6514 54.7473C46.4485 54.6249 46.2666 54.4707 46.1128 54.2904C46.0395 54.2086 45.9916 54.172 45.9746 54.1917C45.9577 54.2115 45.9408 54.1917 45.9323 54.1917C45.9239 54.1917 45.859 54.1438 45.7913 54.141C45.7334 54.1434 45.6767 54.1232 45.6334 54.0846C45.5657 53.9577 45.0271 53.983 44.9115 54.1212C44.8666 54.1751 44.8033 54.2102 44.7338 54.2199C44.6605 54.2199 44.621 54.2566 44.5703 54.3468C44.5369 54.411 44.4931 54.4691 44.4406 54.5188C44.215 54.688 44.0881 54.8178 44.074 54.8798C44.069 54.9243 44.0338 54.9594 43.9894 54.9644C43.9512 54.9718 43.9182 54.9955 43.8991 55.0293C43.8743 55.0678 43.8404 55.0998 43.8004 55.1223C43.7553 55.1477 43.7243 55.1844 43.7299 55.2041C43.5307 55.4775 43.3161 55.7392 43.087 55.9881L42.2945 56.8905C42.2092 56.9878 42.1301 57.0905 42.0577 57.1978C41.9391 57.3663 41.808 57.5256 41.6657 57.6744C41.457 57.9141 40.8535 58.5966 40.329 59.1972C39.514 60.1278 38.8823 60.8554 38.3747 61.4532C38.0274 61.8235 37.7061 62.2173 37.4131 62.632C37.2251 62.9233 37.0762 63.2381 36.9704 63.5682C36.754 64.2009 36.766 64.8893 37.0042 65.514L37.0155 65.5028Z" fill="#FFF6ED"/>
</g>
</g>
<defs>
<linearGradient id="paint0_linear_2808_31068" x1="158.252" y1="126.642" x2="19.5" y2="-196.5" gradientUnits="userSpaceOnUse">
<stop stop-color="#FFD4B6"/>
<stop offset="0.5" stop-color="#87BAE6"/>
<stop offset="1" stop-color="#822E5F"/>
</linearGradient>
</defs>
</svg>
