<svg width="2" height="28" viewBox="0 0 2 28" fill="none" xmlns="http://www.w3.org/2000/svg">
<g id="dots">
<path id="dots_2" fill-rule="evenodd" clip-rule="evenodd" d="M1 0C0.447715 0 0 0.447715 0 1V2C0 2.55228 0.447715 3 1 3C1.55228 3 2 2.55228 2 2V1C2 0.447715 1.55228 0 1 0ZM1 5C0.447715 5 0 5.44772 0 6V7C0 7.55228 0.447715 8 1 8C1.55228 8 2 7.55228 2 7V6C2 5.44772 1.55228 5 1 5ZM0 11C0 10.4477 0.447715 10 1 10C1.55228 10 2 10.4477 2 11V12C2 12.5523 1.55228 13 1 13C0.447715 13 0 12.5523 0 12V11ZM1 15C0.447715 15 0 15.4477 0 16V17C0 17.5523 0.447715 18 1 18C1.55228 18 2 17.5523 2 17V16C2 15.4477 1.55228 15 1 15ZM0 21C0 20.4477 0.447715 20 1 20C1.55228 20 2 20.4477 2 21V22C2 22.5523 1.55228 23 1 23C0.447715 23 0 22.5523 0 22V21ZM1 25C0.447715 25 0 25.4477 0 26V27C0 27.5523 0.447715 28 1 28C1.55228 28 2 27.5523 2 27V26C2 25.4477 1.55228 25 1 25Z" fill="#EAEAEA"/>
</g>
</svg>
