<svg width="24" height="24" viewBox="0 0 24 24" fill="none" xmlns="http://www.w3.org/2000/svg">
<path fill-rule="evenodd" clip-rule="evenodd" d="M12 23C5.92487 23 1 18.0751 1 12C1 5.92487 5.92487 1 12 1C18.0751 1 23 5.92487 23 12C23 18.0751 18.0751 23 12 23ZM11 6C11 5.44772 11.4477 5 12 5C12.5523 5 13 5.44772 13 6V12C13 12.3788 12.786 12.725 12.4472 12.8944L8.44721 14.8944C7.95324 15.1414 7.35256 14.9412 7.10557 14.4472C6.85858 13.9532 7.05881 13.3526 7.55279 13.1056L11 11.382V6Z" fill="#939393"/>
</svg>
