<svg width="38" height="38" viewBox="0 0 38 38" fill="none" xmlns="http://www.w3.org/2000/svg">
    <path
        d="M16.9334 9.77919C17.7571 8.46322 19.674 8.46322 20.4976 9.7792L30.6883 26.0617C31.5647 27.4619 30.5581 29.2794 28.9062 29.2794H8.52476C6.87293 29.2794 5.86634 27.4619 6.74269 26.0617L16.9334 9.77919Z"
        fill="#F9D876" />
    <path fill-rule="evenodd" clip-rule="evenodd"
        d="M16.1908 9.31489C17.3576 7.45059 20.0732 7.4506 21.24 9.31489L31.4308 25.5974C32.6723 27.581 31.2463 30.1558 28.9062 30.1558H8.52468C6.18459 30.1558 4.7586 27.5811 6.00009 25.5974L16.1908 9.31489ZM19.755 10.2443C19.2745 9.47669 18.1563 9.47669 17.6759 10.2443L7.48515 26.5269C6.97394 27.3437 7.56112 28.4039 8.52468 28.4039H28.9062C29.8697 28.4039 30.4569 27.3437 29.9457 26.5269L19.755 10.2443Z"
        fill="#535A60" />
    <path
        d="M17.6643 15.2421C17.6643 14.6615 18.1349 14.1909 18.7155 14.1909C19.296 14.1909 19.7666 14.6615 19.7666 15.2421V20.823C19.7666 21.4035 19.296 21.8741 18.7155 21.8741C18.1349 21.8741 17.6643 21.4035 17.6643 20.823V15.2421Z"
        fill="#535A60" />
    <path
        d="M19.7671 23.8853C19.7671 24.4659 19.2964 24.9367 18.7157 24.9367C18.135 24.9367 17.6643 24.4659 17.6643 23.8853C17.6643 23.3046 18.135 22.8339 18.7157 22.8339C19.2964 22.8339 19.7671 23.3046 19.7671 23.8853Z"
        fill="black" />
    <path
        d="M18.7155 8.15173L30.6883 26.0624C31.5646 27.4626 30.558 29.2801 28.9062 29.2801H18.7155L18.7155 18.1063L18.7155 8.15173Z"
        fill="#EFCF70" />
    <path
        d="M19.0669 8.11724L30.4545 25.6395C31.3634 27.0381 30.3597 28.8874 28.6917 28.8874H28.3949H23.789C23.789 28.8874 28.2958 28.3589 27.1647 25.093C25.1754 19.3493 19.0669 8.11724 19.0669 8.11724Z"
        fill="#DDBA52" />
    <path fill-rule="evenodd" clip-rule="evenodd"
        d="M16.1908 9.31489C17.3576 7.45059 20.0732 7.4506 21.24 9.31489L31.4308 25.5974C32.6723 27.581 31.2463 30.1558 28.9062 30.1558H8.52468C6.18459 30.1558 4.7586 27.5811 6.00009 25.5974L16.1908 9.31489ZM19.755 10.2443C19.2745 9.47669 18.1563 9.47669 17.6759 10.2443L7.48515 26.5269C6.97394 27.3437 7.56112 28.4039 8.52468 28.4039H28.9062C29.8697 28.4039 30.4569 27.3437 29.9457 26.5269L19.755 10.2443Z"
        fill="#535A60" />
    <path
        d="M21.2401 9.31486L31.4308 25.5974C32.6723 27.581 31.2463 30.1558 28.9062 30.1558H18.7155V28.4038H28.9062C29.8698 28.4038 30.4569 27.3436 29.9457 26.5269L19.755 10.2443C19.5177 9.8651 19.1247 9.67321 18.7299 9.66865V7.91667C19.6957 7.92126 20.6595 8.38733 21.2401 9.31486Z"
        fill="#494949" />
    <path
        d="M18.7166 14.1909C19.2965 14.1909 19.7666 14.661 19.7666 15.241V20.824C19.7666 21.404 19.2965 21.8741 18.7166 21.8741C18.7166 21.8741 18.7166 19.5328 18.7166 18.0325C18.7166 16.5323 18.7166 14.1909 18.7166 14.1909Z"
        fill="#494949" />
    <ellipse cx="18.7157" cy="23.8853" rx="1.0514" ry="1.0514" fill="#535A60" />
    <path
        d="M19.7669 23.8853C19.7669 24.4659 19.2961 24.9367 18.7155 24.9367L18.7155 23.9142L18.7155 22.8339C19.2961 22.8339 19.7669 23.3046 19.7669 23.8853Z"
        fill="#494949" />
</svg>
