<svg width="145" height="145" viewBox="0 0 145 145" fill="none" xmlns="http://www.w3.org/2000/svg">
    <circle opacity="0.1" cx="72.5" cy="72.2626" r="72.2626" fill="#8AA3FC" />
    <path
        d="M53.9884 42.167C61.5425 38.3543 68.4303 37.0847 74.1409 39.6921C75.1965 40.1741 68.5044 42.2205 64.9688 45.756C61.4333 49.2915 60.413 52.1271 60.413 52.1271L49.0993 63.4408C49.0993 63.4408 47.3036 63.6988 46.6244 64.5015C46.0603 65.1681 45.9173 66.6228 45.9173 66.6228L44.5031 68.037L36.3107 59.8446L37.7249 58.4304C37.7249 58.4304 39.1796 58.2874 39.8462 57.7233C40.6489 57.0441 40.9069 55.2484 40.9069 55.2484L53.9884 42.167Z"
        fill="#D9E3F0" />
    <path
        d="M38.0728 58.959L40.3041 58.0418L41.3169 55.6634L48.5192 62.7533L46.1037 63.9825L45.2751 66.0488L38.0728 58.959Z"
        fill="#DEE2E9" />
    <path d="M40.3041 58.0414L41.3169 55.663L48.5192 62.7529L46.1037 63.9825L40.3041 58.0414Z" fill="#BBCDE6" />
    <path
        d="M54.0885 42.6393C60.0148 38.8231 67.6087 37.3287 73.3216 39.9312C73.7195 40.1124 69.4392 40.468 64.0738 43.207C61.113 44.7185 54.0885 42.6393 54.0885 42.6393Z"
        fill="#BBCDE6" />
    <path fill-rule="evenodd" clip-rule="evenodd"
        d="M49.0993 63.4408L60.413 52.1271C60.413 52.1271 61.4333 49.2915 64.9688 45.756C66.9759 43.7489 70.0003 42.2217 72.047 41.1882C72.5891 40.9145 73.0626 40.6754 73.4304 40.4712C73.4527 40.4588 73.4746 40.4466 73.4961 40.4345C73.6621 40.3409 73.8046 40.255 73.9196 40.1767C74.2507 39.9514 74.3547 39.7897 74.1409 39.6921C73.8894 39.5773 73.6356 39.47 73.3796 39.3701C73.3685 39.3657 73.3573 39.3614 73.3462 39.357C67.7958 37.2068 61.1953 38.5295 53.9884 42.167L40.9069 55.2484C40.9069 55.2484 40.6489 57.0441 39.8462 57.7233C39.1796 58.2874 37.7249 58.4304 37.7249 58.4304L36.3107 59.8446L44.5031 68.037L45.9173 66.6228C45.9173 66.6228 46.0603 65.1681 46.6244 64.5015C47.3036 63.6988 49.0993 63.4408 49.0993 63.4408ZM44.9726 66.1533C44.998 65.9964 45.0348 65.7979 45.0865 65.5808C45.1974 65.1141 45.4159 64.3816 45.861 63.8555C46.4011 63.2173 47.2692 62.8852 47.8215 62.7146C48.1271 62.6203 48.4055 62.5555 48.6071 62.5141C48.6091 62.5137 48.6111 62.5133 48.613 62.5129L59.5611 51.5648C59.6005 51.4712 59.6538 51.35 59.7226 51.2035C59.8876 50.8524 60.1421 50.3563 60.5097 49.7493C61.2453 48.535 62.433 46.8776 64.2617 45.0489C66.1541 43.1565 68.8442 41.6993 70.8214 40.6886C71.1099 40.541 71.3799 40.4047 71.6301 40.2784C71.8226 40.1811 72.0034 40.0898 72.1719 40.0039C67.2068 38.4322 61.2675 39.6386 54.5815 42.988L41.8349 55.7347C41.8345 55.7367 41.834 55.7387 41.8336 55.7406C41.7923 55.9423 41.7274 56.2206 41.6331 56.5262C41.4625 57.0785 41.1304 57.9466 40.4922 58.4867C39.9661 58.9318 39.2337 59.1503 38.7669 59.2613C38.5498 59.3129 38.3513 59.3497 38.1944 59.3751L37.7249 59.8446L44.5031 66.6228L44.9726 66.1533Z"
        fill="black" />
    <path d="M47.9283 42.4707L50.099 44.6414L45.1493 49.5912L42.9786 47.4205L47.9283 42.4707Z" fill="#E69F5D" />
    <path fill-rule="evenodd" clip-rule="evenodd"
        d="M48.6848 44.6414L47.9283 43.8849L44.3928 47.4205L45.1493 48.1769L48.6848 44.6414ZM47.9283 42.4707L42.9786 47.4205L45.1493 49.5912L50.099 44.6414L47.9283 42.4707Z"
        fill="black" />
    <path fill-rule="evenodd" clip-rule="evenodd"
        d="M45.904 64.3921L40.0379 58.4527L40.7494 57.75L46.6155 63.6893L45.904 64.3921Z" fill="black" />
    <path d="M54.0032 59.835L59.317 54.5212L76.9515 72.1557L71.6377 77.4695L54.0032 59.835Z" fill="#D9E3F0" />
    <path d="M57.2102 56.6279L59.317 54.5211L76.9515 72.1556L74.8447 74.2624L57.2102 56.6279Z" fill="#BBCDE6" />
    <path fill-rule="evenodd" clip-rule="evenodd"
        d="M59.317 55.9354L55.4174 59.835L71.6377 76.0553L75.5373 72.1557L59.317 55.9354ZM54.0032 59.835L71.6377 77.4695L76.9515 72.1557L59.317 54.5212L54.0032 59.835Z"
        fill="black" />
    <path
        d="M72.6036 80.7355C71.8226 79.9545 71.8226 78.6881 72.6036 77.9071L77.3887 73.122C78.1698 72.3409 79.4361 72.3409 80.2172 73.122L103.493 96.3977C104.274 97.1787 104.274 98.4451 103.493 99.2261L98.7078 104.011C97.9267 104.792 96.6604 104.792 95.8793 104.011L72.6036 80.7355Z"
        fill="#E69F5D" />
    <path d="M76.6608 75.1221L78.8544 72.9143L103.948 97.8471L101.755 100.055L76.6608 75.1221Z" fill="#C86840" />
    <path fill-rule="evenodd" clip-rule="evenodd"
        d="M78.0958 73.8291L73.3107 78.6142C72.9202 79.0047 72.9202 79.6379 73.3107 80.0284L96.5864 103.304C96.977 103.695 97.6101 103.695 98.0006 103.304L102.786 98.519C103.176 98.1285 103.176 97.4953 102.786 97.1048L79.51 73.8291C79.1195 73.4385 78.4864 73.4385 78.0958 73.8291ZM72.6036 77.9071C71.8226 78.6881 71.8226 79.9545 72.6036 80.7355L95.8793 104.011C96.6604 104.792 97.9267 104.792 98.7078 104.011L103.493 99.2261C104.274 98.4451 104.274 97.1787 103.493 96.3977L80.2172 73.122C79.4361 72.3409 78.1698 72.3409 77.3887 73.122L72.6036 77.9071Z"
        fill="black" />
    <path fill-rule="evenodd" clip-rule="evenodd"
        d="M78.0995 81.6334C77.4581 81.9896 76.8084 82.4832 76.2653 82.957L78.3372 84.9886C78.7923 84.4155 79.2684 83.7092 79.5979 83.0187C79.8484 82.4938 79.9787 82.0506 79.9963 81.723C80.0124 81.4209 79.9344 81.3169 79.8655 81.258C79.7812 81.1861 79.6404 81.1212 79.3322 81.163C79.0055 81.2072 78.5854 81.3636 78.0995 81.6334ZM79.0547 85.6922C80.3208 84.1246 81.7733 81.5716 80.5146 80.4974C79.2968 79.458 77.0163 80.9615 75.5492 82.2549C75.2741 82.4974 75.0275 82.7326 74.822 82.9423L78.392 86.4429C78.5945 86.2364 78.8215 85.981 79.0547 85.6922Z"
        fill="black" />
    <path
        d="M78.2729 85.3051C76.4282 83.1303 79.753 80.9549 79.92 81.1871C80.6777 82.2406 79.5745 83.9777 78.2729 85.3051Z"
        fill="#1D1E1F" />
    <path
        d="M78.2729 85.3051C76.4282 83.1303 79.753 80.9549 79.92 81.1871C80.6776 82.2406 79.5745 83.9777 78.2729 85.3051Z"
        fill="#C86840" />
    <path
        d="M82.9918 89.8811C81.0226 87.5568 84.5928 85.2139 84.771 85.4622C85.5792 86.5886 84.3911 88.454 82.9918 89.8811Z"
        fill="#C86840" />
    <path
        d="M87.4706 94.5024C85.5241 92.155 89.4313 89.4684 89.6052 89.721C90.3942 90.867 89.0313 92.9107 87.4706 94.5024Z"
        fill="#C86840" />
    <path
        d="M91.771 99.2883C89.8018 96.964 93.372 94.6211 93.5502 94.8694C94.3584 95.9958 93.1703 97.8612 91.771 99.2883Z"
        fill="#C86840" />
    <path fill-rule="evenodd" clip-rule="evenodd"
        d="M82.9783 86.1337C82.2749 86.5398 81.5593 87.0977 80.9676 87.6237L83.0478 89.6635C83.5553 89.04 84.0965 88.2621 84.475 87.5058C84.7541 86.948 84.9072 86.4749 84.9368 86.1252C84.9645 85.7966 84.8806 85.7073 84.8333 85.6673C84.7665 85.6108 84.6319 85.5407 84.2952 85.5966C83.9451 85.6548 83.4955 85.8352 82.9783 86.1337ZM83.7646 90.3664C85.13 88.7109 86.7556 85.9835 85.4791 84.9038C84.2435 83.8588 81.8053 85.5299 80.252 86.9221C79.9796 87.1662 79.7344 87.4017 79.5278 87.6125L83.0978 91.1131C83.3015 90.9054 83.5292 90.6518 83.7646 90.3664Z"
        fill="black" />
    <path fill-rule="evenodd" clip-rule="evenodd"
        d="M87.3891 90.4766C86.6957 90.8745 85.9909 91.4218 85.4071 91.9393L87.4861 93.9779C87.9851 93.3626 88.5156 92.5964 88.8859 91.8508C89.1603 91.2984 89.3097 90.8302 89.3372 90.4841C89.363 90.16 89.2802 90.0683 89.2293 90.0252C89.1597 89.9662 89.0241 89.8971 88.6922 89.9506C88.3459 90.0064 87.9011 90.1828 87.3891 90.4766ZM88.203 94.6809C89.5522 93.0397 91.1494 90.3411 89.8757 89.2622C88.6429 88.218 86.2306 89.8616 84.6914 91.2376C84.4187 91.4815 84.1733 91.7169 83.9668 91.9275L87.5368 95.4282C87.7404 95.2206 87.9679 94.9668 88.203 94.6809Z"
        fill="black" />
    <path fill-rule="evenodd" clip-rule="evenodd"
        d="M91.6071 95.3218C90.994 95.6558 90.3741 96.1204 89.8532 96.5703L91.9208 98.5977C92.3521 98.0477 92.7989 97.3738 93.1066 96.7135C93.3443 96.2036 93.4646 95.7739 93.4769 95.4561C93.4882 95.1651 93.4122 95.0545 93.3336 94.9871C93.2413 94.9081 93.0976 94.8451 92.8016 94.8809C92.4855 94.9191 92.0787 95.0649 91.6071 95.3218ZM92.6388 99.3017C93.8596 97.7738 95.2343 95.299 93.9843 94.2278C92.7749 93.1914 90.5652 94.6195 89.137 95.868C88.8604 96.1097 88.6131 96.3447 88.4081 96.5538L91.9782 100.054C92.1801 99.8486 92.4067 99.5923 92.6388 99.3017Z"
        fill="black" />
    <path
        d="M107.796 42.9058L104.26 39.3703L97.1288 43.6733L95.6542 47.9764L75.7002 67.8501L79.2358 71.3856L99.1897 51.5119L103.493 50.0373L107.796 42.9058Z"
        fill="#D5E2F5" />
    <path d="M102.152 40.5445L104.171 39.0604L107.975 42.8637L106.59 45.1921L102.152 40.5445Z" fill="#BBCDE6" />
    <path fill-rule="evenodd" clip-rule="evenodd"
        d="M104.337 38.7401L108.426 42.8291L103.827 50.4514L99.4609 51.9477L79.5886 71.74L78.883 71.0315L98.9186 51.0764L103.159 49.6234L107.166 42.9827L104.184 40.0007L97.5429 44.0076L96.0895 48.2487L76.0531 68.2045L75.3474 67.4959L95.2189 47.7043L96.7148 43.3393L104.337 38.7401Z"
        fill="black" />
    <path
        d="M52.105 102.725L71.7496 82.2768L70.9427 81.4628C70.3232 80.8379 70.1849 79.8815 70.6021 79.1067L70.7682 78.7981L65.833 73.9456L44.3738 95.0613C42.7901 96.6196 42.7798 99.1699 44.3509 100.741L46.392 102.782C47.9763 104.366 50.5528 104.341 52.105 102.725Z"
        fill="#79838E" />
    <path fill-rule="evenodd" clip-rule="evenodd"
        d="M66.1124 74.509L44.7399 95.4186C43.3474 96.7809 43.3352 99.0179 44.7126 100.395L46.7456 102.428C48.1318 103.814 50.3862 103.792 51.7444 102.378L71.3891 81.9301L72.1102 82.6229L52.4655 103.071C50.7193 104.889 47.8208 104.918 46.0385 103.135L44.0055 101.102C42.2345 99.3314 42.2503 96.4553 44.0405 94.7038L65.4131 73.7942L66.1124 74.509Z"
        fill="black" />
    <path fill-rule="evenodd" clip-rule="evenodd"
        d="M67.4646 79.7022C67.2693 79.5069 66.9527 79.5069 66.7575 79.7022L47.8255 98.6342C47.6302 98.8295 47.6302 99.146 47.8255 99.3413C48.0207 99.5366 48.3373 99.5366 48.5326 99.3413L67.4646 80.4093C67.6598 80.214 67.6598 79.8974 67.4646 79.7022Z"
        fill="black" />
    <path fill-rule="evenodd" clip-rule="evenodd"
        d="M63.3565 81.6896C63.5518 81.4943 63.5518 81.1777 63.3565 80.9825C63.1613 80.7872 62.8447 80.7872 62.6494 80.9825L47.8645 95.7674C47.6692 95.9627 47.6692 96.2793 47.8645 96.4745C48.0597 96.6698 48.3763 96.6698 48.5716 96.4745L63.3565 81.6896Z"
        fill="black" />
    <path fill-rule="evenodd" clip-rule="evenodd"
        d="M66.5695 84.1329C66.7648 83.9377 66.7648 83.6211 66.5695 83.4258C66.3743 83.2306 66.0577 83.2306 65.8624 83.4258L50.6929 98.5953C50.4976 98.7906 50.4976 99.1072 50.6929 99.3024C50.8882 99.4977 51.2047 99.4977 51.4 99.3024L66.5695 84.1329Z"
        fill="black" />
</svg>
