<svg width="180" height="180" viewBox="0 0 180 180" fill="none" xmlns="http://www.w3.org/2000/svg">
<path fill-rule="evenodd" clip-rule="evenodd" d="M89.9998 151.2C123.8 151.2 151.2 123.8 151.2 89.9998C151.2 56.2 123.8 28.7998 89.9998 28.7998C56.2 28.7998 28.7998 56.2 28.7998 89.9998C28.7998 123.8 56.2 151.2 89.9998 151.2ZM89.9998 142.2C118.829 142.2 142.2 118.829 142.2 89.9998C142.2 61.1705 118.829 37.7998 89.9998 37.7998C61.1705 37.7998 37.7998 61.1705 37.7998 89.9998C37.7998 118.829 61.1705 142.2 89.9998 142.2Z" stroke="black" stroke-width="2"/>
<path fill-rule="evenodd" clip-rule="evenodd" d="M90 30.6C57.1943 30.6 30.6 57.1943 30.6 90C30.6 122.806 57.1943 149.4 90 149.4C122.806 149.4 149.4 122.806 149.4 90C149.4 77.7027 145.665 66.2832 139.268 56.8071C137.149 53.6689 134.739 50.7436 132.075 48.0706C131.373 47.3665 131.375 46.2268 132.079 45.525C132.783 44.8233 133.923 44.8252 134.625 45.5294C137.449 48.3633 140.005 51.4649 142.252 54.7929C149.038 64.8451 153 76.9626 153 90C153 124.794 124.794 153 90 153C55.2061 153 27 124.794 27 90C27 55.2061 55.2061 27 90 27C103.848 27 116.657 31.4699 127.056 39.0451C127.859 39.6304 128.036 40.7563 127.451 41.5598C126.866 42.3633 125.74 42.5402 124.936 41.9549C115.132 34.8131 103.061 30.6 90 30.6Z" fill="white"/>
<path fill-rule="evenodd" clip-rule="evenodd" d="M90 39.6C62.1648 39.6 39.6 62.1648 39.6 90C39.6 117.835 62.1648 140.4 90 140.4C117.835 140.4 140.4 117.835 140.4 90C140.4 62.1648 117.835 39.6 90 39.6ZM36 90C36 60.1766 60.1766 36 90 36C119.823 36 144 60.1766 144 90C144 119.823 119.823 144 90 144C60.1766 144 36 119.823 36 90Z" fill="white"/>
<rect x="89.1001" y="73.7998" width="1.8" height="19.8" rx="0.9" stroke="#DE1616" stroke-width="2"/>
<rect x="91.2339" y="90.7349" width="1.8" height="28.346" rx="0.9" transform="rotate(135.93 91.2339 90.7349)" stroke="#DE1616" stroke-width="2"/>
<circle cx="90.0001" cy="90.0001" r="5.4" fill="#DE1616"/>
<rect x="88.2" y="124.2" width="3.6" height="9" rx="1.8" fill="white"/>
<rect x="88.2" y="46.7998" width="3.6" height="9" rx="1.8" fill="white"/>
<rect x="113.4" y="115.945" width="3.6" height="9" rx="1.8" transform="rotate(-45 113.4 115.945)" fill="white"/>
<rect width="3.6" height="9" rx="1.8" transform="matrix(-0.707107 -0.707107 -0.707107 0.707107 66.5103 115.945)" fill="white"/>
<rect width="3.6" height="9" rx="1.8" transform="matrix(0.707107 0.707107 0.707107 -0.707107 113.399 63.9639)" fill="white"/>
<rect x="66.5095" y="63.9639" width="3.6" height="9" rx="1.8" transform="rotate(135 66.5095 63.9639)" fill="white"/>
<rect x="124.2" y="91.7998" width="3.6" height="9" rx="1.8" transform="rotate(-90 124.2 91.7998)" fill="white"/>
<rect x="46.8" y="91.7998" width="3.6" height="9" rx="1.8" transform="rotate(-90 46.8 91.7998)" fill="white"/>
</svg>
