<svg width="132" height="132" viewBox="0 0 132 132" fill="none" xmlns="http://www.w3.org/2000/svg">
<circle cx="66" cy="66" r="66" fill="#FF0000" fill-opacity="0.2"/>
<rect x="29" y="81.2822" width="72.2147" height="15.5092" rx="7.7546" fill="#D37E41"/>
<path d="M32.2562 83H82C82 86.3137 79.3137 89 76 89H31L32.2562 83Z" fill="#E4AC83"/>
<rect x="30.5" y="82.7822" width="69.2147" height="12.5092" rx="6.2546" stroke="black" stroke-width="3"/>
<path d="M57.5951 93.8835H73.1043V98.2455C73.1043 102.528 69.6324 106 65.3497 106C61.0669 106 57.5951 102.528 57.5951 98.2455V93.8835Z" fill="#935021"/>
<circle cx="62.1994" cy="98.0031" r="3.15031" fill="#A96433"/>
<path d="M59.0951 95.3835H71.6043V98.2455C71.6043 101.7 68.804 104.5 65.3497 104.5C61.8953 104.5 59.0951 101.7 59.0951 98.2455V95.3835Z" stroke="black" stroke-width="3"/>
<path fill-rule="evenodd" clip-rule="evenodd" d="M73.0246 36.532C73.2072 35.884 73.3048 35.2004 73.3048 34.4939C73.3048 30.3552 69.9527 27 65.8176 27C61.6826 27 58.3304 30.3552 58.3304 34.4939C58.3304 35.1134 58.4055 35.7153 58.5471 36.291C46.8497 39.3127 38.2086 49.9444 38.2086 62.5962V82.7362H92.4908V62.5962C92.4908 50.261 84.2767 39.846 73.0246 36.532Z" fill="#DDA640"/>
<path fill-rule="evenodd" clip-rule="evenodd" d="M60.0798 37.5C60.0798 38.0925 54.7989 37.7597 54.9152 38.3104C45.3067 41.2007 38.2086 51.3702 38.2086 63.4719V82.7362L75.8396 82.3534V63.0891C75.8396 51.2902 69.3225 40.6699 60.0798 37.5Z" fill="#F6C972"/>
<rect opacity="0.5" x="38.2086" y="70.1349" width="54.2822" height="12.6012" fill="#D37E40"/>
<path d="M38.2086 62.5962C38.2086 49.9444 46.8497 39.3127 58.5471 36.291C58.4055 35.7153 58.3304 35.1134 58.3304 34.4939C58.3304 30.3552 61.6826 27 65.8176 27C69.9527 27 73.3048 30.3552 73.3048 34.4939C73.3048 35.2004 73.2072 35.884 73.0246 36.532C84.2767 39.846 92.4908 50.261 92.4908 62.5962V80.7362C92.4908 81.8408 91.5954 82.7362 90.4908 82.7362H40.2086C39.104 82.7362 38.2086 81.8408 38.2086 80.7362V76.6779M38.2086 68.681V70.862" stroke="black" stroke-width="3" stroke-linecap="round"/>
</svg>
