<svg width="161" height="161" viewBox="0 0 161 161" fill="none" xmlns="http://www.w3.org/2000/svg">
<path fill-rule="evenodd" clip-rule="evenodd" d="M80.5 27.5994C51.3394 27.5994 27.7 51.2388 27.7 80.3994C27.7 109.56 51.3394 133.199 80.5 133.199C109.661 133.199 133.3 109.56 133.3 80.3994C133.3 69.4685 129.98 59.3178 124.294 50.8946C122.411 48.1051 122.068 47.5755 119.7 45.1994C119.076 44.5735 119.078 43.5604 119.704 42.9367C120.33 42.3129 121.343 42.3147 121.967 42.9406C124.477 45.4596 124.949 46.146 126.946 49.1042C132.978 58.0395 136.5 68.8106 136.5 80.3994C136.5 111.327 111.428 136.399 80.5 136.399C49.5721 136.399 24.5 111.327 24.5 80.3994C24.5 49.4715 49.5721 24.3994 80.5 24.3994C92.8091 24.3994 104.195 28.3726 113.439 35.1062C114.153 35.6264 114.31 36.6272 113.79 37.3415C113.269 38.0557 112.269 38.213 111.554 37.6927C102.84 31.3444 92.1095 27.5994 80.5 27.5994Z" fill="white"/>
<path fill-rule="evenodd" clip-rule="evenodd" d="M80.5 35.5994C55.7576 35.5994 35.7 55.6571 35.7 80.3994C35.7 105.142 55.7576 125.199 80.5 125.199C105.242 125.199 125.3 105.142 125.3 80.3994C125.3 55.6571 105.242 35.5994 80.5 35.5994ZM32.5 80.3994C32.5 53.8897 53.9903 32.3994 80.5 32.3994C107.01 32.3994 128.5 53.8897 128.5 80.3994C128.5 106.909 107.01 128.399 80.5 128.399C53.9903 128.399 32.5 106.909 32.5 80.3994Z" fill="white"/>
<path fill-rule="evenodd" clip-rule="evenodd" d="M79.7009 72.9046C83.8168 72.9046 87.1535 69.5679 87.1535 65.4519C87.1535 61.336 83.8168 57.9993 79.7009 57.9993C75.5849 57.9993 72.2482 61.336 72.2482 65.4519C72.2482 69.5679 75.5849 72.9046 79.7009 72.9046ZM90.3535 65.4519C90.3535 69.4804 88.1174 72.9866 84.8186 74.797C88.3246 75.7496 91.4056 77.7343 93.7152 80.4047C93.843 80.4011 93.9712 80.3993 94.0998 80.3993C101.611 80.3993 107.7 86.4882 107.7 93.9993C107.7 101.51 101.611 107.599 94.0998 107.599C87.1231 107.599 81.3734 102.346 80.5906 95.5792C80.7025 96.5469 80.916 97.4837 81.2202 98.3786H67.4932C64.0727 98.3786 61.2998 95.6057 61.2998 92.1852C61.2998 83.8731 66.9286 76.8756 74.5824 74.7966C71.2841 72.9861 69.0482 69.4801 69.0482 65.4519C69.0482 59.5687 73.8176 54.7993 79.7009 54.7993C85.5842 54.7993 90.3535 59.5687 90.3535 65.4519ZM80.5502 95.1786C80.5168 94.7899 80.4998 94.3966 80.4998 93.9993C80.4998 87.9621 84.4336 82.8436 89.8779 81.0674C87.2666 78.7649 83.8377 77.3681 80.0827 77.3681H79.3169C71.1337 77.3681 64.4998 84.0019 64.4998 92.1852C64.4998 93.8384 65.84 95.1786 67.4932 95.1786H80.5502ZM104.5 93.9993C104.5 99.7431 99.8436 104.399 94.0998 104.399C88.356 104.399 83.6998 99.7431 83.6998 93.9993C83.6998 88.2556 88.356 83.5993 94.0998 83.5993C99.8436 83.5993 104.5 88.2556 104.5 93.9993Z" fill="white"/>
<path fill-rule="evenodd" clip-rule="evenodd" d="M93.3 89.9993V91.5993H96.5C96.9418 91.5993 97.3 91.2411 97.3 90.7993C97.3 90.3575 96.9418 89.9993 96.5 89.9993H93.3ZM93.3 94.7993H96.5C98.7091 94.7993 100.5 93.0085 100.5 90.7993C100.5 88.5902 98.7091 86.7993 96.5 86.7993H92.5C92.3494 86.7993 92.2019 86.8132 92.059 86.8397C91.9436 86.8133 91.8234 86.7993 91.7 86.7993C90.8163 86.7993 90.1 87.5157 90.1 88.3993L90.1 89.1993V91.5993V95.5993C89.2163 95.5993 88.5 96.3157 88.5 97.1993C88.5 98.083 89.2163 98.7993 90.1 98.7993L90.1 99.5993C90.1 100.483 90.8163 101.199 91.7 101.199C92.5837 101.199 93.3 100.483 93.3 99.5993V98.7993H96.5C97.3837 98.7993 98.1 98.083 98.1 97.1993C98.1 96.3157 97.3837 95.5993 96.5 95.5993H93.3L93.3 94.7993Z" fill="#DE1616"/>
</svg>
