<svg width="259" height="90" viewBox="0 0 259 90" fill="none" xmlns="http://www.w3.org/2000/svg">
    <path
        d="M0.431641 1.60031H14.8356C25.409 1.60031 30.6956 5.76031 30.6956 14.0803C30.6956 22.331 25.409 26.491 14.8356 26.5603H10.0516V38.0003H0.431641V1.60031ZM15.3036 18.2403C18.9783 18.2403 20.8156 16.8536 20.8156 14.0803C20.8156 11.307 18.9783 9.92031 15.3036 9.92031H10.0516V18.2403H15.3036Z"
        fill="#494949" />
    <path
        d="M38.5436 33.3203C35.1462 29.6803 33.4476 25.1736 33.4476 19.8003C33.4476 14.427 35.1462 9.92031 38.5436 6.28031C41.9409 2.64031 46.7422 0.820312 52.9476 0.820312C59.1529 0.820312 63.9542 2.64031 67.3516 6.28031C70.7489 9.92031 72.4476 14.427 72.4476 19.8003C72.4476 25.1736 70.7489 29.6803 67.3516 33.3203C63.9542 36.9603 59.1529 38.7803 52.9476 38.7803C46.7422 38.7803 41.9409 36.9603 38.5436 33.3203ZM60.0196 27.1323C61.7182 25.2603 62.5676 22.8163 62.5676 19.8003C62.5676 16.7843 61.7182 14.3403 60.0196 12.4683C58.3556 10.5963 55.9982 9.66031 52.9476 9.66031C49.8969 9.66031 47.5222 10.5963 45.8236 12.4683C44.1596 14.3403 43.3276 16.7843 43.3276 19.8003C43.3276 22.8163 44.1596 25.2603 45.8236 27.1323C47.5222 29.0043 49.8969 29.9403 52.9476 29.9403C55.9982 29.9403 58.3556 29.0043 60.0196 27.1323Z"
        fill="#494949" />
    <path
        d="M75.6988 20.3203C75.6988 17.027 76.2535 14.0976 77.3628 11.5323C78.4721 8.96698 79.9801 6.92165 81.8868 5.39631C83.7935 3.87098 85.8908 2.72698 88.1788 1.96431C90.4668 1.20165 92.8761 0.820312 95.4068 0.820312C99.2201 0.820312 102.739 1.58298 105.963 3.10831V12.2083C103.605 10.2323 100.641 9.24431 97.0708 9.24431C93.8815 9.24431 91.1601 10.1803 88.9068 12.0523C86.6881 13.8896 85.5788 16.6456 85.5788 20.3203C85.5788 23.6136 86.6881 26.1096 88.9068 27.8083C91.1255 29.4723 93.8121 30.3043 96.9668 30.3043C100.953 30.3043 104.039 29.247 106.223 27.1323V36.4923C102.999 38.0176 99.4628 38.7803 95.6148 38.7803C93.0148 38.7803 90.5535 38.4163 88.2308 37.6883C85.9428 36.9603 83.8455 35.8856 81.9388 34.4643C80.0321 33.0083 78.5068 31.067 77.3628 28.6403C76.2535 26.2136 75.6988 23.4403 75.6988 20.3203Z"
        fill="#494949" />
    <path
        d="M121.161 14.4963H128.337C130.278 14.4963 132.046 14.687 133.641 15.0683C135.236 15.4496 136.692 16.0736 138.009 16.9403C139.361 17.807 140.401 19.0376 141.129 20.6323C141.857 22.1923 142.221 24.0643 142.221 26.2483C142.221 28.4323 141.857 30.3216 141.129 31.9163C140.401 33.4763 139.361 34.6896 138.009 35.5563C136.692 36.423 135.236 37.047 133.641 37.4283C132.046 37.8096 130.278 38.0003 128.337 38.0003H111.541V1.60031H139.153V10.1803H121.161V14.4963ZM121.161 29.6803H128.233C130.972 29.6803 132.341 28.5363 132.341 26.2483C132.341 23.9603 130.972 22.8163 128.233 22.8163H121.161V29.6803Z"
        fill="#494949" />
    <path
        d="M152.217 38.0003H142.337L156.637 1.60031H167.037L181.337 38.0003H171.457L169.377 32.2803H154.297L152.217 38.0003ZM160.901 13.9763L157.157 24.4803H166.517L162.773 13.9763C162.357 12.7976 162.045 11.567 161.837 10.2843C161.629 11.567 161.317 12.7976 160.901 13.9763Z"
        fill="#494949" />
    <path
        d="M207.958 1.60031H217.578V38.0003H207.958V24.1163H194.438V38.0003H184.818V1.60031H194.438V15.5363H207.958V1.60031Z"
        fill="#494949" />
    <path
        d="M234.048 38.0003H224.428V1.60031H234.048V15.3803H238.624L246.892 1.60031H257.552L246.112 19.3323L258.072 38.0003H247.412L238.572 23.9603H234.048V38.0003Z"
        fill="#494949" />
    <path
        d="M33.1916 89.0003H23.5716V74.1283C23.5716 71.667 23.641 69.6736 23.7796 68.1483L9.53164 89.0003H0.431641V52.6003H10.0516V67.4723C10.0516 69.9683 9.98231 71.979 9.84364 73.5043L24.0916 52.6003H33.1916V89.0003Z"
        fill="#494949" />
    <path d="M63.181 52.6003H72.801V89.0003H63.181V75.1163H49.661V89.0003H40.041V52.6003H49.661V66.5363H63.181V52.6003Z"
        fill="#494949" />
    <path
        d="M79.6504 52.6003H96.0824C100.173 52.6003 103.31 53.363 105.494 54.8883C107.713 56.4136 108.822 58.719 108.822 61.8043C108.822 65.791 107.02 68.4256 103.414 69.7083C107.99 71.0603 110.278 74.059 110.278 78.7043C110.278 80.6803 109.845 82.379 108.978 83.8003C108.112 85.187 106.916 86.2443 105.39 86.9723C103.9 87.7003 102.34 88.2203 100.71 88.5323C99.1157 88.8443 97.3651 89.0003 95.4584 89.0003H79.6504V52.6003ZM95.7704 81.4603C98.9944 81.4603 100.606 80.195 100.606 77.6643C100.606 75.1336 98.9944 73.8683 95.7704 73.8683H89.2184V81.4603H95.7704ZM98.1104 66.0163C98.8384 65.3923 99.2024 64.5603 99.2024 63.5203C99.2024 62.4803 98.8384 61.6656 98.1104 61.0763C97.4171 60.4523 96.4464 60.1403 95.1984 60.1403H89.2704V66.8483L95.1984 66.9003C96.4464 66.9003 97.4171 66.6056 98.1104 66.0163Z"
        fill="#494949" />
    <path
        d="M115.197 52.6003H141.405V60.9203H124.817V66.4843H139.845V74.7523H124.817V80.6803H141.717V89.0003H115.197V52.6003Z"
        fill="#494949" />
    <path
        d="M145.117 71.3203C145.117 68.027 145.671 65.0976 146.781 62.5323C147.89 59.967 149.398 57.9216 151.305 56.3963C153.211 54.871 155.309 53.727 157.597 52.9643C159.885 52.2016 162.294 51.8203 164.825 51.8203C168.638 51.8203 172.157 52.583 175.381 54.1083V63.2083C173.023 61.2323 170.059 60.2443 166.489 60.2443C163.299 60.2443 160.578 61.1803 158.325 63.0523C156.106 64.8896 154.997 67.6456 154.997 71.3203C154.997 74.6136 156.106 77.1096 158.325 78.8083C160.543 80.4723 163.23 81.3043 166.385 81.3043C170.371 81.3043 173.457 80.247 175.641 78.1323V87.4923C172.417 89.0176 168.881 89.7803 165.033 89.7803C162.433 89.7803 159.971 89.4163 157.649 88.6883C155.361 87.9603 153.263 86.8856 151.357 85.4643C149.45 84.0083 147.925 82.067 146.781 79.6403C145.671 77.2136 145.117 74.4403 145.117 71.3203Z"
        fill="#494949" />
    <path d="M178.203 52.6003H208.363V61.1803H198.119V89.0003H188.499V61.1803H178.203V52.6003Z" fill="#494949" />
</svg>
