<svg width="200" height="200" viewBox="0 0 200 200" fill="none" xmlns="http://www.w3.org/2000/svg">
<path fill-rule="evenodd" clip-rule="evenodd" d="M68.5 79.2377C68.5 72.8657 73.6655 67.7002 80.0375 67.7002H127.075C133.937 67.7002 139.5 73.2631 139.5 80.1252V136.925C139.5 143.787 133.937 149.35 127.075 149.35H80.925C74.0629 149.35 68.5 143.787 68.5 136.925V96.1002C68.5 95.1199 69.2947 94.3252 70.275 94.3252C71.2553 94.3252 72.05 95.1199 72.05 96.1002V136.925C72.05 141.827 76.0235 145.8 80.925 145.8H127.075C131.977 145.8 135.95 141.827 135.95 136.925V80.1252C135.95 75.2237 131.977 71.2502 127.075 71.2502H80.0375C75.6261 71.2502 72.05 74.8263 72.05 79.2377C72.05 80.218 71.2553 81.0127 70.275 81.0127C69.2947 81.0127 68.5 80.218 68.5 79.2377ZM70.275 84.5627C71.2553 84.5627 72.05 85.3574 72.05 86.3377V89.0002C72.05 89.9805 71.2553 90.7752 70.275 90.7752C69.2947 90.7752 68.5 89.9805 68.5 89.0002V86.3377C68.5 85.3574 69.2947 84.5627 70.275 84.5627Z" fill="black"/>
<path fill-rule="evenodd" clip-rule="evenodd" d="M89.8002 128.05V83.6751C89.8002 82.6948 89.0055 81.9001 88.0252 81.9001C87.0449 81.9001 86.2502 82.6948 86.2502 83.6751V128.05C86.2502 129.03 87.0449 129.825 88.0252 129.825C89.0055 129.825 89.8002 129.03 89.8002 128.05ZM88.0252 78.3501C85.0843 78.3501 82.7002 80.7342 82.7002 83.6751V128.05C82.7002 130.991 85.0843 133.375 88.0252 133.375C90.9661 133.375 93.3502 130.991 93.3502 128.05V83.6751C93.3502 80.7342 90.9661 78.3501 88.0252 78.3501Z" fill="black"/>
<path fill-rule="evenodd" clip-rule="evenodd" d="M105.776 128.05V83.6751C105.776 82.6948 104.981 81.9001 104.001 81.9001C103.02 81.9001 102.226 82.6948 102.226 83.6751V128.05C102.226 129.03 103.02 129.825 104.001 129.825C104.981 129.825 105.776 129.03 105.776 128.05ZM104.001 78.3501C101.06 78.3501 98.6758 80.7342 98.6758 83.6751V128.05C98.6758 130.991 101.06 133.375 104.001 133.375C106.942 133.375 109.326 130.991 109.326 128.05V83.6751C109.326 80.7342 106.942 78.3501 104.001 78.3501Z" fill="black"/>
<path fill-rule="evenodd" clip-rule="evenodd" d="M121.749 128.05V83.6751C121.749 82.6948 120.955 81.9001 119.974 81.9001C118.994 81.9001 118.199 82.6948 118.199 83.6751V128.05C118.199 129.03 118.994 129.825 119.974 129.825C120.955 129.825 121.749 129.03 121.749 128.05ZM119.974 78.3501C117.033 78.3501 114.649 80.7342 114.649 83.6751V128.05C114.649 130.991 117.033 133.375 119.974 133.375C122.915 133.375 125.299 130.991 125.299 128.05V83.6751C125.299 80.7342 122.915 78.3501 119.974 78.3501Z" fill="black"/>
<path fill-rule="evenodd" clip-rule="evenodd" d="M86.2494 156.45C88.21 156.45 89.7994 154.861 89.7994 152.9C89.7994 150.94 88.21 149.35 86.2494 149.35C84.2888 149.35 82.6994 150.94 82.6994 152.9C82.6994 154.861 84.2888 156.45 86.2494 156.45ZM86.2494 160C90.1706 160 93.3494 156.822 93.3494 152.9C93.3494 148.979 90.1706 145.8 86.2494 145.8C82.3282 145.8 79.1494 148.979 79.1494 152.9C79.1494 156.822 82.3282 160 86.2494 160Z" fill="black"/>
<path fill-rule="evenodd" clip-rule="evenodd" d="M121.749 156.45C123.71 156.45 125.299 154.861 125.299 152.9C125.299 150.94 123.71 149.35 121.749 149.35C119.789 149.35 118.199 150.94 118.199 152.9C118.199 154.861 119.789 156.45 121.749 156.45ZM121.749 160C125.671 160 128.849 156.822 128.849 152.9C128.849 148.979 125.671 145.8 121.749 145.8C117.828 145.8 114.649 148.979 114.649 152.9C114.649 156.822 117.828 160 121.749 160Z" fill="black"/>
<path d="M86.0361 53.14C86.0361 51.0214 87.6554 49.304 89.6529 49.304H118.587C120.585 49.304 122.204 51.0214 122.204 53.14V53.14C122.204 55.2585 120.585 56.976 118.587 56.976H89.6529C87.6554 56.976 86.0361 55.2585 86.0361 53.14V53.14Z" stroke="black" stroke-width="3"/>
<path fill-rule="evenodd" clip-rule="evenodd" d="M123.524 71.2499H109.324V65.9249C109.324 62.9839 111.708 60.5999 114.649 60.5999H118.199C121.14 60.5999 123.524 62.9839 123.524 65.9249V71.2499ZM119.974 65.9249C119.974 64.9445 119.18 64.1499 118.199 64.1499H114.649C113.669 64.1499 112.874 64.9445 112.874 65.9249V67.6999H119.974V65.9249Z" fill="black"/>
<path fill-rule="evenodd" clip-rule="evenodd" d="M98.6746 71.2499H84.4746V65.9249C84.4746 62.9839 86.8587 60.5999 89.7996 60.5999H93.3496C96.2905 60.5999 98.6746 62.9839 98.6746 65.9249V71.2499ZM95.1246 65.9249C95.1246 64.9445 94.3299 64.1499 93.3496 64.1499H89.7996C88.8193 64.1499 88.0246 64.9445 88.0246 65.9249V67.6999H95.1246V65.9249Z" fill="black"/>
<rect x="89.5" y="58" width="4" height="6" fill="black"/>
<rect x="114.5" y="57" width="4" height="6" fill="black"/>
</svg>
