<svg width="144" height="144" viewBox="0 0 144 144" fill="none" xmlns="http://www.w3.org/2000/svg">
<circle cx="72" cy="72" r="72" fill="#FF0000" fill-opacity="0.2"/>
<mask id="path-2-inside-1_415_150" fill="white">
<path fill-rule="evenodd" clip-rule="evenodd" d="M98 89.3778V93H57H56V92.9754C45.4189 92.4544 37 83.7104 37 73C37 64.3947 42.4347 57.0588 50.059 54.2373C52.9121 45.3958 61.2091 39 71 39C81.21 39 89.7955 45.9551 92.2772 55.3859C100.683 57.1297 107 64.5772 107 73.5C107 80.2439 103.392 86.145 98 89.3778Z"/>
</mask>
<path fill-rule="evenodd" clip-rule="evenodd" d="M98 89.3778V93H57H56V92.9754C45.4189 92.4544 37 83.7104 37 73C37 64.3947 42.4347 57.0588 50.059 54.2373C52.9121 45.3958 61.2091 39 71 39C81.21 39 89.7955 45.9551 92.2772 55.3859C100.683 57.1297 107 64.5772 107 73.5C107 80.2439 103.392 86.145 98 89.3778Z" fill="#D11313" fill-opacity="0.8"/>
<path d="M98 89.3778L96.9715 87.6625L96 88.245V89.3778H98ZM98 93V95H100V93H98ZM56 93H54V95H56V93ZM56 92.9754H58V91.0715L56.0984 90.9779L56 92.9754ZM50.059 54.2373L50.7531 56.113L51.664 55.7759L51.9623 54.8515L50.059 54.2373ZM92.2772 55.3859L90.3431 55.8949L90.6582 57.0926L91.871 57.3442L92.2772 55.3859ZM96 89.3778V93H100V89.3778H96ZM98 91H57V95H98V91ZM57 91H56V95H57V91ZM58 93V92.9754H54V93H58ZM56.0984 90.9779C46.577 90.509 39 82.6388 39 73H35C35 84.782 44.2608 94.3998 55.9016 94.973L56.0984 90.9779ZM39 73C39 65.2584 43.8882 58.6535 50.7531 56.113L49.3648 52.3616C40.9811 55.4642 35 63.5311 35 73H39ZM51.9623 54.8515C54.5567 46.8118 62.1023 41 71 41V37C60.316 37 51.2675 43.9798 48.1556 53.6231L51.9623 54.8515ZM71 41C80.279 41 88.0868 47.3208 90.3431 55.8949L94.2114 54.8769C91.5042 44.5894 82.1409 37 71 37V41ZM91.871 57.3442C99.3673 58.8994 105 65.5442 105 73.5H109C109 63.6102 101.999 55.3601 92.6835 53.4276L91.871 57.3442ZM105 73.5C105 79.5124 101.785 84.7761 96.9715 87.6625L99.0285 91.0931C104.998 87.5139 109 80.9754 109 73.5H105Z" fill="#494949" mask="url(#path-2-inside-1_415_150)"/>
<path opacity="0.4" d="M82.9999 74.1509L85.5303 70.0001L102 97.5001H96.8998L82.9999 74.1509Z" fill="#CB9B1F"/>
<path d="M88.0981 71.5C86.9434 69.5 84.0566 69.5 82.9019 71.5L69.4785 94.75C68.3238 96.75 69.7672 99.25 72.0766 99.25H98.9234C101.233 99.25 102.676 96.75 101.521 94.75L88.0981 71.5Z" fill="#EECB4D" stroke="#494949" stroke-width="2"/>
<path d="M83.6705 79.9074C83.5786 78.7444 84.4976 77.75 85.6643 77.75H85.836C87.0026 77.75 87.9216 78.7444 87.8298 79.9074L87.3682 85.7547C87.3015 86.5989 86.597 87.25 85.7501 87.25C84.9033 87.25 84.1987 86.5989 84.1321 85.7547L83.6705 79.9074Z" fill="white"/>
<path fill-rule="evenodd" clip-rule="evenodd" d="M82.6736 79.9862C82.5359 78.2417 83.9144 76.7501 85.6643 76.7501H85.8361C87.586 76.7501 88.9645 78.2417 88.8268 79.9862L88.3652 85.8335C88.2574 87.1979 87.1188 88.2501 85.7502 88.2501C84.3816 88.2501 83.243 87.1979 83.1352 85.8335L82.6736 79.9862ZM85.6643 78.7501C85.081 78.7501 84.6215 79.2473 84.6674 79.8288L85.129 85.6761C85.1546 86.0002 85.4251 86.2501 85.7502 86.2501C86.0753 86.2501 86.3458 86.0002 86.3714 85.6761L86.833 79.8288C86.8789 79.2473 86.4194 78.7501 85.8361 78.7501H85.6643Z" fill="#494949"/>
<path d="M87.4999 92.25C87.4999 93.2165 86.7164 94 85.7499 94C84.7834 94 83.9999 93.2165 83.9999 92.25C83.9999 91.2835 84.7834 90.5 85.7499 90.5C86.7164 90.5 87.4999 91.2835 87.4999 92.25Z" fill="white"/>
<path fill-rule="evenodd" clip-rule="evenodd" d="M85.7499 91.5001C85.3357 91.5001 84.9999 91.8359 84.9999 92.2501C84.9999 92.6643 85.3357 93.0001 85.7499 93.0001C86.1641 93.0001 86.4999 92.6643 86.4999 92.2501C86.4999 91.8359 86.1641 91.5001 85.7499 91.5001ZM82.9999 92.2501C82.9999 90.7313 84.2311 89.5001 85.7499 89.5001C87.2687 89.5001 88.4999 90.7313 88.4999 92.2501C88.4999 93.7689 87.2687 95.0001 85.7499 95.0001C84.2311 95.0001 82.9999 93.7689 82.9999 92.2501Z" fill="#494949"/>
<path opacity="0.56" d="M52.6277 63.5944C47.8006 66.2146 46.0893 70.4064 48.3696 75.6314" stroke="white" stroke-width="4" stroke-linecap="round" stroke-linejoin="round"/>
<circle opacity="0.56" cx="58.5717" cy="57.5717" r="2" transform="rotate(20.4008 58.5717 57.5717)" fill="white"/>
</svg>
