<svg width="161" height="161" viewBox="0 0 161 161" fill="none" xmlns="http://www.w3.org/2000/svg">
<path fill-rule="evenodd" clip-rule="evenodd" d="M88.258 31.5623C82.8168 30.573 77.2418 30.573 71.8006 31.5623L44.5982 36.5082C40.7943 37.1998 38.0293 40.5128 38.0293 44.3791V82.3918C38.0293 94.1603 43.482 105.265 52.7943 112.461L75.1377 129.726C78.0188 131.952 82.0398 131.952 84.9209 129.726L107.264 112.461C116.577 105.265 122.029 94.1603 122.029 82.3918V44.3791C122.029 40.5129 119.264 37.1998 115.46 36.5082L88.258 31.5623ZM71.085 27.6268C76.9994 26.5515 83.0592 26.5515 88.9736 27.6268L116.176 32.5727C121.882 33.6101 126.029 38.5797 126.029 44.3791V82.3918C126.029 95.3991 120.003 107.672 109.71 115.626L87.3667 132.891C83.045 136.231 77.0136 136.231 72.6919 132.891L50.3485 115.626C40.056 107.672 34.0293 95.3991 34.0293 82.3918V44.3791C34.0293 38.5797 38.1768 33.6101 43.8827 32.5727L71.085 27.6268Z" fill="white"/>
<path fill-rule="evenodd" clip-rule="evenodd" d="M75.411 36.864C78.4633 36.2921 81.5953 36.2921 84.6476 36.864L111.134 41.8266C113.972 42.3584 116.029 44.8364 116.029 47.724V83.4629C116.029 92.6002 111.865 101.239 104.717 106.931L85.0127 122.622C82.0963 124.944 77.9623 124.944 75.0459 122.622L55.3415 106.931C48.1936 101.239 44.0293 92.6002 44.0293 83.4629V47.724C44.0293 44.8364 46.0861 42.3584 48.9243 41.8266L49.9076 41.6424L52.7598 41.098C53.8448 40.8909 54.8922 41.6026 55.0993 42.6875C55.3064 43.7725 54.5947 44.82 53.5098 45.027L50.6476 45.5734L49.661 45.7582C48.7149 45.9355 48.0293 46.7615 48.0293 47.724V83.4629C48.0293 91.3819 51.6383 98.8692 57.8332 103.802L77.5376 119.493C78.9958 120.654 81.0628 120.654 82.521 119.493L102.225 103.802C108.42 98.8692 112.029 91.3819 112.029 83.4629V47.724C112.029 46.7615 111.344 45.9355 110.398 45.7582L83.911 40.7956C81.3455 40.3149 78.7131 40.3149 76.1476 40.7956L71.8976 41.5919C70.8119 41.7953 69.7669 41.0801 69.5635 39.9944C69.3601 38.9087 70.0753 37.8637 71.161 37.6603L75.411 36.864ZM63.162 41.0617C63.3995 42.1404 62.7175 43.2074 61.6388 43.4449L60.445 43.7077C59.3663 43.9452 58.2993 43.2633 58.0618 42.1845C57.8243 41.1058 58.5063 40.0388 59.585 39.8013L60.7787 39.5385C61.8575 39.301 62.9245 39.9829 63.162 41.0617Z" fill="white"/>
<path fill-rule="evenodd" clip-rule="evenodd" d="M72.5264 61.9834C72.1674 57.5727 75.6501 53.7949 80.0754 53.7949C84.4547 53.7949 87.9213 57.4978 87.633 61.8676L86.4683 79.5191C86.2602 82.6726 83.6417 85.124 80.4813 85.124H79.9416C76.8166 85.124 74.2149 82.7255 73.9613 79.6108L72.5264 61.9834ZM80.0754 57.7949C77.9873 57.7949 76.3438 59.5775 76.5133 61.6589L77.9481 79.2863C78.0327 80.3245 78.8999 81.124 79.9416 81.124H80.4813C81.5348 81.124 82.4076 80.3069 82.477 79.2557L83.6417 61.6042C83.7777 59.5422 82.1419 57.7949 80.0754 57.7949Z" fill="#DE1616"/>
<path fill-rule="evenodd" clip-rule="evenodd" d="M80.0293 91.4917C78.3724 91.4917 77.0293 92.8348 77.0293 94.4917C77.0293 96.1486 78.3724 97.4917 80.0293 97.4917C81.6862 97.4917 83.0293 96.1486 83.0293 94.4917C83.0293 92.8348 81.6862 91.4917 80.0293 91.4917ZM73.0293 94.4917C73.0293 90.6257 76.1633 87.4917 80.0293 87.4917C83.8953 87.4917 87.0293 90.6257 87.0293 94.4917C87.0293 98.3577 83.8953 101.492 80.0293 101.492C76.1633 101.492 73.0293 98.3577 73.0293 94.4917Z" fill="#DE1616"/>
</svg>
