<svg width="161" height="161" viewBox="0 0 161 161" fill="none" xmlns="http://www.w3.org/2000/svg">
<path fill-rule="evenodd" clip-rule="evenodd" d="M80.5 21.6093C47.6943 21.6093 21.1 48.2036 21.1 81.0093C21.1 113.815 47.6943 140.409 80.5 140.409C113.306 140.409 139.9 113.815 139.9 81.0093C139.9 68.712 136.165 57.2924 129.768 47.8164C127.649 44.6781 127.264 44.0823 124.6 41.4093C123.898 40.7051 123.9 39.5654 124.604 38.8637C125.309 38.162 126.448 38.1639 127.15 38.8681C129.974 41.702 130.505 42.4741 132.752 45.8021C139.538 55.8544 143.5 67.9719 143.5 81.0093C143.5 115.803 115.294 144.009 80.5 144.009C45.7061 144.009 17.5 115.803 17.5 81.0093C17.5 46.2153 45.7061 18.0093 80.5 18.0093C94.3477 18.0093 107.157 22.4792 117.556 30.0544C118.359 30.6397 118.536 31.7656 117.951 32.5691C117.366 33.3726 116.24 33.5495 115.436 32.9642C105.632 25.8224 93.5607 21.6093 80.5 21.6093Z" fill="white"/>
<path fill-rule="evenodd" clip-rule="evenodd" d="M80.5 30.6093C52.6648 30.6093 30.1 53.1741 30.1 81.0093C30.1 108.844 52.6648 131.409 80.5 131.409C108.335 131.409 130.9 108.844 130.9 81.0093C130.9 53.1741 108.335 30.6093 80.5 30.6093ZM26.5 81.0093C26.5 51.1859 50.6766 27.0093 80.5 27.0093C110.323 27.0093 134.5 51.1859 134.5 81.0093C134.5 110.833 110.323 135.009 80.5 135.009C50.6766 135.009 26.5 110.833 26.5 81.0093Z" fill="white"/>
<path fill-rule="evenodd" clip-rule="evenodd" d="M58.2094 98.6443H54.826C52.475 98.6443 50.5692 96.7385 50.5692 94.3875V78.7668L50.1006 79.0943C47.2791 81.0664 43.4053 79.0477 43.4053 75.6053V73.3048C43.4053 71.9142 44.0846 70.6112 45.2247 69.8149L51.5744 65.3805C52.2891 64.8813 53.1399 64.6136 54.0117 64.6136H58.2094C60.5604 64.6136 62.4662 66.5195 62.4662 68.8704V94.3875C62.4662 96.7385 60.5604 98.6443 58.2094 98.6443ZM48.3588 76.6021C47.5526 77.1656 46.4458 76.5888 46.4458 75.6053V73.3048C46.4458 72.9075 46.6399 72.5352 46.9657 72.3077L53.3153 67.8733C53.5195 67.7307 53.7626 67.6542 54.0117 67.6542H58.2094C58.8811 67.6542 59.4256 68.1987 59.4256 68.8704V94.3875C59.4256 95.0592 58.8811 95.6038 58.2094 95.6038H54.826C54.1543 95.6038 53.6098 95.0592 53.6098 94.3875V73.438C53.6098 73.2924 53.4917 73.1744 53.3461 73.1744C53.2921 73.1744 53.2394 73.191 53.1951 73.2219L48.3588 76.6021ZM90.0145 95.7828C87.3881 97.6912 83.8944 98.6443 80.0787 98.6443C76.263 98.6443 72.7693 97.6912 70.1429 95.7828C67.4553 93.8301 65.753 90.9064 65.753 87.4106V87.3719C65.753 84.2848 67.0731 81.7633 69.1059 79.9851C67.6692 78.417 66.7737 76.3736 66.7737 73.9685V73.9298C66.7737 67.1221 73.27 63.374 80.0787 63.374C86.864 63.374 93.3837 67.1191 93.3837 73.9298V73.9685C93.3837 76.3803 92.4802 78.4161 91.0443 79.9777C93.0799 81.7591 94.4044 84.2879 94.4044 87.3719V87.4106C94.4044 90.9064 92.702 93.8301 90.0145 95.7828ZM88.6125 81.9091C90.314 83.203 91.3638 85.1077 91.3638 87.3719V87.4106C91.3638 92.2529 86.7612 95.6038 80.0787 95.6038C73.3962 95.6038 68.7935 92.2529 68.7935 87.4106V87.3719C68.7935 85.1077 69.836 83.2104 71.5365 81.9176C71.8231 81.6997 72.1284 81.499 72.4506 81.3165C73.266 80.8549 74.1893 80.5104 75.1908 80.3017C75.2022 80.2993 75.2136 80.297 75.225 80.2946C75.2588 80.2877 75.2835 80.258 75.2835 80.2234C75.2835 80.1901 75.2604 80.161 75.228 80.1529C75.2167 80.1501 75.2054 80.1472 75.1942 80.1444C74.1922 79.8895 73.2911 79.4851 72.5255 78.9574C72.2288 78.7528 71.9525 78.5298 71.6986 78.2898C70.5115 77.1678 69.8142 75.6749 69.8142 73.9685V73.9298C69.8142 69.5911 74.0317 66.4146 80.0787 66.4146C86.1064 66.4146 90.3431 69.5911 90.3431 73.9298V73.9685C90.3431 75.6749 89.6397 77.1617 88.4507 78.2818C88.1974 78.5204 87.922 78.7424 87.6267 78.9464C86.8607 79.4753 85.9606 79.8827 84.963 80.1437C84.9517 80.1467 84.9403 80.1497 84.9289 80.1526C84.8967 80.1609 84.8739 80.1899 84.8739 80.2231C84.8739 80.2578 84.8987 80.2876 84.9327 80.2945C84.9443 80.2968 84.9558 80.2991 84.9673 80.3015C85.9672 80.506 86.8911 80.8499 87.7078 81.3134C88.0263 81.4942 88.3285 81.6932 88.6125 81.9091ZM78.7905 75.0153C78.941 75.1443 79.3298 75.3635 80.0787 75.3635C80.8129 75.3635 81.1966 75.1472 81.3466 75.0183C81.4625 74.9187 81.5445 74.7953 81.5445 74.5302V74.4915C81.5445 74.2389 81.4678 74.1223 81.3509 74.023C81.1972 73.8921 80.8084 73.6776 80.0787 73.6776C79.3344 73.6776 78.9405 73.895 78.7861 74.0259C78.6697 74.1246 78.5936 74.2395 78.5936 74.4915V74.5302C78.5936 74.7947 78.675 74.9164 78.7905 75.0153ZM78.2626 87.7873C78.5483 88.0243 79.1294 88.302 80.0787 88.302C81.0141 88.302 81.5901 88.0267 81.8749 87.7898C82.1248 87.5819 82.2378 87.3474 82.2378 87.0233V86.9845C82.2378 86.6402 82.1179 86.4007 81.876 86.1972C81.6011 85.9658 81.0326 85.6864 80.0787 85.6864C79.1241 85.6864 78.5475 85.9663 78.2657 86.2022C78.0173 86.4102 77.9003 86.6497 77.9003 86.9845V87.0233C77.9003 87.3468 78.0127 87.5799 78.2626 87.7873ZM105.407 89.4246H101.345C98.9936 89.4246 97.0878 87.5188 97.0878 85.1679V82.5062C97.0878 80.1553 98.9936 78.2495 101.345 78.2495H105.407V74.3906C105.407 72.0396 107.313 70.1338 109.664 70.1338H112.296C114.647 70.1338 116.553 72.0396 116.553 74.3906V78.2495H120.635C122.986 78.2495 124.892 80.1553 124.892 82.5062V85.1679C124.892 87.5188 122.986 89.4246 120.635 89.4246H116.553V93.2835C116.553 95.6344 114.647 97.5403 112.296 97.5403H109.664C107.313 97.5403 105.407 95.6344 105.407 93.2835V89.4246ZM80.0787 78.404C77.4018 78.404 75.5531 76.8158 75.5531 74.5302V74.4915C75.5531 72.2059 77.4211 70.637 80.0787 70.637C82.717 70.637 84.585 72.2059 84.585 74.4915V74.5302C84.585 76.8158 82.7363 78.404 80.0787 78.404ZM80.0787 91.3426C77.0167 91.3426 74.8598 89.5412 74.8598 87.0233V86.9845C74.8598 84.4665 76.9974 82.6458 80.0787 82.6458C83.1599 82.6458 85.2783 84.4665 85.2783 86.9845V87.0233C85.2783 89.5412 83.1214 91.3426 80.0787 91.3426ZM101.345 86.3841C100.673 86.3841 100.128 85.8396 100.128 85.1679V82.5062C100.128 81.8345 100.673 81.29 101.345 81.29H108.448V74.3906C108.448 73.7189 108.992 73.1744 109.664 73.1744H112.296C112.968 73.1744 113.513 73.7189 113.513 74.3906V81.29H120.635C121.307 81.29 121.851 81.8345 121.851 82.5062V85.1679C121.851 85.8396 121.307 86.3841 120.635 86.3841H113.513V93.2835C113.513 93.9552 112.968 94.4997 112.296 94.4997H109.664C108.992 94.4997 108.448 93.9552 108.448 93.2835V86.3841H101.345Z" fill="#DE1616"/>
</svg>
