<svg width="144" height="144" viewBox="0 0 144 144" fill="none" xmlns="http://www.w3.org/2000/svg">
    <circle opacity="0.14" cx="72" cy="72" r="72" fill="#62B194" />
    <circle cx="71.2142" cy="46.3657" r="18.4139" fill="#FFCFAC" stroke="black" stroke-width="3" />
    <path fill-rule="evenodd" clip-rule="evenodd"
        d="M74.0276 60.3653C82.5542 53.4186 83.8348 40.875 76.8881 32.3484C74.7462 29.7194 72.0722 27.7793 69.148 26.5567C74.728 26.7207 80.2079 29.2169 84.0106 33.8844C90.9574 42.411 89.6767 54.9546 81.1501 61.9014C75.2526 66.7062 67.4332 67.575 60.8733 64.8325C65.4867 64.9681 70.1686 63.5093 74.0276 60.3653Z"
        fill="#F4A56B" />
    <circle cx="71.2142" cy="46.3657" r="18.4139" stroke="black" stroke-width="3" />
    <path
        d="M43.5 88C43.5 75.5736 53.5736 65.5 66 65.5H76C88.4264 65.5 98.5 75.5736 98.5 88V106.397C98.5 107.778 97.3807 108.897 96 108.897H46C44.6193 108.897 43.5 107.778 43.5 106.397V88Z"
        fill="#A0A4AE" stroke="black" stroke-width="3" />
    <path d="M90.8963 71.6001L97.2622 80.2301V108.549L90.2907 108.811L90.8963 71.6001Z" fill="#494949" />
    <path
        d="M50.9604 70.0227L62.8871 65.899L67.2052 75.573L64.3235 90.2055L61.6509 92.9874L53.1381 80.3172L50.9604 70.0227Z"
        fill="white" />
    <path
        d="M91.0062 70.0228L80.3158 65.8654L75.9604 74.7689L77.6432 90.2055L80.3158 92.9874L88.8286 80.3173L91.0062 70.0228Z"
        fill="white" />
    <path
        d="M43.5 88C43.5 75.5736 53.5736 65.5 66 65.5H76C88.4264 65.5 98.5 75.5736 98.5 88V106.397C98.5 107.778 97.3807 108.897 96 108.897H46C44.6193 108.897 43.5 107.778 43.5 106.397V88Z"
        stroke="black" stroke-width="3" />
    <path d="M67.0668 76.5142H74.768L77.6691 92.0748L74.768 99.987H67.0668L63.8492 92.7078L67.0668 76.5142Z"
        fill="#D33C3C" />
    <path
        d="M70.6236 76.5142L74.7679 76.5142L77.6691 92.0748L74.7679 99.987L67.8713 99.178L73.9453 92.8667L70.6236 76.5142Z"
        fill="#A01818" />
    <path fill-rule="evenodd" clip-rule="evenodd"
        d="M51.0009 71.0358C49.5334 71.3461 49.5334 71.3463 49.5334 71.3466L49.5336 71.3473L49.534 71.3493L49.5355 71.3562L49.5408 71.381L49.5609 71.4732C49.5784 71.5531 49.6043 71.6696 49.6384 71.8189C49.7065 72.1176 49.8075 72.5481 49.9401 73.0821C50.2052 74.1493 50.5979 75.6338 51.1093 77.3065C52.1221 80.6193 53.6375 84.796 55.6084 87.9116C57.5707 91.0136 61.1804 94.8342 64.208 97.8108C65.7387 99.3156 67.1507 100.634 68.1801 101.576C68.695 102.047 69.1149 102.424 69.4067 102.685C69.5527 102.815 69.6666 102.916 69.7446 102.985L69.8339 103.064L69.8573 103.084L69.8635 103.09L69.8652 103.091L69.8657 103.092C69.8659 103.092 69.866 103.092 70.8536 101.963C71.8412 103.092 71.8414 103.092 71.8415 103.092L71.842 103.091L71.8438 103.09L71.85 103.084L71.8734 103.064L71.9627 102.985C72.0406 102.916 72.1546 102.815 72.3005 102.685C72.5924 102.424 73.0122 102.047 73.5272 101.576C74.5565 100.634 75.9686 99.3156 77.4993 97.8108C80.5269 94.8342 84.1366 91.0136 86.0989 87.9116C88.0899 84.7643 89.4304 80.556 90.2694 77.2354C90.6937 75.5562 90.9989 74.0662 91.1982 72.9949C91.2979 72.4588 91.3714 72.0263 91.4202 71.7259C91.4446 71.5757 91.4628 71.4585 91.4751 71.3777L91.4892 71.2843L91.4929 71.259L91.4939 71.2518L91.4942 71.2496L91.4943 71.2489C91.4944 71.2486 91.4944 71.2484 90.0095 71.0359C88.5291 70.824 88.5247 70.8232 88.5247 70.8231L88.5246 70.8236L88.5241 70.8275L88.5213 70.8462L88.5094 70.9259C88.4985 70.9973 88.4818 71.1048 88.459 71.2448C88.4135 71.5249 88.3439 71.9348 88.2488 72.4462C88.0583 73.4702 87.7662 74.8962 87.3609 76.5005C86.5405 79.747 85.2919 83.5757 83.5636 86.3078C81.8065 89.0853 78.4274 92.6913 75.3961 95.6715C73.8972 97.145 72.5123 98.4378 71.502 99.3623C71.2637 99.5803 71.0465 99.7776 70.8536 99.9519C70.6608 99.7776 70.4435 99.5803 70.2053 99.3622C69.195 98.4378 67.81 97.145 66.3112 95.6715C63.2799 92.6913 59.9007 89.0853 58.1437 86.3078C56.3953 83.544 54.9731 79.6837 53.9782 76.4294C53.4857 74.8186 53.107 73.3869 52.8516 72.3589C52.724 71.8453 52.6275 71.4335 52.5632 71.1517C52.5311 71.0108 52.507 70.9025 52.4912 70.8302L52.4736 70.7494L52.4694 70.7302L52.4686 70.726L52.4684 70.7252C52.4684 70.7252 52.4684 70.7252 52.4684 70.7252L52.4684 70.7252C52.4684 70.7253 52.4684 70.7254 51.0009 71.0358Z"
        fill="black" />
    <path d="M64.2631 66.8635H78.4839L76.5078 74.0753H65.9258L64.2631 66.8635Z" fill="#D33C3C" />
    <path d="M74.23 66.8635L79.3802 66.8635L76.5078 74.0753H70.4812L74.23 66.8635Z" fill="#A01818" />
    <path fill-rule="evenodd" clip-rule="evenodd"
        d="M80.3862 66.6098L76.0009 75.6161L80.4605 94.6464L77.5396 95.3308L73.2297 76.939H70.8903V76.939H68.8964L64.4775 95.3932L61.5599 94.6946L66.1431 75.5543L62.5327 66.5582L65.3169 65.4408L68.7274 73.939H71.2416V73.939H73.4808L77.6889 65.2965L80.3862 66.6098Z"
        fill="black" />
    <circle cx="88.0896" cy="103.092" r="17.6083" fill="#62B194" />
    <path fill-rule="evenodd" clip-rule="evenodd"
        d="M83.534 116.006C93.2588 116.006 101.142 108.122 101.142 98.3976C101.142 94.812 100.071 91.4768 98.2301 88.6947C102.747 91.8824 105.698 97.1425 105.698 103.092C105.698 112.816 97.8144 120.7 88.0896 120.7C81.9504 120.7 76.545 117.558 73.3936 112.795C76.2604 114.818 79.7585 116.006 83.534 116.006Z"
        fill="#348567" />
    <path d="M81.1691 102.398L84.7513 105.432C86.4805 106.896 89.0799 106.634 90.4808 104.852L96.6773 96.9735"
        stroke="white" stroke-width="4" stroke-linecap="round" stroke-linejoin="round" />
</svg>
