<svg width="144" height="144" viewBox="0 0 144 144" fill="none" xmlns="http://www.w3.org/2000/svg">
<circle cx="72" cy="72" r="72" fill="#59A365" fill-opacity="0.2"/>
<rect x="45.8052" y="27.2418" width="50.3895" height="81.9897" rx="12" fill="white" fill-opacity="0.8"/>
<rect x="78.508" y="37.8071" width="12.1014" height="10.4696" rx="4" fill="#284D86" fill-opacity="0.3"/>
<rect x="51.39" y="52.0098" width="39.2194" height="9.69331" rx="4" fill="#284D86" fill-opacity="0.3"/>
<rect x="51.39" y="64.9786" width="39.2194" height="9.69331" rx="4" fill="#284D86" fill-opacity="0.3"/>
<rect x="51.39" y="37.8071" width="12.1014" height="10.4696" rx="4" fill="#284D86" fill-opacity="0.3"/>
<rect x="64.949" y="37.8071" width="12.1014" height="10.4696" rx="4" fill="#284D86" fill-opacity="0.3"/>
<rect x="51.39" y="78.9371" width="39.2194" height="23.6245" rx="4" fill="#284D86" fill-opacity="0.3"/>
<path opacity="0.53" fill-rule="evenodd" clip-rule="evenodd" d="M71.4271 109.232H85.9461C91.6063 109.232 96.1948 104.643 96.1948 98.9828V37.4905C96.1948 31.8303 91.6063 27.2418 85.9461 27.2418H71.4271C77.0873 27.2418 81.6758 31.8303 81.6758 37.4905V98.9828C81.6758 104.643 77.0873 109.232 71.4271 109.232Z" fill="#5C6886"/>
<path d="M64.7012 109.232H58.4026H54.8052C49.8346 109.232 45.8052 105.202 45.8052 100.232V36.2418C45.8052 31.2713 49.8346 27.2418 54.8052 27.2418H87.1947C92.1653 27.2418 96.1947 31.2713 96.1947 36.2418V68.2367" stroke="#494949" stroke-width="3" stroke-linecap="round"/>
<path d="M58.6162 27.2418H82.5299V28.3901C82.5299 31.7038 79.8436 34.3901 76.5299 34.3901H64.6162C61.3025 34.3901 58.6162 31.7038 58.6162 28.3901V27.2418Z" fill="#494949"/>
<ellipse cx="90.6094" cy="97.0154" rx="22.2932" ry="22.3435" fill="#A3C098"/>
<path fill-rule="evenodd" clip-rule="evenodd" d="M83.1899 111.978C95.5021 111.978 105.483 101.975 105.483 89.6346C105.483 84.3229 103.168 81.4383 100.08 77.6039C105.469 81.6823 112.903 89.7259 112.903 97.0154C112.903 109.355 102.922 119.359 90.6097 119.359C83.5972 119.359 75.3543 111.781 71.2676 106.708C75.0013 109.533 78.1508 111.978 83.1899 111.978Z" fill="#20652C" fill-opacity="0.3"/>
<path fill-rule="evenodd" clip-rule="evenodd" d="M82.2044 101.481C79.8981 97.6869 80.3816 92.6687 83.6551 89.3878C85.8791 87.1589 88.9018 86.2197 91.8034 86.573C92.5224 86.6606 93.176 86.1474 93.2634 85.4268C93.3507 84.7062 92.8387 84.0511 92.1197 83.9636C88.4522 83.517 84.6187 84.7047 81.8006 87.5291C77.5659 91.7733 77.0171 98.3128 80.1543 103.152L78.2447 103.155C77.5205 103.156 76.9343 103.746 76.9356 104.472C76.9368 105.198 77.5249 105.785 78.2491 105.784L82.6597 105.776L83.6252 105.775L83.9104 104.85L83.933 104.777C83.9696 104.691 83.9967 104.603 84.0144 104.513L85.213 100.627C85.4269 99.9336 85.0394 99.1976 84.3475 98.9833C83.6555 98.7689 82.9212 99.1572 82.7073 99.8507L82.2044 101.481Z" fill="#E5EDFD"/>
<path fill-rule="evenodd" clip-rule="evenodd" d="M98.0398 86.6082L97.0761 86.6671L96.8461 87.6069L95.795 91.9C95.6224 92.605 96.0527 93.3167 96.7561 93.4897C97.4594 93.6627 98.1696 93.2314 98.3421 92.5264L98.7566 90.8336C101.352 94.6688 100.954 99.9304 97.5635 103.328C95.3458 105.551 92.3338 106.491 89.4396 106.146C88.7205 106.06 88.0681 106.575 87.9826 107.296C87.897 108.017 88.4106 108.671 89.1298 108.756C92.7879 109.193 96.6079 108.004 99.4181 105.187C103.797 100.799 104.235 93.9565 100.732 89.0772L102.602 88.9629C103.324 88.9188 103.875 88.2956 103.831 87.5711C103.787 86.8465 103.165 86.295 102.442 86.3392L98.0398 86.6082Z" fill="#E5EDFD"/>
<path d="M111.403 97.0154C111.403 108.53 102.09 117.859 90.6094 117.859C79.1288 117.859 69.8162 108.53 69.8162 97.0154C69.8162 85.5006 79.1288 76.1719 90.6094 76.1719C102.09 76.1719 111.403 85.5006 111.403 97.0154Z" stroke="#494949" stroke-width="3"/>
</svg>
