<svg width="180" height="180" viewBox="0 0 180 180" fill="none" xmlns="http://www.w3.org/2000/svg">
<path fill-rule="evenodd" clip-rule="evenodd" d="M90 30.6C57.1943 30.6 30.6 57.1943 30.6 90C30.6 122.806 57.1943 149.4 90 149.4C122.806 149.4 149.4 122.806 149.4 90C149.4 77.7027 145.665 66.2832 139.268 56.8071C137.149 53.6689 136.764 53.073 134.1 50.4C133.398 49.6959 133.4 48.5562 134.104 47.8544C134.809 47.1527 135.948 47.1546 136.65 47.8588C139.474 50.6927 140.005 51.4649 142.252 54.7929C149.038 64.8451 153 76.9626 153 90C153 124.794 124.794 153 90 153C55.2061 153 27 124.794 27 90C27 55.2061 55.2061 27 90 27C103.848 27 116.657 31.4699 127.056 39.0451C127.859 39.6304 128.036 40.7563 127.451 41.5598C126.866 42.3633 125.74 42.5402 124.936 41.9549C115.132 34.8131 103.061 30.6 90 30.6Z" fill="black"/>
<path fill-rule="evenodd" clip-rule="evenodd" d="M90 39.6C62.1648 39.6 39.6 62.1648 39.6 90C39.6 117.835 62.1648 140.4 90 140.4C117.835 140.4 140.4 117.835 140.4 90C140.4 62.1648 117.835 39.6 90 39.6ZM36 90C36 60.1766 60.1766 36 90 36C119.823 36 144 60.1766 144 90C144 119.823 119.823 144 90 144C60.1766 144 36 119.823 36 90Z" fill="black"/>
<path fill-rule="evenodd" clip-rule="evenodd" d="M100.819 68.0989C102.225 66.693 104.504 66.693 105.91 68.0989L111.001 73.19C112.407 74.5959 112.407 76.8753 111.001 78.2812L100.182 89.0999L111.001 99.9187C112.407 101.325 112.407 103.604 111.001 105.01L105.91 110.101C104.504 111.507 102.225 111.507 100.819 110.101L90 99.2823L79.1813 110.101C77.7754 111.507 75.496 111.507 74.0901 110.101L68.9989 105.01C67.593 103.604 67.593 101.325 68.9989 99.9187L79.8177 89.0999L68.9989 78.2812C67.593 76.8753 67.593 74.5959 68.9989 73.19L74.0901 68.0989C75.496 66.693 77.7754 66.693 79.1813 68.0989L90 78.9176L100.819 68.0989ZM108.455 75.7356L103.364 70.6445L90 84.0088L76.6357 70.6445L71.5445 75.7356L84.9088 89.0999L71.5445 102.464L76.6357 107.555L90 94.1911L103.364 107.555L108.455 102.464L95.0912 89.0999L108.455 75.7356Z" fill="black"/>
</svg>
