<svg width="20" height="20" viewBox="0 0 20 20" fill="none" xmlns="http://www.w3.org/2000/svg">
<circle cx="10" cy="10" r="9" stroke="#EB5757" stroke-width="2"/>
<path fill-rule="evenodd" clip-rule="evenodd" d="M6.46446 12.1213C6.07394 12.5118 6.07394 13.145 6.46446 13.5355C6.85499 13.9261 7.48815 13.9261 7.87868 13.5355L10 11.4142L12.1213 13.5355C12.5118 13.9261 13.145 13.9261 13.5355 13.5355C13.9261 13.145 13.9261 12.5118 13.5355 12.1213L11.4142 10L13.5355 7.87868C13.9261 7.48815 13.9261 6.85499 13.5355 6.46446C13.145 6.07394 12.5118 6.07394 12.1213 6.46446L10 8.58578L7.87868 6.46446C7.48815 6.07394 6.85499 6.07394 6.46446 6.46446C6.07394 6.85499 6.07394 7.48815 6.46446 7.87868L8.58578 10L6.46446 12.1213Z" fill="#EB5757"/>
</svg>
