<svg width="160" height="160" viewBox="0 0 160 160" fill="none" xmlns="http://www.w3.org/2000/svg">
<path fill-rule="evenodd" clip-rule="evenodd" d="M80 27.2C50.8394 27.2 27.2 50.8394 27.2 80C27.2 109.161 50.8394 132.8 80 132.8C109.161 132.8 132.8 109.161 132.8 80C132.8 69.0691 129.48 58.9184 123.794 50.4952C121.911 47.7057 121.568 47.176 119.2 44.8C118.576 44.1741 118.578 43.161 119.204 42.5373C119.83 41.9135 120.843 41.9152 121.467 42.5412C123.977 45.0602 124.449 45.7465 126.446 48.7048C132.478 57.6401 136 68.4112 136 80C136 110.928 110.928 136 80 136C49.0721 136 24 110.928 24 80C24 49.0721 49.0721 24 80 24C92.3091 24 103.695 27.9732 112.939 34.7067C113.653 35.227 113.81 36.2278 113.29 36.9421C112.769 37.6563 111.769 37.8135 111.054 37.2933C102.34 30.945 91.6095 27.2 80 27.2Z" fill="black"/>
<path fill-rule="evenodd" clip-rule="evenodd" d="M80 35.2C55.2576 35.2 35.2 55.2576 35.2 80C35.2 104.742 55.2576 124.8 80 124.8C104.742 124.8 124.8 104.742 124.8 80C124.8 55.2576 104.742 35.2 80 35.2ZM32 80C32 53.4903 53.4903 32 80 32C106.51 32 128 53.4903 128 80C128 106.51 106.51 128 80 128C53.4903 128 32 106.51 32 80Z" fill="black"/>
<path fill-rule="evenodd" clip-rule="evenodd" d="M79.2009 72.5052C83.3168 72.5052 86.6535 69.1685 86.6535 65.0525C86.6535 60.9366 83.3168 57.5999 79.2009 57.5999C75.0849 57.5999 71.7482 60.9366 71.7482 65.0525C71.7482 69.1685 75.0849 72.5052 79.2009 72.5052ZM89.8535 65.0525C89.8535 69.081 87.6174 72.5872 84.3186 74.3976C87.8246 75.3502 90.9056 77.3349 93.2152 80.0052C93.343 80.0017 93.4712 79.9999 93.5998 79.9999C101.111 79.9999 107.2 86.0888 107.2 93.5999C107.2 101.111 101.111 107.2 93.5998 107.2C86.6231 107.2 80.8734 101.947 80.0906 95.1798C80.2025 96.1475 80.416 97.0843 80.7202 97.9792H66.9932C63.5727 97.9792 60.7998 95.2063 60.7998 91.7858C60.7998 83.4737 66.4286 76.4762 74.0824 74.3972C70.7841 72.5867 68.5482 69.0807 68.5482 65.0525C68.5482 59.1692 73.3176 54.3999 79.2009 54.3999C85.0842 54.3999 89.8535 59.1692 89.8535 65.0525ZM80.0502 94.7792C80.0168 94.3905 79.9998 93.9972 79.9998 93.5999C79.9998 87.5626 83.9336 82.4442 89.3779 80.6679C86.7666 78.3655 83.3377 76.9687 79.5827 76.9687H78.8169C70.6337 76.9687 63.9998 83.6025 63.9998 91.7858C63.9998 93.439 65.34 94.7792 66.9932 94.7792H80.0502ZM104 93.5999C104 99.3437 99.3436 104 93.5998 104C87.856 104 83.1998 99.3437 83.1998 93.5999C83.1998 87.8561 87.856 83.1999 93.5998 83.1999C99.3436 83.1999 104 87.8561 104 93.5999Z" fill="black"/>
<path fill-rule="evenodd" clip-rule="evenodd" d="M92.8 89.5999V91.1999H96C96.4418 91.1999 96.8 90.8417 96.8 90.3999C96.8 89.9581 96.4418 89.5999 96 89.5999H92.8ZM92.8 94.3999H96C98.2091 94.3999 100 92.609 100 90.3999C100 88.1908 98.2091 86.3999 96 86.3999H92C91.8494 86.3999 91.7019 86.4138 91.559 86.4403C91.4436 86.4139 91.3234 86.3999 91.2 86.3999C90.3163 86.3999 89.6 87.1162 89.6 87.9999L89.6 88.7999V91.1999V95.1999C88.7163 95.1999 88 95.9162 88 96.7999C88 97.6836 88.7163 98.3999 89.6 98.3999L89.6 99.1999C89.6 100.084 90.3163 100.8 91.2 100.8C92.0837 100.8 92.8 100.084 92.8 99.1999V98.3999H96C96.8837 98.3999 97.6 97.6836 97.6 96.7999C97.6 95.9162 96.8837 95.1999 96 95.1999H92.8L92.8 94.3999Z" fill="black"/>
</svg>
