<svg width="160" height="160" viewBox="0 0 160 160" fill="none" xmlns="http://www.w3.org/2000/svg">
<path fill-rule="evenodd" clip-rule="evenodd" d="M62.1775 28.7419C64.8946 29.784 67.9738 28.959 69.8058 26.6979C75.057 20.2172 84.9431 20.2172 90.1942 26.6979C92.0263 28.959 95.1054 29.784 97.8225 28.7419C105.61 25.755 114.172 30.6981 115.479 38.9361C115.935 41.8103 118.19 44.0643 121.064 44.5204C129.302 45.8277 134.245 54.3893 131.258 62.1773C130.216 64.8944 131.041 67.9735 133.302 69.8056C139.783 75.0567 139.783 84.9428 133.302 90.194C131.041 92.026 130.216 95.1051 131.258 97.8222C134.245 105.61 129.302 114.172 121.064 115.479C118.19 115.935 115.935 118.189 115.479 121.063C114.172 129.301 105.61 134.244 97.8225 131.258C95.1054 130.216 92.0263 131.041 90.1942 133.302C84.9431 139.782 75.057 139.782 69.8058 133.302C67.9738 131.041 64.8946 130.216 62.1775 131.258C54.3895 134.244 45.8279 129.301 44.5206 121.063C44.0646 118.189 41.8105 115.935 38.9364 115.479C30.6983 114.172 25.7553 105.61 28.7422 97.8222C29.7842 95.1051 28.9592 92.026 26.6982 90.194C20.2175 84.9428 20.2175 75.0567 26.6982 69.8056C28.9592 67.9735 29.7842 64.8944 28.7422 62.1773C25.7553 54.3893 30.6983 45.8277 38.9364 44.5204C41.8105 44.0643 44.0646 41.8103 44.5206 38.9361C45.8279 30.6981 54.3895 25.755 62.1775 28.7419ZM87.7079 28.7125C83.7375 23.8124 76.2625 23.8124 72.2921 28.7125C69.5877 32.0501 65.0425 33.268 61.0316 31.7297C55.1431 29.4713 48.6696 33.2088 47.6811 39.4377C47.0078 43.6803 43.6805 47.0076 39.4379 47.6809C33.209 48.6693 29.4716 55.1428 31.73 61.0314C33.2682 65.0422 32.0503 69.5875 28.7127 72.2918C23.8126 76.2623 23.8126 83.7372 28.7127 87.7077C32.0503 90.4121 33.2682 94.9573 31.73 98.9681C29.4716 104.857 33.209 111.33 39.4379 112.319C43.6805 112.992 47.0078 116.319 47.6811 120.562C48.6696 126.791 55.1431 130.528 61.0316 128.27C65.0425 126.732 69.5877 127.949 72.2921 131.287C76.2625 136.187 83.7375 136.187 87.7079 131.287C90.4123 127.949 94.9575 126.732 98.9684 128.27C104.857 130.528 111.33 126.791 112.319 120.562C112.992 116.319 116.319 112.992 120.562 112.319C126.791 111.33 130.528 104.857 128.27 98.9681C126.732 94.9573 127.95 90.4121 131.287 87.7077C136.187 83.7372 136.187 76.2623 131.287 72.2918C127.95 69.5875 126.732 65.0422 128.27 61.0314C130.528 55.1428 126.791 48.6693 120.562 47.6809C116.319 47.0076 112.992 43.6803 112.319 39.4377C111.33 33.2088 104.857 29.4713 98.9684 31.7297C94.9575 33.268 90.4123 32.0501 87.7079 28.7125Z" fill="#F3F5F9"/>
<path fill-rule="evenodd" clip-rule="evenodd" d="M79.9999 41.5999C58.7922 41.5999 41.5999 58.7922 41.5999 79.9999C41.5999 101.208 58.7922 118.4 79.9999 118.4C101.208 118.4 118.4 101.208 118.4 79.9999C118.4 67.7859 112.699 56.9042 103.807 49.8685C103.114 49.3202 102.997 48.3139 103.545 47.621C104.093 46.928 105.1 46.8107 105.793 47.359C115.419 54.9756 121.6 66.7664 121.6 79.9999C121.6 102.975 102.975 121.6 79.9999 121.6C57.0249 121.6 38.3999 102.975 38.3999 79.9999C38.3999 57.0249 57.0249 38.3999 79.9999 38.3999C84.6526 38.3999 89.1301 39.1643 93.3116 40.5758C94.1488 40.8584 94.5985 41.7662 94.3159 42.6034C94.0333 43.4407 93.1255 43.8903 92.2882 43.6077C88.4321 42.3061 84.3001 41.5999 79.9999 41.5999Z" fill="#F3F5F9"/>
<path fill-rule="evenodd" clip-rule="evenodd" d="M99.8135 73.3244L95.2769 67.2H64.723L60.1864 73.3244L79.9999 93.7985L99.8135 73.3244ZM102.113 75.5498L82.2995 96.0238C81.0419 97.3234 78.958 97.3234 77.7004 96.0238L57.8868 75.5498C56.7982 74.4249 56.6832 72.6776 57.615 71.4197L62.1516 65.2953C62.7551 64.4805 63.709 64 64.723 64H95.2769C96.2908 64 97.2448 64.4805 97.8483 65.2953L102.385 71.4197C103.317 72.6776 103.202 74.4249 102.113 75.5498Z" fill="#DE1616"/>
<path fill-rule="evenodd" clip-rule="evenodd" d="M68.8 73.6C68.8 72.7163 69.5164 72 70.4 72L99.2 72C100.084 72 100.8 72.7163 100.8 73.6C100.8 74.4837 100.084 75.2 99.2 75.2L70.4 75.2C69.5164 75.2 68.8 74.4837 68.8 73.6Z" fill="#DE1616"/>
<path d="M64 62L65.1163 68.1609C65.2622 68.9658 65.7784 69.6345 66.4853 69.9341L69 71L66.4853 72.0659C65.7784 72.3655 65.2622 73.0342 65.1163 73.8391L64 80L62.8837 73.8391C62.7378 73.0342 62.2216 72.3655 61.5147 72.0659L59 71L61.5147 69.9341C62.2216 69.6345 62.7378 68.9658 62.8837 68.1609L64 62Z" fill="#F3F5F9"/>
</svg>
