<svg width="160" height="160" viewBox="0 0 160 160" fill="none" xmlns="http://www.w3.org/2000/svg">
<path fill-rule="evenodd" clip-rule="evenodd" d="M62.1778 28.7422C64.8949 29.7842 67.974 28.9592 69.806 26.6982C75.0572 20.2175 84.9433 20.2175 90.1945 26.6982C92.0265 28.9592 95.1056 29.7842 97.8227 28.7422C105.611 25.7553 114.172 30.6983 115.48 38.9364C115.936 41.8105 118.19 44.0646 121.064 44.5206C129.302 45.8279 134.245 54.3895 131.258 62.1775C130.216 64.8946 131.041 67.9738 133.302 69.8058C139.783 75.057 139.783 84.9431 133.302 90.1942C131.041 92.0263 130.216 95.1054 131.258 97.8225C134.245 105.61 129.302 114.172 121.064 115.479C118.19 115.935 115.936 118.19 115.48 121.064C114.172 129.302 105.611 134.245 97.8227 131.258C95.1056 130.216 92.0265 131.041 90.1945 133.302C84.9433 139.783 75.0572 139.783 69.806 133.302C67.974 131.041 64.8949 130.216 62.1778 131.258C54.3898 134.245 45.8282 129.302 44.5209 121.064C44.0648 118.19 41.8107 115.935 38.9366 115.479C30.6986 114.172 25.7555 105.61 28.7424 97.8225C29.7845 95.1054 28.9594 92.0263 26.6984 90.1942C20.2177 84.9431 20.2177 75.057 26.6984 69.8058C28.9594 67.9738 29.7845 64.8946 28.7424 62.1775C25.7555 54.3895 30.6986 45.8279 38.9366 44.5207C41.8107 44.0646 44.0648 41.8105 44.5209 38.9364C45.8282 30.6983 54.3898 25.7553 62.1778 28.7422ZM87.7082 28.7127C83.7377 23.8126 76.2628 23.8126 72.2923 28.7127C69.5879 32.0503 65.0427 33.2682 61.0319 31.73C55.1433 29.4716 48.6698 33.209 47.6813 39.4379C47.0081 43.6805 43.6808 47.0078 39.4381 47.6811C33.2093 48.6696 29.4718 55.1431 31.7302 61.0316C33.2685 65.0425 32.0506 69.5877 28.713 72.2921C23.8129 76.2625 23.8129 83.7375 28.713 87.7079C32.0506 90.4123 33.2685 94.9575 31.7302 98.9684C29.4718 104.857 33.2093 111.33 39.4381 112.319C43.6808 112.992 47.0081 116.319 47.6813 120.562C48.6698 126.791 55.1433 130.528 61.0319 128.27C65.0427 126.732 69.5879 127.95 72.2923 131.287C76.2628 136.187 83.7377 136.187 87.7082 131.287C90.4126 127.95 94.9578 126.732 98.9686 128.27C104.857 130.528 111.331 126.791 112.319 120.562C112.992 116.319 116.32 112.992 120.562 112.319C126.791 111.33 130.529 104.857 128.27 98.9684C126.732 94.9575 127.95 90.4123 131.288 87.7079C136.188 83.7375 136.188 76.2625 131.288 72.2921C127.95 69.5877 126.732 65.0425 128.27 61.0316C130.529 55.1431 126.791 48.6696 120.562 47.6811C116.32 47.0078 112.992 43.6805 112.319 39.4379C111.331 33.209 104.857 29.4716 98.9686 31.73C94.9578 33.2682 90.4126 32.0503 87.7082 28.7127Z" fill="black"/>
<path fill-rule="evenodd" clip-rule="evenodd" d="M80.0004 41.5999C58.7927 41.5999 41.6004 58.7922 41.6004 79.9999C41.6004 101.208 58.7927 118.4 80.0004 118.4C101.208 118.4 118.4 101.208 118.4 79.9999C118.4 67.7859 112.7 56.9042 103.808 49.8685C103.115 49.3202 102.997 48.3139 103.546 47.621C104.094 46.928 105.1 46.8107 105.793 47.359C115.419 54.9756 121.6 66.7664 121.6 79.9999C121.6 102.975 102.975 121.6 80.0004 121.6C57.0253 121.6 38.4004 102.975 38.4004 79.9999C38.4004 57.0249 57.0253 38.3999 80.0004 38.3999C84.6531 38.3999 89.1306 39.1643 93.3121 40.5758C94.1493 40.8584 94.599 41.7662 94.3164 42.6034C94.0338 43.4407 93.1259 43.8903 92.2887 43.6077C88.4326 42.3061 84.3006 41.5999 80.0004 41.5999Z" fill="black"/>
<path fill-rule="evenodd" clip-rule="evenodd" d="M99.8135 73.3244L95.2769 67.2H64.723L60.1864 73.3244L79.9999 93.7985L99.8135 73.3244ZM102.113 75.5498L82.2995 96.0238C81.0419 97.3234 78.958 97.3234 77.7004 96.0238L57.8868 75.5498C56.7982 74.4249 56.6832 72.6776 57.615 71.4197L62.1516 65.2953C62.7551 64.4805 63.709 64 64.723 64H95.2769C96.2908 64 97.2448 64.4805 97.8483 65.2953L102.385 71.4197C103.317 72.6776 103.202 74.4249 102.113 75.5498Z" fill="black"/>
<path fill-rule="evenodd" clip-rule="evenodd" d="M68.7998 73.6C68.7998 72.7163 69.5161 72 70.3998 72L99.1998 72C100.083 72 100.8 72.7163 100.8 73.6C100.8 74.4837 100.083 75.2 99.1998 75.2L70.3998 75.2C69.5161 75.2 68.7998 74.4837 68.7998 73.6Z" fill="black"/>
<path d="M64 62L65.1163 68.1609C65.2622 68.9658 65.7784 69.6345 66.4853 69.9341L69 71L66.4853 72.0659C65.7784 72.3655 65.2622 73.0342 65.1163 73.8391L64 80L62.8837 73.8391C62.7378 73.0342 62.2216 72.3655 61.5147 72.0659L59 71L61.5147 69.9341C62.2216 69.6345 62.7378 68.9658 62.8837 68.1609L64 62Z" fill="white"/>
</svg>
