<svg width="144" height="144" viewBox="0 0 144 144" fill="none" xmlns="http://www.w3.org/2000/svg">
    <circle opacity="0.14" cx="72" cy="72" r="72" fill="#EB5757" />
    <rect x="48.5" y="34.5" width="47" height="73" rx="8.5" fill="#79838E" stroke="black" />
    <path
        d="M91.5 43V98C91.5 100.485 89.4853 102.5 87 102.5H57C54.5147 102.5 52.5 100.485 52.5 98V43C52.5 40.5147 54.5147 38.5 57 38.5H59.9384C60.9206 38.5 61.7767 39.1684 62.0149 40.1213C62.3644 41.5193 63.6205 42.5 65.0616 42.5H72H78.9384C80.3795 42.5 81.6356 41.5193 81.9851 40.1213C82.2233 39.1684 83.0794 38.5 84.0616 38.5H87C89.4853 38.5 91.5 40.5147 91.5 43Z"
        fill="#FFD873" stroke="black" />
    <path
        d="M81 62.5V74H78V62.5C78 59.4624 75.5376 57 72.5 57C69.4624 57 67 59.4624 67 62.5V74H64V62.5C64 57.8056 67.8056 54 72.5 54C77.1944 54 81 57.8056 81 62.5Z"
        fill="#BBCDE6" stroke="black" />
    <rect x="61.5" y="65.5" width="22" height="19" rx="3.5" fill="#F39526" stroke="black" />
    <mask id="path-6-inside-1" fill="white">
        <path fill-rule="evenodd" clip-rule="evenodd"
            d="M74 74.5002C74.6072 74.0441 75 73.3179 75 72.5C75 71.1193 73.8807 70 72.5 70C71.1193 70 70 71.1193 70 72.5C70 73.3179 70.3928 74.0441 71 74.5002V78H74V74.5002Z" />
    </mask>
    <path fill-rule="evenodd" clip-rule="evenodd"
        d="M74 74.5002C74.6072 74.0441 75 73.3179 75 72.5C75 71.1193 73.8807 70 72.5 70C71.1193 70 70 71.1193 70 72.5C70 73.3179 70.3928 74.0441 71 74.5002V78H74V74.5002Z"
        fill="#383838" />
    <path
        d="M74 74.5002L73.3994 73.7006L73 74.0006V74.5002H74ZM71 74.5002H72V74.0006L71.6006 73.7006L71 74.5002ZM71 78H70V79H71V78ZM74 78V79H75V78H74ZM74 72.5C74 72.9901 73.766 73.4253 73.3994 73.7006L74.6006 75.2997C75.4484 74.6629 76 73.6457 76 72.5H74ZM72.5 71C73.3284 71 74 71.6716 74 72.5H76C76 70.567 74.433 69 72.5 69V71ZM71 72.5C71 71.6716 71.6716 71 72.5 71V69C70.567 69 69 70.567 69 72.5H71ZM71.6006 73.7006C71.234 73.4253 71 72.9901 71 72.5H69C69 73.6457 69.5516 74.6629 70.3994 75.2997L71.6006 73.7006ZM72 78V74.5002H70V78H72ZM74 77H71V79H74V77ZM73 74.5002V78H75V74.5002H73Z"
        fill="black" mask="url(#path-6-inside-1)" />
    <rect x="57.5" y="76.5" width="29" height="9" rx="1.5" fill="#EC5952" stroke="black" />
    <circle cx="63" cy="81" r="1.5" fill="#FFCD83" stroke="black" />
    <circle cx="69" cy="81" r="1.5" fill="#FFCD83" stroke="black" />
    <circle cx="75" cy="81" r="1.5" fill="#FFCD83" stroke="black" />
    <circle cx="81" cy="81" r="1.5" fill="#FFCD83" stroke="black" />
    <path d="M58 77H60C60 77.6636 60 78.1268 60 79C60 80.5 60 81.5 60 83C60 83.9763 60.6667 84.5 62 85H58V77Z"
        fill="#C92F27" />
    <path fill-rule="evenodd" clip-rule="evenodd"
        d="M65.5 66C65.025 66.5303 64.7362 67.2314 64.7362 68V76H62V69C62 67.3428 63.3431 66 65 66H65.5Z"
        fill="#CC8128" />
    <rect x="68" y="39" width="6" height="1" rx="0.5" fill="black" />
    <circle cx="75.5" cy="39.5" r="0.5" fill="black" />
</svg>
