<svg width="12" height="18" viewBox="0 0 12 18" fill="none" xmlns="http://www.w3.org/2000/svg">
<g clip-path="url(#clip0_1833_2680)">
<path d="M6.9865 5.80811C5.35133 5.80811 4.0212 6.78342 3.69122 7.18733V6.01499H0.789429V18H3.67421V13.7387C4.01326 14.1524 5.33432 15.1102 6.97743 15.1102C9.70912 15.1102 11.2105 13.6785 11.2105 10.4548C11.2105 7.23987 9.70912 5.80811 6.9865 5.80811ZM5.95346 12.7863C4.23098 12.7863 3.69462 12.1821 3.69462 10.4416C3.69462 8.69244 4.23098 8.09696 5.95346 8.09696C7.68501 8.09696 8.20323 8.69244 8.20323 10.4416C8.20436 12.1821 7.68501 12.7863 5.95346 12.7863Z" fill="#A0A4AE"/>
<path d="M0.789429 1.17125V4.18365L10.8283 3.2981V0L0.789429 1.17125Z" fill="#A0A4AE"/>
</g>
<defs>
<clipPath id="clip0_1833_2680">
<rect width="10.4211" height="18" fill="white" transform="translate(0.789429)"/>
</clipPath>
</defs>
</svg>
