<svg width="80" height="80" viewBox="0 0 80 80" fill="none" xmlns="http://www.w3.org/2000/svg">
<circle cx="40" cy="40" r="37" fill="#F3F5F9" stroke="#5A86DF" stroke-width="6"/>
<path d="M40 80C62.0914 80 80 62.0914 80 40C80 17.9086 62.0914 0 40 0V80Z" fill="#D9E2F5"/>
<circle cx="40" cy="40" r="37" stroke="#62B194" stroke-width="6"/>
<line x1="40" y1="25" x2="40" y2="42" stroke="#494949" stroke-width="4" stroke-linecap="round"/>
<path fill-rule="evenodd" clip-rule="evenodd" d="M40 23C41.1046 23 42 23.9497 42 25.1213L42 41.8787C42 43.0503 41.1046 44 40 44C40 42.8284 40 23 40 23Z" fill="#252020"/>
<line x1="18.6315" y1="30.9631" x2="40.6587" y2="40.5376" stroke="#494949" stroke-width="4" stroke-linecap="round"/>
<circle cx="40" cy="40" r="4" fill="#A0A4AE"/>
<circle cx="40" cy="12" r="2" fill="#D2C766"/>
<path d="M40 44C42.2091 44 44 42.2091 44 40C44 37.7909 42.2091 36 40 36V44Z" fill="#868B96"/>
<circle cx="60" cy="22" r="2" fill="#D2C766"/>
<circle cx="20" cy="22" r="2" fill="#F2E56F"/>
<circle cx="59" cy="58" r="2" fill="#D2C766"/>
<circle cx="20.5906" cy="58" r="2" fill="#F2E56F"/>
<circle cx="68" cy="40" r="2" fill="#D2C766"/>
<circle cx="12" cy="40" r="2" fill="#F2E56F"/>
<circle cx="40" cy="68" r="2" fill="#D2C766"/>
<path d="M38 68C38 69.1046 38.8954 70 40 70V66C38.8954 66 38 66.8954 38 68Z" fill="#F2E56F"/>
<path d="M38 12C38 13.1046 38.8954 14 40 14V10C38.8954 10 38 10.8954 38 12Z" fill="#F2E56F"/>
</svg>
