<svg width="49" height="48" viewBox="0 0 49 48" fill="none" xmlns="http://www.w3.org/2000/svg">
    <path fill-rule="evenodd" clip-rule="evenodd"
        d="M24.7999 12.6316C24.1023 12.6316 23.5367 13.1971 23.5367 13.8947V22.7369H14.6946C13.997 22.7369 13.4315 23.3024 13.4315 24C13.4315 24.6976 13.997 25.2632 14.6946 25.2632H23.5367V34.1053C23.5367 34.8029 24.1023 35.3684 24.7999 35.3684C25.4975 35.3684 26.063 34.8029 26.063 34.1053V25.2632H34.9051C35.6028 25.2632 36.1683 24.6976 36.1683 24C36.1683 23.3024 35.6028 22.7369 34.9051 22.7369H26.063V13.8947C26.063 13.1971 25.4975 12.6316 24.7999 12.6316Z"
        fill="#62B194" />
</svg>
