<!-- Generated by IcoMoon.io -->
<svg version="1.1" xmlns="http://www.w3.org/2000/svg" width="32" height="32" viewBox="0 0 32 32">
<title>icAttach</title>
<path d="M27.317 3.807c-2.716-2.26-6.75-1.891-9.010 0.825v0l-14.927 17.931c-1.532 1.841-1.282 4.575 0.558 6.107s4.574 1.282 6.107-0.558c0-0 0-0.001 0.001-0.001l14.293-17.227c0.376-0.434 0.488-1.038 0.294-1.578s-0.667-0.933-1.234-1.027c-0.567-0.094-1.14 0.126-1.498 0.575l-0.015 0.018-10.573 12.703c-0.411 0.494-1.144 0.561-1.638 0.15s-0.561-1.144-0.15-1.638l10.566-12.695c0.885-1.1 2.294-1.639 3.687-1.408 1.398 0.231 2.561 1.2 3.042 2.532 0.479 1.328 0.206 2.811-0.715 3.881l-14.272 17.202c-2.354 2.828-6.556 3.212-9.384 0.858s-3.212-6.555-0.858-9.384l14.927-17.931c3.082-3.703 8.582-4.207 12.286-1.125s4.207 8.582 1.125 12.286c0 0 0 0 0 0l-10.572 12.704c-0.411 0.494-1.144 0.561-1.638 0.15s-0.561-1.144-0.15-1.638l10.572-12.704c2.26-2.716 1.891-6.749-0.825-9.009z"></path>
</svg>
