<!-- Generated by IcoMoon.io -->
<svg version="1.1" xmlns="http://www.w3.org/2000/svg" width="32" height="32" viewBox="0 0 32 32">
<title>icAdd</title>
<path d="M27.733 16c0-6.48-5.253-11.733-11.733-11.733s-11.733 5.253-11.733 11.733 5.253 11.733 11.733 11.733c6.48 0 11.733-5.253 11.733-11.733zM32 16c0 8.837-7.163 16-16 16s-16-7.163-16-16c0-8.837 7.163-16 16-16s16 7.163 16 16zM18.133 11.2c0-1.178-0.955-2.133-2.133-2.133s-2.133 0.955-2.133 2.133v2.667h-2.667c-1.178 0-2.133 0.955-2.133 2.133s0.955 2.133 2.133 2.133h2.667v2.667c0 1.178 0.955 2.133 2.133 2.133s2.133-0.955 2.133-2.133v-2.667h2.667c1.178 0 2.133-0.955 2.133-2.133s-0.955-2.133-2.133-2.133h-2.667v-2.667z"></path>
</svg>
