<!-- Generated by IcoMoon.io -->
<svg version="1.1" xmlns="http://www.w3.org/2000/svg" width="32" height="32" viewBox="0 0 32 32">
<title>icBell</title>
<path d="M13.538 1.231c0 0.68 0.551 1.231 1.231 1.231h2.462c0.68 0 1.231-0.551 1.231-1.231s-0.551-1.231-1.231-1.231h-2.462c-0.68 0-1.231 0.551-1.231 1.231zM23.385 13.538c0-4.078-3.306-7.385-7.385-7.385s-7.385 3.306-7.385 7.385v4.923h14.769v-4.923zM6.154 18.462v-4.923c0-5.438 4.408-9.846 9.846-9.846s9.846 4.408 9.846 9.846v4.923c2.039 0 3.692 1.653 3.692 3.692s-1.653 3.692-3.692 3.692h-19.692c-2.039 0-3.692-1.653-3.692-3.692s1.653-3.692 3.692-3.692zM8.615 20.923h-2.462c-0.68 0-1.231 0.551-1.231 1.231s0.551 1.231 1.231 1.231h19.692c0.68 0 1.231-0.551 1.231-1.231s-0.551-1.231-1.231-1.231h-17.231zM16 32c-1.36 0-2.462-1.102-2.462-2.462s1.102-2.462 2.462-2.462c1.36 0 2.462 1.102 2.462 2.462s-1.102 2.462-2.462 2.462z"></path>
</svg>
