<!-- Generated by IcoMoon.io -->
<svg version="1.1" xmlns="http://www.w3.org/2000/svg" width="32" height="32" viewBox="0 0 32 32">
<title>icCalendar</title>
<path d="M10.665 2.66v1.779h10.672v-1.779c0-0.982 0.796-1.779 1.779-1.779s1.779 0.796 1.779 1.779v1.779h1.779c2.947 0 5.336 2.389 5.336 5.336v16.008c0 2.947-2.389 5.336-5.336 5.336h-21.344c-2.947 0-5.336-2.389-5.336-5.336v-16.008c0-2.947 2.389-5.336 5.336-5.336h1.779v-1.779c0-0.982 0.796-1.779 1.779-1.779s1.779 0.796 1.779 1.779zM23.115 9.775c-0.982 0-1.779-0.796-1.779-1.779h-10.672c0 0.982-0.796 1.779-1.779 1.779s-1.779-0.796-1.779-1.779h-1.779c-0.982 0-1.779 0.796-1.779 1.779v16.008c0 0.982 0.796 1.779 1.779 1.779h21.344c0.982 0 1.779-0.796 1.779-1.779v-16.008c0-0.982-0.796-1.779-1.779-1.779h-1.779c0 0.982-0.796 1.779-1.779 1.779zM7.107 13.332c-0.982 0-1.779 0.796-1.779 1.779s0.796 1.779 1.779 1.779h17.786c0.982 0 1.779-0.796 1.779-1.779s-0.796-1.779-1.779-1.779h-17.787z"></path>
</svg>
