<!-- Generated by IcoMoon.io -->
<svg version="1.1" xmlns="http://www.w3.org/2000/svg" width="32" height="32" viewBox="0 0 32 32">
<title>icContentCopy</title>
<path d="M8.548 4.603c0-2.542 2.061-4.603 4.603-4.603h10.74c2.905 0 5.26 2.355 5.26 5.26v16.438c0 2.542-2.061 4.603-4.603 4.603v-3.507c0.605 0 1.096-0.491 1.096-1.096v-16.438c0-0.968-0.785-1.753-1.753-1.753h-10.74c-0.605 0-1.096 0.491-1.096 1.096h-3.507z"></path>
<path d="M2.849 10.959c0-2.905 2.355-5.26 5.26-5.26h10.082c2.905 0 5.26 2.355 5.26 5.26v15.781c0 2.905-2.355 5.26-5.26 5.26h-10.082c-2.905 0-5.26-2.355-5.26-5.26v-15.781zM8.11 9.205c-0.968 0-1.753 0.785-1.753 1.753v15.781c0 0.968 0.785 1.753 1.753 1.753h10.082c0.968 0 1.753-0.785 1.753-1.753v-15.781c0-0.968-0.785-1.753-1.753-1.753h-10.082z"></path>
</svg>
