<!-- Generated by IcoMoon.io -->
<svg version="1.1" xmlns="http://www.w3.org/2000/svg" width="32" height="32" viewBox="0 0 32 32">
<title>icClose</title>
<path d="M31.331 0.669c0.893 0.893 0.893 2.34 0 3.232l-12.098 12.098 12.098 12.098c0.893 0.893 0.893 2.34 0 3.233s-2.34 0.893-3.233 0l-12.098-12.098-12.098 12.098c-0.893 0.893-2.34 0.893-3.232 0s-0.893-2.34 0-3.233l12.098-12.098-12.098-12.098c-0.893-0.893-0.893-2.34 0-3.232s2.34-0.893 3.232 0l12.098 12.098 12.098-12.098c0.893-0.893 2.34-0.893 3.233 0z"></path>
</svg>
