<!-- Generated by IcoMoon.io -->
<svg version="1.1" xmlns="http://www.w3.org/2000/svg" width="32" height="32" viewBox="0 0 32 32">
<title>ic_cancle</title>
<path d="M19.143 2.571v17.714h-2.286v2.572h-1.714v-2.572h-2.286v-17.714h2.286v-2.571h1.714v2.571h2.286zM17.428 4.286h-2.857v14.286h2.857v-14.286zM11.143 9.429v17.714h-2.286v2.572h-1.714v-2.572h-2.286v-17.714h2.286v-2.571h1.714v2.571h2.286zM9.429 11.143h-2.857v14.286h2.857v-14.286zM27.143 12.572v-0.857h-2.286v-2.571h-1.714v2.571h-2.286v17.714h2.286v2.571h1.714v-2.571h2.286v-16.857zM24 13.429h1.429v14.286h-2.857v-14.286h1.429z"></path>
</svg>
