<!-- Generated by IcoMoon.io -->
<svg version="1.1" xmlns="http://www.w3.org/2000/svg" width="32" height="32" viewBox="0 0 32 32">
<title>icDelete</title>
<path d="M5.728 21.244l3.253 3.257c0.237 0.237 0.342 0.342 0.479 0.477 0.17 0.17 0.275 0.273 0.383 0.375l0.021 0.020c0.018 0.017 0.034 0.034 0.108 0.113l0.004 0.004c0.031 0.033 0.056 0.058 0.074 0.076 0.296 0.297 0.638 0.546 1.007 0.734 0.38 0.191 0.787 0.326 1.199 0.397 0.464 0.076 0.933 0.118 1.412 0.124 0.237 0.005 0.466 0.008 0.689 0.009h11.082c0.202 0 0.406-0.003 0.703-0.009 0.476-0.006 0.951-0.048 1.413-0.123 0.423-0.073 0.833-0.209 1.216-0.402 0.378-0.191 0.724-0.442 1.023-0.741 0.3-0.302 0.552-0.648 0.743-1.021 0.193-0.385 0.329-0.797 0.4-1.214 0.077-0.47 0.118-0.944 0.124-1.437 0.004-0.142 0.006-0.258 0.009-0.521l0.002-0.174v-9.592l0-0.833-0.002-0.143c-0.002-0.165-0.003-0.236-0.004-0.326-0.001-0.081-0.003-0.155-0.006-0.242-0.006-0.471-0.046-0.94-0.121-1.397-0.072-0.42-0.206-0.827-0.394-1.201-0.192-0.375-0.441-0.717-0.739-1.017-0.295-0.297-0.636-0.545-1.008-0.734-0.379-0.192-0.784-0.326-1.193-0.397-0.466-0.076-0.937-0.117-1.419-0.123-0.252-0.006-0.473-0.009-0.693-0.009-0.23-0.002-0.415-0.003-0.834-0.003h-9.461c-0.416 0-0.603 0-0.843 0.003-0.21 0-0.431 0.003-0.697 0.009-0.471 0.006-0.941 0.047-1.396 0.121-0.42 0.073-0.826 0.207-1.203 0.397-0.373 0.19-0.714 0.438-1.015 0.742l-0.066 0.069c-0.083 0.088-0.101 0.107-0.131 0.135-0.136 0.129-0.264 0.253-0.396 0.387-0.138 0.135-0.279 0.275-0.471 0.468l-3.25 3.254c-0.046 0.043-0.062 0.058-0.076 0.069-0.063 0.061-0.128 0.124-0.194 0.189-0.042 0.042-0.081 0.080-0.147 0.145-0.076 0.075-0.104 0.102-0.135 0.134l-2.909 2.912c-0.059 0.061-0.12 0.124-0.197 0.201l-0.045 0.045-0.064 0.064c-0.048 0.049-0.112 0.115-0.222 0.229-0.206 0.204-0.4 0.418-0.582 0.643l-0.057 0.064c-0.048 0.050-0.089 0.106-0.12 0.168-0.071 0.249-0.071 0.513-0.001 0.762 0.031 0.061 0.071 0.116 0.119 0.165l0.062 0.070c0.181 0.225 0.375 0.439 0.603 0.666 0.060 0.064 0.124 0.129 0.213 0.219 0.071 0.071 0.104 0.104 0.144 0.144 0.054 0.055 0.102 0.103 0.136 0.139l2.92 2.925c0.138 0.138 0.198 0.198 0.276 0.273 0.108 0.107 0.151 0.149 0.201 0.197 0.007 0.006 0.072 0.065 0.072 0.065zM14.967 20.926c-0.331-0.331-0.331-0.868 0-1.199l3.792-3.792-3.739-3.739c-0.331-0.331-0.331-0.868 0-1.199s0.868-0.331 1.199 0l3.739 3.739 3.751-3.751c0.331-0.331 0.868-0.331 1.199 0s0.331 0.868 0 1.199l-3.751 3.751 3.804 3.804c0.331 0.331 0.331 0.868 0 1.199s-0.868 0.331-1.199 0l-3.804-3.804-3.792 3.792c-0.331 0.331-0.868 0.331-1.199 0z"></path>
</svg>
