<!-- Generated by IcoMoon.io -->
<svg version="1.1" xmlns="http://www.w3.org/2000/svg" width="32" height="32" viewBox="0 0 32 32">
<title>icDoc</title>
<path d="M4 2.667c0-1.473 1.194-2.667 2.667-2.667h13.333c1.473 0 2.667 1.194 2.667 2.667v2.667c0 0.736 0.597 1.333 1.333 1.333h1.333c1.473 0 2.667 1.194 2.667 2.667v20c0 1.473-1.194 2.667-2.667 2.667h-18.667c-1.473 0-2.667-1.194-2.667-2.667v-26.666zM16 2.667h-9.333v26.666h18.667v-20h-1.333c-2.209 0-4-1.791-4-4v-2.667h-4zM9.333 13.333c0-0.736 0.597-1.333 1.333-1.333h10.667c0.736 0 1.333 0.597 1.333 1.333s-0.597 1.333-1.333 1.333h-10.667c-0.736 0-1.333-0.597-1.333-1.333zM10.667 17.333c-0.736 0-1.333 0.597-1.333 1.333s0.597 1.333 1.333 1.333h10.667c0.736 0 1.333-0.597 1.333-1.333s-0.597-1.333-1.333-1.333h-10.667z"></path>
</svg>
