<!-- Generated by IcoMoon.io -->
<svg version="1.1" xmlns="http://www.w3.org/2000/svg" width="32" height="32" viewBox="0 0 32 32">
<title>icDiplomat</title>
<path d="M8.889 2.667c0-0.982 0.796-1.778 1.778-1.778h10.667c0.982 0 1.778 0.796 1.778 1.778s-0.796 1.778-1.778 1.778h-10.667c-0.982 0-1.778-0.796-1.778-1.778zM0 11.556c0-2.946 2.388-5.333 5.333-5.333h21.333c2.946 0 5.333 2.388 5.333 5.333v14.222c0 2.946-2.388 5.333-5.333 5.333h-21.333c-2.946 0-5.333-2.388-5.333-5.333v-14.222zM5.333 9.778c-0.982 0-1.778 0.796-1.778 1.778v14.222c0 0.982 0.796 1.778 1.778 1.778h21.333c0.982 0 1.778-0.796 1.778-1.778v-14.222c0-0.982-0.796-1.778-1.778-1.778h-21.333zM8.889 16.889c-0.982 0-1.778 0.796-1.778 1.778s0.796 1.778 1.778 1.778c0.982 0 1.778-0.796 1.778-1.778s-0.796-1.778-1.778-1.778zM21.333 18.667c0-0.982 0.796-1.778 1.778-1.778s1.778 0.796 1.778 1.778c0 0.982-0.796 1.778-1.778 1.778s-1.778-0.796-1.778-1.778zM14.222 16.889c-0.982 0-1.778 0.796-1.778 1.778s0.796 1.778 1.778 1.778h3.556c0.982 0 1.778-0.796 1.778-1.778s-0.796-1.778-1.778-1.778h-3.556z"></path>
</svg>
