<!-- Generated by IcoMoon.io -->
<svg version="1.1" xmlns="http://www.w3.org/2000/svg" width="32" height="32" viewBox="0 0 32 32">
<title>icDocArrowDown</title>
<path d="M8 0c-2.41 0-4.364 1.954-4.364 4.364v16c0 2.41 1.954 4.364 4.364 4.364h2.909c0.803 0 1.455-0.651 1.455-1.455s-0.651-1.455-1.455-1.455h-2.909c-0.803 0-1.455-0.651-1.455-1.455v-16c0-0.803 0.651-1.455 1.455-1.455h11.636c0.803 0 1.455 0.651 1.455 1.455v8c0 0.803 0.651 1.455 1.455 1.455s1.455-0.651 1.455-1.455v-8c0-2.41-1.954-4.364-4.364-4.364h-11.636zM9.455 5.818c-0.803 0-1.455 0.651-1.455 1.455s0.651 1.455 1.455 1.455h8.727c0.803 0 1.455-0.651 1.455-1.455s-0.651-1.455-1.455-1.455h-8.727zM8 11.636c0-0.803 0.651-1.455 1.455-1.455h8.727c0.803 0 1.455 0.651 1.455 1.455s-0.651 1.455-1.455 1.455h-8.727c-0.803 0-1.455-0.651-1.455-1.455zM18.182 15.273c-0.803 0-1.455 0.651-1.455 1.455v5.091h-1.455c-0.559 0-1.069 0.32-1.311 0.824s-0.174 1.102 0.175 1.539l5.818 7.273c0.276 0.345 0.694 0.546 1.136 0.546s0.86-0.201 1.136-0.546l5.818-7.273c0.349-0.437 0.417-1.035 0.175-1.539s-0.752-0.824-1.311-0.824h-1.455v-5.091c0-0.803-0.651-1.455-1.455-1.455h-5.818zM21.091 28.217l-2.792-3.49h1.337v-6.545h2.909v6.545h1.337l-2.792 3.49z"></path>
</svg>
