<!-- Generated by IcoMoon.io -->
<svg version="1.1" xmlns="http://www.w3.org/2000/svg" width="32" height="32" viewBox="0 0 32 32">
<title>icFingerprint</title>
<path d="M23.047 1.626c-6.978-3.403-15.39-1.327-19.984 4.931-0.185 0.251-0.13 0.605 0.121 0.789s0.605 0.13 0.789-0.121c4.271-5.818 12.092-7.748 18.579-4.584 0.28 0.137 0.618 0.020 0.755-0.26s0.020-0.618-0.26-0.755zM2.758 9.211c0.142-0.278 0.031-0.618-0.247-0.76s-0.618-0.031-0.76 0.247c-1.631 3.199-2.142 6.852-1.45 10.375 0.001 0.028 0.004 0.057 0.009 0.086 0.046 0.253 0.108 0.502 0.187 0.746 0.096 0.297 0.414 0.46 0.711 0.365s0.46-0.414 0.365-0.711c-0.058-0.181-0.106-0.366-0.141-0.553-0.001-0.033-0.004-0.067-0.011-0.1-0.657-3.29-0.186-6.705 1.338-9.694zM24.399 3.031c0.179-0.256 0.531-0.318 0.786-0.139 3.358 2.35 5.684 5.901 6.495 9.917 0.003 0.011 0.005 0.022 0.008 0.033 0.23 1.149 0.332 2.32 0.305 3.491-0.007 0.312-0.266 0.559-0.577 0.552s-0.559-0.266-0.552-0.577c0.024-1.078-0.069-2.155-0.277-3.213-0.003-0.011-0.005-0.021-0.007-0.032-0.748-3.745-2.913-7.057-6.042-9.246-0.256-0.179-0.318-0.531-0.139-0.786zM16.575 15.917c-0.061-0.306-0.358-0.505-0.664-0.444s-0.505 0.358-0.444 0.664c1.021 5.147-0.409 10.476-3.87 14.421-0.206 0.234-0.182 0.591 0.052 0.797s0.591 0.182 0.797-0.052c3.692-4.208 5.218-9.894 4.129-15.385zM13.574 24.51c0.291 0.113 0.435 0.44 0.322 0.731-0.782 2.013-1.971 3.842-3.494 5.372-0.22 0.221-0.578 0.222-0.799 0.002s-0.222-0.578-0.002-0.799c1.413-1.42 2.517-3.117 3.242-4.984 0.113-0.291 0.44-0.435 0.731-0.322zM15.489 13.54c1.351-0.27 2.666 0.606 2.937 1.957 1.172 5.687-0.223 11.602-3.814 16.164-0.193 0.245-0.548 0.287-0.793 0.095s-0.287-0.548-0.095-0.793c3.386-4.302 4.701-9.878 3.595-15.239l-0.001-0.003c-0.148-0.74-0.868-1.22-1.609-1.072s-1.22 0.868-1.072 1.609l0 0.002c0.422 2.147 0.407 4.357-0.044 6.498-0.064 0.305-0.364 0.5-0.669 0.436s-0.5-0.364-0.436-0.669c0.42-1.992 0.434-4.048 0.041-6.046-0.27-1.352 0.607-2.666 1.959-2.937zM12.284 17.067c0.309-0.041 0.593 0.176 0.635 0.485 0.607 4.526-1.010 9.067-4.341 12.19-0.227 0.213-0.585 0.202-0.798-0.026s-0.202-0.585 0.026-0.798c3.065-2.874 4.553-7.052 3.994-11.216-0.041-0.309 0.175-0.593 0.485-0.635zM15.998 11.557c-2.102-0.012-3.923 1.454-4.362 3.51-0.065 0.305 0.13 0.605 0.435 0.67s0.605-0.13 0.67-0.435c0.084-0.393 0.235-0.756 0.44-1.080v0c0.596-0.94 1.645-1.542 2.811-1.536v0c1.567 0.009 2.912 1.116 3.221 2.652v0l0.001 0.004c0.278 1.332 0.416 2.689 0.411 4.050-0.001 0.312 0.251 0.566 0.563 0.567s0.566-0.251 0.567-0.563c0.005-1.439-0.14-2.875-0.434-4.283-0.416-2.059-2.221-3.544-4.322-3.556v0zM20.125 21.276c0.31 0.034 0.534 0.313 0.499 0.623-0.391 3.539-1.653 6.926-3.675 9.857-0.177 0.257-0.529 0.321-0.786 0.144s-0.321-0.529-0.144-0.785c1.916-2.777 3.112-5.986 3.482-9.34 0.034-0.31 0.313-0.534 0.623-0.499zM16.479 9.654c-0.578-0.037-1.159-0.006-1.73 0.091l-0.008 0.001-0.008 0.002c-1.655 0.33-3.11 1.304-4.046 2.708s-1.276 3.122-0.944 4.776l0 0.001c0.787 3.905-0.591 7.93-3.606 10.534-0.236 0.204-0.262 0.56-0.058 0.797s0.56 0.262 0.796 0.058c3.323-2.87 4.842-7.307 3.975-11.611-0.273-1.36 0.007-2.773 0.776-3.928 0.768-1.152 1.962-1.952 3.32-2.225 0.483-0.081 0.973-0.107 1.461-0.076 0.311 0.020 0.58-0.216 0.599-0.528s-0.216-0.58-0.528-0.599zM18.306 10.66c0.151-0.273 0.494-0.372 0.767-0.222 1.631 0.899 2.781 2.473 3.144 4.299 1.157 5.719 0.159 11.663-2.804 16.69-0.158 0.269-0.504 0.358-0.773 0.2s-0.358-0.505-0.2-0.773c2.821-4.787 3.772-10.448 2.67-15.893l-0-0.002c-0.298-1.5-1.242-2.792-2.581-3.531-0.273-0.151-0.372-0.494-0.222-0.767zM8.508 23.132c0.111-0.291-0.035-0.618-0.327-0.729s-0.618 0.035-0.729 0.327c-0.561 1.473-1.504 2.771-2.732 3.761-0.243 0.196-0.281 0.551-0.085 0.794s0.551 0.281 0.794 0.085c1.383-1.115 2.446-2.578 3.078-4.238zM14.371 7.935c4.456-0.891 8.8 1.971 9.74 6.417l0.001 0.005c0.615 3.049 0.673 6.184 0.172 9.254-0.050 0.308-0.34 0.517-0.648 0.466s-0.517-0.34-0.466-0.648c0.479-2.935 0.423-5.932-0.164-8.846-0.813-3.839-4.564-6.31-8.413-5.54-3.847 0.769-6.359 4.49-5.636 8.345 0.221 1.028 0.266 2.087 0.133 3.13-0.040 0.309-0.322 0.528-0.632 0.489s-0.528-0.322-0.489-0.632c0.117-0.919 0.077-1.851-0.118-2.756l-0.002-0.007-0.001-0.007c-0.842-4.466 2.067-8.778 6.523-9.669zM23.766 26.064c0.080-0.302-0.101-0.61-0.402-0.69s-0.61 0.1-0.69 0.402c-0.4 1.517-0.951 2.991-1.644 4.399-0.138 0.28-0.023 0.618 0.257 0.756s0.618 0.023 0.756-0.257c0.726-1.476 1.304-3.020 1.723-4.61zM23.472 9.848c0.25-0.186 0.604-0.134 0.79 0.116 0.882 1.188 1.479 2.563 1.743 4.018 1.047 5.113 0.615 10.419-1.246 15.296-0.111 0.291-0.438 0.437-0.729 0.326s-0.437-0.438-0.326-0.729c1.785-4.678 2.199-9.768 1.194-14.673l-0.001-0.006-0.001-0.007c-0.233-1.287-0.76-2.503-1.54-3.552-0.186-0.25-0.134-0.604 0.116-0.79zM14.197 7.108c2.677-0.54 5.455 0.143 7.576 1.864 0.242 0.197 0.598 0.159 0.794-0.083s0.16-0.598-0.083-0.794c-2.382-1.933-5.502-2.701-8.509-2.094-0.768 0.15-1.517 0.389-2.229 0.714-0.284 0.129-0.409 0.464-0.28 0.748s0.464 0.409 0.748 0.28c0.633-0.288 1.297-0.501 1.979-0.633h0l0.004-0.001zM10.355 8.135c0.197 0.242 0.16 0.598-0.082 0.794-2.617 2.127-3.839 5.531-3.171 8.837 0.619 3.046-0.513 6.183-2.936 8.13-0.243 0.195-0.599 0.157-0.794-0.086s-0.157-0.599 0.086-0.794c2.093-1.683 3.072-4.393 2.537-7.025l-0-0.001c-0.751-3.718 0.622-7.546 3.565-9.938 0.242-0.197 0.598-0.16 0.794 0.082zM4.966 16.421c-0.015-0.311-0.279-0.552-0.591-0.537s-0.552 0.279-0.537 0.591c0.030 0.633 0.104 1.264 0.22 1.888h-0l0.002 0.008c0.376 1.865-0.294 3.787-1.748 5.014-0.238 0.201-0.268 0.557-0.067 0.796s0.557 0.268 0.796 0.067c1.768-1.492 2.583-3.828 2.127-6.096-0.107-0.571-0.174-1.149-0.202-1.73zM15.81 3.869c5.845-0.086 10.924 4.001 12.089 9.73l0.002 0.010 0.002 0.010 0.252 1.516c0.051 0.308-0.157 0.599-0.464 0.65s-0.599-0.157-0.65-0.464l-0.251-1.506c-1.061-5.191-5.665-8.894-10.964-8.816-5.302 0.078-9.797 3.921-10.7 9.146-0.053 0.307-0.345 0.513-0.653 0.46s-0.513-0.345-0.46-0.653c0.995-5.761 5.951-9.996 11.796-10.083zM28.457 17.636c-0.018-0.311-0.286-0.549-0.597-0.53s-0.549 0.286-0.53 0.597c0.18 3.043-0.127 6.095-0.908 9.041-0.080 0.301 0.1 0.611 0.401 0.691s0.611-0.1 0.691-0.401c0.812-3.062 1.131-6.235 0.944-9.397zM13.21 2.214c1.53-0.342 3.11-0.401 4.661-0.175 0.309 0.045 0.522 0.332 0.477 0.64s-0.332 0.522-0.64 0.477c-1.417-0.207-2.86-0.152-4.257 0.161l-0.006 0.001-0.006 0.001c-3.367 0.676-6.327 2.663-8.226 5.524s-2.582 6.36-1.899 9.725c0.289 1.406-0.126 2.864-1.111 3.908-0.214 0.227-0.571 0.237-0.798 0.023s-0.237-0.572-0.023-0.798c0.733-0.776 1.041-1.861 0.826-2.906l-0-0.001c-0.744-3.659-0.001-7.464 2.064-10.575 2.064-3.109 5.28-5.27 8.938-6.006zM20.277 2.607c-0.297-0.095-0.615 0.069-0.71 0.366s0.069 0.615 0.367 0.71c4.472 1.425 7.821 5.16 8.753 9.76l0 0.001c0.657 3.208 0.783 6.503 0.372 9.752-0.039 0.309 0.18 0.592 0.489 0.631s0.592-0.18 0.631-0.489c0.427-3.372 0.296-6.791-0.386-10.12-1.013-5.001-4.655-9.062-9.517-10.611z"></path>
</svg>
