<!-- Generated by IcoMoon.io -->
<svg version="1.1" xmlns="http://www.w3.org/2000/svg" width="32" height="32" viewBox="0 0 32 32">
<title>icFaceId</title>
<path d="M1.022 9.835c0.421 0 0.773-0.356 0.773-0.784v-3.813c0-2.031 1.616-3.67 3.617-3.67h3.512c0.421 0 0.773-0.356 0.773-0.784s-0.351-0.784-0.773-0.784h-3.512c-2.845 0-5.163 2.352-5.163 5.238v3.813c0 0.428 0.351 0.784 0.773 0.784zM23.112 0h3.512c2.845 0 5.163 2.352 5.163 5.238v3.813c0 0.428-0.351 0.784-0.773 0.784s-0.773-0.356-0.773-0.784v-3.813c0-2.031-1.616-3.67-3.617-3.67h-3.512c-0.421 0-0.773-0.356-0.773-0.784s0.351-0.784 0.773-0.784zM30.242 23.483c0-0.428 0.351-0.784 0.773-0.784s0.773 0.356 0.773 0.784v3.278c0 2.886-2.318 5.238-5.163 5.238h-3.512c-0.421 0-0.773-0.356-0.773-0.784s0.351-0.784 0.773-0.784h3.512c2.002 0 3.617-1.639 3.617-3.67v-3.278zM22.655 15.608c0.527 0 0.948-0.428 0.983-0.962v-2.566c0-0.57-0.421-0.998-0.983-0.998s-0.983 0.463-0.983 0.998v2.53c0 0.57 0.457 0.998 0.983 0.998zM16.158 24.517c1.721 0 3.407-0.713 4.671-1.995 0.316-0.321 0.808-0.321 1.089 0 0.316 0.321 0.316 0.82 0 1.105-1.545 1.604-3.617 2.459-5.76 2.459h-0.281c-2.142 0-4.179-0.855-5.76-2.459-0.316-0.321-0.316-0.82 0-1.105 0.316-0.321 0.808-0.321 1.089 0 1.264 1.283 2.915 1.995 4.671 1.995h0.281zM14.086 20.347h0.176c1.58 0 2.845-1.283 2.845-2.851v-5.417c0-0.428-0.351-0.784-0.773-0.784s-0.773 0.356-0.773 0.784v5.381c0 0.748-0.597 1.318-1.299 1.318h-0.176c-0.421 0-0.773 0.356-0.773 0.784s0.351 0.784 0.773 0.784zM7.905 12.080c0-0.535 0.421-0.998 0.983-0.998 0.527 0 0.983 0.428 0.983 0.998v2.566c0 0.535-0.421 0.962-0.983 0.962-0.527 0-0.983-0.428-0.983-0.998v-2.53zM5.376 30.432h3.512c0.421 0 0.773 0.356 0.773 0.784s-0.316 0.784-0.773 0.784h-3.512c-2.845 0-5.163-2.352-5.163-5.238v-3.278c0-0.428 0.351-0.784 0.773-0.784s0.773 0.356 0.773 0.784v3.278c0 2.031 1.616 3.67 3.617 3.67z"></path>
</svg>
