<!-- Generated by IcoMoon.io -->
<svg version="1.1" xmlns="http://www.w3.org/2000/svg" width="32" height="32" viewBox="0 0 32 32">
<title>icFormatListBulleted</title>
<path d="M2.271 3.086c-1.259 0-2.279 1.020-2.279 2.279s1.020 2.279 2.279 2.279c1.259 0 2.279-1.020 2.279-2.279s-1.020-2.279-2.279-2.279zM2.271 13.72c-1.259 0-2.279 1.020-2.279 2.279s1.020 2.279 2.279 2.279c1.259 0 2.279-1.020 2.279-2.279s-1.020-2.279-2.279-2.279zM-0.007 26.635c0-1.259 1.020-2.279 2.279-2.279s2.279 1.020 2.279 2.279c0 1.259-1.020 2.279-2.279 2.279s-2.279-1.020-2.279-2.279zM11.387 3.086c-1.259 0-2.279 1.020-2.279 2.279s1.020 2.279 2.279 2.279h18.342c1.259 0 2.279-1.020 2.279-2.279s-1.020-2.279-2.279-2.279h-18.342zM9.108 15.999c0-1.259 1.020-2.279 2.279-2.279h18.342c1.259 0 2.279 1.020 2.279 2.279s-1.020 2.279-2.279 2.279h-18.342c-1.259 0-2.279-1.020-2.279-2.279zM11.387 24.356c-1.259 0-2.279 1.020-2.279 2.279s1.020 2.279 2.279 2.279h18.342c1.259 0 2.279-1.020 2.279-2.279s-1.020-2.279-2.279-2.279h-18.342z"></path>
</svg>
