<!-- Generated by IcoMoon.io -->
<svg version="1.1" xmlns="http://www.w3.org/2000/svg" width="32" height="32" viewBox="0 0 32 32">
<title>icKey</title>
<path d="M2.909 16c0-2.41 1.954-4.364 4.364-4.364s4.364 1.954 4.364 4.364c0 2.41-1.954 4.364-4.364 4.364s-4.364-1.954-4.364-4.364zM7.273 8.727c-4.017 0-7.273 3.256-7.273 7.273s3.256 7.273 7.273 7.273c3.519 0 6.453-2.499 7.127-5.818h14.691v4.364c0 0.803 0.651 1.455 1.455 1.455s1.455-0.651 1.455-1.455v-4.364c0-1.607-1.302-2.909-2.909-2.909h-14.691c-0.674-3.32-3.609-5.818-7.127-5.818z"></path>
<path d="M23.273 20.364c0-0.803 0.651-1.455 1.455-1.455s1.455 0.651 1.455 1.455v1.455c0 0.803-0.651 1.455-1.455 1.455s-1.455-0.651-1.455-1.455v-1.455z"></path>
</svg>
