<!-- Generated by IcoMoon.io -->
<svg version="1.1" xmlns="http://www.w3.org/2000/svg" width="32" height="32" viewBox="0 0 32 32">
<title>ic_lock</title>
<path d="M6.992 8.607v4.183c-1.29 0.497-2.205 1.748-2.205 3.214v12.555c0 1.901 1.541 3.443 3.443 3.443h15.542c1.901 0 3.443-1.541 3.443-3.443v-12.555c0-1.464-0.914-2.715-2.203-3.212v-4.184c0-4.753-3.853-8.607-8.607-8.607h-0.806c-4.753 0-8.607 3.853-8.607 8.607zM21.568 8.607v3.954h-11.134v-3.954c0-2.852 2.312-5.164 5.164-5.164h0.806c2.852 0 5.164 2.312 5.164 5.164zM18.753 19.712c0 0.919-0.45 1.732-1.141 2.233l0.534 4.627c0.047 0.409-0.272 0.768-0.684 0.768h-2.925c-0.412 0-0.732-0.36-0.684-0.769l0.544-4.618c-0.698-0.5-1.152-1.317-1.152-2.241 0-1.521 1.233-2.754 2.754-2.754s2.754 1.233 2.754 2.754z"></path>
</svg>
