<!-- Generated by IcoMoon.io -->
<svg version="1.1" xmlns="http://www.w3.org/2000/svg" width="32" height="32" viewBox="0 0 32 32">
<title>icMedalOutline</title>
<path d="M16 2.771c-3.826 0-6.928 3.102-6.928 6.928s3.102 6.928 6.928 6.928c3.826 0 6.928-3.102 6.928-6.928s-3.102-6.928-6.928-6.928zM6.3 9.7c0-5.357 4.343-9.7 9.7-9.7s9.7 4.343 9.7 9.7c0 5.357-4.343 9.7-9.7 9.7s-9.7-4.343-9.7-9.7z"></path>
<path d="M21.843 31.583c-0.999 0.461-2.374 0.403-3.333-0.634-0.703-0.76-1.391-1.46-1.963-1.963-0.25-0.22-0.456-0.383-0.616-0.493-0.003 0.001-0.005 0.003-0.008 0.004-0.235 0.131-0.548 0.342-0.93 0.629-0.757 0.57-1.66 1.35-2.534 2.145-1.912 1.738-5.184 0.17-4.732-2.541l2.055-12.328 2.734 0.456-2.055 12.328c-0 0.001-0 0.002-0.001 0.003 0.006 0.007 0.018 0.017 0.037 0.027 0.034 0.018 0.062 0.020 0.074 0.019 0.004-0 0.005-0.001 0.005-0.001v0c0-0 0.002-0.001 0.004-0.003s0.008-0.005 0.014-0.011c0.895-0.814 1.872-1.661 2.73-2.308 0.427-0.322 0.855-0.617 1.249-0.836 0.197-0.11 0.412-0.215 0.632-0.295 0.205-0.073 0.507-0.159 0.851-0.144 0.556 0.024 1.037 0.307 1.308 0.481 0.33 0.213 0.675 0.491 1.012 0.787 0.678 0.597 1.441 1.377 2.167 2.162 0.007 0.008 0.012 0.012 0.015 0.014s0.004 0.003 0.005 0.003v0c0.001 0 0.003 0.002 0.011 0.003 0.018 0.003 0.059 0.001 0.106-0.021 0.030-0.014 0.047-0.029 0.056-0.038-0-0.001-0-0.001-0-0.002l-1.949-12.18 2.736-0.438 1.949 12.18c0.228 1.427-0.625 2.53-1.631 2.994zM16.157 28.384c0 0-0.003 0.001-0.009 0.003 0.006-0.002 0.009-0.003 0.009-0.003zM15.727 28.367c-0.003-0.001-0.005-0.002-0.005-0.002s0.002 0.001 0.005 0.002z"></path>
<path d="M18.771 9.7c0 1.531-1.241 2.771-2.771 2.771s-2.771-1.241-2.771-2.771c0-1.531 1.241-2.771 2.771-2.771s2.771 1.241 2.771 2.771z"></path>
</svg>
