<!-- Generated by IcoMoon.io -->
<svg version="1.1" xmlns="http://www.w3.org/2000/svg" width="32" height="32" viewBox="0 0 32 32">
<title>icMoneyOut</title>
<path d="M3.759 2.817c-2.080 0-3.767 1.686-3.767 3.767v11.77c0 2.080 1.686 3.767 3.767 3.767h5.179c1.040 0 1.883-0.843 1.883-1.883s-0.843-1.883-1.883-1.883h-5.179v-11.771h24.483v11.771h-5.179c-1.040 0-1.883 0.843-1.883 1.883s0.843 1.883 1.883 1.883h5.179c2.080 0 3.767-1.686 3.767-3.767v-11.771c0-2.080-1.686-3.767-3.767-3.767h-24.483zM17.883 16c0-1.040-0.843-1.883-1.883-1.883s-1.883 0.843-1.883 1.883v9.578l-1.023-1.023c-0.736-0.735-1.928-0.735-2.663 0s-0.735 1.928 0 2.663l4.238 4.237c0.735 0.735 1.928 0.735 2.663 0l4.237-4.237c0.735-0.735 0.735-1.928-0-2.663s-1.928-0.735-2.663 0l-1.022 1.022v-9.578z"></path>
</svg>
