<!-- Generated by IcoMoon.io -->
<svg version="1.1" xmlns="http://www.w3.org/2000/svg" width="32" height="32" viewBox="0 0 32 32">
<title>icNews</title>
<path d="M5.333 3.556c-0.982 0-1.778 0.796-1.778 1.778v21.333c0 0.979 0.797 1.778 1.782 1.778h15.996c0.982 0 1.778 0.796 1.778 1.778s-0.796 1.778-1.778 1.778h-15.996c-2.943 0-5.338-2.385-5.338-5.333v-21.333c0-2.946 2.388-5.333 5.333-5.333h16c2.946 0 5.333 2.388 5.333 5.333v3.556h2.665c2.944 0 5.335 2.387 5.335 5.333v12c0 3.191-2.587 5.778-5.778 5.778s-5.778-2.587-5.778-5.778v-20.889c0-0.982-0.796-1.778-1.778-1.778h-16zM26.667 12.444v13.778c0 1.227 0.995 2.222 2.222 2.222s2.222-0.995 2.222-2.222v-12c0-0.981-0.797-1.778-1.78-1.778h-2.665zM12.444 8.889c0-0.982 0.796-1.778 1.778-1.778h5.333c0.982 0 1.778 0.796 1.778 1.778s-0.796 1.778-1.778 1.778h-5.333c-0.982 0-1.778-0.796-1.778-1.778zM5.333 19.556c0-0.982 0.796-1.778 1.778-1.778h12.444c0.982 0 1.778 0.796 1.778 1.778s-0.796 1.778-1.778 1.778h-12.444c-0.982 0-1.778-0.796-1.778-1.778zM14.222 12.444c-0.982 0-1.778 0.796-1.778 1.778s0.796 1.778 1.778 1.778h5.333c0.982 0 1.778-0.796 1.778-1.778s-0.796-1.778-1.778-1.778h-5.333zM7.111 7.111c-0.982 0-1.778 0.796-1.778 1.778v5.333c0 0.982 0.796 1.778 1.778 1.778h1.778c0.982 0 1.778-0.796 1.778-1.778v-5.333c0-0.982-0.796-1.778-1.778-1.778h-1.778z"></path>
</svg>
