<svg width="39" height="38" viewBox="0 0 39 38" fill="none" xmlns="http://www.w3.org/2000/svg">
<path fill-rule="evenodd" clip-rule="evenodd" d="M12.5 12C11.9477 12 11.5 12.4477 11.5 13V25C11.5 25.5507 11.9486 26 12.5024 26H12.5229H12.5433H12.5637H12.584H12.6043H12.6245H12.6446H12.6647H12.6847H12.7047H12.7246H12.7445H12.7643H12.784H12.8037H12.8234H12.843H12.8625H12.882H12.9014H12.9208H12.9401H12.9594H12.9787H12.9978H13.017H13.036H13.0551H13.074H13.093H13.1118H13.1307H13.1494H13.1682H13.1869H13.2055H13.2241H13.2426H13.2611H13.2795H13.2979H13.3163H13.3346H13.3528H13.3711H13.3892H13.4073H13.4254H13.4435H13.4614H13.4794H13.4973H13.5151H13.533H13.5507H13.5684H13.5861H13.6038H13.6214H13.6389H13.6565H13.6739H13.6914H13.7088H13.7261H13.7434H13.7607H13.7779H13.7951H13.8123H13.8294H13.8465H13.8635H13.8805H13.8975H13.9144H13.9313H13.9482H13.965H13.9818H13.9985H14.0152H14.0319H14.0485H14.0651H14.0817H14.0983H14.1148H14.1312H14.1477H14.1641H14.1804H14.1968H14.2131H14.2293H14.2456H14.2618H14.278H14.2941H14.3102H14.3263H14.3424H14.3584H14.3744H14.3903H14.4063H14.4222H14.4381H14.4539H14.4697H14.4855H14.5013H14.517H14.5327H14.5484H14.5641H14.5797H14.5953H14.6109H14.6264H14.642H14.6575H14.6729H14.6884H14.7038H14.7192H14.7346H14.75H14.7653H14.7806H14.7959H14.8112H14.8264H14.8417H14.8569H14.8721H14.8872H14.9024H14.9175H14.9326H14.9477H14.9627H14.9778H14.9928H15.0078H15.0228H15.0378H15.0527H15.0676H15.0826H15.0975H15.1123H15.1272H15.1421H15.1569H15.1717H15.1865H15.2013H15.2161H15.2308H15.2456H15.2603H15.275H15.2897H15.3044H15.3191H15.3338H15.3484H15.363H15.3777H15.3923H15.4069H15.4215H15.4361H15.4506H15.4652H15.4797H15.4943H15.5088H15.5233H15.5379H15.5524H15.5669H15.5814H15.5958H15.6103H15.6248H15.6392H15.6537H15.6681H15.6826H15.697H15.7114H15.7258H15.7403H15.7547H15.7691H15.7835H15.7979H15.8123H15.8267H15.8411H15.8554H15.8698H15.8842H15.8986H15.913H15.9273H15.9417H15.9561H15.9705H15.9848H15.9992H16.0136H16.0279H16.0423H16.0567H16.0711H16.0854H16.0998H16.1142H16.1286H16.1429H16.1573H16.1717H16.1861H16.2005H16.2149H16.2293H16.2437H16.2581H16.2725H16.287H16.3014H16.3158H16.3303H16.3447H16.3592H16.3736H16.3881H16.4026H16.417H16.4315H16.446H16.4605H16.475H16.4896H16.5041H16.5186H16.5332H16.5477H16.5623H16.5769H16.5915H16.6061H16.6207H16.6353H16.65H16.6646H16.6793H16.6939H16.7086H16.7233H16.738H16.7528H16.7675H16.7823H16.797H16.8118H16.8266H16.8414H16.8563H16.8711H16.886H16.9009H16.9158H16.9307H16.9456H16.9606H16.9755H16.9905H17.0055H17.0205H17.0356H17.0506H17.0657H17.0808H17.0959H17.1111H17.1262H17.1414H17.1566H17.1719H17.1871H17.2024H17.2177H17.233H17.2483H17.2637H17.279H17.2944H17.3099H17.3253H17.3408H17.3563H17.3718H17.3874H17.403H17.4186H17.4342H17.4498H17.4655H17.4812H17.497H17.5127H17.5285H17.5443H17.5602H17.576H17.592H17.6079H17.6238H17.6398H17.6559H17.6719H17.688H17.7041H17.7202H17.7364H17.7526H17.7688H17.7851H17.8014H17.8177H17.8341H17.8505H17.8669H17.8834H17.8999H17.9164H17.933H17.9496H17.9662H17.9829H17.9996H18.0164H18.0331H18.0499H18.0668H18.0837H18.1006H18.1176H18.1346H18.1516H18.1687H18.1858H18.2029H18.2201H18.2374H18.2546H18.272H18.2893H18.3067H18.3241H18.3416H18.3591H18.3767H18.3943H18.4119H18.4296H18.4473H18.4651H18.4829H18.5007H18.5186H18.5366H18.5545H18.5726H18.5906H18.6087H18.6269H18.6451H18.6634H18.6817H18.7H18.7184H18.7368H18.7553H18.7739H18.7924H18.8111H18.8297H18.8485H18.8672H18.8861H18.9049H18.9238H18.9428H18.9618H18.9809H19H19.0192H19.0384H19.0577H19.077H19.0964H19.1158H19.1353H19.1549H19.1744H19.1941H19.2138H19.2335H19.2533H19.2732H19.2931H19.3131H19.3331H19.3532H19.3733H19.3935H19.4137H19.434H19.4544H19.4748H19.4953H19.5158H19.5364H19.557H19.5777H19.5985H19.6193H19.6402H19.6612H19.6822H19.7032H19.7243H19.7455H19.7668H19.7881H19.8094H19.8309H19.8523H19.8739H19.8955H19.9172H19.9389H19.9607H19.9826H20.0045H20.0265H20.0486H20.0707H20.0929H20.1151H20.1374H20.1598H20.1823H20.2048H20.2274H20.25H20.2727H20.2955H20.3184H20.3413H20.3643H20.3873H20.4105H20.4337H20.4569H20.4802H20.5036H20.5271H20.5507H20.5743H20.598H20.6217H20.6455H20.6694H20.6934H20.7174H20.7416H20.7657H20.79H20.8143H20.8387H20.8632H20.8878H20.9124H20.9371H20.9619H20.9867H21.0117H21.0367H21.0618H21.0869H21.1121H21.1374H21.1628H21.1883H21.2138H21.2395H21.2652H21.2909H21.3168H21.3427H21.3687H21.3948H21.421H21.4473H21.4736H21.5C22.0523 26 22.5 26.4477 22.5 27C22.5 27.5523 22.0523 28 21.5 28H21.4736H21.4473H21.421H21.3948H21.3687H21.3427H21.3168H21.2909H21.2652H21.2395H21.2138H21.1883H21.1628H21.1374H21.1121H21.0869H21.0618H21.0367H21.0117H20.9867H20.9619H20.9371H20.9124H20.8878H20.8632H20.8387H20.8143H20.79H20.7657H20.7416H20.7174H20.6934H20.6694H20.6455H20.6217H20.598H20.5743H20.5507H20.5271H20.5036H20.4802H20.4569H20.4337H20.4105H20.3873H20.3643H20.3413H20.3184H20.2955H20.2727H20.25H20.2274H20.2048H20.1823H20.1598H20.1374H20.1151H20.0929H20.0707H20.0486H20.0265H20.0045H19.9826H19.9607H19.9389H19.9172H19.8955H19.8739H19.8523H19.8309H19.8094H19.7881H19.7668H19.7455H19.7243H19.7032H19.6822H19.6612H19.6402H19.6193H19.5985H19.5777H19.557H19.5364H19.5158H19.4953H19.4748H19.4544H19.434H19.4137H19.3935H19.3733H19.3532H19.3331H19.3131H19.2931H19.2732H19.2533H19.2335H19.2138H19.1941H19.1744H19.1549H19.1353H19.1158H19.0964H19.077H19.0577H19.0384H19.0192H19H18.9809H18.9618H18.9428H18.9238H18.9049H18.8861H18.8672H18.8485H18.8297H18.8111H18.7924H18.7739H18.7553H18.7368H18.7184H18.7H18.6817H18.6634H18.6451H18.6269H18.6087H18.5906H18.5726H18.5545H18.5366H18.5186H18.5007H18.4829H18.4651H18.4473H18.4296H18.4119H18.3943H18.3767H18.3591H18.3416H18.3241H18.3067H18.2893H18.272H18.2546H18.2374H18.2201H18.2029H18.1858H18.1687H18.1516H18.1346H18.1176H18.1006H18.0837H18.0668H18.0499H18.0331H18.0164H17.9996H17.9829H17.9662H17.9496H17.933H17.9164H17.8999H17.8834H17.8669H17.8505H17.8341H17.8177H17.8014H17.7851H17.7688H17.7526H17.7364H17.7202H17.7041H17.688H17.6719H17.6559H17.6398H17.6238H17.6079H17.592H17.576H17.5602H17.5443H17.5285H17.5127H17.497H17.4812H17.4655H17.4498H17.4342H17.4186H17.403H17.3874H17.3718H17.3563H17.3408H17.3253H17.3099H17.2944H17.279H17.2637H17.2483H17.233H17.2177H17.2024H17.1871H17.1719H17.1566H17.1414H17.1262H17.1111H17.0959H17.0808H17.0657H17.0506H17.0356H17.0205H17.0055H16.9905H16.9755H16.9606H16.9456H16.9307H16.9158H16.9009H16.886H16.8711H16.8563H16.8414H16.8266H16.8118H16.797H16.7823H16.7675H16.7528H16.738H16.7233H16.7086H16.6939H16.6793H16.6646H16.65H16.6353H16.6207H16.6061H16.5915H16.5769H16.5623H16.5477H16.5332H16.5186H16.5041H16.4896H16.475H16.4605H16.446H16.4315H16.417H16.4026H16.3881H16.3736H16.3592H16.3447H16.3303H16.3158H16.3014H16.287H16.2725H16.2581H16.2437H16.2293H16.2149H16.2005H16.1861H16.1717H16.1573H16.1429H16.1286H16.1142H16.0998H16.0854H16.0711H16.0567H16.0423H16.0279H16.0136H15.9992H15.9848H15.9705H15.9561H15.9417H15.9273H15.913H15.8986H15.8842H15.8698H15.8554H15.8411H15.8267H15.8123H15.7979H15.7835H15.7691H15.7547H15.7403H15.7258H15.7114H15.697H15.6826H15.6681H15.6537H15.6392H15.6248H15.6103H15.5958H15.5814H15.5669H15.5524H15.5379H15.5233H15.5088H15.4943H15.4797H15.4652H15.4506H15.4361H15.4215H15.4069H15.3923H15.3777H15.363H15.3484H15.3338H15.3191H15.3044H15.2897H15.275H15.2603H15.2456H15.2308H15.2161H15.2013H15.1865H15.1717H15.1569H15.1421H15.1272H15.1123H15.0975H15.0826H15.0676H15.0527H15.0378H15.0228H15.0078H14.9928H14.9778H14.9627H14.9477H14.9326H14.9175H14.9024H14.8872H14.8721H14.8569H14.8417H14.8264H14.8112H14.7959H14.7806H14.7653H14.75H14.7346H14.7192H14.7038H14.6884H14.6729H14.6575H14.642H14.6264H14.6109H14.5953H14.5797H14.5641H14.5484H14.5327H14.517H14.5013H14.4855H14.4697H14.4539H14.4381H14.4222H14.4063H14.3903H14.3744H14.3584H14.3424H14.3263H14.3102H14.2941H14.278H14.2618H14.2456H14.2293H14.2131H14.1968H14.1804H14.1641H14.1477H14.1312H14.1148H14.0983H14.0817H14.0651H14.0485H14.0319H14.0152H13.9985H13.9818H13.965H13.9482H13.9313H13.9144H13.8975H13.8805H13.8635H13.8465H13.8294H13.8123H13.7951H13.7779H13.7607H13.7434H13.7261H13.7088H13.6914H13.6739H13.6565H13.6389H13.6214H13.6038H13.5861H13.5684H13.5507H13.533H13.5151H13.4973H13.4794H13.4614H13.4435H13.4254H13.4073H13.3892H13.3711H13.3528H13.3346H13.3163H13.2979H13.2795H13.2611H13.2426H13.2241H13.2055H13.1869H13.1682H13.1494H13.1307H13.1118H13.093H13.074H13.0551H13.036H13.017H12.9978H12.9787H12.9594H12.9401H12.9208H12.9014H12.882H12.8625H12.843H12.8234H12.8037H12.784H12.7643H12.7445H12.7246H12.7047H12.6847H12.6647H12.6446H12.6245H12.6043H12.584H12.5637H12.5433H12.5229H12.5024C10.8472 28 9.5 26.6584 9.5 25V13C9.5 11.3431 10.8431 10 12.5 10H21.5C23.1569 10 24.5 11.3431 24.5 13V15H24.5097H24.5199H24.5299H24.54H24.5499H24.5598H24.5697H24.5795H24.5892H24.5989H24.6085H24.618H24.6275H24.6369H24.6463H24.6556H24.6649H24.6741H24.6832H24.6923H24.7013H24.7103H24.7192H24.7281H24.7369H24.7457H24.7544H24.763H24.7716H24.7801H24.7886H24.797H24.8054H24.8137H24.8219H24.8301H24.8383H24.8464H24.8544H24.8624H24.8704H24.8783H24.8861H24.8939H24.9016H24.9093H24.9169H24.9245H24.932H24.9395H24.9469H24.9543H24.9616H24.9689H24.9761H24.9833H24.9904H24.9975H25.0045H25.0115H25.0184H25.0253H25.0321H25.0389H25.0456H25.0523H25.059H25.0656H25.0721H25.0786H25.0851H25.0915H25.0979H25.1042H25.1104H25.1167H25.1228H25.129H25.1351H25.1411H25.1471H25.1531H25.159H25.1649H25.1707H25.1765H25.1822H25.1879H25.1935H25.1992H25.2047H25.2103H25.2157H25.2212H25.2266H25.2319H25.2373H25.2425H25.2478H25.253H25.2581H25.2632H25.2683H25.2733H25.2783H25.2833H25.2882H25.2931H25.2979H25.3027H25.3075H25.3122H25.3169H25.3215H25.3262H25.3307H25.3353H25.3398H25.3442H25.3487H25.353H25.3574H25.3617H25.366H25.3702H25.3745H25.3786H25.3828H25.3869H25.391H25.395H25.399H25.403H25.4069H25.4108H25.4147H25.4185H25.4223H25.4261H25.4298H25.4335H25.4372H25.4409H25.4445H25.448H25.4516H25.4551H25.4586H25.4621H25.4655H25.4689H25.4722H25.4756H25.4789H25.4822H25.4854H25.4886H25.4918H25.495H25.4981H25.5012H25.5043H25.5074H25.5104H25.5134H25.5164H25.5193H25.5222H25.5251H25.528H25.5308H25.5336H25.5364H25.5392H25.5419H25.5446H25.5473H25.5499H25.5526H25.5552H25.5578H25.5603H25.5629H25.5654H25.5679H25.5704H25.5728H25.5752H25.5776H25.58H25.5824H25.5847H25.587H25.5893H25.5916H25.5938H25.5961H25.5983H25.6005H25.6026H25.6048H25.6069H25.609H25.6111H25.6132H25.6152H25.6173H25.6193H25.6213H25.6233H25.6252H25.6272H25.6291H25.631H25.6329H25.6348H25.6366H25.6385H25.6403H25.6421H25.6439H25.6457H25.6474H25.6492H25.6509H25.6526H25.6543H25.656H25.6577H25.6594H25.661H25.6626H25.6643H25.6659H25.6675H25.669H25.6706H25.6722H25.6737H25.6752H25.6768H25.6783H25.6798H25.6813H25.6827H25.6842H25.6856H25.6871H25.6885H25.6899H25.6914H25.6928H25.6942H25.6955H25.6969H25.6983H25.6996H25.701H25.7023H25.7037H25.705H25.7063H25.7076H25.7089H25.7102H25.7115H25.7128H25.7141H25.7154H25.7166H25.7179H25.7192H25.7204H25.7217H25.7229H25.7241H25.7254H25.7266H25.7278H25.7291H25.7303H25.7315H25.7327H25.7339H25.7351H25.7363H25.7375H25.7387H25.7399H25.7411H25.7423H25.7435H25.7447H25.7459H25.7471H25.7482H25.7494H25.7506H25.7518H25.753H25.7542H25.7554H25.7566H25.7578H25.7589H25.7601H25.7613H25.7625H25.7637H25.7649H25.7661H25.7674H25.7686H25.7698H25.771H25.7722H25.7734H25.7747H25.7759H25.7771H25.7784H25.7796H25.7809H25.7821H25.7834H25.7847H25.7859H25.7872H25.7885H25.7898H25.7911H25.7924H25.7937H25.795H25.7964H25.7977H25.7991H25.8004H25.8018H25.8031H25.8045H25.8059H25.8073H25.8087H25.8101H25.8115H25.813H25.8144H25.8159H25.8173H25.8188H25.8203H25.8218H25.8233H25.8248H25.8264H25.8279H25.8295H25.831H25.8326H25.8342H25.8358H25.8374H25.8391H25.8407H25.8424H25.844H25.8457H25.8474H25.8492H25.8509H25.8526H25.8544H25.8562H25.858H25.8598H25.8616H25.8634H25.8653H25.8672H25.8691H25.871H25.8729H25.8749H25.8768H25.8788H25.8808H25.8828H25.8848H25.8869H25.889H25.8911H25.8932H25.8953H25.8975H25.8996H25.9018H25.904H25.9063H25.9085H25.9108H25.9131H25.9154H25.9177H25.9201H25.9225H25.9249H25.9273H25.9298H25.9322H25.9347H25.9372H25.9398H25.9423H25.9449H25.9475H25.9502H25.9528H25.9555H25.9582H25.961H25.9637H25.9665H25.9693H25.9722H25.975H25.9779H25.9808H25.9838H25.9867H25.9897H25.9928H25.9958H25.9989C27.655 15 29 16.3424 29 18V24.75C29 26.5449 27.5449 28 25.75 28C23.9551 28 22.5 26.5449 22.5 24.75V16V13C22.5 12.4477 22.0523 12 21.5 12H12.5ZM24.5 17V24.75C24.5 25.4404 25.0596 26 25.75 26C26.4404 26 27 25.4404 27 24.75V18C27 17.4484 26.5519 17 25.9989 17H25.9958H25.9928H25.9897H25.9867H25.9838H25.9808H25.9779H25.975H25.9722H25.9693H25.9665H25.9637H25.961H25.9582H25.9555H25.9528H25.9502H25.9475H25.9449H25.9423H25.9398H25.9372H25.9347H25.9322H25.9298H25.9273H25.9249H25.9225H25.9201H25.9177H25.9154H25.9131H25.9108H25.9085H25.9063H25.904H25.9018H25.8996H25.8975H25.8953H25.8932H25.8911H25.889H25.8869H25.8848H25.8828H25.8808H25.8788H25.8768H25.8749H25.8729H25.871H25.8691H25.8672H25.8653H25.8634H25.8616H25.8598H25.858H25.8562H25.8544H25.8526H25.8509H25.8492H25.8474H25.8457H25.844H25.8424H25.8407H25.8391H25.8374H25.8358H25.8342H25.8326H25.831H25.8295H25.8279H25.8264H25.8248H25.8233H25.8218H25.8203H25.8188H25.8173H25.8159H25.8144H25.813H25.8115H25.8101H25.8087H25.8073H25.8059H25.8045H25.8031H25.8018H25.8004H25.7991H25.7977H25.7964H25.795H25.7937H25.7924H25.7911H25.7898H25.7885H25.7872H25.7859H25.7847H25.7834H25.7821H25.7809H25.7796H25.7784H25.7771H25.7759H25.7747H25.7734H25.7722H25.771H25.7698H25.7686H25.7674H25.7661H25.7649H25.7637H25.7625H25.7613H25.7601H25.7589H25.7578H25.7566H25.7554H25.7542H25.753H25.7518H25.7506H25.7494H25.7482H25.7471H25.7459H25.7447H25.7435H25.7423H25.7411H25.7399H25.7387H25.7375H25.7363H25.7351H25.7339H25.7327H25.7315H25.7303H25.7291H25.7278H25.7266H25.7254H25.7241H25.7229H25.7217H25.7204H25.7192H25.7179H25.7166H25.7154H25.7141H25.7128H25.7115H25.7102H25.7089H25.7076H25.7063H25.705H25.7037H25.7023H25.701H25.6996H25.6983H25.6969H25.6955H25.6942H25.6928H25.6914H25.6899H25.6885H25.6871H25.6856H25.6842H25.6827H25.6813H25.6798H25.6783H25.6768H25.6752H25.6737H25.6722H25.6706H25.669H25.6675H25.6659H25.6643H25.6626H25.661H25.6594H25.6577H25.656H25.6543H25.6526H25.6509H25.6492H25.6474H25.6457H25.6439H25.6421H25.6403H25.6385H25.6366H25.6348H25.6329H25.631H25.6291H25.6272H25.6252H25.6233H25.6213H25.6193H25.6173H25.6152H25.6132H25.6111H25.609H25.6069H25.6048H25.6026H25.6005H25.5983H25.5961H25.5938H25.5916H25.5893H25.587H25.5847H25.5824H25.58H25.5776H25.5752H25.5728H25.5704H25.5679H25.5654H25.5629H25.5603H25.5578H25.5552H25.5526H25.5499H25.5473H25.5446H25.5419H25.5392H25.5364H25.5336H25.5308H25.528H25.5251H25.5222H25.5193H25.5164H25.5134H25.5104H25.5074H25.5043H25.5012H25.4981H25.495H25.4918H25.4886H25.4854H25.4822H25.4789H25.4756H25.4722H25.4689H25.4655H25.4621H25.4586H25.4551H25.4516H25.448H25.4445H25.4409H25.4372H25.4335H25.4298H25.4261H25.4223H25.4185H25.4147H25.4108H25.4069H25.403H25.399H25.395H25.391H25.3869H25.3828H25.3786H25.3745H25.3702H25.366H25.3617H25.3574H25.353H25.3487H25.3442H25.3398H25.3353H25.3307H25.3262H25.3215H25.3169H25.3122H25.3075H25.3027H25.2979H25.2931H25.2882H25.2833H25.2783H25.2733H25.2683H25.2632H25.2581H25.253H25.2478H25.2425H25.2373H25.2319H25.2266H25.2212H25.2157H25.2103H25.2047H25.1992H25.1935H25.1879H25.1822H25.1765H25.1707H25.1649H25.159H25.1531H25.1471H25.1411H25.1351H25.129H25.1228H25.1167H25.1104H25.1042H25.0979H25.0915H25.0851H25.0786H25.0721H25.0656H25.059H25.0523H25.0456H25.0389H25.0321H25.0253H25.0184H25.0115H25.0045H24.9975H24.9904H24.9833H24.9761H24.9689H24.9616H24.9543H24.9469H24.9395H24.932H24.9245H24.9169H24.9093H24.9016H24.8939H24.8861H24.8783H24.8704H24.8624H24.8544H24.8464H24.8383H24.8301H24.8219H24.8137H24.8054H24.797H24.7886H24.7801H24.7716H24.763H24.7544H24.7457H24.7369H24.7281H24.7192H24.7103H24.7013H24.6923H24.6832H24.6741H24.6649H24.6556H24.6463H24.6369H24.6275H24.618H24.6085H24.5989H24.5892H24.5795H24.5697H24.5598H24.5499H24.54H24.5299H24.5199H24.5097H24.5ZM16.5 15C16.5 14.4477 16.9477 14 17.5 14H20.5C21.0523 14 21.5 14.4477 21.5 15C21.5 15.5523 21.0523 16 20.5 16H17.5C16.9477 16 16.5 15.5523 16.5 15ZM12.5 21C12.5 20.4477 12.9477 20 13.5 20H20.5C21.0523 20 21.5 20.4477 21.5 21C21.5 21.5523 21.0523 22 20.5 22H13.5C12.9477 22 12.5 21.5523 12.5 21ZM17.5 17C16.9477 17 16.5 17.4477 16.5 18C16.5 18.5523 16.9477 19 17.5 19H20.5C21.0523 19 21.5 18.5523 21.5 18C21.5 17.4477 21.0523 17 20.5 17H17.5ZM13.5 14C12.9477 14 12.5 14.4477 12.5 15V18C12.5 18.5523 12.9477 19 13.5 19H14.5C15.0523 19 15.5 18.5523 15.5 18V15C15.5 14.4477 15.0523 14 14.5 14H13.5Z" fill="#494949"/>
</svg>
