<svg width="39" height="38" xmlns="http://www.w3.org/2000/svg">

 <g>
  <title>background</title>
  <rect fill="none" id="canvas_background" height="402" width="582" y="-1" x="-1"/>
 </g>
 <g>
  <title>Layer 1</title>
  <path stroke="null" fill-rule="evenodd" clip-rule="evenodd" d="m6.150451,5.08363c-1.095154,0 -1.982889,0.882909 -1.982889,1.972111l0,23.66525c0,1.086037 0.889522,1.972109 1.987643,1.972109l0.040646,0l0.040454,0l0.040454,0l0.040253,0l0.040251,0l0.040049,0l0.039859,0l0.039858,0l0.039657,0l0.039655,0l0.039455,0l0.039464,0l0.039263,0l0.03906,0l0.039061,0l0.03906,0l0.03887,0l0.038667,0l0.038667,0l0.038465,0l0.038477,0l0.038261,0l0.038275,0l0.038261,0l0.037881,0l0.038071,0l0.037666,0l0.03788,0l0.037476,0l0.037678,0l0.037274,0l0.037475,0l0.037082,0l0.037272,0l0.037083,0l0.036881,0l0.036879,0l0.036689,0l0.036677,0l0.036486,0l0.036488,0l0.036485,0l0.036284,0l0.036093,0l0.036285,0l0.035891,0l0.035891,0l0.035891,0l0.03589,0l0.035498,0l0.035687,0l0.035498,0l0.035295,0l0.035485,0l0.035105,0l0.035091,0l0.035105,0l0.035092,0l0.034901,0l0.0347,0l0.034901,0l0.034496,0l0.0347,0l0.034508,0l0.034294,0l0.034306,0l0.034306,0l0.034104,0l0.034115,0l0.034103,0l0.0339,0l0.033914,0l0.033709,0l0.033711,0l0.03371,0l0.033507,0l0.033508,0l0.033519,0l0.033305,0l0.033317,0l0.033114,0l0.033113,0l0.033115,0l0.03291,0l0.032925,0l0.03291,0l0.032912,0l0.032722,0l0.032516,0l0.032722,0l0.032519,0l0.032315,0l0.032518,0l0.032329,0l0.032113,0l0.032329,0l0.032113,0l0.032125,0l0.031922,0l0.031935,0l0.031922,0l0.031923,0l0.031732,0l0.031719,0l0.031529,0l0.031722,0l0.031528,0l0.03153,0l0.031339,0l0.031327,0l0.031326,0l0.031327,0l0.031136,0l0.031124,0l0.031136,0l0.031138,0l0.030932,0l0.030922,0l0.030934,0l0.030744,0l0.030932,0l0.030731,0l0.03054,0l0.030731,0l0.030529,0l0.03054,0l0.030541,0l0.030528,0l0.030338,0l0.030337,0l0.030351,0l0.030326,0l0.030147,0l0.030337,0l0.030135,0l0.030136,0l0.029945,0l0.030146,0l0.029934,0l0.029943,0l0.029946,0l0.029742,0l0.029944,0l0.029743,0l0.02974,0l0.029742,0l0.029742,0l0.029539,0l0.029552,0l0.029742,0l0.029552,0l0.029337,0l0.029552,0l0.029539,0l0.029349,0l0.029349,0l0.029348,0l0.029348,0l0.029338,0l0.029157,0l0.029351,0l0.029145,0l0.029146,0l0.029146,0l0.029146,0l0.029158,0l0.029146,0l0.028944,0l0.028957,0l0.029145,0l0.028955,0l0.028945,0l0.028955,0l0.028943,0l0.028753,0l0.028955,0l0.028753,0l0.028944,0l0.028752,0l0.028753,0l0.028956,0l0.02874,0l0.028753,0l0.028752,0l0.028563,0l0.028743,0l0.028752,0l0.028562,0l0.028741,0l0.028563,0l0.028753,0l0.02855,0l0.02855,0l0.028551,0l0.028754,0l0.028561,0l0.02855,0l0.028551,0l0.028551,0l0.028551,0l0.028561,0l0.028551,0l0.028359,0l0.028551,0l0.028551,0l0.028562,0l0.028551,0l0.028348,0l0.028563,0l0.02855,0l0.02855,0l0.028359,0l0.028551,0l0.02855,0l0.02836,0l0.02855,0l0.028551,0l0.028563,0l0.028348,0l0.028551,0l0.028561,0l0.02855,0l0.02836,0l0.02855,0l0.028552,0l0.02855,0l0.028562,0l0.028552,0l0.028549,0l0.02855,0l0.028563,0l0.02855,0l0.028752,0l0.028551,0l0.028551,0l0.028752,0l0.02855,0l0.028753,0l0.028551,0l0.028753,0l0.028752,0l0.028562,0l0.028741,0l0.028753,0l0.028752,0l0.028754,0l0.028955,0l0.028753,0l0.028752,0l0.028944,0l0.028753,0l0.028944,0l0.028956,0l0.028955,0l0.028944,0l0.028954,0l0.028944,0l0.029147,0l0.028956,0l0.029145,0l0.028955,0l0.029147,0l0.029146,0l0.029158,0l0.029337,0l0.029146,0l0.029349,0l0.029158,0l0.029337,0l0.02935,0l0.029347,0l0.029552,0l0.029339,0l0.029552,0l0.029539,0l0.029551,0l0.02954,0l0.029551,0l0.029743,0l0.029539,0l0.029754,0l0.029741,0l0.029743,0l0.029943,0l0.029742,0l0.029933,0l0.029945,0l0.029944,0l0.030135,0l0.029943,0l0.030139,0l0.030146,0l0.030338,0l0.030135,0l0.030337,0l0.030339,0l0.030336,0l0.030337,0l0.030541,0l0.030326,0l0.03054,0l0.030744,0l0.030529,0l0.030732,0l0.030741,0l0.030733,0l0.030931,0l0.030936,0l0.030931,0l0.030935,0l0.030932,0l0.031125,0l0.031136,0l0.031326,0l0.031139,0l0.031324,0l0.031328,0l0.031528,0l0.03134,0l0.031719,0l0.03153,0l0.03153,0l0.031717,0l0.031923,0l0.031733,0l0.031925,0l0.031919,0l0.031933,0l0.032127,0l0.032114,0l0.032124,0l0.032316,0l0.032328,0l0.03232,0l0.032515,0l0.03252,0l0.032516,0l0.032721,0l0.032722,0l0.032722,0l0.032911,0l0.032911,0l0.032911,0l0.033113,0l0.033115,0l0.033316,0l0.033115,0l0.033318,0l0.033504,0l0.033508,0l0.033506,0l0.033714,0l0.03371,0l0.033709,0l0.033913,0l0.033901,0l0.033911,0l0.034103,0l0.034306,0l0.034105,0l0.034508,0l0.034304,0l0.0345,0l0.034506,0l0.0347,0l0.034698,0l0.034893,0l0.034899,0l0.034891,0l0.035103,0l0.035093,0l0.035307,0l0.035294,0l0.03528,0l0.035501,0l0.035696,0l0.035488,0l0.035891,0l0.035688,0l0.035889,0l0.036095,0l0.036095,0l0.036282,0l0.036285,0l0.036295,0l0.036476,0l0.036488,0l0.036686,0l0.03688,0l0.03669,0l0.037071,0l0.036892,0l0.037271,0l0.037081,0l0.037476,0l0.037275,0l0.037476,0l0.037678,0l0.037664,0l0.03788,0l0.03787,0l0.038071,0l0.038071,0l0.038273,0l0.038261,0l0.038481,0l0.038464,0l0.038668,0l0.038857,0l0.038679,0l0.039061,0l0.039059,0l0.039061,0l0.039263,0l0.039455,0l0.039465,0l0.039656,0l0.039654,0l0.039862,0l0.039856,0l0.040051,0l0.040064,0l0.040247,0l0.040447,0l0.040453,0l0.040657,0l0.040646,0l0.040848,0l0.040848,0l0.041039,0l0.041241,0l0.041254,0l0.041441,0l0.041636,0l0.041647,0l0.041632,0l0.041847,0l0.04203,0l0.04224,0l0.042231,0l0.042244,0l0.042624,0l0.042442,0l0.042828,0l0.042826,0l0.043028,0l0.043028,0l0.043228,0l0.043423,0l0.043423,0l0.043634,0l0.043816,0l0.043825,0l0.044018,0l0.044018,0l0.04422,0l0.044411,0l0.044626,0l0.044615,0l0.044802,0l0.044817,0l0.045015,0l0.04521,0l0.045412,0l0.045399,0l0.045614,0l0.045601,0l0.046007,0l0.045998,0l0.046005,0l0.0462,0l0.0464,0l0.046604,0l0.046793,0l0.046795,0l0.046995,0l0.046995,0l0.047186,0l0.04739,0l0.047594,0l0.04759,0l0.047987,0l0.047783,0l0.048189,0l0.048185,0l0.04838,0l0.048582,0l0.048771,0l0.048782,0l0.048975,0l0.049177,0l0.049177,0l0.049568,0l0.04957,0l0.049776,0l0.04977,0l0.049965,0l0.050175,0l0.05036,0l0.050571,0l0.050558,0l0.050962,0l0.050955,0l0.050962,0l0.051359,0l0.051355,0l0.05155,0l0.051764,0l0.051939,0l0.052156,0l0.052145,0l0.052359,0c1.095142,0 1.982874,0.882912 1.982874,1.972099c0,1.089191 -0.887732,1.972111 -1.982874,1.972111l-0.052359,0l-0.052145,0l-0.052156,0l-0.051939,0l-0.051764,0l-0.05155,0l-0.051355,0l-0.051359,0l-0.050962,0l-0.050955,0l-0.050962,0l-0.050558,0l-0.050571,0l-0.05036,0l-0.050175,0l-0.049965,0l-0.04977,0l-0.049776,0l-0.04957,0l-0.049568,0l-0.049177,0l-0.049177,0l-0.048975,0l-0.048782,0l-0.048771,0l-0.048582,0l-0.04838,0l-0.048185,0l-0.048189,0l-0.047783,0l-0.047987,0l-0.04759,0l-0.047594,0l-0.04739,0l-0.047186,0l-0.046995,0l-0.046995,0l-0.046795,0l-0.046793,0l-0.046604,0l-0.0464,0l-0.0462,0l-0.046005,0l-0.045998,0l-0.046007,0l-0.045601,0l-0.045614,0l-0.045399,0l-0.045412,0l-0.04521,0l-0.045015,0l-0.044817,0l-0.044802,0l-0.044615,0l-0.044626,0l-0.044411,0l-0.04422,0l-0.044018,0l-0.044018,0l-0.043825,0l-0.043816,0l-0.043634,0l-0.043423,0l-0.043423,0l-0.043228,0l-0.043028,0l-0.043028,0l-0.042826,0l-0.042828,0l-0.042442,0l-0.042624,0l-0.042244,0l-0.042231,0l-0.04224,0l-0.04203,0l-0.041847,0l-0.041632,0l-0.041647,0l-0.041636,0l-0.041441,0l-0.041254,0l-0.041241,0l-0.041039,0l-0.040848,0l-0.040848,0l-0.040646,0l-0.040657,0l-0.040453,0l-0.040447,0l-0.040247,0l-0.040064,0l-0.040051,0l-0.039856,0l-0.039862,0l-0.039654,0l-0.039656,0l-0.039465,0l-0.039455,0l-0.039263,0l-0.039061,0l-0.039059,0l-0.039061,0l-0.038679,0l-0.038857,0l-0.038668,0l-0.038464,0l-0.038481,0l-0.038261,0l-0.038273,0l-0.038071,0l-0.038071,0l-0.03787,0l-0.03788,0l-0.037664,0l-0.037678,0l-0.037476,0l-0.037275,0l-0.037476,0l-0.037081,0l-0.037271,0l-0.036892,0l-0.037071,0l-0.03669,0l-0.03688,0l-0.036686,0l-0.036488,0l-0.036476,0l-0.036295,0l-0.036285,0l-0.036282,0l-0.036095,0l-0.036095,0l-0.035889,0l-0.035688,0l-0.035891,0l-0.035488,0l-0.035696,0l-0.035501,0l-0.03528,0l-0.035294,0l-0.035307,0l-0.035093,0l-0.035103,0l-0.034891,0l-0.034899,0l-0.034893,0l-0.034698,0l-0.0347,0l-0.034506,0l-0.0345,0l-0.034304,0l-0.034508,0l-0.034105,0l-0.034306,0l-0.034103,0l-0.033911,0l-0.033901,0l-0.033913,0l-0.033709,0l-0.03371,0l-0.033714,0l-0.033506,0l-0.033508,0l-0.033504,0l-0.033318,0l-0.033115,0l-0.033316,0l-0.033115,0l-0.033113,0l-0.032911,0l-0.032911,0l-0.032911,0l-0.032722,0l-0.032722,0l-0.032721,0l-0.032516,0l-0.03252,0l-0.032515,0l-0.03232,0l-0.032328,0l-0.032316,0l-0.032124,0l-0.032114,0l-0.032127,0l-0.031933,0l-0.031919,0l-0.031925,0l-0.031733,0l-0.031923,0l-0.031717,0l-0.03153,0l-0.03153,0l-0.031719,0l-0.03134,0l-0.031528,0l-0.031328,0l-0.031324,0l-0.031139,0l-0.031326,0l-0.031136,0l-0.031125,0l-0.030932,0l-0.030935,0l-0.030931,0l-0.030936,0l-0.030931,0l-0.030733,0l-0.030741,0l-0.030732,0l-0.030529,0l-0.030744,0l-0.03054,0l-0.030326,0l-0.030541,0l-0.030337,0l-0.030336,0l-0.030339,0l-0.030337,0l-0.030135,0l-0.030338,0l-0.030146,0l-0.030139,0l-0.029943,0l-0.030135,0l-0.029944,0l-0.029945,0l-0.029933,0l-0.029742,0l-0.029943,0l-0.029743,0l-0.029741,0l-0.029754,0l-0.029539,0l-0.029743,0l-0.029551,0l-0.02954,0l-0.029551,0l-0.029539,0l-0.029552,0l-0.029339,0l-0.029552,0l-0.029347,0l-0.02935,0l-0.029337,0l-0.029158,0l-0.029349,0l-0.029146,0l-0.029337,0l-0.029158,0l-0.029146,0l-0.029147,0l-0.028955,0l-0.029145,0l-0.028956,0l-0.029147,0l-0.028944,0l-0.028954,0l-0.028944,0l-0.028955,0l-0.028956,0l-0.028944,0l-0.028753,0l-0.028944,0l-0.028752,0l-0.028753,0l-0.028955,0l-0.028754,0l-0.028752,0l-0.028753,0l-0.028741,0l-0.028562,0l-0.028752,0l-0.028753,0l-0.028551,0l-0.028753,0l-0.02855,0l-0.028752,0l-0.028551,0l-0.028551,0l-0.028752,0l-0.02855,0l-0.028563,0l-0.02855,0l-0.028549,0l-0.028552,0l-0.028562,0l-0.02855,0l-0.028552,0l-0.02855,0l-0.02836,0l-0.02855,0l-0.028561,0l-0.028551,0l-0.028348,0l-0.028563,0l-0.028551,0l-0.02855,0l-0.02836,0l-0.02855,0l-0.028551,0l-0.028359,0l-0.02855,0l-0.02855,0l-0.028563,0l-0.028348,0l-0.028551,0l-0.028562,0l-0.028551,0l-0.028551,0l-0.028359,0l-0.028551,0l-0.028561,0l-0.028551,0l-0.028551,0l-0.028551,0l-0.02855,0l-0.028561,0l-0.028754,0l-0.028551,0l-0.02855,0l-0.02855,0l-0.028753,0l-0.028563,0l-0.028741,0l-0.028562,0l-0.028752,0l-0.028743,0l-0.028563,0l-0.028752,0l-0.028753,0l-0.02874,0l-0.028956,0l-0.028753,0l-0.028752,0l-0.028944,0l-0.028753,0l-0.028955,0l-0.028753,0l-0.028943,0l-0.028955,0l-0.028945,0l-0.028955,0l-0.029145,0l-0.028957,0l-0.028944,0l-0.029146,0l-0.029158,0l-0.029146,0l-0.029146,0l-0.029146,0l-0.029145,0l-0.029351,0l-0.029157,0l-0.029338,0l-0.029348,0l-0.029348,0l-0.029349,0l-0.029349,0l-0.029539,0l-0.029552,0l-0.029337,0l-0.029552,0l-0.029742,0l-0.029552,0l-0.029539,0l-0.029742,0l-0.029742,0l-0.02974,0l-0.029743,0l-0.029944,0l-0.029742,0l-0.029946,0l-0.029943,0l-0.029934,0l-0.030146,0l-0.029945,0l-0.030136,0l-0.030135,0l-0.030337,0l-0.030147,0l-0.030326,0l-0.030351,0l-0.030337,0l-0.030338,0l-0.030528,0l-0.030541,0l-0.03054,0l-0.030529,0l-0.030731,0l-0.03054,0l-0.030731,0l-0.030932,0l-0.030744,0l-0.030934,0l-0.030922,0l-0.030932,0l-0.031138,0l-0.031136,0l-0.031124,0l-0.031136,0l-0.031327,0l-0.031326,0l-0.031327,0l-0.031339,0l-0.03153,0l-0.031528,0l-0.031722,0l-0.031529,0l-0.031719,0l-0.031732,0l-0.031923,0l-0.031922,0l-0.031935,0l-0.031922,0l-0.032125,0l-0.032113,0l-0.032329,0l-0.032113,0l-0.032329,0l-0.032518,0l-0.032315,0l-0.032519,0l-0.032722,0l-0.032516,0l-0.032722,0l-0.032912,0l-0.03291,0l-0.032925,0l-0.03291,0l-0.033115,0l-0.033113,0l-0.033114,0l-0.033317,0l-0.033305,0l-0.033519,0l-0.033508,0l-0.033507,0l-0.03371,0l-0.033711,0l-0.033709,0l-0.033914,0l-0.0339,0l-0.034103,0l-0.034115,0l-0.034104,0l-0.034306,0l-0.034306,0l-0.034294,0l-0.034508,0l-0.0347,0l-0.034496,0l-0.034901,0l-0.0347,0l-0.034901,0l-0.035092,0l-0.035105,0l-0.035091,0l-0.035105,0l-0.035485,0l-0.035295,0l-0.035498,0l-0.035687,0l-0.035498,0l-0.03589,0l-0.035891,0l-0.035891,0l-0.035891,0l-0.036285,0l-0.036093,0l-0.036284,0l-0.036485,0l-0.036488,0l-0.036486,0l-0.036677,0l-0.036689,0l-0.036879,0l-0.036881,0l-0.037083,0l-0.037272,0l-0.037082,0l-0.037475,0l-0.037274,0l-0.037678,0l-0.037476,0l-0.03788,0l-0.037666,0l-0.038071,0l-0.037881,0l-0.038261,0l-0.038275,0l-0.038261,0l-0.038477,0l-0.038465,0l-0.038667,0l-0.038667,0l-0.03887,0l-0.03906,0l-0.039061,0l-0.03906,0l-0.039263,0l-0.039464,0l-0.039455,0l-0.039655,0l-0.039657,0l-0.039858,0l-0.039859,0l-0.040049,0l-0.040251,0l-0.040253,0l-0.040454,0l-0.040454,0l-0.040646,0c-3.282067,0 -5.953409,-2.645786 -5.953409,-5.916319l0,-23.66525c0,-3.267582 2.663215,-5.916321 5.948654,-5.916321l17.845938,0c3.28544,0 5.948643,2.648739 5.948643,5.916321l0,3.94421l0.019243,0l0.020224,0l0.019829,0l0.020027,0l0.019627,0l0.019625,0l0.01964,0l0.019434,0l0.019232,0l0.019232,0l0.019043,0l0.018827,0l0.018839,0l0.018633,0l0.018652,0l0.018433,0l0.018446,0l0.018242,0l0.018042,0l0.018042,0l0.017849,0l0.017849,0l0.017649,0l0.017647,0l0.017445,0l0.017456,0l0.017242,0l0.017063,0l0.017054,0l0.016848,0l0.016851,0l0.016659,0l0.016657,0l0.016457,0l0.016266,0l0.016253,0l0.016264,0l0.016064,0l0.015858,0l0.01586,0l0.015863,0l0.015667,0l0.015469,0l0.015467,0l0.015265,0l0.015265,0l0.015074,0l0.015074,0l0.014872,0l0.014872,0l0.014666,0l0.014681,0l0.014479,0l0.014465,0l0.014286,0l0.014265,0l0.014084,0l0.014086,0l0.013868,0l0.013884,0l0.013691,0l0.013668,0l0.013487,0l0.013489,0l0.013288,0l0.013287,0l0.013271,0l0.013098,0l0.01288,0l0.012896,0l0.01289,0l0.01269,0l0.012691,0l0.012487,0l0.012297,0l0.012487,0l0.012108,0l0.012287,0l0.012091,0l0.011906,0l0.011894,0l0.011892,0l0.0117,0l0.011702,0l0.011499,0l0.011497,0l0.011309,0l0.011295,0l0.011106,0l0.011297,0l0.010914,0l0.011106,0l0.0107,0l0.010914,0l0.0107,0l0.010513,0l0.010712,0l0.010305,0l0.010509,0l0.010321,0l0.010101,0l0.01012,0l0.010105,0l0.009926,0l0.009901,0l0.009924,0l0.009714,0l0.009724,0l0.009506,0l0.009521,0l0.00952,0l0.009319,0l0.009319,0l0.009117,0l0.009315,0l0.008928,0l0.009125,0l0.008926,0l0.00872,0l0.008913,0l0.008533,0l0.008722,0l0.008533,0l0.008516,0l0.008329,0l0.008532,0l0.008127,0l0.008329,0l0.008127,0l0.008137,0l0.007925,0l0.007936,0l0.007927,0l0.00773,0l0.007744,0l0.007725,0l0.00754,0l0.007534,0l0.007528,0l0.007341,0l0.007339,0l0.007341,0l0.007328,0l0.007137,0l0.006948,0l0.007135,0l0.006935,0l0.006948,0l0.006933,0l0.006744,0l0.006744,0l0.006544,0l0.006731,0l0.006556,0l0.006542,0l0.006338,0l0.006351,0l0.006338,0l0.00635,0l0.006153,0l0.006134,0l0.006147,0l0.006149,0l0.005945,0l0.005949,0l0.005943,0l0.005754,0l0.005756,0l0.005745,0l0.005754,0l0.005552,0l0.005552,0l0.005554,0l0.005554,0l0.005348,0l0.005352,0l0.005363,0l0.005146,0l0.00536,0l0.00515,0l0.005157,0l0.004955,0l0.005161,0l0.004959,0l0.004955,0l0.004955,0l0.004761,0l0.004749,0l0.004772,0l0.004749,0l0.004753,0l0.004566,0l0.004562,0l0.004566,0l0.004562,0l0.004353,0l0.004559,0l0.004372,0l0.004353,0l0.004173,0l0.00436,0l0.004158,0l0.004173,0l0.004154,0l0.004158,0l0.003967,0l0.004173,0l0.003967,0l0.00396,0l0.003963,0l0.003765,0l0.003971,0l0.003765,0l0.003765,0l0.003777,0l0.003765,0l0.003563,0l0.003769,0l0.003574,0l0.003559,0l0.003578,0l0.003574,0l0.003357,0l0.003574,0l0.003372,0l0.003372,0l0.003376,0l0.003368,0l0.003361,0l0.003387,0l0.003166,0l0.003174,0l0.003368,0l0.00317,0l0.00317,0l0.002979,0l0.003166,0l0.00317,0l0.002987,0l0.002975,0l0.00317,0l0.002979,0l0.002964,0l0.002983,0l0.002773,0l0.002975,0l0.002766,0l0.002979,0l0.002777,0l0.002777,0l0.002979,0l0.002777,0l0.002777,0l0.002575,0l0.002773,0l0.002777,0l0.002575,0l0.002773,0l0.002575,0l0.002789,0l0.002575,0l0.002586,0l0.002575,0l0.002571,0l0.002575,0l0.002583,0l0.002575,0l0.002586,0l0.002575,0l0.002369,0l0.002586,0l0.002575,0l0.00238,0l0.002579,0l0.00238,0l0.002388,0l0.002567,0l0.002388,0l0.002369,0l0.002575,0l0.002384,0l0.00238,0l0.00238,0l0.002388,0l0.002373,0l0.00238,0l0.002369,0l0.002388,0l0.00238,0l0.002373,0l0.00238,0l0.002384,0l0.002377,0l0.00238,0l0.00238,0l0.002186,0l0.002369,0l0.002396,0l0.002369,0l0.002384,0l0.002373,0l0.00238,0l0.002384,0l0.002373,0l0.002178,0l0.002384,0l0.00238,0l0.002384,0l0.002373,0l0.002384,0l0.00238,0l0.002575,0l0.002384,0l0.002369,0l0.002384,0l0.002384,0l0.002369,0l0.00259,0l0.002369,0l0.002384,0l0.002571,0l0.002388,0l0.002571,0l0.002384,0l0.002575,0l0.002583,0l0.002373,0l0.002586,0l0.002571,0l0.002586,0l0.002575,0l0.002571,0l0.002579,0l0.002583,0l0.002781,0l0.002567,0l0.002781,0l0.002571,0l0.002781,0l0.002583,0l0.002773,0l0.002781,0l0.002773,0l0.002781,0l0.002773,0l0.002777,0l0.002968,0l0.002777,0l0.002975,0l0.002781,0l0.002975,0l0.002968,0l0.002979,0l0.002968,0l0.002979,0l0.003181,0l0.002964,0l0.00317,0l0.002979,0l0.00317,0l0.003181,0l0.003166,0l0.003174,0l0.003372,0l0.00317,0l0.003368,0l0.003174,0l0.003372,0l0.003372,0l0.003574,0l0.003376,0l0.003368,0l0.003563,0l0.003574,0l0.003563,0l0.003578,0l0.003571,0l0.003563,0l0.003765,0l0.00378,0l0.003761,0l0.003765,0l0.003769,0l0.003967,0l0.003765,0l0.003956,0l0.003967,0l0.003967,0l0.003971,0l0.004158,0l0.004169,0l0.004158,0l0.004169,0l0.004162,0l0.00436,0l0.004169,0l0.00436,0l0.004364,0l0.004551,0l0.004375,0l0.004551,0l0.004562,0l0.004566,0l0.004551,0l0.004765,0l0.004753,0l0.004753,0l0.004772,0l0.004955,0l0.004753,0l0.004959,0l0.004955,0l0.005157,0l0.004959,0l0.005161,0l0.005157,0l0.005348,0l0.005157,0l0.005356,0l0.005348,0l0.005554,0l0.005352,0l0.00555,0l0.00555,0l0.005756,0l0.005554,0l0.005756,0l0.005741,0l0.005943,0l0.005756,0l0.005951,0l0.006145,0l0.005947,0l0.006149,0c3.283844,0 5.950825,2.647342 5.950825,5.91631l0,13.311708c0,3.53973 -2.885296,6.40934 -6.444366,6.40934c-3.559067,0 -6.44437,-2.86961 -6.44437,-6.40934l0,-17.25592l0,-5.916308c0,-1.089202 -0.887735,-1.972111 -1.982878,-1.972111l-17.845938,0l-0.000011,0zm23.794581,9.860519l0,15.283821c0,1.36154 1.109621,2.46513 2.478601,2.46513c1.36898,0 2.478603,-1.10359 2.478603,-2.46513l0,-13.311708c0,-1.087817 -0.888519,-1.972113 -1.985058,-1.972113l-0.006145,0l-0.005951,0l-0.006145,0l-0.005951,0l-0.005749,0l-0.005947,0l-0.005745,0l-0.00576,0l-0.00555,0l-0.005753,0l-0.005554,0l-0.005554,0l-0.005352,0l-0.005554,0l-0.005344,0l-0.005352,0l-0.005161,0l-0.005348,0l-0.005161,0l-0.005161,0l-0.004955,0l-0.005161,0l-0.004955,0l-0.004959,0l-0.004749,0l-0.004959,0l-0.004765,0l-0.004757,0l-0.004757,0l-0.004765,0l-0.004551,0l-0.004566,0l-0.004559,0l-0.004555,0l-0.004375,0l-0.004547,0l-0.004364,0l-0.00436,0l-0.004169,0l-0.00436,0l-0.004162,0l-0.004169,0l-0.004162,0l-0.004169,0l-0.004154,0l-0.003971,0l-0.003967,0l-0.003967,0l-0.003956,0l-0.003765,0l-0.003971,0l-0.003761,0l-0.003769,0l-0.003765,0l-0.003777,0l-0.003765,0l-0.003563,0l-0.003574,0l-0.003578,0l-0.003559,0l-0.003574,0l-0.003563,0l-0.003372,0l-0.003372,0l-0.003574,0l-0.003376,0l-0.003372,0l-0.00317,0l-0.003368,0l-0.00317,0l-0.003372,0l-0.00317,0l-0.00317,0l-0.003181,0l-0.00317,0l-0.002979,0l-0.00317,0l-0.002968,0l-0.003181,0l-0.002975,0l-0.002972,0l-0.002975,0l-0.002968,0l-0.002979,0l-0.002773,0l-0.002979,0l-0.002781,0l-0.002964,0l-0.002781,0l-0.002773,0l-0.002777,0l-0.002773,0l-0.002777,0l-0.002781,0l-0.002583,0l-0.002777,0l-0.002571,0l-0.002781,0l-0.002567,0l-0.002781,0l-0.002586,0l-0.002571,0l-0.002579,0l-0.002571,0l-0.002586,0l-0.002571,0l-0.002586,0l-0.002373,0l-0.002583,0l-0.002575,0l-0.002388,0l-0.002567,0l-0.002388,0l-0.002575,0l-0.00238,0l-0.002373,0l-0.002583,0l-0.002369,0l-0.002384,0l-0.002388,0l-0.002373,0l-0.00238,0l-0.002575,0l-0.00238,0l-0.002384,0l-0.002373,0l-0.00238,0l-0.002384,0l-0.002384,0l-0.002182,0l-0.002369,0l-0.002384,0l-0.00238,0l-0.002373,0l-0.002384,0l-0.002373,0l-0.002392,0l-0.002369,0l-0.002186,0l-0.00238,0l-0.002384,0l-0.002373,0l-0.002384,0l-0.00238,0l-0.002373,0l-0.002384,0l-0.00238,0l-0.002373,0l-0.002384,0l-0.002369,0l-0.002388,0l-0.00238,0l-0.002384,0l-0.00238,0l-0.002575,0l-0.002369,0l-0.002388,0l-0.002567,0l-0.002388,0l-0.002384,0l-0.002571,0l-0.002384,0l-0.002575,0l-0.002586,0l-0.002369,0l-0.002575,0l-0.002583,0l-0.002579,0l-0.002583,0l-0.002571,0l-0.002575,0l-0.002575,0l-0.002586,0l-0.002575,0l-0.002789,0l-0.002575,0l-0.002773,0l-0.002575,0l-0.002777,0l-0.002777,0l-0.002571,0l-0.002781,0l-0.002773,0l-0.002979,0l-0.002777,0l-0.002777,0l-0.002979,0l-0.002766,0l-0.002979,0l-0.002769,0l-0.002983,0l-0.002968,0l-0.002975,0l-0.00317,0l-0.002979,0l-0.002979,0l-0.00317,0l-0.003174,0l-0.002975,0l-0.00317,0l-0.00317,0l-0.003368,0l-0.00317,0l-0.00317,0l-0.003387,0l-0.003361,0l-0.003372,0l-0.003368,0l-0.003376,0l-0.003372,0l-0.003574,0l-0.003357,0l-0.003574,0l-0.003578,0l-0.003563,0l-0.003574,0l-0.003761,0l-0.003571,0l-0.003761,0l-0.00378,0l-0.003761,0l-0.003769,0l-0.003967,0l-0.003765,0l-0.003967,0l-0.003956,0l-0.003971,0l-0.004166,0l-0.003971,0l-0.004158,0l-0.004158,0l-0.004173,0l-0.004154,0l-0.00436,0l-0.004173,0l-0.004349,0l-0.004375,0l-0.004562,0l-0.004353,0l-0.004559,0l-0.004566,0l-0.004566,0l-0.004562,0l-0.004753,0l-0.004753,0l-0.004768,0l-0.004753,0l-0.004757,0l-0.004955,0l-0.004959,0l-0.004955,0l-0.005157,0l-0.004959,0l-0.005157,0l-0.00515,0l-0.005363,0l-0.005146,0l-0.005363,0l-0.005348,0l-0.005352,0l-0.00555,0l-0.005552,0l-0.005554,0l-0.00555,0l-0.00576,0l-0.005741,0l-0.005754,0l-0.005756,0l-0.005947,0l-0.005945,0l-0.005945,0l-0.006147,0l-0.006151,0l-0.006136,0l-0.006147,0l-0.006351,0l-0.00634,0l-0.006351,0l-0.006338,0l-0.006542,0l-0.006552,0l-0.006735,0l-0.00654,0l-0.006744,0l-0.006746,0l-0.006933,0l-0.006948,0l-0.006935,0l-0.007137,0l-0.006947,0l-0.007141,0l-0.007326,0l-0.007339,0l-0.007339,0l-0.007339,0l-0.007532,0l-0.00753,0l-0.007544,0l-0.007721,0l-0.007746,0l-0.007732,0l-0.007925,0l-0.007936,0l-0.007923,0l-0.008139,0l-0.008127,0l-0.008331,0l-0.008123,0l-0.008533,0l-0.008327,0l-0.008522,0l-0.008533,0l-0.008718,0l-0.008532,0l-0.008917,0l-0.008722,0l-0.008924,0l-0.009127,0l-0.008924,0l-0.009315,0l-0.009115,0l-0.009321,0l-0.009317,0l-0.009521,0l-0.00952,0l-0.00951,0l-0.009722,0l-0.00971,0l-0.00993,0l-0.009899,0l-0.00993,0l-0.010105,0l-0.010117,0l-0.010103,0l-0.010321,0l-0.010506,0l-0.010309,0l-0.010714,0l-0.010509,0l-0.0107,0l-0.010916,0l-0.0107,0l-0.011105,0l-0.010916,0l-0.011295,0l-0.011106,0l-0.011295,0l-0.011309,0l-0.011497,0l-0.011501,0l-0.011698,0l-0.011703,0l-0.011892,0l-0.011892,0l-0.011904,0l-0.012094,0l-0.012285,0l-0.012108,0l-0.012486,0l-0.012299,0l-0.012487,0l-0.012691,0l-0.01269,0l-0.012894,0l-0.01289,0l-0.012884,0l-0.013096,0l-0.013271,0l-0.013288,0l-0.013287,0l-0.013489,0l-0.013489,0l-0.013668,0l-0.013691,0l-0.013882,0l-0.01387,0l-0.014082,0l-0.014086,0l-0.014265,0l-0.014284,0l-0.014467,0l-0.014477,0l-0.014683,0l-0.014669,0l-0.014872,0l-0.01487,0l-0.015072,0l-0.015074,0l-0.015265,0l-0.015265,0l-0.015469,0l-0.015465,0l-0.015669,0l-0.015863,0l-0.015858,0l-0.015862,0l-0.016064,0l-0.016264,0l-0.016251,0l-0.016268,0l-0.016455,0l-0.016659,0l-0.016659,0l-0.01685,0l-0.016848,0l-0.017052,0l-0.017063,0l-0.017244,0l-0.017456,0l-0.017445,0l-0.017645,0l-0.017649,0l-0.017851,0l-0.017851,0l-0.018038,0l-0.018042,0l-0.018246,0l-0.018446,0l-0.018435,0l-0.018646,0l-0.018639,0l-0.018839,0l-0.018824,0l-0.019045,0l-0.01923,0l-0.019236,0l-0.019432,0l-0.019638,0l-0.019625,0l-0.019625,0l-0.020031,0l-0.019829,0l-0.020222,0l-0.019245,0l0.000013,0zm-15.863062,-3.944209c0,-1.089191 0.887745,-1.972099 1.982889,-1.972099l5.948643,0c1.09514,0 1.982887,0.882908 1.982887,1.972099c0,1.089201 -0.887747,1.97211 -1.982887,1.97211l-5.948643,0c-1.095144,0 -1.982889,-0.882909 -1.982889,-1.97211zm-7.931531,11.832629c0,-1.089188 0.887746,-1.972097 1.982889,-1.972097l13.880175,0c1.09514,0 1.982887,0.88291 1.982887,1.972097c0,1.089191 -0.887747,1.972111 -1.982887,1.972111l-13.880175,0c-1.095142,0 -1.982889,-0.882919 -1.982889,-1.972111zm9.914421,-7.88842c-1.095144,0 -1.982889,0.882909 -1.982889,1.972113c0,1.089188 0.887745,1.972099 1.982889,1.972099l5.948643,0c1.09514,0 1.982887,-0.882912 1.982887,-1.972099c0,-1.089204 -0.887747,-1.972113 -1.982887,-1.972113l-5.948643,0zm-7.931532,-5.916308c-1.095142,0 -1.982889,0.882908 -1.982889,1.972099l0,5.916322c0,1.089188 0.887746,1.972099 1.982889,1.972099l1.982877,0c1.095154,0 1.982888,-0.882912 1.982888,-1.972099l0,-5.916322c0,-1.089191 -0.887734,-1.972099 -1.982888,-1.972099l-1.982877,0z" fill="#494949" id="svg_1"/>
 </g>
</svg>