<!-- Generated by IcoMoon.io -->
<svg version="1.1" xmlns="http://www.w3.org/2000/svg" width="32" height="32" viewBox="0 0 32 32">
<title>icOpenInNew</title>
<path d="M22.065-0c-0.783 0-1.419 0.637-1.419 1.424s0.635 1.424 1.419 1.424h5.111l-15.335 15.47c-0.47 0.474-0.402 1.312 0.152 1.871s1.384 0.627 1.854 0.153l15.316-15.451v5.135c0 0.786 0.635 1.424 1.419 1.424s1.418-0.637 1.418-1.424v-10.025h-9.935zM4.256 7.671c-0.783 0-1.419 0.641-1.419 1.431v18.605c0 0.79 0.635 1.431 1.419 1.431h18.441c0.783 0 1.419-0.641 1.419-1.431v-12.343c0-0.79 0.635-1.431 1.418-1.431s1.419 0.641 1.419 1.431v12.343c0 2.371-1.905 4.293-4.256 4.293h-18.441c-2.35 0-4.256-1.922-4.256-4.293v-18.605c0-2.371 1.905-4.293 4.256-4.293h12.235c0.783 0 1.419 0.641 1.419 1.431s-0.635 1.431-1.419 1.431h-12.235z"></path>
</svg>
