<!-- Generated by IcoMoon.io -->
<svg version="1.1" xmlns="http://www.w3.org/2000/svg" width="32" height="32" viewBox="0 0 32 32">
<title>icPerson</title>
<path d="M12 7.2c0-2.209 1.791-4 4-4s4 1.791 4 4c0 2.209-1.791 4-4 4s-4-1.791-4-4zM16 0c-3.976 0-7.2 3.224-7.2 7.2s3.223 7.2 7.2 7.2c3.977 0 7.2-3.223 7.2-7.2s-3.224-7.2-7.2-7.2zM8 16c-2.651 0-4.8 2.149-4.8 4.8v9.6c0 0.884 0.716 1.6 1.6 1.6s1.6-0.716 1.6-1.6v-9.6c0-0.884 0.716-1.6 1.6-1.6h16c0.884 0 1.6 0.716 1.6 1.6v9.6c0 0.884 0.716 1.6 1.6 1.6s1.6-0.716 1.6-1.6v-9.6c0-2.651-2.149-4.8-4.8-4.8h-16z"></path>
</svg>
