<!-- Generated by IcoMoon.io -->
<svg version="1.1" xmlns="http://www.w3.org/2000/svg" width="32" height="32" viewBox="0 0 32 32">
<title>icPhone</title>
<path d="M5.729 1.271c-1.123 0.959-2.647 2.561-4.196 4.3-0.522 0.586-0.802 1.333-0.764 2.121 0.164 3.431 1.194 7.478 3.627 11.431 3.656 5.941 9.761 10.277 18.728 12.245 1.043 0.229 2.141-0.095 2.897-0.848l1.732-1.716c0.916-0.902 1.754-1.718 2.506-2.443 1.288-1.242 1.303-3.304 0.027-4.56l-4.386-4.314-0.201-0.181c-1.239-1.028-3.077-0.967-4.244 0.185l-2.123 2.094-0.278-0.135c-2.715-1.375-5.201-3.626-6.695-6.921l-0.184-0.424-0.042 0.048c0.579-0.654 1.154-1.254 1.711-1.798 1.283-1.253 1.351-3.333 0.093-4.625l-3.996-4.103c-1.111-1.141-2.717-1.448-4.001-0.522l-0.211 0.166zM7.28 4.133l0.365-0.332 0.028 0.035 3.996 4.103c0.019 0.019 0.016 0.099-0.037 0.15-0.609 0.595-1.236 1.25-1.868 1.962-0.77 0.868-0.993 2.098-0.552 3.175 1.876 4.579 5.239 7.564 8.903 9.288 1.149 0.541 2.484 0.27 3.379-0.613l2.186-2.156 4.386 4.314c0.004 0.004 0.004 0.015-0.004 0.021l-1.459 1.416c-0.688 0.672-1.428 1.401-2.217 2.183l-0.597 0.592c-8.115-1.78-13.491-5.598-16.697-10.808l-0.342-0.575c-1.765-3.069-2.587-6.183-2.788-8.853l-0.025-0.404 0.689-0.764c0.967-1.061 1.901-2.034 2.652-2.735z"></path>
</svg>
