<!-- Generated by IcoMoon.io -->
<svg version="1.1" xmlns="http://www.w3.org/2000/svg" width="32" height="32" viewBox="0 0 32 32">
<title>icQuestionMark</title>
<path d="M16 2.834c-3.869 0-7.006 3.137-7.006 7.006 0 0.783-0.634 1.417-1.417 1.417s-1.417-0.634-1.417-1.417c0-5.434 4.405-9.84 9.84-9.84s9.84 4.405 9.84 9.84c0 4.298-2.755 7.949-6.59 9.29-1.186 0.415-1.832 1.252-1.832 1.966v2.978c0 0.782-0.634 1.417-1.417 1.417s-1.417-0.634-1.417-1.417v-2.978c0-2.416 1.962-4.023 3.731-4.641 2.734-0.956 4.692-3.559 4.692-6.615 0-3.869-3.137-7.006-7.006-7.006zM18.125 29.875c0 1.174-0.952 2.125-2.125 2.125s-2.125-0.951-2.125-2.125c0-1.174 0.952-2.125 2.125-2.125s2.125 0.952 2.125 2.125z"></path>
</svg>
