<!-- Generated by IcoMoon.io -->
<svg version="1.1" xmlns="http://www.w3.org/2000/svg" width="32" height="32" viewBox="0 0 32 32">
<title>icQuotes</title>
<path d="M8.727 0c0.803 0 1.455 0.651 1.455 1.455v1.455c0 0.803-0.651 1.455-1.455 1.455s-1.455-0.651-1.455-1.455v-1.455c0-0.803 0.651-1.455 1.455-1.455zM6.545 5.818c-1.607 0-2.909 1.302-2.909 2.909v11.636c0 1.607 1.302 2.909 2.909 2.909h4.364c1.607 0 2.909-1.302 2.909-2.909v-11.636c0-1.607-1.302-2.909-2.909-2.909h-4.364zM10.909 8.727v11.636h-4.364v-11.636h4.364zM21.091 10.182c-1.607 0-2.909 1.302-2.909 2.909v10.182c0 1.607 1.302 2.909 2.909 2.909h4.364c1.607 0 2.909-1.302 2.909-2.909v-10.182c0-1.607-1.302-2.909-2.909-2.909h-4.364zM21.091 23.273v-10.182h4.364v10.182h-4.364zM8.727 24.727c0.803 0 1.455 0.651 1.455 1.455v1.455c0 0.803-0.651 1.455-1.455 1.455s-1.455-0.651-1.455-1.455v-1.455c0-0.803 0.651-1.455 1.455-1.455zM24.727 29.091c0-0.803-0.651-1.455-1.455-1.455s-1.455 0.651-1.455 1.455v1.455c0 0.803 0.651 1.455 1.455 1.455s1.455-0.651 1.455-1.455v-1.455zM24.727 5.818c0-0.803-0.651-1.455-1.455-1.455s-1.455 0.651-1.455 1.455v1.455c0 0.803 0.651 1.455 1.455 1.455s1.455-0.651 1.455-1.455v-1.455z"></path>
</svg>
