<!-- Generated by IcoMoon.io -->
<svg version="1.1" xmlns="http://www.w3.org/2000/svg" width="32" height="32" viewBox="0 0 32 32">
<title>icReport</title>
<path d="M9.6-0c-3.263 0-5.908 2.645-5.908 5.908v20.185c0 3.263 2.645 5.908 5.908 5.908h12.8c3.263 0 5.908-2.645 5.908-5.908v-20.185c0-3.263-2.645-5.908-5.908-5.908h-12.8zM7.631 5.908c0-1.088 0.882-1.969 1.969-1.969h12.8c1.088 0 1.969 0.882 1.969 1.969v20.185c0 1.088-0.882 1.969-1.969 1.969h-12.8c-1.088 0-1.969-0.882-1.969-1.969v-20.185zM23.164 12.047c0.603-0.905 0.357-2.128-0.548-2.73s-2.128-0.357-2.731 0.548l-2.595 3.898-1.365-0.927c-0.456-0.309-1.020-0.414-1.556-0.288s-0.995 0.471-1.266 0.951l-3.821 6.784c-0.534 0.947-0.198 2.148 0.749 2.682s2.148 0.198 2.682-0.749l2.771-4.919 1.238 0.841c0.435 0.295 0.969 0.404 1.485 0.303s0.969-0.404 1.261-0.841l3.696-5.553z"></path>
</svg>
