<!-- Generated by IcoMoon.io -->
<svg version="1.1" xmlns="http://www.w3.org/2000/svg" width="32" height="32" viewBox="0 0 32 32">
<title>icRequisites</title>
<path d="M9.6 0c-3.263 0-5.908 2.645-5.908 5.908v20.185c0 3.263 2.645 5.908 5.908 5.908h12.8c3.263 0 5.908-2.645 5.908-5.908v-20.185c0-3.263-2.645-5.908-5.908-5.908h-12.8zM7.63 5.908c0-1.088 0.882-1.969 1.969-1.969h12.8c1.088 0 1.969 0.882 1.969 1.969v20.185c0 1.088-0.882 1.969-1.969 1.969h-12.8c-1.088 0-1.969-0.882-1.969-1.969v-20.185zM12.061 6.892c-1.088 0-1.969 0.882-1.969 1.969s0.882 1.969 1.969 1.969h7.877c1.088 0 1.969-0.882 1.969-1.969s-0.882-1.969-1.969-1.969h-7.877zM10.092 14.769c0-1.088 0.882-1.969 1.969-1.969h7.877c1.088 0 1.969 0.882 1.969 1.969s-0.882 1.969-1.969 1.969h-7.877c-1.088 0-1.969-0.882-1.969-1.969zM12.061 18.708c-1.088 0-1.969 0.882-1.969 1.969s0.882 1.969 1.969 1.969h7.877c1.088 0 1.969-0.882 1.969-1.969s-0.882-1.969-1.969-1.969h-7.877z"></path>
</svg>
