<!-- Generated by IcoMoon.io -->
<svg version="1.1" xmlns="http://www.w3.org/2000/svg" width="32" height="32" viewBox="0 0 32 32">
<title>icStarOutlined</title>
<path d="M13.35 2.571c0.834-2.567 4.466-2.567 5.301 0l2.492 7.671h8.065c2.699 0 3.822 3.454 1.638 5.041l-6.525 4.741 2.492 7.671c0.834 2.567-2.104 4.702-4.288 3.116l-6.525-4.741-6.525 4.741c-2.184 1.587-5.122-0.548-4.288-3.116l2.492-7.671-6.525-4.741c-2.184-1.587-1.062-5.041 1.638-5.041h8.065l2.492-7.671zM18.492 11.103c-0.373-1.148-2.492-7.671-2.492-7.671l-2.492 7.671c-0.373 1.148-1.443 1.926-2.65 1.926h-8.065l6.525 4.741c0.977 0.71 1.385 1.967 1.012 3.116l-2.492 7.671 6.525-4.741c0.977-0.71 2.299-0.71 3.276 0l6.525 4.741-2.492-7.671c-0.373-1.148 0.036-2.406 1.012-3.116l6.525-4.741h-8.065c-1.207 0-2.277-0.777-2.65-1.926z"></path>
</svg>
