<!-- Generated by IcoMoon.io -->
<svg version="1.1" xmlns="http://www.w3.org/2000/svg" width="32" height="32" viewBox="0 0 32 32">
<title>ic_speech_baloons</title>
<path d="M3.854 2.935h14.012c2.129 0 3.855 1.726 3.855 3.855v1.285h6.424c2.129 0 3.855 1.726 3.855 3.855v9.608c0 2.080-1.677 3.768-3.752 3.786v1.167c0 2.478-3.162 3.521-4.636 1.528l-1.993-2.695h-7.486c-2.129 0-3.855-1.726-3.855-3.855v-3.616h-0.671l-1.284 2.084c-1.427 2.316-5.003 1.117-4.746-1.591l0.047-0.493c-2.009-0.043-3.624-1.686-3.624-3.705v-7.357c0-2.129 1.726-3.855 3.855-3.855zM19.152 8.074v-1.285c0-0.71-0.575-1.285-1.285-1.285h-14.012c-0.71 0-1.285 0.575-1.285 1.285v7.357c0 0.628 0.509 1.136 1.136 1.136 1.471 0 2.623 1.267 2.484 2.731l-0.055 0.574 1.284-2.084c0.468-0.759 1.296-1.222 2.188-1.222h0.671v-3.354c0-2.129 1.726-3.855 3.855-3.855h5.018zM29.43 11.929c0-0.71-0.575-1.285-1.285-1.285h-14.012c-0.71 0-1.285 0.575-1.285 1.285v9.54c0 0.71 0.575 1.285 1.285 1.285h7.486c0.815 0 1.581 0.387 2.066 1.042l1.993 2.695v-1.201c0-1.4 1.135-2.536 2.535-2.536 0.672 0 1.217-0.545 1.217-1.217v-9.608z"></path>
</svg>
