<!-- Generated by IcoMoon.io -->
<svg version="1.1" xmlns="http://www.w3.org/2000/svg" width="32" height="32" viewBox="0 0 32 32">
<title>ic_search</title>
<path d="M22 13.414c0-4.971-4.029-9-9-9s-9 4.029-9 9 4.029 9 9 9c4.971 0 9-4.029 9-9zM21.167 23.529c-2.232 1.805-5.073 2.885-8.167 2.885-7.18 0-13-5.82-13-13s5.82-13 13-13c7.18 0 13 5.82 13 13 0 2.683-0.813 5.177-2.206 7.248 0.161 0.089 0.312 0.201 0.449 0.338l7.171 7.172c0.781 0.781 0.781 2.047 0 2.828s-2.047 0.781-2.828 0l-7.172-7.172c-0.093-0.093-0.176-0.194-0.247-0.3z"></path>
</svg>
