<!-- Generated by IcoMoon.io -->
<svg version="1.1" xmlns="http://www.w3.org/2000/svg" width="32" height="32" viewBox="0 0 32 32">
<title>icSettings</title>
<path d="M9.843 8.612c-4.080 0-7.388 3.308-7.388 7.388s3.308 7.388 7.388 7.388h12.314c4.080 0 7.388-3.308 7.388-7.388s-3.308-7.388-7.388-7.388h-12.314zM-0.008 16c0-5.441 4.41-9.851 9.851-9.851h12.314c5.441 0 9.851 4.41 9.851 9.851s-4.41 9.851-9.851 9.851h-12.314c-5.441 0-9.851-4.41-9.851-9.851zM13.537 16c0-2.040-1.654-3.694-3.694-3.694s-3.694 1.654-3.694 3.694c0 2.040 1.654 3.694 3.694 3.694s3.694-1.654 3.694-3.694zM16 16c0 3.4-2.757 6.157-6.157 6.157s-6.157-2.757-6.157-6.157c0-3.4 2.757-6.157 6.157-6.157s6.157 2.757 6.157 6.157z"></path>
</svg>
