<!-- Generated by IcoMoon.io -->
<svg version="1.1" xmlns="http://www.w3.org/2000/svg" width="32" height="32" viewBox="0 0 32 32">
<title>icWallet</title>
<path d="M-0.003 7.999v16.892c0 2.946 2.388 5.334 5.334 5.334h21.337c2.946 0 5.334-2.388 5.334-5.334v-10.669c0-1.58-0.687-2.999-1.778-3.976v-2.247c0-2.946-2.388-5.334-5.334-5.334h-19.559c-2.946 0-5.334 2.388-5.334 5.334zM26.669 7.999v0.889h-23.115v-0.889c0-0.982 0.796-1.778 1.778-1.778h19.559c0.982 0 1.778 0.796 1.778 1.778zM3.553 23.112v-10.669h23.115c0.982 0 1.778 0.796 1.778 1.778v10.669c0 0.982-0.796 1.778-1.778 1.778h-21.337c-0.982 0-1.778-0.796-1.778-1.778v-1.778zM23.112 21.334c0.982 0 1.778-0.796 1.778-1.778s-0.796-1.778-1.778-1.778c-0.982 0-1.778 0.796-1.778 1.778s0.796 1.778 1.778 1.778z"></path>
</svg>
