<svg width="53" height="75" viewBox="0 0 53 75" fill="none" xmlns="http://www.w3.org/2000/svg">
<rect x="1.09375" y="1.03296" width="50" height="72" rx="6" fill="white"/>
<path d="M34.0938 1.59546H42.5938L46.0938 1.03296L51.0938 4.97046V65.033C51.0938 69.4512 47.512 73.033 43.0937 73.033H39.0938C39.0938 73.033 39.0938 37.033 39.0938 11.158C39.0938 7.37861 34.0938 1.59546 34.0938 1.59546Z" fill="#E7E5E5"/>
<path d="M1.09375 56.8488V67.033C1.09375 70.3467 3.78004 73.033 7.09375 73.033H45.0938C48.4075 73.033 51.0938 70.3467 51.0938 67.033V55.033V37.033V7.03296C51.0938 3.71925 48.4075 1.03296 45.0937 1.03296H7.09375C3.78004 1.03296 1.09375 3.71925 1.09375 7.03296V45.033M1.09375 50.033V52.033" stroke="black" stroke-width="2" stroke-linecap="round"/>
<rect x="9.09375" y="14.033" width="34" height="4" rx="2" fill="white" stroke="black" stroke-width="2"/>
<rect x="9.09375" y="25.033" width="34" height="4" rx="2" fill="white" stroke="black" stroke-width="2"/>
<rect x="9.09375" y="36.033" width="17" height="4" rx="2" fill="white" stroke="black" stroke-width="2"/>
<circle cx="36.532" cy="56.9862" r="10.4383" fill="#F87A7A" stroke="black" stroke-width="2"/>
<path d="M44.9364 62.8006C42.0539 67.7931 35.67 69.5037 30.6775 66.6212C30.6775 66.6212 37.0318 64.8936 39.9142 59.901C42.7967 54.9085 41.1157 48.5416 41.1157 48.5416C46.1083 51.4241 47.8188 57.808 44.9364 62.8006Z" fill="#CD6666"/>
<circle cx="36.532" cy="56.9862" r="10.4383" stroke="black" stroke-width="2"/>
<path fill-rule="evenodd" clip-rule="evenodd" d="M34.5548 53.8188C34.1643 53.4283 33.5311 53.4283 33.1406 53.8188C32.7501 54.2093 32.7501 54.8425 33.1406 55.233L35.12 57.2124L33.367 58.9654C32.9765 59.356 32.9765 59.9891 33.367 60.3796C33.7575 60.7702 34.3907 60.7702 34.7812 60.3796L36.5342 58.6266L38.2873 60.3797C38.6778 60.7702 39.311 60.7702 39.7015 60.3797C40.092 59.9891 40.092 59.356 39.7015 58.9654L37.9485 57.2124L39.9279 55.233C40.3184 54.8425 40.3184 54.2093 39.9279 53.8188C39.5374 53.4283 38.9042 53.4283 38.5137 53.8188L36.5342 55.7982L34.5548 53.8188Z" fill="white"/>
</svg>
