<svg width="180" height="180" viewBox="0 0 180 180" fill="none" xmlns="http://www.w3.org/2000/svg">
<path fill-rule="evenodd" clip-rule="evenodd" d="M90 30.6C57.1943 30.6 30.6 57.1943 30.6 90C30.6 122.806 57.1943 149.4 90 149.4C122.806 149.4 149.4 122.806 149.4 90C149.4 77.7027 145.665 66.2832 139.268 56.8071C137.149 53.6689 136.764 53.073 134.1 50.4C133.398 49.6959 133.4 48.5562 134.104 47.8544C134.809 47.1527 135.948 47.1546 136.65 47.8588C139.474 50.6927 140.005 51.4649 142.252 54.7929C149.038 64.8451 153 76.9626 153 90C153 124.794 124.794 153 90 153C55.2061 153 27 124.794 27 90C27 55.2061 55.2061 27 90 27C103.848 27 116.657 31.4699 127.056 39.0451C127.859 39.6304 128.036 40.7563 127.451 41.5598C126.866 42.3633 125.74 42.5402 124.936 41.9549C115.132 34.8131 103.061 30.6 90 30.6Z" fill="black"/>
<path fill-rule="evenodd" clip-rule="evenodd" d="M90 39.6C62.1648 39.6 39.6 62.1648 39.6 90C39.6 117.835 62.1648 140.4 90 140.4C117.835 140.4 140.4 117.835 140.4 90C140.4 62.1648 117.835 39.6 90 39.6ZM36 90C36 60.1766 60.1766 36 90 36C119.823 36 144 60.1766 144 90C144 119.823 119.823 144 90 144C60.1766 144 36 119.823 36 90Z" fill="black"/>
<path fill-rule="evenodd" clip-rule="evenodd" d="M67.7094 107.635H64.326C61.975 107.635 60.0692 105.729 60.0692 103.378V87.7575L59.6006 88.085C56.7791 90.0571 52.9053 88.0384 52.9053 84.596V82.2956C52.9053 80.9049 53.5846 79.6019 54.7247 78.8056L61.0744 74.3712C61.7891 73.872 62.6399 73.6044 63.5117 73.6044H67.7094C70.0604 73.6044 71.9662 75.5102 71.9662 77.8611V103.378C71.9662 105.729 70.0604 107.635 67.7094 107.635ZM57.8588 85.5929C57.0526 86.1563 55.9458 85.5796 55.9458 84.596V82.2956C55.9458 81.8982 56.1399 81.5259 56.4657 81.2984L62.8153 76.864C63.0195 76.7214 63.2626 76.6449 63.5117 76.6449H67.7094C68.3811 76.6449 68.9256 77.1894 68.9256 77.8611V103.378C68.9256 104.05 68.3811 104.594 67.7094 104.594H64.326C63.6543 104.594 63.1098 104.05 63.1098 103.378V82.4287C63.1098 82.2831 62.9917 82.1651 62.8461 82.1651C62.7921 82.1651 62.7394 82.1817 62.6951 82.2126L57.8588 85.5929ZM99.5145 104.774C96.8881 106.682 93.3944 107.635 89.5787 107.635C85.763 107.635 82.2693 106.682 79.6429 104.774C76.9553 102.821 75.253 99.8971 75.253 96.4014V96.3626C75.253 93.2755 76.5731 90.754 78.6059 88.9758C77.1692 87.4078 76.2737 85.3643 76.2737 82.9592V82.9205C76.2737 76.1129 82.77 72.3647 89.5787 72.3647C96.364 72.3647 102.884 76.1098 102.884 82.9205V82.9592C102.884 85.371 101.98 87.4068 100.544 88.9684C102.58 90.7498 103.904 93.2786 103.904 96.3626V96.4014C103.904 99.8971 102.202 102.821 99.5145 104.774ZM98.1125 90.8999C99.814 92.1937 100.864 94.0984 100.864 96.3626V96.4014C100.864 101.244 96.2612 104.594 89.5787 104.594C82.8962 104.594 78.2935 101.244 78.2935 96.4014V96.3626C78.2935 94.0984 79.336 92.2011 81.0365 90.9083C81.3231 90.6904 81.6284 90.4897 81.9506 90.3072C82.766 89.8456 83.6893 89.5012 84.6908 89.2924C84.7022 89.2901 84.7136 89.2877 84.725 89.2854C84.7588 89.2784 84.7835 89.2487 84.7835 89.2142C84.7835 89.1808 84.7604 89.1517 84.728 89.1436C84.7167 89.1408 84.7054 89.1379 84.6942 89.1351C83.6922 88.8803 82.7911 88.4758 82.0255 87.9481C81.7288 87.7435 81.4525 87.5205 81.1986 87.2805C80.0115 86.1585 79.3142 84.6656 79.3142 82.9592V82.9205C79.3142 78.5818 83.5317 75.4053 89.5787 75.4053C95.6064 75.4053 99.8431 78.5818 99.8431 82.9205V82.9592C99.8431 84.6656 99.1397 86.1524 97.9507 87.2725C97.6974 87.5112 97.422 87.7332 97.1267 87.9371C96.3607 88.4661 95.4606 88.8735 94.463 89.1345C94.4517 89.1374 94.4403 89.1404 94.4289 89.1433C94.3967 89.1516 94.3739 89.1806 94.3739 89.2138C94.3739 89.2485 94.3987 89.2784 94.4327 89.2852C94.4443 89.2875 94.4558 89.2898 94.4673 89.2922C95.4672 89.4968 96.3911 89.8407 97.2078 90.3042C97.5263 90.4849 97.8285 90.6839 98.1125 90.8999ZM88.2905 84.0061C88.441 84.135 88.8298 84.3542 89.5787 84.3542C90.3129 84.3542 90.6966 84.1379 90.8466 84.009C90.9625 83.9094 91.0445 83.786 91.0445 83.5209V83.4822C91.0445 83.2296 90.9678 83.1131 90.8509 83.0137C90.6972 82.8828 90.3084 82.6683 89.5787 82.6683C88.8344 82.6683 88.4405 82.8857 88.2861 83.0166C88.1697 83.1154 88.0936 83.2302 88.0936 83.4822V83.5209C88.0936 83.7854 88.175 83.9071 88.2905 84.0061ZM87.7626 96.778C88.0483 97.0151 88.6294 97.2927 89.5787 97.2927C90.5141 97.2927 91.0901 97.0175 91.3749 96.7805C91.6248 96.5726 91.7378 96.3381 91.7378 96.014V95.9752C91.7378 95.6309 91.6179 95.3915 91.376 95.1879C91.1011 94.9565 90.5326 94.6771 89.5787 94.6771C88.6241 94.6771 88.0475 94.957 87.7657 95.193C87.5173 95.4009 87.4003 95.6404 87.4003 95.9752V96.014C87.4003 96.3375 87.5127 96.5706 87.7626 96.778ZM114.907 98.4153H110.845C108.494 98.4153 106.588 96.5095 106.588 94.1586V91.4969C106.588 89.146 108.494 87.2402 110.845 87.2402H114.907V83.3813C114.907 81.0304 116.813 79.1246 119.164 79.1246H121.796C124.147 79.1246 126.053 81.0304 126.053 83.3813V87.2402H130.135C132.486 87.2402 134.392 89.146 134.392 91.4969V94.1586C134.392 96.5095 132.486 98.4153 130.135 98.4153H126.053V102.274C126.053 104.625 124.147 106.531 121.796 106.531H119.164C116.813 106.531 114.907 104.625 114.907 102.274V98.4153ZM89.5787 87.3947C86.9018 87.3947 85.0531 85.8065 85.0531 83.5209V83.4822C85.0531 81.1966 86.9211 79.6277 89.5787 79.6277C92.217 79.6277 94.085 81.1966 94.085 83.4822V83.5209C94.085 85.8065 92.2363 87.3947 89.5787 87.3947ZM89.5787 100.333C86.5167 100.333 84.3598 98.532 84.3598 96.014V95.9752C84.3598 93.4573 86.4974 91.6366 89.5787 91.6366C92.6599 91.6366 94.7783 93.4573 94.7783 95.9752V96.014C94.7783 98.532 92.6214 100.333 89.5787 100.333ZM110.845 95.3748C110.173 95.3748 109.628 94.8303 109.628 94.1586V91.4969C109.628 90.8253 110.173 90.2807 110.845 90.2807H117.948V83.3813C117.948 82.7096 118.492 82.1651 119.164 82.1651H121.796C122.468 82.1651 123.013 82.7096 123.013 83.3813V90.2807H130.135C130.807 90.2807 131.351 90.8253 131.351 91.4969V94.1586C131.351 94.8303 130.807 95.3748 130.135 95.3748H123.013V102.274C123.013 102.946 122.468 103.49 121.796 103.49H119.164C118.492 103.49 117.948 102.946 117.948 102.274V95.3748H110.845Z" fill="black"/>
</svg>
