<svg width="161" height="161" viewBox="0 0 161 161" fill="none" xmlns="http://www.w3.org/2000/svg">
<path fill-rule="evenodd" clip-rule="evenodd" d="M128.5 79.6597C128.5 106.611 106.652 128.46 79.7 128.46C70.426 128.46 61.7562 125.873 54.3729 121.381L52.048 123.706C60.0576 128.745 69.5384 131.66 79.7 131.66C108.419 131.66 131.7 108.378 131.7 79.6597C131.7 70.3708 129.264 61.6508 124.997 54.1034L134.046 56.5282C134.58 56.6712 135.128 56.3546 135.271 55.8211L135.582 54.662C135.725 54.1285 135.408 53.5802 134.875 53.4372L121.931 49.9691L120.386 49.555L119.972 51.1004L116.504 64.0438C116.361 64.5773 116.677 65.1256 117.211 65.2686L118.37 65.5792C118.903 65.7221 119.452 65.4055 119.595 64.8721L122.107 55.4955C126.175 62.6197 128.5 70.8682 128.5 79.6597ZM36.8677 103.063L39.3946 93.633C39.5375 93.0995 40.0859 92.783 40.6193 92.9259L41.7784 93.2365C42.3119 93.3794 42.6285 93.9278 42.4855 94.4612L39.0174 107.405L38.6033 108.95L37.0578 108.536L24.1144 105.068C23.5809 104.925 23.2643 104.377 23.4073 103.843L23.7178 102.684C23.8608 102.151 24.4091 101.834 24.9426 101.977L33.9453 104.389C29.9619 97.0345 27.7 88.6112 27.7 79.6597C27.7 50.9409 50.9812 27.6597 79.7 27.6597C89.5619 27.6597 98.7827 30.405 106.64 35.1732L104.305 37.5076C97.0812 33.2817 88.6734 30.8597 79.7 30.8597C52.7485 30.8597 30.9 52.7082 30.9 79.6597C30.9 88.14 33.0631 96.1151 36.8677 103.063Z" fill="white"/>
<path fill-rule="evenodd" clip-rule="evenodd" d="M86.9533 65.8147C86.9533 69.9307 83.6167 73.2674 79.5007 73.2674C75.3847 73.2674 72.048 69.9307 72.048 65.8147C72.048 61.6988 75.3847 58.3621 79.5007 58.3621C83.6167 58.3621 86.9533 61.6988 86.9533 65.8147ZM84.6189 75.1595C87.9174 73.3491 90.1533 69.843 90.1533 65.8147C90.1533 59.9315 85.384 55.1621 79.5007 55.1621C73.6174 55.1621 68.848 59.9315 68.848 65.8147C68.848 69.8427 71.0836 73.3486 74.3817 75.1591C66.7282 77.2383 61.0996 84.2356 61.0996 92.5476C61.0996 95.9681 63.8725 98.741 67.293 98.741H91.7062C95.1267 98.741 97.8996 95.9681 97.8996 92.5476C97.8996 84.2362 92.2718 77.2392 84.6189 75.1595ZM79.1168 77.7305H79.8825C88.0658 77.7305 94.6996 84.3643 94.6996 92.5476C94.6996 94.2008 93.3594 95.541 91.7062 95.541H67.293C65.6398 95.541 64.2996 94.2008 64.2996 92.5476C64.2996 84.3643 70.9335 77.7305 79.1168 77.7305Z" fill="white"/>
</svg>
