<svg width="110" height="94" viewBox="0 0 110 94" fill="none" xmlns="http://www.w3.org/2000/svg">
<rect x="30" y="1" width="50" height="72" rx="6" fill="#D1DEF5"/>
<path d="M63 1.5H71.5L75 1L80 4.5V65H68C68 65 68 33 68 10C68 6.64058 63 1.5 63 1.5Z" fill="#88A6DC"/>
<path d="M30 73H74C77.3137 73 80 70.3137 80 67V55V37V7C80 3.68629 77.3137 1 74 1H36C32.6863 1 30 3.68629 30 7V45M30 50V52" stroke="black" stroke-width="2" stroke-linecap="round"/>
<path opacity="0.2" d="M100 40C100 64.8528 79.8528 85 55 85C30.1472 85 10 64.8528 10 40" stroke="black"/>
<path d="M63.8284 48H71.1716L72.7476 60.123L68.9992 57.9604C68.0714 57.4252 66.9286 57.4252 66.0008 57.9604L62.2524 60.123L63.8284 48Z" fill="#AF77C2" stroke="black" stroke-width="2"/>
<path d="M14.9823 42.415C14.6543 45.4117 13.3088 47.7066 11.8855 49.2476C11.1726 50.0193 10.4508 50.5902 9.84766 50.9584C9.54567 51.1427 9.28596 51.2686 9.08303 51.3446C8.90022 51.413 8.80696 51.4246 8.78889 51.4268C8.78519 51.4273 8.78465 51.4274 8.78714 51.4275C8.7635 51.4267 8.62471 51.405 8.3582 51.2404C8.10559 51.0844 7.80279 50.8398 7.46826 50.5028C6.80016 49.8299 6.07721 48.8612 5.44677 47.7196C4.16604 45.4005 3.39676 42.6128 3.96948 40.347C4.64079 37.6913 5.98607 34.797 7.424 32.9341C8.15469 31.9875 8.82488 31.4185 9.34716 31.2039C9.58995 31.1041 9.75893 31.0978 9.87767 31.1223C9.99108 31.1457 10.1489 31.2153 10.3433 31.4302C11.5306 32.7431 12.7978 34.6852 13.716 36.7375C14.6442 38.8122 15.1526 40.8592 14.9823 42.415Z" fill="#62B194" stroke="black" stroke-width="2"/>
<path d="M14.6993 49.1875C16.1317 51.84 16.3281 54.493 16.0321 56.5698C15.8839 57.6099 15.6141 58.4898 15.3269 59.1354C15.1831 59.4586 15.0409 59.7098 14.9171 59.8876C14.8055 60.0478 14.7353 60.1103 14.7217 60.1224C14.7189 60.1248 14.7185 60.1252 14.7206 60.1239C14.7007 60.1366 14.5742 60.1976 14.2613 60.2136C13.9648 60.2287 13.5767 60.1994 13.1099 60.1121C12.1778 59.9378 11.0326 59.5513 9.86524 58.97C7.49379 57.7889 5.27707 55.9317 4.46129 53.7417C3.50507 51.1747 2.96804 48.0286 3.09318 45.6786C3.15677 44.4845 3.38506 43.6355 3.69297 43.1622C3.83611 42.9421 3.97162 42.841 4.08324 42.7937C4.18985 42.7485 4.35929 42.7161 4.64131 42.7825C6.36435 43.1886 8.51048 44.067 10.432 45.2344C12.3744 46.4145 13.9557 47.8104 14.6993 49.1875Z" fill="#62B194" stroke="black" stroke-width="2"/>
<path d="M17.9322 56.7628C20.2383 58.7045 21.3948 61.1001 21.8819 63.1406C22.1258 64.1624 22.1978 65.08 22.1677 65.7859C22.1526 66.1394 22.1124 66.4252 22.0625 66.6361C22.0175 66.826 21.9752 66.9099 21.967 66.9262C21.9653 66.9295 21.9651 66.93 21.9665 66.928C21.9527 66.9471 21.8574 67.0503 21.5722 67.18C21.3019 67.3029 20.9301 67.4181 20.4639 67.5083C19.5329 67.6883 18.3257 67.7492 17.0265 67.6369C14.3871 67.4088 11.6434 66.495 10.0806 64.7573C8.2489 62.7205 6.59449 59.9911 5.84829 57.7593C5.4691 56.6252 5.3698 55.7516 5.48248 55.1983C5.53486 54.9411 5.62378 54.7973 5.71024 54.7123C5.79282 54.6311 5.93853 54.5388 6.22526 54.4971C7.97706 54.2423 10.2958 54.2716 12.5117 54.6522C14.7517 55.0369 16.735 55.7548 17.9322 56.7628Z" fill="#62B194" stroke="black" stroke-width="2"/>
<path d="M22.5904 43.532C21.2692 46.2417 19.2275 47.9471 17.3672 48.9166C16.4356 49.4022 15.5633 49.6956 14.8712 49.8384C14.5247 49.9098 14.2377 49.9406 14.0211 49.9435C13.8259 49.9462 13.7342 49.9256 13.7165 49.9216C13.7128 49.9207 13.7123 49.9206 13.7146 49.9215C13.6926 49.9128 13.5693 49.8455 13.3741 49.6005C13.189 49.3684 12.9867 49.0358 12.7857 48.6057C12.3842 47.7466 12.031 46.5906 11.8234 45.3032C11.4015 42.6877 11.6192 39.804 12.9238 37.865C14.4529 35.5922 16.6969 33.3226 18.6796 32.0551C19.6872 31.411 20.5102 31.1018 21.0743 31.0763C21.3365 31.0644 21.4977 31.1156 21.6012 31.1788C21.7 31.2391 21.8251 31.3579 21.9354 31.6259C22.6093 33.2628 23.1459 35.5188 23.3167 37.7606C23.4894 40.0269 23.2763 42.1253 22.5904 43.532Z" fill="#62B194" stroke="black" stroke-width="2"/>
<path d="M24.4629 50.9859C23.9252 53.9521 22.4219 56.1469 20.8939 57.5841C20.1286 58.3039 19.3684 58.8227 18.7409 59.1476C18.4268 59.3103 18.1588 59.4176 17.9511 59.4792C17.7639 59.5346 17.6701 59.5396 17.6519 59.5406C17.6482 59.5408 17.6476 59.5408 17.6501 59.541C17.6266 59.5386 17.4896 59.5072 17.2354 59.3243C16.9943 59.1509 16.7095 58.8857 16.3994 58.526C15.7802 57.8078 15.1271 56.7908 14.5784 55.6078C13.4637 53.2044 12.8921 50.3696 13.6225 48.1496C14.4787 45.5476 16.0239 42.7549 17.5891 40.9976C18.3845 40.1047 19.093 39.5841 19.629 39.4067C19.8782 39.3242 20.0472 39.3299 20.164 39.3626C20.2754 39.3939 20.428 39.4744 20.6068 39.7024C21.699 41.0955 22.8267 43.1218 23.5985 45.2335C24.3786 47.3683 24.7421 49.4459 24.4629 50.9859Z" fill="#62B194" stroke="black" stroke-width="2"/>
<path d="M24.559 65.2044C27.2585 66.5464 28.9482 68.6011 29.9034 70.4687C30.3818 71.4041 30.6685 72.2786 30.806 72.9717C30.8748 73.3187 30.9033 73.6059 30.9046 73.8226C30.9058 74.0178 30.8845 74.1093 30.8803 74.1271C30.8795 74.1307 30.8794 74.1312 30.8803 74.1289C30.8714 74.1508 30.8032 74.2736 30.5567 74.467C30.3231 74.6502 29.989 74.85 29.5573 75.0477C28.6952 75.4426 27.5365 75.7869 26.2476 75.9847C23.629 76.3866 20.747 76.1467 18.8181 74.8273C16.557 73.2808 14.3047 71.0195 13.0524 69.0271C12.4161 68.0146 12.1132 67.1893 12.092 66.625C12.0822 66.3627 12.1346 66.2019 12.1985 66.0989C12.2596 66.0006 12.3794 65.8764 12.6482 65.7681C14.2902 65.1068 16.5503 64.5875 18.7933 64.4339C21.0608 64.2786 23.1576 64.5078 24.559 65.2044Z" fill="#62B194" stroke="black" stroke-width="2"/>
<path d="M28.7853 58.088C29.1171 61.0843 28.3031 63.6169 27.2491 65.4307C26.7212 66.339 26.1409 67.0533 25.6323 67.5438C25.3776 67.7895 25.1515 67.9688 24.97 68.0871C24.8064 68.1937 24.7179 68.2253 24.7008 68.2314C24.6973 68.2326 24.6968 68.2328 24.6992 68.2324C24.676 68.2367 24.5358 68.2458 24.2398 68.1431C23.9593 68.0458 23.6106 67.8729 23.2108 67.6168C22.4123 67.1053 21.4959 66.3171 20.6322 65.34C18.8776 63.3551 17.5203 60.8015 17.5864 58.4654C17.6638 55.7272 18.3473 52.6096 19.3455 50.4785C19.8527 49.3956 20.3831 48.6944 20.8461 48.3713C21.0614 48.2211 21.225 48.1782 21.3462 48.1763C21.462 48.1744 21.6312 48.208 21.8676 48.3755C23.3122 49.3987 24.9716 51.0186 26.3142 52.822C27.6715 54.645 28.6131 56.5324 28.7853 58.088Z" fill="#62B194" stroke="black" stroke-width="2"/>
<path d="M35.7592 63.3548C36.8292 66.1732 36.674 68.8289 36.1067 70.8485C35.8226 71.8599 35.4391 72.6965 35.0693 73.2986C34.8841 73.6001 34.71 73.8303 34.5638 73.9902C34.4321 74.1343 34.3542 74.187 34.3392 74.1972C34.3361 74.1993 34.3356 74.1996 34.3379 74.1985C34.3165 74.2085 34.183 74.2523 33.8708 74.2268C33.5749 74.2027 33.194 74.1225 32.7428 73.9744C31.8418 73.6787 30.7576 73.1445 29.6771 72.4143C27.4821 70.9308 25.5297 68.7975 25.0099 66.519C24.4007 63.8483 24.2833 60.6588 24.7173 58.3459C24.9378 57.1706 25.2761 56.3591 25.6437 55.9305C25.8146 55.7313 25.9623 55.6489 26.0792 55.6167C26.1908 55.586 26.363 55.5762 26.6338 55.6793C28.2883 56.309 30.2998 57.4628 32.0505 58.8735C33.8203 60.2995 35.2037 61.8917 35.7592 63.3548Z" fill="#62B194" stroke="black" stroke-width="2"/>
<path d="M33.3744 72.8355C36.1355 74.0454 37.9226 76.016 38.967 77.8353C39.49 78.7465 39.8187 79.6061 39.9895 80.2918C40.075 80.6351 40.1174 80.9206 40.1291 81.1369C40.1397 81.3318 40.1228 81.4243 40.1196 81.4422C40.1189 81.4459 40.1188 81.4464 40.1196 81.4441C40.1118 81.4664 40.0495 81.5923 39.8127 81.7973C39.5883 81.9917 39.2642 82.2074 38.8426 82.4257C38.0006 82.8618 36.8599 83.2617 35.582 83.5216C32.9859 84.0495 30.0957 83.9492 28.1052 82.7246C25.7721 81.2892 23.4131 79.1394 22.066 77.2098C21.3815 76.2293 21.0391 75.4195 20.9906 74.857C20.9681 74.5954 21.0127 74.4323 21.0716 74.3264C21.1278 74.2251 21.2415 74.0953 21.5047 73.9742C23.1128 73.2342 25.3452 72.6064 27.5782 72.3445C29.8356 72.0798 31.9409 72.2074 33.3744 72.8355Z" fill="#62B194" stroke="black" stroke-width="2"/>
<path d="M44.8162 68.6248C46.0059 71.3948 45.9644 74.0547 45.4841 76.0967C45.2436 77.1194 44.8963 77.9717 44.5525 78.589C44.3804 78.8982 44.2163 79.1356 44.0771 79.3016C43.9516 79.4512 43.8761 79.5072 43.8615 79.518C43.8585 79.5202 43.8581 79.5205 43.8603 79.5194C43.8393 79.5303 43.7078 79.5798 43.3948 79.5677C43.0982 79.5562 42.7142 79.4924 42.2571 79.3638C41.3443 79.1069 40.2381 78.6196 39.1274 77.9363C36.871 76.5481 34.8291 74.5003 34.2122 72.2461C33.4892 69.6039 33.2354 66.4224 33.57 64.0931C33.7401 62.9094 34.0433 62.0841 34.3923 61.6402C34.5545 61.4339 34.6985 61.3452 34.8139 61.3081C34.9241 61.2726 35.0958 61.2555 35.3707 61.3469C37.0506 61.9052 39.1097 62.9719 40.9192 64.3063C42.7484 65.6553 44.1986 67.1868 44.8162 68.6248Z" fill="#62B194" stroke="black" stroke-width="2"/>
<path d="M43.8655 77.7003C46.8397 78.1918 49.0576 79.6607 50.5185 81.1662C51.2501 81.9202 51.7807 82.6722 52.1153 83.2945C52.2828 83.6062 52.3943 83.8724 52.4591 84.0792C52.5174 84.2654 52.5239 84.3592 52.5251 84.3773C52.5254 84.3811 52.5254 84.3816 52.5256 84.3791C52.5236 84.4027 52.4943 84.5401 52.3154 84.7972C52.1458 85.0409 51.885 85.3299 51.5302 85.6455C50.8218 86.2758 49.815 86.9446 48.6406 87.5117C46.255 88.6637 43.4294 89.2793 41.1983 88.5836C38.5832 87.768 35.7669 86.2664 33.9854 84.7288C33.0802 83.9474 32.5487 83.2471 32.3629 82.7139C32.2766 82.466 32.2796 82.2969 32.3105 82.1797C32.3401 82.0677 32.4182 81.9139 32.6434 81.7316C34.0193 80.6178 36.0278 79.4587 38.1272 78.6542C40.2496 77.8409 42.3214 77.4452 43.8655 77.7003Z" fill="#62B194" stroke="black" stroke-width="2"/>
<path d="M52.277 70.1515C54.3887 72.3029 55.3129 74.7975 55.6043 76.8749C55.7503 77.9153 55.735 78.8355 55.6381 79.5354C55.5895 79.8859 55.5225 80.1666 55.4528 80.3718C55.39 80.5566 55.3399 80.6361 55.3302 80.6515C55.3282 80.6546 55.3279 80.6551 55.3296 80.6532C55.314 80.671 55.2093 80.7647 54.9132 80.8668C54.6325 80.9635 54.2514 81.0429 53.7788 81.0885C52.8349 81.1795 51.6274 81.1256 50.3446 80.8907C47.7387 80.4134 45.094 79.2436 43.703 77.3656C42.0726 75.1644 40.6844 72.2904 40.1531 69.9979C39.8831 68.833 39.8671 67.9539 40.0317 67.4138C40.1082 67.1627 40.2104 67.028 40.3045 66.9516C40.3944 66.8786 40.5482 66.8005 40.8376 66.7861C42.6057 66.6986 44.9112 66.9475 47.081 67.5365C49.2745 68.1318 51.1808 69.0345 52.277 70.1515Z" fill="#62B194" stroke="black" stroke-width="2"/>
<path d="M94.6476 42.415C94.9756 45.4117 96.3211 47.7066 97.7444 49.2476C98.4572 50.0193 99.1791 50.5902 99.7822 50.9584C100.084 51.1427 100.344 51.2686 100.547 51.3446C100.73 51.413 100.823 51.4246 100.841 51.4268C100.845 51.4273 100.845 51.4274 100.843 51.4275C100.866 51.4267 101.005 51.405 101.272 51.2404C101.524 51.0844 101.827 50.8398 102.162 50.5028C102.83 49.8299 103.553 48.8612 104.183 47.7196C105.464 45.4005 106.233 42.6128 105.66 40.347C104.989 37.6913 103.644 34.797 102.206 32.9341C101.475 31.9875 100.805 31.4185 100.283 31.2039C100.04 31.1041 99.871 31.0978 99.7522 31.1223C99.6388 31.1457 99.481 31.2153 99.2866 31.4302C98.0992 32.7431 96.832 34.6852 95.9139 36.7375C94.9857 38.8122 94.4773 40.8592 94.6476 42.415Z" fill="#62B194" stroke="black" stroke-width="2"/>
<path d="M94.9306 49.1875C93.4982 51.84 93.3018 54.493 93.5977 56.5698C93.746 57.6099 94.0157 58.4898 94.3029 59.1354C94.4467 59.4586 94.589 59.7098 94.7128 59.8876C94.8244 60.0478 94.8946 60.1103 94.9082 60.1224C94.911 60.1248 94.9114 60.1252 94.9093 60.1239C94.9292 60.1366 95.0557 60.1976 95.3686 60.2136C95.6651 60.2287 96.0532 60.1994 96.5199 60.1121C97.4521 59.9378 98.5973 59.5513 99.7646 58.97C102.136 57.7889 104.353 55.9317 105.169 53.7417C106.125 51.1747 106.662 48.0286 106.537 45.6786C106.473 44.4845 106.245 43.6355 105.937 43.1622C105.794 42.9421 105.658 42.841 105.547 42.7937C105.44 42.7485 105.271 42.7161 104.989 42.7825C103.266 43.1886 101.119 44.067 99.1979 45.2344C97.2555 46.4145 95.6742 47.8104 94.9306 49.1875Z" fill="#62B194" stroke="black" stroke-width="2"/>
<path d="M91.6977 56.7628C89.3916 58.7045 88.2351 61.1001 87.748 63.1406C87.5041 64.1624 87.4321 65.08 87.4622 65.7859C87.4773 66.1394 87.5174 66.4252 87.5674 66.6361C87.6124 66.826 87.6547 66.9099 87.6629 66.9262C87.6646 66.9295 87.6648 66.93 87.6634 66.928C87.6772 66.9471 87.7725 67.0503 88.0577 67.18C88.3279 67.3029 88.6997 67.4181 89.1659 67.5083C90.097 67.6883 91.3041 67.7492 92.6034 67.6369C95.2428 67.4088 97.9865 66.495 99.5492 64.7573C101.381 62.7205 103.035 59.9911 103.782 57.7593C104.161 56.6252 104.26 55.7516 104.147 55.1983C104.095 54.9411 104.006 54.7973 103.92 54.7123C103.837 54.6311 103.691 54.5388 103.405 54.4971C101.653 54.2423 99.3341 54.2716 97.1182 54.6522C94.8782 55.0369 92.8949 55.7548 91.6977 56.7628Z" fill="#62B194" stroke="black" stroke-width="2"/>
<path d="M87.0394 44.532C88.3606 47.2417 90.4023 48.9471 92.2625 49.9166C93.1942 50.4022 94.0665 50.6956 94.7585 50.8384C95.105 50.9098 95.392 50.9406 95.6087 50.9435C95.8039 50.9462 95.8956 50.9256 95.9133 50.9216C95.9169 50.9207 95.9175 50.9206 95.9152 50.9215C95.9371 50.9128 96.0604 50.8455 96.2557 50.6005C96.4407 50.3684 96.6431 50.0358 96.8441 49.6057C97.2456 48.7466 97.5987 47.5906 97.8064 46.3032C98.2283 43.6877 98.0105 40.804 96.706 38.865C95.1769 36.5922 92.9329 34.3226 90.9501 33.0551C89.9426 32.411 89.1195 32.1018 88.5555 32.0763C88.2932 32.0644 88.1321 32.1156 88.0286 32.1788C87.9298 32.2391 87.8047 32.3579 87.6944 32.6259C87.0204 34.2628 86.4839 36.5188 86.3131 38.7606C86.1404 41.0269 86.3535 43.1253 87.0394 44.532Z" fill="#62B194" stroke="black" stroke-width="2"/>
<path d="M85.1669 50.9859C85.7046 53.9521 87.2079 56.1469 88.7359 57.5841C89.5012 58.3039 90.2613 58.8227 90.8888 59.1476C91.203 59.3103 91.4709 59.4176 91.6787 59.4792C91.8659 59.5346 91.9597 59.5396 91.9779 59.5406C91.9816 59.5408 91.9821 59.5408 91.9797 59.541C92.0032 59.5386 92.1401 59.5072 92.3944 59.3243C92.6354 59.1509 92.9203 58.8857 93.2304 58.526C93.8495 57.8078 94.5027 56.7908 95.0514 55.6078C96.1661 53.2044 96.7377 50.3696 96.0073 48.1496C95.1511 45.5476 93.6059 42.7549 92.0407 40.9976C91.2453 40.1047 90.5368 39.5841 90.0007 39.4067C89.7515 39.3242 89.5825 39.3299 89.4658 39.3626C89.3543 39.3939 89.2017 39.4744 89.023 39.7024C87.9307 41.0955 86.8031 43.1218 86.0313 45.2335C85.2511 47.3683 84.8877 49.4459 85.1669 50.9859Z" fill="#62B194" stroke="black" stroke-width="2"/>
<path d="M85.0709 65.2044C82.3714 66.5464 80.6817 68.6011 79.7265 70.4687C79.2481 71.4041 78.9613 72.2786 78.8239 72.9717C78.7551 73.3187 78.7265 73.6059 78.7253 73.8226C78.7241 74.0178 78.7454 74.1093 78.7495 74.1271C78.7504 74.1307 78.7505 74.1312 78.7496 74.1289C78.7585 74.1508 78.8267 74.2736 79.0732 74.467C79.3068 74.6502 79.6408 74.85 80.0725 75.0477C80.9347 75.4426 82.0933 75.7869 83.3823 75.9847C86.0009 76.3866 88.8829 76.1467 90.8118 74.8273C93.0729 73.2808 95.3252 71.0195 96.5774 69.0271C97.2138 68.0146 97.5166 67.1893 97.5378 66.625C97.5477 66.3627 97.4953 66.2019 97.4313 66.0989C97.3703 66.0006 97.2505 65.8764 96.9817 65.7681C95.3397 65.1068 93.0796 64.5875 90.8366 64.4339C88.569 64.2786 86.4723 64.5078 85.0709 65.2044Z" fill="#62B194" stroke="black" stroke-width="2"/>
<path d="M80.8446 58.088C80.5128 61.0843 81.3268 63.6169 82.3808 65.4307C82.9086 66.339 83.489 67.0533 83.9976 67.5438C84.2522 67.7895 84.4784 67.9688 84.6599 68.0871C84.8234 68.1937 84.912 68.2253 84.9291 68.2314C84.9326 68.2326 84.9331 68.2328 84.9307 68.2324C84.9539 68.2367 85.0941 68.2458 85.39 68.1431C85.6705 68.0458 86.0193 67.8729 86.4191 67.6168C87.2176 67.1053 88.134 66.3171 88.9977 65.34C90.7523 63.3551 92.1096 60.8015 92.0435 58.4654C91.966 55.7272 91.2826 52.6096 90.2844 50.4785C89.7772 49.3956 89.2468 48.6944 88.7837 48.3713C88.5685 48.2211 88.4049 48.1782 88.2837 48.1763C88.1679 48.1744 87.9987 48.208 87.7622 48.3755C86.3177 49.3987 84.6583 51.0186 83.3157 52.822C81.9584 54.645 81.0168 56.5324 80.8446 58.088Z" fill="#62B194" stroke="black" stroke-width="2"/>
<path d="M73.8707 63.3548C72.8007 66.1732 72.9559 68.8289 73.5232 70.8485C73.8073 71.8599 74.1908 72.6965 74.5606 73.2986C74.7458 73.6001 74.9199 73.8303 75.0661 73.9902C75.1978 74.1343 75.2756 74.187 75.2907 74.1972C75.2938 74.1993 75.2943 74.1996 75.292 74.1985C75.3134 74.2085 75.4469 74.2523 75.7591 74.2268C76.055 74.2027 76.4359 74.1225 76.8871 73.9744C77.788 73.6787 78.8723 73.1445 79.9528 72.4143C82.1477 70.9308 84.1001 68.7975 84.6199 66.519C85.2292 63.8483 85.3466 60.6588 84.9126 58.3459C84.6921 57.1706 84.3538 56.3591 83.9862 55.9305C83.8153 55.7313 83.6676 55.6489 83.5507 55.6167C83.4391 55.586 83.2668 55.5762 82.996 55.6793C81.3416 56.309 79.3301 57.4628 77.5794 58.8735C75.8095 60.2995 74.4262 61.8917 73.8707 63.3548Z" fill="#62B194" stroke="black" stroke-width="2"/>
<path d="M76.2555 72.8355C73.4943 74.0454 71.7073 76.016 70.6629 77.8353C70.1399 78.7465 69.8112 79.6061 69.6404 80.2918C69.5549 80.6351 69.5125 80.9206 69.5008 81.1369C69.4902 81.3318 69.5071 81.4243 69.5103 81.4422C69.511 81.4459 69.5111 81.4464 69.5103 81.4441C69.5181 81.4664 69.5803 81.5923 69.8172 81.7973C70.0416 81.9917 70.3656 82.2074 70.7873 82.4257C71.6293 82.8618 72.77 83.2617 74.0479 83.5216C76.644 84.0495 79.5342 83.9492 81.5247 82.7246C83.8578 81.2892 86.2168 79.1394 87.5639 77.2098C88.2484 76.2293 88.5908 75.4195 88.6392 74.857C88.6618 74.5954 88.6172 74.4323 88.5583 74.3264C88.502 74.2251 88.3884 74.0953 88.1252 73.9742C86.517 73.2342 84.2847 72.6064 82.0517 72.3445C79.7943 72.0798 77.689 72.2074 76.2555 72.8355Z" fill="#62B194" stroke="black" stroke-width="2"/>
<path d="M64.8136 68.6248C63.624 71.3948 63.6654 74.0547 64.1458 76.0967C64.3863 77.1194 64.7336 77.9717 65.0774 78.589C65.2495 78.8982 65.4136 79.1356 65.5528 79.3016C65.6783 79.4512 65.7537 79.5072 65.7684 79.518C65.7714 79.5202 65.7718 79.5205 65.7696 79.5194C65.7906 79.5303 65.922 79.5798 66.2351 79.5677C66.5317 79.5562 66.9157 79.4924 67.3728 79.3638C68.2856 79.1069 69.3917 78.6196 70.5024 77.9363C72.7589 76.5481 74.8008 74.5003 75.4176 72.2461C76.1407 69.6039 76.3944 66.4224 76.0598 64.0931C75.8898 62.9094 75.5866 62.0841 75.2376 61.6402C75.0754 61.4339 74.9314 61.3452 74.816 61.3081C74.7058 61.2726 74.5341 61.2555 74.2591 61.3469C72.5793 61.9052 70.5202 62.9719 68.7107 64.3063C66.8815 65.6553 65.4313 67.1868 64.8136 68.6248Z" fill="#62B194" stroke="black" stroke-width="2"/>
<path d="M65.7644 77.7003C62.7901 78.1918 60.5722 79.6607 59.1114 81.1662C58.3798 81.9202 57.8492 82.6722 57.5146 83.2945C57.347 83.6062 57.2355 83.8724 57.1708 84.0792C57.1124 84.2654 57.106 84.3592 57.1047 84.3773C57.1045 84.3811 57.1045 84.3816 57.1042 84.3791C57.1063 84.4027 57.1356 84.5401 57.3145 84.7972C57.4841 85.0409 57.7449 85.3299 58.0996 85.6455C58.8081 86.2758 59.8149 86.9446 60.9892 87.5117C63.3749 88.6637 66.2005 89.2793 68.4316 88.5836C71.0467 87.768 73.863 86.2664 75.6444 84.7288C76.5497 83.9474 77.0812 83.2471 77.2669 82.7139C77.3533 82.466 77.3503 82.2969 77.3194 82.1797C77.2898 82.0677 77.2117 81.9139 76.9865 81.7316C75.6105 80.6178 73.6021 79.4587 71.5026 78.6542C69.3803 77.8409 67.3085 77.4452 65.7644 77.7003Z" fill="#62B194" stroke="black" stroke-width="2"/>
<path d="M57.3528 70.1515C55.2412 72.3029 54.317 74.7975 54.0256 76.8749C53.8796 77.9153 53.8948 78.8355 53.9918 79.5354C54.0403 79.8859 54.1074 80.1666 54.1771 80.3718C54.2399 80.5566 54.29 80.6361 54.2997 80.6515C54.3017 80.6546 54.3019 80.6551 54.3003 80.6532C54.3159 80.671 54.4206 80.7647 54.7167 80.8668C54.9974 80.9635 55.3785 81.0429 55.8511 81.0885C56.795 81.1795 58.0025 81.1256 59.2853 80.8907C61.8912 80.4134 64.5359 79.2436 65.9269 77.3656C67.5573 75.1644 68.9455 72.2904 69.4768 69.9979C69.7468 68.833 69.7628 67.9539 69.5982 67.4138C69.5217 67.1627 69.4195 67.028 69.3254 66.9516C69.2355 66.8786 69.0817 66.8005 68.7923 66.7861C67.0242 66.6986 64.7187 66.9475 62.5489 67.5365C60.3554 68.1318 58.4491 69.0345 57.3528 70.1515Z" fill="#62B194" stroke="black" stroke-width="2"/>
<circle cx="67.5" cy="45.5" r="7.5" fill="#AF77C2" stroke="black" stroke-width="2"/>
<rect x="38" y="14" width="34" height="4" rx="2" fill="#C2D2EF" stroke="black" stroke-width="2"/>
<rect x="38" y="25" width="34" height="4" rx="2" fill="#C2D2EF" stroke="black" stroke-width="2"/>
<rect x="38" y="36" width="17" height="4" rx="2" fill="#C2D2EF" stroke="black" stroke-width="2"/>
<circle cx="67.5" cy="45.5" r="3.5" fill="#915EA3"/>
</svg>
