<svg width="97" height="97" viewBox="0 0 97 97" fill="none" xmlns="http://www.w3.org/2000/svg">
    <path
        d="M60.2189 70.7761C63.0095 70.7761 65.8002 69.7139 67.9248 67.5893C72.1736 63.3405 72.1736 56.427 67.9248 52.1782C63.6757 47.9292 56.7623 47.9292 52.5133 52.1782C48.2645 56.427 48.2645 63.3405 52.5133 67.5893C54.6377 69.7137 57.4283 70.7761 60.2189 70.7761ZM54.4899 54.1547C56.0696 52.575 58.1439 51.7854 60.2189 51.7854C62.2936 51.7854 64.3688 52.5753 65.9479 54.1547C69.107 57.3137 69.107 62.4538 65.9479 65.6127C62.7891 68.7719 57.6488 68.7717 54.4899 65.6127C51.3307 62.4538 51.3307 57.3137 54.4899 54.1547Z"
        fill="#5B085A" />
    <path
        d="M47.5334 47.198C42.3336 52.3981 40.8301 60.1317 43.7035 66.9002C44.005 67.6108 44.826 67.9419 45.536 67.6406C46.2466 67.3389 46.5781 66.5185 46.2764 65.808C43.8507 60.0937 45.1201 53.5647 49.5102 49.1746C55.4151 43.2697 65.0234 43.2699 70.928 49.1746C76.8329 55.0795 76.8329 64.6875 70.928 70.5924C68.0911 73.429 64.3199 75.0043 60.3087 75.0279C60.2782 75.0281 60.2481 75.0281 60.2176 75.0281C56.2436 75.0281 52.4927 73.5028 49.6475 70.7279C49.0948 70.1887 48.21 70.1999 47.6713 70.7525C47.1323 71.305 47.1433 72.19 47.696 72.7289C51.0668 76.0167 55.5096 77.8234 60.217 77.8232C60.253 77.8232 60.2891 77.8232 60.3251 77.8228C65.0767 77.7951 69.5443 75.9289 72.9048 72.5686C79.8993 65.5739 79.8993 54.1927 72.9048 47.1978C65.9093 40.2032 54.5285 40.2032 47.5334 47.198Z"
        fill="#5B085A" />
    <path
        d="M93.6889 53.6086H88.7157C87.9772 50.2386 86.6632 47.0635 84.8092 44.168L88.3227 40.6543C88.8285 40.1488 89.1069 39.4766 89.1069 38.7616C89.1069 38.0465 88.8285 37.3744 88.3229 36.869L83.2336 31.7799C82.7281 31.2743 82.0561 30.9957 81.341 30.9957C80.626 30.9957 79.954 31.2741 79.4482 31.7797L75.9346 35.2936C73.0392 33.4394 69.8644 32.1256 66.4942 31.3869V26.4137C66.4942 24.938 65.2935 23.7371 63.8176 23.7371H56.6205C55.789 23.7371 55.0449 24.1184 54.5537 24.7151H53.6404C53.045 22.1094 52.0266 19.6484 50.6098 17.3911L53.2979 14.703C54.2457 13.755 54.2457 12.2128 53.2979 11.2646L49.1847 7.15146C48.7254 6.69229 48.1149 6.43941 47.4654 6.43941C46.816 6.43941 46.2053 6.69229 45.7463 7.15165L43.058 9.83958C40.8013 8.42294 38.3402 7.40453 35.734 6.80895V3.00457C35.7342 1.66396 34.6437 0.573242 33.3029 0.573242H27.4861C26.1455 0.573242 25.0548 1.66396 25.0548 3.00457V6.80913C22.4488 7.40471 19.9875 8.42331 17.7308 9.83977L15.043 7.15183C14.5839 6.69248 13.9734 6.4396 13.3237 6.4396C12.6741 6.4396 12.0634 6.69248 11.6043 7.15183L7.49149 11.2648C6.5437 12.2128 6.5437 13.755 7.49149 14.7032L10.1796 17.3913C8.76297 19.648 7.74456 22.1094 7.14898 24.7153H3.34442C2.0038 24.7153 0.913086 25.806 0.913086 27.1466V32.9634C0.913086 34.304 2.0038 35.3947 3.34442 35.3947H7.14898C7.74456 38.0009 8.76297 40.4622 10.1796 42.7188L7.49149 45.4069C6.54352 46.3548 6.54352 47.8973 7.49149 48.8452L11.6045 52.9584C12.5524 53.9062 14.0947 53.9066 15.043 52.9584L17.7311 50.2703C19.9877 51.6869 22.4486 52.7053 25.055 53.3009V54.2155C24.4558 54.7068 24.0727 55.452 24.0727 56.2855V63.4828C24.0727 64.9587 25.2734 66.1594 26.7493 66.1594H31.7224C32.4611 69.5296 33.7751 72.7048 35.6289 75.6L32.1155 79.1136C31.6097 79.6192 31.3313 80.2914 31.3313 81.0064C31.3313 81.7214 31.6097 82.3936 32.1153 82.899L37.2045 87.9881C37.7101 88.4936 38.3821 88.7722 39.0971 88.7722C39.8122 88.7722 40.4841 88.4938 40.9899 87.9883L44.5034 84.4744C47.3989 86.3286 50.5742 87.6426 53.944 88.3809V93.3541C53.944 94.83 55.1446 96.0306 56.6205 96.0306H63.8176C65.2935 96.0306 66.4942 94.83 66.4942 93.3541V88.3803C69.8644 87.6418 73.0394 86.3279 75.9348 84.4738L79.4484 87.9877C79.954 88.4931 80.626 88.7717 81.341 88.7717C82.0561 88.7717 82.7281 88.4933 83.2336 87.9877L88.3227 82.8986C88.8285 82.393 89.1069 81.7209 89.1069 81.0058C89.1069 80.2908 88.8285 79.6186 88.3229 79.1133L84.8092 75.5994C86.663 72.7044 87.977 69.529 88.7157 66.1588H93.6889C95.1648 66.1588 96.3655 64.9582 96.3655 63.4823V56.285C96.3656 54.8093 95.1648 53.6086 93.6889 53.6086ZM25.9269 50.6309C23.4512 50.096 21.1213 49.132 19.0013 47.7652C18.0429 47.1478 16.7649 47.2827 15.9616 48.0862L13.3237 50.7242L9.72529 47.1258L12.3633 44.4876C13.1666 43.6841 13.3016 42.4059 12.6842 41.4478C11.3173 39.3281 10.3531 36.9979 9.81828 34.5221C9.57733 33.4079 8.57792 32.5991 7.44173 32.5991H3.70836V27.5104H7.44192C8.57792 27.5104 9.57751 26.7016 9.81865 25.5869C10.3533 23.1114 11.3175 20.7814 12.6844 18.6615C13.3018 17.7038 13.1668 16.4254 12.3635 15.6219L9.72548 12.9839L13.3239 9.38545L15.9617 12.0234C16.7651 12.827 18.0429 12.9619 19.0017 12.3443C21.1216 10.9774 23.4516 10.0133 25.9269 9.47862C27.0413 9.23785 27.8502 8.23826 27.8502 7.10189V3.36852H32.9391V7.10208C32.9391 8.23845 33.7481 9.23804 34.8625 9.47881C37.3378 10.0135 39.6677 10.9776 41.7879 12.3443C42.7457 12.9617 44.0241 12.8272 44.8278 12.0234L47.4656 9.38545L51.0641 12.9839L48.4263 15.6217C47.6225 16.4253 47.4876 17.7036 48.1052 18.6615C49.4723 20.7818 50.4364 23.1119 50.9709 25.5869C51.2117 26.7014 52.2111 27.5104 53.3476 27.5104H53.9441V31.3869C50.5742 32.1254 47.3991 33.4394 44.5037 35.2936L40.9899 31.7797C40.9482 31.738 40.9038 31.7003 40.8598 31.6618C41.3501 28.4422 40.3597 25.0386 37.8855 22.5644C34.9584 19.6372 30.5605 18.6824 26.6816 20.1314C25.9586 20.4016 25.5913 21.2069 25.8617 21.9299C26.1317 22.6529 26.9369 23.0201 27.66 22.75C30.5156 21.6828 33.7539 22.3857 35.909 24.5409C37.7176 26.3494 38.4462 28.832 38.1031 31.1873C37.7709 31.3202 37.4654 31.5192 37.2047 31.7797L32.1156 36.8688C31.8544 37.1299 31.6552 37.4361 31.5223 37.7689C31.152 37.8227 30.776 37.8529 30.3949 37.8529C28.3118 37.8529 26.3536 37.0417 24.8809 35.569C22.4196 33.1077 21.889 29.2718 23.5906 26.2408C23.9683 25.5677 23.7291 24.7157 23.056 24.3379C22.3832 23.9602 21.531 24.1995 21.1531 24.8726C18.8411 28.9913 19.5611 34.2027 22.9041 37.5456C24.9692 39.6108 27.6821 40.6433 30.3947 40.6433C30.9295 40.6433 31.4638 40.601 31.9936 40.5204C32.0333 40.5656 32.0722 40.6115 32.1153 40.6543L35.6289 44.1682C33.7751 47.0634 32.461 50.2388 31.7224 53.6088H27.8502V53.0078C27.8502 51.8714 27.0415 50.8718 25.9269 50.6309ZM93.5704 63.3635H88.6192C87.3682 63.3635 86.268 64.2543 86.0026 65.4818C85.3325 68.5838 84.1244 71.5038 82.4116 74.1602C81.7314 75.215 81.8798 76.6227 82.7642 77.5071L86.2626 81.0057L81.3412 85.927L77.8428 82.4283C76.9586 81.544 75.5509 81.3955 74.4961 82.0755C71.8393 83.7884 68.9194 84.9966 65.8174 85.6667C64.5901 85.9319 63.6993 87.0323 63.6993 88.2833V93.2344H56.7394V88.2833C56.7394 87.0325 55.8487 85.9321 54.6212 85.6667C51.5193 84.9967 48.5996 83.7884 45.9426 82.0755C44.8882 81.3957 43.4805 81.5438 42.5957 82.4283L39.0975 85.9268L34.1761 81.0055L37.6743 77.5069C38.5591 76.6223 38.7075 75.2148 38.0273 74.16C36.3145 71.5034 35.1062 68.5836 34.4361 65.4814C34.1707 64.2541 33.0705 63.3632 31.8195 63.3632H26.8684V56.4033H31.8195C33.0705 56.4033 34.1707 55.5125 34.4361 54.285C35.1062 51.183 36.3143 48.2631 38.0271 45.6066C38.7075 44.5517 38.5591 43.1442 37.6745 42.2598L34.1761 38.7612L39.0975 33.8398L42.5957 37.3384C43.4801 38.2228 44.8876 38.3712 45.9426 37.6913C48.5996 35.9784 51.5195 34.7701 54.6212 34.1002C55.8487 33.835 56.7394 32.7346 56.7394 31.4836V26.5322H63.6993V31.4834C63.6993 32.7344 64.5901 33.8348 65.8174 34.1C68.9194 34.7699 71.8391 35.9782 74.4961 37.6912C75.5507 38.371 76.9582 38.223 77.843 37.3382L81.3412 33.8396L86.2626 38.761L82.7642 42.2601C81.8794 43.1447 81.7311 44.5523 82.4112 45.6068C84.124 48.2635 85.3323 51.1834 86.0024 54.2856C86.2678 55.5129 87.368 56.4039 88.619 56.4039H93.5702V63.3635H93.5704Z"
        fill="#5B085A" />
</svg>
