<svg width="48" height="48" viewBox="0 0 48 48" fill="none" xmlns="http://www.w3.org/2000/svg">
    <path fill-rule="evenodd" clip-rule="evenodd"
        d="M14.0752 13.8948C11.8827 13.8948 10.1053 15.675 10.1053 17.871V27.8116C10.1053 30.0076 11.8827 31.7878 14.0752 31.7878H26.9774C27.5256 31.7878 27.9699 31.3427 27.9699 30.7937C27.9699 30.2447 27.5256 29.7997 26.9774 29.7997H14.0752C12.9789 29.7997 12.0902 28.9096 12.0902 27.8116V17.871C12.0902 16.773 12.9789 15.8829 14.0752 15.8829H33.9248C35.0211 15.8829 35.9098 16.773 35.9098 17.871V27.2196C35.9098 27.7686 36.3541 28.2137 36.9022 28.2137C37.4504 28.2137 37.8947 27.7686 37.8947 27.2196V17.871C37.8947 15.675 36.1173 13.8948 33.9248 13.8948H14.0752ZM31.9398 28.8056L31.9398 35.3523L30.6567 34.0671C30.2691 33.6788 29.6407 33.6788 29.2531 34.0671C28.8655 34.4553 28.8655 35.0847 29.2531 35.4729L32.2305 38.455L32.9323 39.1579L33.6341 38.455L36.6116 35.4729C36.9991 35.0847 36.9991 34.4553 36.6116 34.0671C36.224 33.6788 35.5956 33.6788 35.208 34.0671L33.9248 35.3523L33.9248 28.8056C33.9248 28.2566 33.4805 27.8116 32.9323 27.8116C32.3842 27.8116 31.9398 28.2566 31.9398 28.8056ZM26.9774 22.8413C26.9774 24.4883 25.6444 25.8235 24 25.8235C22.3556 25.8235 21.0225 24.4883 21.0225 22.8413C21.0225 21.1943 22.3556 19.8591 24 19.8591C25.6444 19.8591 26.9774 21.1943 26.9774 22.8413ZM28.9624 22.8413C28.9624 25.5863 26.7407 27.8116 24 27.8116C21.2593 27.8116 19.0376 25.5863 19.0376 22.8413C19.0376 20.0963 21.2593 17.871 24 17.871C26.7407 17.871 28.9624 20.0963 28.9624 22.8413Z"
        fill="#EB5757" />
</svg>
