<svg width="186" height="186" viewBox="0 0 186 186" fill="none" xmlns="http://www.w3.org/2000/svg">
<path fill-rule="evenodd" clip-rule="evenodd" d="M148.8 92.0701C148.8 123.401 123.401 148.8 92.0703 148.8C81.2893 148.8 71.2106 145.793 62.6275 140.571L59.9248 143.274C69.236 149.132 80.2574 152.52 92.0703 152.52C125.456 152.52 152.52 125.456 152.52 92.0701C152.52 81.2718 149.689 71.1348 144.728 62.361L156.371 65.4807L157.334 61.8874L141.164 57.5548L139.368 57.0734L138.886 58.87L134.554 75.0396L138.147 76.0024L141.368 63.9792C146.098 72.2612 148.8 81.8501 148.8 92.0701ZM42.2778 119.277L45.5161 107.191L49.1094 108.154L44.7767 124.324L44.2953 126.12L42.4987 125.639L26.3291 121.306L27.2919 117.713L38.8805 120.818C34.2497 112.268 31.6203 102.476 31.6203 92.0701C31.6203 58.6845 58.6847 31.6201 92.0703 31.6201C103.535 31.6201 114.254 34.8116 123.388 40.3545L120.674 43.0683C112.276 38.1557 102.502 35.3401 92.0703 35.3401C60.7392 35.3401 35.3403 60.739 35.3403 92.0701C35.3403 101.929 37.8549 111.2 42.2778 119.277Z" fill="white"/>
<path fill-rule="evenodd" clip-rule="evenodd" d="M59.5195 59.5199C59.5195 56.4382 62.0178 53.9399 65.0995 53.9399H117.18C120.261 53.9399 122.76 56.4382 122.76 59.5199V61.3799C122.76 64.4617 120.261 66.9599 117.18 66.9599H84.1372C83.1099 66.9599 82.2772 66.1272 82.2772 65.0999C82.2772 64.0727 83.1099 63.2399 84.1372 63.2399H117.18C118.207 63.2399 119.04 62.4072 119.04 61.3799V59.5199C119.04 58.4927 118.207 57.6599 117.18 57.6599H65.0995C64.0723 57.6599 63.2395 58.4927 63.2395 59.5199V61.3799C63.2395 62.4072 64.0723 63.2399 65.0995 63.2399H73.6336C74.6609 63.2399 75.4937 64.0727 75.4937 65.0999C75.4937 66.1272 74.6609 66.9599 73.6336 66.9599H65.0995C62.0178 66.9599 59.5195 64.4617 59.5195 61.3799V59.5199Z" fill="white"/>
<path fill-rule="evenodd" clip-rule="evenodd" d="M59.5195 120.9C59.5195 117.818 62.0178 115.32 65.0995 115.32H117.18C120.261 115.32 122.76 117.818 122.76 120.9V122.76C122.76 125.842 120.261 128.34 117.18 128.34H65.0995C62.0178 128.34 59.5195 125.842 59.5195 122.76V120.9ZM65.0995 119.04C64.0723 119.04 63.2395 119.873 63.2395 120.9V122.76C63.2395 123.787 64.0723 124.62 65.0995 124.62H117.18C118.207 124.62 119.04 123.787 119.04 122.76V120.9C119.04 119.873 118.207 119.04 117.18 119.04H65.0995Z" fill="white"/>
<path fill-rule="evenodd" clip-rule="evenodd" d="M87.4202 91.1401C87.4202 89.9062 86.5158 88.8706 85.318 88.5745C74.7762 85.9686 66.9602 76.4471 66.9602 65.1001H63.2402C63.2402 76.9706 70.6535 87.1096 81.1029 91.1401C70.6535 95.1706 63.2402 105.31 63.2402 117.18H66.9602C66.9602 105.833 74.7762 96.3116 85.318 93.7057C86.5158 93.4096 87.4202 92.374 87.4202 91.1401ZM94.8602 91.1401C94.8602 92.374 95.7646 93.4096 96.9624 93.7057C107.504 96.3116 115.32 105.833 115.32 117.18H119.04C119.04 105.31 111.627 95.1706 101.178 91.1401C111.627 87.1096 119.04 76.9706 119.04 65.1001H115.32C115.32 76.4471 107.504 85.9686 96.9624 88.5745C95.7646 88.8706 94.8602 89.9062 94.8602 91.1401Z" fill="white"/>
<path d="M78.1201 104.16C78.1201 103.133 78.9529 102.3 79.9801 102.3H113.46V106.02H79.9801C78.9529 106.02 78.1201 105.187 78.1201 104.16Z" fill="white"/>
</svg>
