<svg width="50" height="69" viewBox="0 0 50 69" fill="none" xmlns="http://www.w3.org/2000/svg">
<path fill-rule="evenodd" clip-rule="evenodd" d="M25.0001 1.71533C14.8749 1.71533 6.66675 9.17722 6.66675 18.382V41.7153H43.3334V18.382C43.3334 9.17722 35.1253 1.71533 25.0001 1.71533ZM25.0001 9.12274C19.375 9.12274 14.8149 13.2682 14.8149 18.382V34.3079H35.1853V18.382C35.1853 13.2682 30.6252 9.12274 25.0001 9.12274Z" fill="#ACAEB4" stroke="black" stroke-width="2"/>
<path d="M6.66675 25.0486H15.1373V31.7153H6.66675V25.0486Z" fill="#959AA9"/>
<path d="M35.2396 25.0486H43.3334V31.7153H35.2396V25.0486Z" fill="#959AA9"/>
<path fill-rule="evenodd" clip-rule="evenodd" d="M25.0001 1.71533C14.8749 1.71533 6.66675 9.17722 6.66675 18.382V41.7153H43.3334V18.382C43.3334 9.17722 35.1253 1.71533 25.0001 1.71533ZM25.0001 9.12274C19.375 9.12274 14.8149 13.2682 14.8149 18.382V34.3079H35.1853V18.382C35.1853 13.2682 30.6252 9.12274 25.0001 9.12274Z" stroke="black" stroke-width="2"/>
<path d="M0 32.382C0 30.1729 1.79086 28.382 4 28.382H46C48.2091 28.382 50 30.1729 50 32.382V64.382C50 66.5912 48.2091 68.382 46 68.382H25H4C1.79086 68.382 0 66.5912 0 64.382V32.382Z" fill="#F6C86E"/>
<path d="M25 28.382L46.0003 28.382C48.2094 28.382 50.0003 30.1729 50.0003 32.382V64.3821C50.0003 66.5912 48.2094 68.3821 46.0003 68.3821L25 68.382V48.382V28.382Z" fill="#CDA14A"/>
<path d="M1 32.382C1 30.7252 2.34315 29.382 4 29.382H46C47.6569 29.382 49 30.7252 49 32.382V64.382C49 66.0389 47.6569 67.382 46 67.382H25H4C2.34315 67.382 1 66.0389 1 64.382V32.382Z" stroke="black" stroke-width="2"/>
<path fill-rule="evenodd" clip-rule="evenodd" d="M27.5 47.7131C28.9945 46.8486 30 45.2327 30 43.382C30 40.6206 27.7614 38.382 25 38.382C22.2386 38.382 20 40.6206 20 43.382C20 45.2327 21.0055 46.8486 22.5 47.7131V54.8487C22.5 54.9591 22.5895 55.0487 22.7 55.0487H27.3C27.4105 55.0487 27.5 54.9591 27.5 54.8487V47.7131Z" fill="#494949"/>
<path d="M27.5 47.7131L27.3748 47.4967L27.25 47.5689V47.7131H27.5ZM22.5 47.7131H22.75V47.5689L22.6252 47.4967L22.5 47.7131ZM29.75 43.382C29.75 45.1399 28.7952 46.675 27.3748 47.4967L27.6252 47.9295C29.1938 47.0221 30.25 45.3256 30.25 43.382H29.75ZM25 38.632C27.6234 38.632 29.75 40.7587 29.75 43.382H30.25C30.25 40.4825 27.8995 38.132 25 38.132V38.632ZM20.25 43.382C20.25 40.7587 22.3766 38.632 25 38.632V38.132C22.1005 38.132 19.75 40.4825 19.75 43.382H20.25ZM22.6252 47.4967C21.2048 46.675 20.25 45.1399 20.25 43.382H19.75C19.75 45.3256 20.8062 47.0221 22.3748 47.9295L22.6252 47.4967ZM22.75 54.8487V47.7131H22.25V54.8487H22.75ZM22.7 54.7987C22.7276 54.7987 22.75 54.821 22.75 54.8487H22.25C22.25 55.0972 22.4515 55.2987 22.7 55.2987V54.7987ZM27.3 54.7987H22.7V55.2987H27.3V54.7987ZM27.25 54.8487C27.25 54.821 27.2724 54.7987 27.3 54.7987V55.2987C27.5485 55.2987 27.75 55.0972 27.75 54.8487H27.25ZM27.25 47.7131V54.8487H27.75V47.7131H27.25Z" fill="black"/>
<path d="M25.104 38.2765L29.3754 40.3629L30.0004 43.3838L29.3754 45.9245L27.8776 47.4696V55.0504H25.104V38.2765Z" fill="#2E2C2C"/>
<path d="M27.5 47.7131L26.9993 46.8475L26.5 47.1363V47.7131H27.5ZM22.5 47.7131H23.5V47.1363L23.0007 46.8475L22.5 47.7131ZM29 43.382C29 44.8613 28.1975 46.1544 26.9993 46.8475L28.0007 48.5787C29.7915 47.5428 31 45.6041 31 43.382H29ZM25 39.382C27.2091 39.382 29 41.1729 29 43.382H31C31 40.0683 28.3137 37.382 25 37.382V39.382ZM21 43.382C21 41.1729 22.7909 39.382 25 39.382V37.382C21.6863 37.382 19 40.0683 19 43.382H21ZM23.0007 46.8475C21.8025 46.1544 21 44.8613 21 43.382H19C19 45.6041 20.2085 47.5428 21.9993 48.5787L23.0007 46.8475ZM23.5 54.8487V47.7131H21.5V54.8487H23.5ZM22.7 54.0487C23.1418 54.0487 23.5 54.4068 23.5 54.8487H21.5C21.5 55.5114 22.0373 56.0487 22.7 56.0487V54.0487ZM27.3 54.0487H22.7V56.0487H27.3V54.0487ZM26.5 54.8487C26.5 54.4068 26.8582 54.0487 27.3 54.0487V56.0487C27.9627 56.0487 28.5 55.5114 28.5 54.8487H26.5ZM26.5 47.7131V54.8487H28.5V47.7131H26.5Z" fill="black"/>
</svg>
