<svg width="201" height="200" viewBox="0 0 201 200" fill="none" xmlns="http://www.w3.org/2000/svg">
<path fill-rule="evenodd" clip-rule="evenodd" d="M108.729 49.5288C103.288 48.5395 97.7125 48.5395 92.2713 49.5288L65.0689 54.4747C61.265 55.1664 58.5 58.4794 58.5 62.3457V100.358C58.5 112.127 63.9527 123.231 73.265 130.427L95.6084 147.693C98.4895 149.919 102.51 149.919 105.392 147.693L127.735 130.427C137.047 123.231 142.5 112.127 142.5 100.358V62.3457C142.5 58.4794 139.735 55.1664 135.931 54.4747L108.729 49.5288ZM91.5557 45.5934C97.4701 44.518 103.53 44.518 109.444 45.5934L136.647 50.5392C142.353 51.5767 146.5 56.5463 146.5 62.3457V100.358C146.5 113.366 140.473 125.639 130.181 133.592L107.837 150.858C103.516 154.197 97.4843 154.197 93.1626 150.858L70.8192 133.592C60.5267 125.639 54.5 113.366 54.5 100.358V62.3457C54.5 56.5463 58.6475 51.5767 64.3534 50.5393L91.5557 45.5934Z" fill="black"/>
<path fill-rule="evenodd" clip-rule="evenodd" d="M95.8817 54.8305C98.934 54.2586 102.066 54.2586 105.118 54.8305L131.605 59.7932C134.443 60.3249 136.5 62.803 136.5 65.6905V101.429C136.5 110.567 132.336 119.206 125.188 124.898L105.483 140.588C102.567 142.911 98.433 142.911 95.5166 140.588L75.8122 124.898C68.6643 119.206 64.5 110.567 64.5 101.429V65.6905C64.5 62.803 66.5568 60.3249 69.395 59.7932L70.3783 59.6089L73.2305 59.0645C74.3155 58.8574 75.3629 59.5691 75.57 60.6541C75.7771 61.7391 75.0654 62.7865 73.9805 62.9936L71.1183 63.5399L70.1317 63.7248C69.1856 63.902 68.5 64.728 68.5 65.6905V101.429C68.5 109.348 72.109 116.836 78.3039 121.769L98.0083 137.459C99.4665 138.62 101.533 138.62 102.992 137.459L122.696 121.769C128.891 116.836 132.5 109.348 132.5 101.429V65.6905C132.5 64.728 131.814 63.902 130.868 63.7248L104.382 58.7621C101.816 58.2814 99.1838 58.2814 96.6183 58.7621L92.3683 59.5584C91.2826 59.7618 90.2376 59.0466 90.0342 57.9609C89.8308 56.8753 90.546 55.8302 91.6317 55.6268L95.8817 54.8305ZM83.6327 59.0282C83.8702 60.107 83.1882 61.174 82.1095 61.4115L80.9157 61.6743C79.837 61.9118 78.77 61.2298 78.5325 60.1511C78.295 59.0724 78.977 58.0053 80.0557 57.7679L81.2494 57.505C82.3282 57.2675 83.3952 57.9495 83.6327 59.0282Z" fill="black"/>
<path fill-rule="evenodd" clip-rule="evenodd" d="M92.9971 79.9502C92.6381 75.5395 96.1209 71.7617 100.546 71.7617C104.925 71.7617 108.392 75.4646 108.104 79.8343L106.939 97.4859C106.731 100.639 104.112 103.091 100.952 103.091H100.412C97.2873 103.091 94.6856 100.692 94.432 97.5776L92.9971 79.9502ZM100.546 75.7617C98.458 75.7617 96.8145 77.5443 96.984 79.6257L98.4188 97.2531C98.5034 98.2913 99.3706 99.0908 100.412 99.0908H100.952C102.005 99.0908 102.878 98.2737 102.948 97.2225L104.112 79.571C104.248 77.509 102.613 75.7617 100.546 75.7617Z" fill="black"/>
<path fill-rule="evenodd" clip-rule="evenodd" d="M100.5 109.458C98.8431 109.458 97.5 110.802 97.5 112.458C97.5 114.115 98.8431 115.458 100.5 115.458C102.157 115.458 103.5 114.115 103.5 112.458C103.5 110.802 102.157 109.458 100.5 109.458ZM93.5 112.458C93.5 108.593 96.634 105.458 100.5 105.458C104.366 105.458 107.5 108.593 107.5 112.458C107.5 116.324 104.366 119.458 100.5 119.458C96.634 119.458 93.5 116.324 93.5 112.458Z" fill="black"/>
</svg>
