<svg width="80" height="80" viewBox="0 0 80 80" fill="none" xmlns="http://www.w3.org/2000/svg">
<circle cx="40" cy="40" r="40" fill="#FF6464"/>
<path d="M80 40C80 62.0914 64.0914 80 42 80C42 80 64 62.0914 64 40C64 17.9086 42 0 42 0C64 -1.95503e-05 80 17.9086 80 40Z" fill="#EB5757"/>
<circle cx="40" cy="40" r="39" stroke="#494949" stroke-width="2"/>
<path d="M47.0711 38.5858C46.29 39.3669 46.29 40.6332 47.0711 41.4142L55.5563 49.8995C56.7279 51.0711 56.7279 52.9706 55.5563 54.1422L54.1421 55.5564C52.9706 56.7279 51.0711 56.728 49.8995 55.5564L41.4142 47.0711C40.6332 46.29 39.3668 46.29 38.5858 47.0711L30.1005 55.5564C28.9289 56.728 27.0294 56.7279 25.8579 55.5564L24.4437 54.1422C23.2721 52.9706 23.2721 51.0711 24.4437 49.8995L32.9289 41.4142C33.71 40.6332 33.71 39.3669 32.9289 38.5858L24.4437 30.1005C23.2721 28.929 23.2721 27.0295 24.4437 25.8579L25.8579 24.4437C27.0294 23.2721 28.9289 23.2721 30.1005 24.4437L38.5858 32.929C39.3668 33.71 40.6332 33.71 41.4142 32.929L49.8995 24.4437C51.0711 23.2721 52.9706 23.2721 54.1421 24.4437L55.5563 25.8579C56.7279 27.0295 56.7279 28.929 55.5563 30.1005L47.0711 38.5858Z" fill="white" stroke="#494949" stroke-width="2"/>
</svg>
