<svg width="87" height="80" viewBox="0 0 87 80" fill="none" xmlns="http://www.w3.org/2000/svg">
<mask id="path-1-inside-1" fill="white">
<path fill-rule="evenodd" clip-rule="evenodd" d="M68.3276 20.2545C65.26 8.59714 54.6475 0 42.0271 0C29.9247 0 19.6688 7.90578 16.1421 18.8347C6.71774 22.3224 0 31.3902 0 42.0271C0 55.6806 11.0683 66.7489 24.7218 66.7489C33.1821 66.7489 40.6498 62.4991 45.1066 56.0178C49.2599 61.7696 56.0221 65.5128 63.6587 65.5128C76.2882 65.5128 86.5264 55.2746 86.5264 42.6451C86.5264 31.6157 78.718 22.41 68.3276 20.2545Z"/>
</mask>
<path fill-rule="evenodd" clip-rule="evenodd" d="M68.3276 20.2545C65.26 8.59714 54.6475 0 42.0271 0C29.9247 0 19.6688 7.90578 16.1421 18.8347C6.71774 22.3224 0 31.3902 0 42.0271C0 55.6806 11.0683 66.7489 24.7218 66.7489C33.1821 66.7489 40.6498 62.4991 45.1066 56.0178C49.2599 61.7696 56.0221 65.5128 63.6587 65.5128C76.2882 65.5128 86.5264 55.2746 86.5264 42.6451C86.5264 31.6157 78.718 22.41 68.3276 20.2545Z" fill="#F8D1D1"/>
<path d="M68.3276 20.2545L64.9429 21.1452L65.4944 23.2412L67.6167 23.6815L68.3276 20.2545ZM16.1421 18.8347L17.3568 22.1171L18.9509 21.5272L19.4729 19.9095L16.1421 18.8347ZM45.1066 56.0178L47.9442 53.9689L45.0367 49.9424L42.2227 54.0347L45.1066 56.0178ZM71.7124 19.3638C68.2503 6.20709 56.2767 -3.5 42.0271 -3.5V3.5C53.0184 3.5 62.2698 10.9872 64.9429 21.1452L71.7124 19.3638ZM42.0271 -3.5C28.3617 -3.5 16.7907 5.42783 12.8112 17.7598L19.4729 19.9095C22.5469 10.3837 31.4877 3.5 42.0271 3.5V-3.5ZM14.9273 15.5522C4.17407 19.5317 -3.5 29.8788 -3.5 42.0271H3.5C3.5 32.9016 9.26141 25.113 17.3568 22.1171L14.9273 15.5522ZM-3.5 42.0271C-3.5 57.6136 9.13533 70.2489 24.7218 70.2489V63.2489C13.0013 63.2489 3.5 53.7476 3.5 42.0271H-3.5ZM24.7218 70.2489C34.383 70.2489 42.9088 65.3912 47.9906 58.001L42.2227 54.0347C38.3909 59.607 31.9812 63.2489 24.7218 63.2489V70.2489ZM63.6587 62.0128C57.1936 62.0128 51.4677 58.8485 47.9442 53.9689L42.2691 58.0668C47.052 64.6906 54.8507 69.0128 63.6587 69.0128V62.0128ZM83.0264 42.6451C83.0264 53.3416 74.3552 62.0128 63.6587 62.0128V69.0128C78.2212 69.0128 90.0264 57.2076 90.0264 42.6451H83.0264ZM67.6167 23.6815C76.4154 25.5068 83.0264 33.3079 83.0264 42.6451H90.0264C90.0264 29.9234 81.0205 19.3131 69.0386 16.8274L67.6167 23.6815Z" fill="#A0A4AE" mask="url(#path-1-inside-1)"/>
<path d="M15.4936 72.8839L40.0647 31.476C41.4375 29.1625 44.7533 29.1625 46.1261 31.476L70.6974 72.8839C72.1109 75.2658 70.414 78.2963 67.6667 78.2963H18.5243C15.7771 78.2963 14.0802 75.2659 15.4936 72.8839Z" fill="#F5DB7E"/>
<path opacity="0.4" d="M38.836 36.8125L43.147 29.7409L71.2063 76.5926H62.5172L38.836 36.8125Z" fill="#F2C54F"/>
<path fill-rule="evenodd" clip-rule="evenodd" d="M44.6074 32.4643C43.9225 31.3113 42.2682 31.3113 41.5834 32.4643L17.0668 73.7401C16.3616 74.9273 17.2082 76.4377 18.5787 76.4377H67.6122C68.9828 76.4377 69.8294 74.9273 69.1242 73.7401L44.6074 32.4643ZM38.5594 30.6315C40.614 27.1725 45.5767 27.1725 47.6313 30.6315L72.1482 71.9073C74.2637 75.4688 71.724 80 67.6122 80H18.5787C14.467 80 11.9273 75.4689 14.0428 71.9073L38.5594 30.6315Z" fill="#A0A4AE"/>
<path d="M39.9785 46.6201C39.8221 44.6387 41.3878 42.9446 43.3753 42.9446H43.668C45.6555 42.9446 47.2212 44.6387 47.0648 46.6201L46.2783 56.5821C46.1648 58.0204 44.9644 59.1297 43.5216 59.1297V59.1297C42.0788 59.1297 40.8785 58.0204 40.765 56.5821L39.9785 46.6201Z" fill="white"/>
<path fill-rule="evenodd" clip-rule="evenodd" d="M38.2803 46.7542C38.0456 43.7821 40.3942 41.2409 43.3755 41.2409H43.6681C46.6495 41.2409 48.998 43.7821 48.7634 46.7542L47.9769 56.7162C47.7934 59.0407 45.8536 60.8334 43.5218 60.8334C41.1901 60.8334 39.2503 59.0407 39.0667 56.7162L38.2803 46.7542ZM43.3755 44.6483C42.3817 44.6483 41.5989 45.4953 41.6771 46.486L42.4636 56.448C42.5072 57.0001 42.9679 57.426 43.5218 57.426C44.0757 57.426 44.5365 57.0001 44.5801 56.448L45.3666 46.486C45.4448 45.4953 44.6619 44.6483 43.6681 44.6483H43.3755Z" fill="#A0A4AE"/>
<path d="M46.5027 67.6482C46.5027 69.2948 45.1678 70.6297 43.5212 70.6297C41.8746 70.6297 40.5397 69.2948 40.5397 67.6482C40.5397 66.0016 41.8746 64.6667 43.5212 64.6667C45.1678 64.6667 46.5027 66.0016 46.5027 67.6482Z" fill="white"/>
<path fill-rule="evenodd" clip-rule="evenodd" d="M43.5212 66.3704C42.8155 66.3704 42.2434 66.9425 42.2434 67.6482C42.2434 68.3539 42.8155 68.926 43.5212 68.926C44.2269 68.926 44.7989 68.3539 44.7989 67.6482C44.7989 66.9425 44.2269 66.3704 43.5212 66.3704ZM38.836 67.6482C38.836 65.0607 40.9336 62.963 43.5212 62.963C46.1087 62.963 48.2063 65.0607 48.2063 67.6482C48.2063 70.2357 46.1087 72.3334 43.5212 72.3334C40.9336 72.3334 38.836 70.2357 38.836 67.6482Z" fill="#A0A4AE"/>
<path d="M19.3172 30.4008C13.3505 33.6397 11.2352 38.8212 14.0538 45.2797" stroke="white" stroke-width="4" stroke-linecap="round" stroke-linejoin="round"/>
<circle cx="26.6645" cy="22.9563" r="2.47218" transform="rotate(20.4008 26.6645 22.9563)" fill="white"/>
</svg>
