<svg width="136" height="25" viewBox="0 0 136 25" fill="none" xmlns="http://www.w3.org/2000/svg">
    <rect x="1" y="1" width="23" height="23" rx="2" stroke="#E9E3DE" stroke-width="2" />
    <line x1="6" y1="12" x2="19" y2="12" stroke="#E9E3DE" stroke-width="2" stroke-linecap="round"
        stroke-linejoin="round" />
    <path
        d="M109.058 23.9963C108.029 23.9963 107.338 23.5019 107.338 22.7659V21.092H107.971V22.7098C107.971 23.2192 108.367 23.5113 109.058 23.5113C109.748 23.5113 110.149 23.2192 110.149 22.7098V21.092H110.779V22.7659C110.779 23.5133 110.104 23.9963 109.058 23.9963ZM104.628 23.9963C104.377 24.0107 104.126 23.9831 103.889 23.9151C103.652 23.847 103.434 23.7399 103.249 23.6002C103.063 23.4605 102.913 23.2911 102.808 23.1022C102.703 22.9132 102.645 22.7086 102.638 22.5007C102.688 22.0923 102.918 21.7138 103.285 21.4386C103.652 21.1633 104.129 21.0109 104.624 21.0109C105.119 21.0109 105.596 21.1633 105.963 21.4386C106.33 21.7138 106.56 22.0923 106.61 22.5007C106.612 22.7051 106.562 22.9075 106.462 23.0943C106.361 23.281 106.214 23.4476 106.029 23.5828C105.638 23.8565 105.14 24.0029 104.628 23.9946L104.628 23.9963ZM104.628 21.4896C104.46 21.4796 104.291 21.4983 104.133 21.5447C103.974 21.591 103.829 21.664 103.706 21.759C103.582 21.854 103.484 21.9691 103.417 22.097C103.35 22.2249 103.315 22.363 103.315 22.5025C103.315 22.642 103.35 22.78 103.417 22.9079C103.484 23.0359 103.582 23.1509 103.706 23.246C103.829 23.341 103.974 23.414 104.133 23.4603C104.291 23.5066 104.46 23.5254 104.628 23.5153C104.795 23.5254 104.964 23.5066 105.122 23.4603C105.281 23.414 105.427 23.341 105.55 23.246C105.673 23.1509 105.771 23.0359 105.838 22.9079C105.905 22.78 105.94 22.642 105.94 22.5025C105.94 22.363 105.905 22.2249 105.838 22.097C105.771 21.9691 105.673 21.854 105.55 21.759C105.427 21.664 105.281 21.591 105.122 21.5447C104.964 21.4983 104.795 21.4796 104.628 21.4896ZM96.2505 23.9898C95.7294 24.0009 95.2212 23.8546 94.8207 23.5779C94.6358 23.4429 94.4887 23.276 94.3898 23.0888C94.2909 22.9017 94.2426 22.6988 94.2483 22.4946C94.2483 21.6322 95.0905 21.0063 96.2505 21.0063C96.8223 20.995 97.3823 21.1419 97.8424 21.4238L97.5035 21.8369C97.1502 21.6114 96.7143 21.4931 96.2686 21.5018H96.227C96.0605 21.4893 95.8927 21.5056 95.7342 21.5497C95.5758 21.5939 95.4301 21.665 95.3066 21.7584C95.1831 21.8518 95.0843 21.9656 95.0167 22.0924C94.9491 22.2192 94.914 22.3563 94.9137 22.495C94.9152 22.6372 94.9528 22.7776 95.0239 22.9071C95.095 23.0366 95.1981 23.1522 95.3265 23.2465C95.455 23.3408 95.6059 23.4116 95.7694 23.4544C95.933 23.4972 96.1055 23.5111 96.276 23.495C96.6121 23.4978 96.9451 23.4405 97.2523 23.3273V22.5067H97.8654V23.6035C97.3822 23.8568 96.8221 23.9908 96.2505 23.9898ZM39.9704 23.9837C39.4595 23.9915 38.9623 23.8463 38.57 23.5746C38.3835 23.4408 38.2343 23.2749 38.1329 23.0885C38.0314 22.902 37.9801 22.6995 37.9824 22.495C37.9899 22.2874 38.0479 22.0832 38.1529 21.8947C38.2579 21.7062 38.4077 21.5373 38.5934 21.398C38.7791 21.2587 38.9968 21.152 39.2334 21.0843C39.47 21.0166 39.7207 20.9892 39.9704 21.0038C40.2193 20.9899 40.4691 21.0178 40.7047 21.0859C40.9403 21.154 41.1568 21.2609 41.3414 21.4001C41.5259 21.5394 41.6746 21.7082 41.7786 21.8963C41.8825 22.0845 41.9395 22.2881 41.9462 22.495C41.9423 22.7025 41.887 22.9071 41.784 23.0962C41.6809 23.2853 41.5322 23.4548 41.347 23.5943C41.1619 23.7339 40.9442 23.8404 40.7074 23.9074C40.4706 23.9743 40.2198 24.0003 39.9704 23.9837ZM39.9704 21.4848C39.8015 21.4729 39.6315 21.4902 39.4711 21.5356C39.3107 21.581 39.1634 21.6536 39.0385 21.7487C38.9137 21.8438 38.814 21.9594 38.7459 22.0882C38.6777 22.2169 38.6425 22.356 38.6425 22.4966C38.6425 22.6372 38.6777 22.7763 38.7459 22.905C38.814 23.0338 38.9137 23.1493 39.0385 23.2445C39.1634 23.3396 39.3107 23.4122 39.4711 23.4576C39.6315 23.503 39.8015 23.5203 39.9704 23.5084C40.1393 23.5203 40.3094 23.503 40.4698 23.4576C40.6302 23.4122 40.7775 23.3396 40.9023 23.2445C41.0271 23.1493 41.1268 23.0338 41.195 22.905C41.2632 22.7763 41.2984 22.6372 41.2984 22.4966C41.2984 22.356 41.2632 22.2169 41.195 22.0882C41.1268 21.9594 41.0271 21.8438 40.9023 21.7487C40.7775 21.6536 40.6302 21.581 40.4698 21.5356C40.3094 21.4902 40.1393 21.4729 39.9704 21.4848ZM62.9037 23.982C62.384 23.9932 61.8771 23.8474 61.4773 23.5718C61.2929 23.4371 61.1462 23.2706 61.0475 23.084C60.9488 22.8973 60.9004 22.6951 60.9058 22.4913C60.9058 21.6294 61.7461 21.0038 62.9037 21.0038C63.4741 20.9916 64.033 21.1386 64.4906 21.4214L64.1547 21.8345C63.8038 21.6073 63.3682 21.4889 62.9232 21.4998H62.8816C62.7156 21.4876 62.5484 21.5041 62.3906 21.5484C62.2327 21.5927 62.0877 21.6637 61.9647 21.757C61.8418 21.8503 61.7435 21.9638 61.6763 22.0903C61.6091 22.2168 61.5743 22.3535 61.5742 22.4917C61.5754 22.6338 61.6126 22.774 61.6834 22.9034C61.7542 23.0327 61.8571 23.1482 61.9854 23.2424C62.1136 23.3365 62.2643 23.4072 62.4277 23.4498C62.5911 23.4925 62.7634 23.5061 62.9335 23.4897C63.2681 23.4902 63.5991 23.4333 63.906 23.3228V22.5027H64.519V23.5949C64.037 23.8508 63.4759 23.9853 62.9037 23.982ZM44.5331 23.982C44.0137 23.9932 43.5071 23.8474 43.1077 23.5718C42.9233 23.4371 42.7766 23.2706 42.6779 23.084C42.5792 22.8973 42.5308 22.6951 42.5362 22.4913C42.5353 21.6294 43.3755 21.0038 44.5331 21.0038C45.1039 20.9911 45.6631 21.1398 46.1186 21.4255L45.7837 21.8382C45.4323 21.61 44.9974 21.4881 44.5512 21.4929C44.382 21.4788 44.2112 21.494 44.0495 21.5376C43.8878 21.5812 43.7388 21.6522 43.6119 21.7461C43.485 21.8399 43.383 21.9546 43.3124 22.0829C43.2418 22.2112 43.2041 22.3503 43.2017 22.4913C43.2024 22.6335 43.2393 22.774 43.3099 22.9036C43.3805 23.0332 43.4832 23.149 43.6114 23.2435C43.7395 23.338 43.8902 23.409 44.0537 23.4519C44.2172 23.4948 44.3897 23.5087 44.56 23.4926C45.0106 23.5001 45.4509 23.3803 45.8086 23.153L46.147 23.5677C45.6796 23.851 45.1116 23.9968 44.5331 23.982ZM35.7755 23.969C35.1534 23.9802 34.5395 23.8501 34 23.5929L34.2448 23.1498C34.7133 23.3711 35.2423 23.4891 35.7814 23.4926C36.4179 23.4926 36.7974 23.3459 36.7974 23.1006C36.7974 22.8415 36.3078 22.7756 35.7403 22.6977C34.9622 22.5925 34.0803 22.4726 34.0803 21.8337C34.0803 21.3337 34.6762 21.0213 35.635 21.0213C36.1861 21.0188 36.73 21.1255 37.2215 21.3325L36.9713 21.7561C36.5546 21.6008 36.1057 21.5139 35.6492 21.5002C35.0518 21.5002 34.7364 21.6058 34.7364 21.8053C34.7364 22.0307 35.1884 22.0896 35.7114 22.1619C36.488 22.2663 37.4546 22.3967 37.4546 23.1014C37.4536 23.6376 36.8106 23.969 35.7755 23.969ZM99.3564 23.9138H98.7233V21.092H100.921C101.072 21.0783 101.225 21.0915 101.369 21.1308C101.513 21.1701 101.646 21.2346 101.757 21.3199C101.869 21.4052 101.958 21.5094 102.017 21.6254C102.076 21.7414 102.104 21.8666 102.1 21.9925C102.099 22.2133 101.998 22.4256 101.815 22.5866C101.633 22.7476 101.384 22.8453 101.119 22.8601L102.137 23.9142H101.344L100.376 22.8748H99.3569V23.915L99.3564 23.9138ZM99.3564 21.5579V22.4064H100.852C101.234 22.4064 101.472 22.2476 101.472 21.9921C101.476 21.9321 101.465 21.8721 101.439 21.8161C101.412 21.7602 101.371 21.7098 101.319 21.6685C101.266 21.6271 101.203 21.5959 101.134 21.577C101.066 21.5581 100.993 21.552 100.921 21.5591L99.3564 21.5579ZM112.297 23.9138H111.664V21.092H113.782C113.94 21.0813 114.099 21.0984 114.248 21.1422C114.398 21.186 114.535 21.2555 114.649 21.3461C114.764 21.4368 114.855 21.5465 114.915 21.6682C114.975 21.7899 115.004 21.9207 114.999 22.0522C115.006 22.1821 114.978 22.3116 114.917 22.4316C114.856 22.5515 114.765 22.6589 114.649 22.7462C114.533 22.8335 114.395 22.8986 114.245 22.9368C114.095 22.975 113.937 22.9855 113.782 22.9674H112.297V23.9146V23.9138ZM112.297 21.5579V22.4994H113.819C113.89 22.5023 113.961 22.4929 114.027 22.4718C114.093 22.4506 114.153 22.4182 114.204 22.3766C114.254 22.3351 114.293 22.2853 114.319 22.2304C114.345 22.1755 114.356 22.1167 114.353 22.0579C114.36 21.9932 114.35 21.928 114.324 21.8667C114.298 21.8053 114.257 21.7493 114.203 21.7021C114.149 21.6549 114.084 21.6177 114.011 21.5929C113.939 21.5681 113.861 21.5563 113.783 21.5583H112.297V21.5579ZM81.8065 23.9081H81.121L82.7824 21.0912H83.4469L85.1117 23.9065H84.4311L84.0393 23.2208H82.1977L81.806 23.9065L81.8065 23.9081ZM83.1198 21.6237L82.4592 22.7659H83.7725L83.1198 21.6237ZM78.1389 23.9077H77.5053V21.0912H79.6985C79.8489 21.0775 80.0011 21.0907 80.1448 21.1299C80.2886 21.1691 80.4206 21.2333 80.5319 21.3183C80.6432 21.4033 80.7313 21.5071 80.7903 21.6227C80.8492 21.7383 80.8777 21.863 80.8737 21.9884C80.8738 22.2087 80.773 22.4208 80.5917 22.5817C80.4105 22.7426 80.1622 22.8404 79.8973 22.8553L80.9094 23.9061H80.1172L79.1569 22.8695H78.1389V23.9073V23.9077ZM78.1389 21.5571V22.4024H79.6304C80.0114 22.4024 80.2479 22.2439 80.2479 21.9884C80.253 21.9286 80.242 21.8685 80.2157 21.8125C80.1894 21.7566 80.1485 21.7062 80.0959 21.6649C80.0433 21.6237 79.9803 21.5926 79.9115 21.574C79.8428 21.5553 79.7698 21.5495 79.698 21.5571H78.1389ZM69.8823 23.9077H69.2629V21.0912H69.9087L72.1298 23.2135L72.1445 23.2086C72.1078 22.6489 72.1049 22.2338 72.1049 21.8276V21.0912H72.7199V23.9065H72.0833L69.87 21.7849L69.8593 21.7882C69.8838 22.2058 69.8838 22.9328 69.8838 23.1717V23.9073L69.8823 23.9077ZM92.1804 23.9077H88.9692V21.0912H92.0712V21.5571H89.6009V22.2391H91.5209V22.7058H89.6009V23.441H92.1804V23.9065V23.9077ZM88.4718 23.9077H85.5646V21.0912H86.1978V23.441H88.4737V23.9065L88.4718 23.9077ZM76.8389 23.9077H73.6257V21.0912H76.7292V21.5571H74.2564V22.2391H76.1788V22.7058H74.2564V23.441H76.8384V23.9065L76.8389 23.9077ZM68.5871 23.9077H65.3735V21.0912H68.4789V21.5571H66.0047V22.2391H67.929V22.7058H66.0047V23.441H68.5867V23.9065L68.5871 23.9077ZM58.98 23.9077H55.7664V21.0912H58.8703V21.5571H56.399V22.2391H58.3204V22.7058H56.399V23.441H58.9795V23.9065L58.98 23.9077ZM53.2363 23.9077V21.5518H51.8457V21.0912H55.2512V21.5518H53.8665V23.9077H53.2358H53.2363ZM51.5626 23.9077H48.35V21.0912H51.4544V21.5571H48.9836V22.2391H50.907V22.7058H48.9836V23.441H51.5651V23.9065L51.5626 23.9077ZM46.8198 23.9077V21.092H47.4515V23.9065H46.8198V23.9077Z"
        fill="#B7B7B7" />
    <path
        d="M41.6029 1.40502C42.1373 1.35174 42.6769 1.40781 43.1889 1.5698C43.7009 1.73179 44.1745 1.99632 44.581 2.34728C44.9875 2.69823 45.3182 3.12825 45.5531 3.61116C45.788 4.09406 45.9222 4.61974 45.9474 5.15616V5.64949C45.9474 8.21618 44.269 9.69674 41.6029 9.69674H36.2723V13.8429H34V1.40502H41.6029ZM41.7018 7.52506C42.1846 7.55745 42.6611 7.40021 43.0298 7.08679C43.3985 6.77336 43.6304 6.32847 43.6763 5.84671V5.55059C43.7269 5.0273 43.5685 4.50521 43.2357 4.09825C42.9028 3.69129 42.4225 3.4325 41.8996 3.37834H36.1723V7.52449L41.7018 7.52506Z"
        fill="#B7B7B7" />
    <path
        d="M54.2259 14.0387C50.2776 14.0387 47.0198 11.3736 47.0198 7.52189C47.0198 3.67014 50.2782 1.00513 54.2259 1.00513C58.1737 1.00513 61.4321 3.67014 61.4321 7.52189C61.4321 11.3736 58.1737 14.0387 54.2259 14.0387ZM54.2259 3.08134C53.0357 2.99405 51.8592 3.38096 50.9532 4.15768C50.0471 4.9344 49.4849 6.0379 49.3892 7.22749V7.52532C49.3892 10.092 51.2648 11.9676 54.2259 11.9676C57.1871 11.9676 59.0626 10.092 59.0626 7.52532C59.0626 4.95863 57.1871 3.08306 54.2259 3.08306"
        fill="#B7B7B7" />
    <path
        d="M70.6903 14.0396C66.5441 14.0396 63.4841 11.3745 63.4841 7.5228C63.4841 3.67105 66.643 1.00604 70.6903 1.00604C72.7612 0.928843 74.7915 1.594 76.4153 2.88161L75.2309 4.66457C73.9623 3.6672 72.4021 3.11248 70.7886 3.08511C67.7286 3.08511 65.853 4.96068 65.853 7.42962C65.853 9.89856 67.7286 11.8719 70.7886 11.8719C72.4246 11.8964 74.0221 11.3755 75.3292 10.3913L76.5137 12.168C74.8166 13.3867 72.7796 14.0414 70.6903 14.0396Z"
        fill="#B7B7B7" />
    <path
        d="M95.4291 10.6846L94.0468 13.6457H91.5796L97.6007 1.30957H99.9696L105.991 13.6485H103.523L102.141 10.6874L95.4291 10.6846ZM96.4163 8.7101H101.155L98.7858 3.67561L96.4163 8.7101Z"
        fill="#B7B7B7" />
    <path
        d="M118.033 13.7447V8.41414H109.939V13.7447H107.669V1.40576H109.939V6.44025H118.034V1.40576H120.302V13.7447H118.033Z"
        fill="#B7B7B7" />
    <path
        d="M123.759 13.7447V1.40576H126.03V7.1308L132.249 1.40576H135.012L128.695 7.32858L135.306 13.7447H132.246L126.03 7.72359V13.7447H123.759Z"
        fill="#B7B7B7" />
    <path
        d="M86.4764 5.85015H81.1458V3.28346H89.9314V1.30957H78.7769V13.6485H86.3797C89.0448 13.6485 90.9203 12.168 90.9203 9.70019C90.9203 7.23239 89.242 5.85015 86.4781 5.85015H86.4764ZM86.6753 11.5752H81.1475V7.92351H86.6753C88.0575 7.92351 88.9459 8.71296 88.9459 9.79908C88.9459 10.8852 88.2547 11.6747 86.6753 11.5758"
        fill="#B7B7B7" />
</svg>
