<svg width="82" height="118" viewBox="0 0 82 118" fill="none" xmlns="http://www.w3.org/2000/svg">
    <rect y="13.42" width="82" height="104.043" rx="8" fill="#686C78" />
    <rect x="5.29102" y="23.1192" width="70.5376" height="83.7634" rx="6" fill="#E6EDF5" />
    <path
        d="M35.2695 23.1192H69.8287C73.1424 23.1192 75.8287 25.8055 75.8287 29.1192V100.883C75.8287 104.196 73.1424 106.883 69.8287 106.883H35.2695V23.1192Z"
        fill="#CDD1E1" />
    <path d="M15.8711 42.6333L20.7832 47.5454L27.9531 40.3755" stroke="#D95B00" stroke-width="4" />
    <path d="M15.8711 57.6226L20.7832 62.5347L27.9531 55.3648" stroke="#D95B00" stroke-width="4" />
    <path d="M15.8711 72.6118L20.7832 77.5239L27.9531 70.354" stroke="#D95B00" stroke-width="4" />
    <rect x="40.5605" y="40.7536" width="26.4516" height="6.17204" fill="#C2956D" />
    <rect x="40.5605" y="55.7429" width="26.4516" height="6.17204" fill="#C2956D" />
    <rect x="40.5605" y="70.7321" width="26.4516" height="6.17204" fill="#C2956D" />
    <path
        d="M18.5156 5.26651C18.5156 4.35592 19.1314 3.53703 20.0386 3.45813C24.2068 3.09561 27.6843 5.59842 31.3006 5.04363C35.2907 4.43148 39.4624 -0.0205879 43.2038 0.000142461C46.6894 0.0194552 50.0622 4.46956 53.7844 5.04363C57.3716 5.59687 61.2675 3.08837 65.4932 3.45768C66.3978 3.53674 67.0103 4.35309 67.0103 5.26121V15.8279C67.0103 16.9324 66.1148 17.8279 65.0103 17.8279H20.5156C19.4111 17.8279 18.5156 16.9324 18.5156 15.8279V5.26651Z"
        fill="#D2D6E1" />
    <path fill-rule="evenodd" clip-rule="evenodd"
        d="M36.1504 17.8287L65.2472 18.0221C66.2211 18.0221 67.0106 17.2326 67.0106 16.2587V5.07896C67.0106 4.27825 66.4715 3.56051 65.6754 3.47535C63.5029 3.24298 61.4174 3.79021 59.4158 4.3154C57.4594 4.82874 55.5833 5.32101 53.7848 5.04363C52.0086 4.76969 50.312 3.61316 48.6447 2.47664C46.818 1.23143 45.0265 0.0102394 43.2042 0.000142377C41.2192 -0.0108557 39.1132 1.23708 36.9774 2.50265C36.7021 2.66574 36.4264 2.82912 36.1504 2.99014V17.8287Z"
        fill="#CDD1E1" />
    <circle cx="43.2048" cy="7.24794" r="1.76344" fill="#BC9FF6" />
</svg>
