<svg width="161" height="160" viewBox="0 0 161 160" fill="none" xmlns="http://www.w3.org/2000/svg">
<path fill-rule="evenodd" clip-rule="evenodd" d="M128.5 79.2C128.5 106.151 106.652 128 79.7 128C70.426 128 61.7562 125.413 54.3729 120.921L52.048 123.246C60.0576 128.285 69.5384 131.2 79.7 131.2C108.419 131.2 131.7 107.919 131.7 79.2C131.7 69.9111 129.264 61.1911 124.997 53.6437L134.046 56.0685C134.58 56.2114 135.128 55.8949 135.271 55.3614L135.582 54.2023C135.725 53.6688 135.408 53.1205 134.875 52.9775L121.931 49.5094L120.386 49.0952L119.972 50.6407L116.504 63.5841C116.361 64.1176 116.677 64.6659 117.211 64.8089L118.37 65.1195C118.903 65.2624 119.452 64.9458 119.595 64.4123L122.107 55.0357C126.175 62.16 128.5 70.4085 128.5 79.2ZM36.8677 102.604L39.3946 93.1733C39.5375 92.6398 40.0859 92.3232 40.6193 92.4662L41.7784 92.7768C42.3119 92.9197 42.6285 93.468 42.4855 94.0015L39.0174 106.945L38.6033 108.49L37.0578 108.076L24.1144 104.608C23.5809 104.465 23.2643 103.917 23.4073 103.383L23.7178 102.224C23.8608 101.691 24.4091 101.374 24.9426 101.517L33.9453 103.929C29.9619 96.5748 27.7 88.1515 27.7 79.2C27.7 50.4811 50.9812 27.2 79.7 27.2C89.5619 27.2 98.7827 29.9453 106.64 34.7134L104.305 37.0479C97.0812 32.8219 88.6734 30.4 79.7 30.4C52.7485 30.4 30.9 52.2485 30.9 79.2C30.9 87.6803 33.0631 95.6554 36.8677 102.604Z" fill="black"/>
<path fill-rule="evenodd" clip-rule="evenodd" d="M87.9533 63.3553C87.9533 67.4712 84.6167 70.8079 80.5007 70.8079C76.3847 70.8079 73.048 67.4712 73.048 63.3553C73.048 59.2393 76.3847 55.9026 80.5007 55.9026C84.6167 55.9026 87.9533 59.2393 87.9533 63.3553ZM85.6189 72.7C88.9174 70.8896 91.1533 67.3835 91.1533 63.3553C91.1533 57.472 86.384 52.7026 80.5007 52.7026C74.6174 52.7026 69.848 57.472 69.848 63.3553C69.848 67.3833 72.0836 70.8891 75.3817 72.6997C67.7282 74.7788 62.0996 81.7762 62.0996 90.0881C62.0996 93.5086 64.8725 96.2815 68.293 96.2815H92.7062C96.1267 96.2815 98.8996 93.5086 98.8996 90.0881C98.8996 81.7767 93.2718 74.7797 85.6189 72.7ZM80.1168 75.271H80.8825C89.0658 75.271 95.6996 81.9049 95.6996 90.0881C95.6996 91.7413 94.3594 93.0815 92.7062 93.0815H68.293C66.6398 93.0815 65.2996 91.7413 65.2996 90.0881C65.2996 81.9049 71.9335 75.271 80.1168 75.271Z" fill="black"/>
</svg>
