<svg width="259" height="90" viewBox="0 0 259 90" fill="none" xmlns="http://www.w3.org/2000/svg">
    <path
        d="M0.432 1.6H14.836C25.4093 1.6 30.696 5.76 30.696 14.08C30.696 22.3307 25.4093 26.4907 14.836 26.56H10.052V38H0.432V1.6ZM15.304 18.24C18.9787 18.24 20.816 16.8533 20.816 14.08C20.816 11.3067 18.9787 9.92 15.304 9.92H10.052V18.24H15.304ZM38.5439 33.32C35.1466 29.68 33.4479 25.1733 33.4479 19.8C33.4479 14.4267 35.1466 9.92 38.5439 6.28C41.9413 2.64 46.7426 0.819998 52.9479 0.819998C59.1533 0.819998 63.9546 2.64 67.3519 6.28C70.7493 9.92 72.4479 14.4267 72.4479 19.8C72.4479 25.1733 70.7493 29.68 67.3519 33.32C63.9546 36.96 59.1533 38.78 52.9479 38.78C46.7426 38.78 41.9413 36.96 38.5439 33.32ZM60.0199 27.132C61.7186 25.26 62.5679 22.816 62.5679 19.8C62.5679 16.784 61.7186 14.34 60.0199 12.468C58.3559 10.596 55.9986 9.66 52.9479 9.66C49.8973 9.66 47.5226 10.596 45.8239 12.468C44.1599 14.34 43.3279 16.784 43.3279 19.8C43.3279 22.816 44.1599 25.26 45.8239 27.132C47.5226 29.004 49.8973 29.94 52.9479 29.94C55.9986 29.94 58.3559 29.004 60.0199 27.132ZM75.6992 20.32C75.6992 17.0267 76.2538 14.0973 77.3632 11.532C78.4725 8.96667 79.9805 6.92133 81.8872 5.396C83.7938 3.87067 85.8912 2.72667 88.1792 1.964C90.4672 1.20133 92.8765 0.819998 95.4072 0.819998C99.2205 0.819998 102.739 1.58267 105.963 3.108V12.208C103.606 10.232 100.642 9.244 97.0712 9.244C93.8818 9.244 91.1605 10.18 88.9072 12.052C86.6885 13.8893 85.5792 16.6453 85.5792 20.32C85.5792 23.6133 86.6885 26.1093 88.9072 27.808C91.1258 29.472 93.8125 30.304 96.9672 30.304C100.954 30.304 104.039 29.2467 106.223 27.132V36.492C102.999 38.0173 99.4632 38.78 95.6152 38.78C93.0152 38.78 90.5538 38.416 88.2312 37.688C85.9432 36.96 83.8458 35.8853 81.9392 34.464C80.0325 33.008 78.5072 31.0667 77.3632 28.64C76.2538 26.2133 75.6992 23.44 75.6992 20.32ZM121.161 14.496H128.337C130.279 14.496 132.047 14.6867 133.641 15.068C135.236 15.4493 136.692 16.0733 138.009 16.94C139.361 17.8067 140.401 19.0373 141.129 20.632C141.857 22.192 142.221 24.064 142.221 26.248C142.221 28.432 141.857 30.3213 141.129 31.916C140.401 33.476 139.361 34.6893 138.009 35.556C136.692 36.4227 135.236 37.0467 133.641 37.428C132.047 37.8093 130.279 38 128.337 38H111.541V1.6H139.153V10.18H121.161V14.496ZM121.161 29.68H128.233C130.972 29.68 132.341 28.536 132.341 26.248C132.341 23.96 130.972 22.816 128.233 22.816H121.161V29.68ZM152.217 38H142.337L156.637 1.6H167.037L181.337 38H171.457L169.377 32.28H154.297L152.217 38ZM160.901 13.976L157.157 24.48H166.517L162.773 13.976C162.357 12.7973 162.045 11.5667 161.837 10.284C161.629 11.5667 161.317 12.7973 160.901 13.976ZM207.959 1.6H217.579V38H207.959V24.116H194.439V38H184.819V1.6H194.439V15.536H207.959V1.6ZM234.048 38H224.428V1.6H234.048V15.38H238.624L246.892 1.6H257.552L246.112 19.332L258.072 38H247.412L238.572 23.96H234.048V38ZM33.192 89H23.572V74.128C23.572 71.6667 23.6413 69.6733 23.78 68.148L9.532 89H0.432V52.6H10.052V67.472C10.052 69.968 9.98267 71.9787 9.844 73.504L24.092 52.6H33.192V89ZM63.1814 52.6H72.8014V89H63.1814V75.116H49.6614V89H40.0414V52.6H49.6614V66.536H63.1814V52.6ZM79.6507 52.6H96.0828C100.173 52.6 103.311 53.3627 105.495 54.888C107.713 56.4133 108.823 58.7187 108.823 61.804C108.823 65.7907 107.02 68.4253 103.415 69.708C107.991 71.06 110.279 74.0587 110.279 78.704C110.279 80.68 109.845 82.3787 108.979 83.8C108.112 85.1867 106.916 86.244 105.391 86.972C103.9 87.7 102.34 88.22 100.711 88.532C99.1161 88.844 97.3654 89 95.4588 89H79.6507V52.6ZM95.7708 81.46C98.9948 81.46 100.607 80.1947 100.607 77.664C100.607 75.1333 98.9948 73.868 95.7708 73.868H89.2188V81.46H95.7708ZM98.1108 66.016C98.8388 65.392 99.2028 64.56 99.2028 63.52C99.2028 62.48 98.8388 61.6653 98.1108 61.076C97.4174 60.452 96.4468 60.14 95.1988 60.14H89.2708V66.848L95.1988 66.9C96.4468 66.9 97.4174 66.6053 98.1108 66.016ZM115.198 52.6H141.406V60.92H124.818V66.484H139.846V74.752H124.818V80.68H141.718V89H115.198V52.6ZM145.117 71.32C145.117 68.0267 145.672 65.0973 146.781 62.532C147.89 59.9667 149.398 57.9213 151.305 56.396C153.212 54.8707 155.309 53.7267 157.597 52.964C159.885 52.2013 162.294 51.82 164.825 51.82C168.638 51.82 172.157 52.5827 175.381 54.108V63.208C173.024 61.232 170.06 60.244 166.489 60.244C163.3 60.244 160.578 61.18 158.325 63.052C156.106 64.8893 154.997 67.6453 154.997 71.32C154.997 74.6133 156.106 77.1093 158.325 78.808C160.544 80.472 163.23 81.304 166.385 81.304C170.372 81.304 173.457 80.2467 175.641 78.132V87.492C172.417 89.0173 168.881 89.78 165.033 89.78C162.433 89.78 159.972 89.416 157.649 88.688C155.361 87.96 153.264 86.8853 151.357 85.464C149.45 84.008 147.925 82.0667 146.781 79.64C145.672 77.2133 145.117 74.44 145.117 71.32ZM178.203 52.6H208.363V61.18H198.119V89H188.499V61.18H178.203V52.6Z"
        fill="#BDBDBD" />
</svg>
