<svg width="144" height="144" viewBox="0 0 144 144" fill="none" xmlns="http://www.w3.org/2000/svg">
<circle cx="72" cy="72" r="72" fill="#59A365" fill-opacity="0.2"/>
<path d="M46.5 88C46.5 75.5736 56.5736 65.5 69 65.5H79C91.4264 65.5 101.5 75.5736 101.5 88V106.397C101.5 107.778 100.381 108.897 99 108.897H49C47.6193 108.897 46.5 107.778 46.5 106.397V88Z" fill="#A0A4AE" stroke="black" stroke-width="3"/>
<path d="M93.8963 71.6001L100.262 80.2301V108.549L93.2906 108.811L93.8963 71.6001Z" fill="#494949"/>
<path d="M53.9604 70.0227L65.8871 65.899L70.2052 75.573L67.3235 90.2055L64.6509 92.9874L56.1381 80.3172L53.9604 70.0227Z" fill="white"/>
<path d="M94.0062 70.0228L83.3158 65.8654L78.9604 74.7689L80.6432 90.2055L83.3158 92.9874L91.8286 80.3173L94.0062 70.0228Z" fill="white"/>
<path d="M46.5 88C46.5 75.5736 56.5736 65.5 69 65.5H79C91.4264 65.5 101.5 75.5736 101.5 88V106.397C101.5 107.778 100.381 108.897 99 108.897H49C47.6193 108.897 46.5 107.778 46.5 106.397V88Z" stroke="black" stroke-width="3"/>
<path d="M70.0668 76.5143H77.768L80.6691 92.0749L77.768 99.9871H70.0668L66.8492 92.7079L70.0668 76.5143Z" fill="#D33C3C"/>
<path d="M73.6236 76.5142L77.7679 76.5142L80.6691 92.0748L77.7679 99.987L70.8713 99.178L76.9453 92.8667L73.6236 76.5142Z" fill="#A01818"/>
<path fill-rule="evenodd" clip-rule="evenodd" d="M54.0009 71.0359C52.5334 71.3462 52.5334 71.3464 52.5334 71.3467L52.5336 71.3474L52.534 71.3494L52.5355 71.3563L52.5408 71.3811L52.5609 71.4733C52.5784 71.5533 52.6043 71.6697 52.6384 71.8191C52.7065 72.1177 52.8075 72.5483 52.9401 73.0823C53.2052 74.1495 53.5979 75.6339 54.1093 77.3066C55.1221 80.6194 56.6375 84.7961 58.6084 87.9118C60.5707 91.0137 64.1804 94.8344 67.208 97.8109C68.7387 99.3157 70.1507 100.634 71.1801 101.576C71.695 102.047 72.1149 102.424 72.4067 102.685C72.5527 102.815 72.6666 102.916 72.7446 102.985L72.8339 103.064L72.8573 103.084L72.8635 103.09L72.8652 103.091L72.8657 103.092C72.8659 103.092 72.866 103.092 73.8536 101.963C74.8412 103.092 74.8414 103.092 74.8415 103.092L74.842 103.091L74.8438 103.09L74.85 103.084L74.8734 103.064L74.9627 102.985C75.0406 102.916 75.1546 102.815 75.3005 102.685C75.5924 102.424 76.0122 102.047 76.5272 101.576C77.5565 100.634 78.9686 99.3157 80.4993 97.8109C83.5269 94.8344 87.1366 91.0137 89.0989 87.9118C91.0899 84.7644 92.4304 80.5561 93.2694 77.2356C93.6937 75.5563 93.9989 74.0663 94.1982 72.9951C94.2979 72.459 94.3714 72.0264 94.4202 71.7261C94.4446 71.5758 94.4628 71.4586 94.4751 71.3778L94.4892 71.2845L94.4929 71.2591L94.4939 71.252L94.4942 71.2498L94.4943 71.249C94.4944 71.2487 94.4944 71.2485 93.0095 71.036C91.5291 70.8241 91.5247 70.8233 91.5247 70.8232L91.5246 70.8237L91.5241 70.8276L91.5213 70.8463L91.5094 70.926C91.4985 70.9974 91.4818 71.1049 91.459 71.2449C91.4135 71.525 91.3439 71.9349 91.2488 72.4464C91.0583 73.4703 90.7662 74.8963 90.3609 76.5006C89.5405 79.7472 88.2919 83.5758 86.5636 86.3079C84.8065 89.0855 81.4274 92.6914 78.3961 95.6716C76.8972 97.1451 75.5123 98.4379 74.502 99.3624C74.2637 99.5804 74.0465 99.7778 73.8536 99.952C73.6608 99.7778 73.4435 99.5804 73.2053 99.3624C72.195 98.4379 70.81 97.1451 69.3112 95.6716C66.2799 92.6914 62.9007 89.0855 61.1437 86.3079C59.3953 83.5441 57.9731 79.6839 56.9782 76.4295C56.4857 74.8187 56.107 73.387 55.8516 72.359C55.724 71.8454 55.6275 71.4336 55.5632 71.1518C55.5311 71.0109 55.507 70.9026 55.4912 70.8304L55.4736 70.7495L55.4694 70.7303L55.4686 70.7261L55.4684 70.7254C55.4684 70.7253 55.4684 70.7253 55.4684 70.7253L55.4684 70.7253C55.4684 70.7254 55.4684 70.7256 54.0009 71.0359Z" fill="black"/>
<path d="M67.2631 66.8636H81.4839L79.5078 74.0754H68.9258L67.2631 66.8636Z" fill="#D33C3C"/>
<path d="M77.23 66.8636L82.3802 66.8636L79.5078 74.0755H73.4812L77.23 66.8636Z" fill="#A01818"/>
<path fill-rule="evenodd" clip-rule="evenodd" d="M83.3862 66.6098L79.0009 75.6161L83.4605 94.6464L80.5396 95.3308L76.2297 76.939H73.8903V76.939H71.8964L67.4775 95.3932L64.5599 94.6946L69.1431 75.5543L65.5327 66.5582L68.3169 65.4408L71.7274 73.939H74.2416V73.939H76.4808L80.6889 65.2965L83.3862 66.6098Z" fill="black"/>
<circle cx="91.0896" cy="103.092" r="17.6083" fill="#62B194"/>
<path fill-rule="evenodd" clip-rule="evenodd" d="M86.534 116.006C96.2588 116.006 104.142 108.122 104.142 98.3976C104.142 94.812 103.071 91.4768 101.23 88.6947C105.747 91.8824 108.698 97.1425 108.698 103.092C108.698 112.816 100.814 120.7 91.0896 120.7C84.9504 120.7 79.545 117.558 76.3936 112.795C79.2604 114.818 82.7585 116.006 86.534 116.006Z" fill="#348567"/>
<path d="M84.1691 102.398L90.1252 107.442C90.5575 107.809 91.2073 107.743 91.5575 107.298L99.6773 96.9735" stroke="white" stroke-width="4" stroke-linecap="round" stroke-linejoin="round"/>
<circle cx="74.2142" cy="46.3658" r="18.4139" fill="#FFCFAC" stroke="black" stroke-width="3"/>
<path fill-rule="evenodd" clip-rule="evenodd" d="M77.0276 60.3654C85.5541 53.4187 86.8348 40.8751 79.888 32.3485C78.3487 30.4592 76.5346 28.9256 74.5503 27.7584C78.9965 27.5081 83.1012 29.0862 87.0106 33.8846C93.9573 42.4111 92.6767 54.9547 84.1501 61.9015C78.5623 66.454 74.0065 66.5851 69.036 64.3099C71.8765 63.64 74.6131 62.3326 77.0276 60.3654Z" fill="#F4A56B"/>
<circle cx="74.2142" cy="46.3658" r="18.4139" stroke="black" stroke-width="3"/>
</svg>
