<svg width="161" height="161" viewBox="0 0 161 161" fill="none" xmlns="http://www.w3.org/2000/svg">
<path fill-rule="evenodd" clip-rule="evenodd" d="M45.0293 55.0971C45.0293 48.7251 50.1948 43.5596 56.5668 43.5596H103.604C110.466 43.5596 116.029 49.1224 116.029 55.9846V112.785C116.029 119.647 110.466 125.21 103.604 125.21H57.4543C50.5922 125.21 45.0293 119.647 45.0293 112.785V71.9596C45.0293 70.9793 45.824 70.1846 46.8043 70.1846C47.7846 70.1846 48.5793 70.9793 48.5793 71.9596V112.785C48.5793 117.686 52.5528 121.66 57.4543 121.66H103.604C108.506 121.66 112.479 117.686 112.479 112.785V55.9846C112.479 51.083 108.506 47.1096 103.604 47.1096H56.5668C52.1554 47.1096 48.5793 50.6857 48.5793 55.0971C48.5793 56.0774 47.7846 56.8721 46.8043 56.8721C45.824 56.8721 45.0293 56.0774 45.0293 55.0971ZM46.8043 60.4221C47.7846 60.4221 48.5793 61.2168 48.5793 62.1971V64.8596C48.5793 65.8399 47.7846 66.6346 46.8043 66.6346C45.824 66.6346 45.0293 65.8399 45.0293 64.8596V62.1971C45.0293 61.2168 45.824 60.4221 46.8043 60.4221Z" fill="white"/>
<path fill-rule="evenodd" clip-rule="evenodd" d="M66.329 103.909V59.5345C66.329 58.5542 65.5343 57.7595 64.554 57.7595C63.5737 57.7595 62.779 58.5542 62.779 59.5345V103.909C62.779 104.89 63.5737 105.684 64.554 105.684C65.5343 105.684 66.329 104.89 66.329 103.909ZM64.554 54.2095C61.6131 54.2095 59.229 56.5936 59.229 59.5345V103.909C59.229 106.85 61.6131 109.234 64.554 109.234C67.4949 109.234 69.879 106.85 69.879 103.909V59.5345C69.879 56.5936 67.4949 54.2095 64.554 54.2095Z" fill="white"/>
<path fill-rule="evenodd" clip-rule="evenodd" d="M82.3046 103.909V59.5345C82.3046 58.5542 81.5099 57.7595 80.5296 57.7595C79.5493 57.7595 78.7546 58.5542 78.7546 59.5345V103.909C78.7546 104.89 79.5493 105.684 80.5296 105.684C81.5099 105.684 82.3046 104.89 82.3046 103.909ZM80.5296 54.2095C77.5887 54.2095 75.2046 56.5936 75.2046 59.5345V103.909C75.2046 106.85 77.5887 109.234 80.5296 109.234C83.4705 109.234 85.8546 106.85 85.8546 103.909V59.5345C85.8546 56.5936 83.4705 54.2095 80.5296 54.2095Z" fill="white"/>
<path fill-rule="evenodd" clip-rule="evenodd" d="M98.2792 103.909V59.5345C98.2792 58.5542 97.4845 57.7595 96.5042 57.7595C95.5239 57.7595 94.7292 58.5542 94.7292 59.5345V103.909C94.7292 104.89 95.5239 105.684 96.5042 105.684C97.4845 105.684 98.2792 104.89 98.2792 103.909ZM96.5042 54.2095C93.5633 54.2095 91.1792 56.5936 91.1792 59.5345V103.909C91.1792 106.85 93.5633 109.234 96.5042 109.234C99.4451 109.234 101.829 106.85 101.829 103.909V59.5345C101.829 56.5936 99.4451 54.2095 96.5042 54.2095Z" fill="white"/>
<path fill-rule="evenodd" clip-rule="evenodd" d="M62.7787 132.309C64.7393 132.309 66.3287 130.72 66.3287 128.759C66.3287 126.799 64.7393 125.209 62.7787 125.209C60.8181 125.209 59.2287 126.799 59.2287 128.759C59.2287 130.72 60.8181 132.309 62.7787 132.309ZM62.7787 135.859C66.6999 135.859 69.8787 132.68 69.8787 128.759C69.8787 124.838 66.6999 121.659 62.7787 121.659C58.8575 121.659 55.6787 124.838 55.6787 128.759C55.6787 132.68 58.8575 135.859 62.7787 135.859Z" fill="white"/>
<path fill-rule="evenodd" clip-rule="evenodd" d="M98.2792 132.309C100.24 132.309 101.829 130.72 101.829 128.759C101.829 126.799 100.24 125.209 98.2792 125.209C96.3186 125.209 94.7292 126.799 94.7292 128.759C94.7292 130.72 96.3186 132.309 98.2792 132.309ZM98.2792 135.859C102.2 135.859 105.379 132.68 105.379 128.759C105.379 124.838 102.2 121.659 98.2792 121.659C94.358 121.659 91.1792 124.838 91.1792 128.759C91.1792 132.68 94.358 135.859 98.2792 135.859Z" fill="white"/>
<path d="M62.5654 28.9991C62.5654 26.8805 64.1847 25.1631 66.1822 25.1631H95.1167C97.1142 25.1631 98.7335 26.8805 98.7335 28.9991V28.9991C98.7335 31.1177 97.1142 32.8351 95.1167 32.8351H66.1822C64.1847 32.8351 62.5654 31.1177 62.5654 28.9991V28.9991Z" stroke="#DE1616" stroke-width="3"/>
<path fill-rule="evenodd" clip-rule="evenodd" d="M100.053 47.109H85.853V41.784C85.853 38.8431 88.2371 36.459 91.178 36.459H94.728C97.6689 36.459 100.053 38.8431 100.053 41.784V47.109ZM96.503 41.784C96.503 40.8037 95.7083 40.009 94.728 40.009H91.178C90.1977 40.009 89.403 40.8037 89.403 41.784V43.559H96.503V41.784Z" fill="white"/>
<path fill-rule="evenodd" clip-rule="evenodd" d="M75.2039 47.109H61.0039V41.784C61.0039 38.8431 63.388 36.459 66.3289 36.459H69.8789C72.8198 36.459 75.2039 38.8431 75.2039 41.784V47.109ZM71.6539 41.784C71.6539 40.8037 70.8592 40.009 69.8789 40.009H66.3289C65.3486 40.009 64.5539 40.8037 64.5539 41.784V43.559H71.6539V41.784Z" fill="white"/>
<rect x="66.0293" y="33.8594" width="4" height="6" fill="white"/>
<rect x="91.0293" y="32.8594" width="4" height="6" fill="white"/>
</svg>
