<svg width="100" height="100" viewBox="0 0 100 100" fill="none" xmlns="http://www.w3.org/2000/svg">
<defs>
<radialGradient id="paint0_radial_427_2446" cx="0" cy="0" r="1" gradientUnits="userSpaceOnUse" gradientTransform="translate(70.5 10.5) rotate(107.776) scale(68.7841 46.297)">
<stop stop-color="#4DC89B"/>
<stop offset="1" stop-color="#DCFFF2"/>
</radialGradient>
</defs>
<path d="M58 24H41C36.0294 24 32 28.0294 32 33V37V46.75V50V71.0855C32 72.8793 34.1791 73.7661 35.4317 72.4821L48.0683 59.5277C48.8532 58.7231 50.1468 58.7231 50.9317 59.5277L63.5683 72.4821C64.8209 73.7661 67 72.8793 67 71.0855V33C67 28.0294 62.9706 24 58 24Z" fill="url(#paint0_radial_427_2446)"/>
<path fill-rule="evenodd" clip-rule="evenodd" d="M31 32C31 27.0294 35.0294 23 40 23H59C63.9706 23 68 27.0294 68 32V68.6283C68 72.2159 63.6418 73.9895 61.1367 71.4214L50.2158 60.2259C49.8234 59.8236 49.1766 59.8236 48.7842 60.2259L37.8633 71.4214C35.3582 73.9895 31 72.2159 31 68.6283V46.75C31 46.1977 31.4477 45.75 32 45.75C32.5523 45.75 33 46.1977 33 46.75V68.6283C33 70.4221 35.1791 71.3089 36.4317 70.0248L47.3525 58.8294C48.5298 57.6225 50.4702 57.6225 51.6475 58.8294L62.5683 70.0248C63.8209 71.3089 66 70.4221 66 68.6283V32C66 28.134 62.866 25 59 25H40C36.134 25 33 28.134 33 32V37C33 37.5523 32.5523 38 32 38C31.4477 38 31 37.5523 31 37V32Z" fill="#77CBAC"/>
<path d="M58 35C58 34.4477 58.4477 34 59 34C59.5523 34 60 34.4477 60 35V45C60 45.5523 59.5523 46 59 46C58.4477 46 58 45.5523 58 45V35Z" fill="white"/>
<rect x="58" y="48" width="2" height="3" rx="1" fill="white"/>
<rect x="31" y="40" width="2" height="3" rx="1" fill="#77CBAC"/>
</svg>
